<svg width="57" height="57" viewBox="0 0 57 57" fill="none" xmlns="http://www.w3.org/2000/svg">
<mask id="mask0_76_6486" style="mask-type:alpha" maskUnits="userSpaceOnUse" x="0" y="0" width="57" height="57">
<circle cx="28.4" cy="28.4" r="27.8428" fill="#D9D9D9" stroke="white" stroke-width="1.11432"/>
</mask>
<g mask="url(#mask0_76_6486)">
<circle cx="28.4" cy="28.4" r="28.4" fill="#EFEFEF"/>
<g clip-path="url(#clip0_76_6486)">
<path d="M48.2051 57.3011C47.6954 63.5253 43.0558 70.2257 42.6175 70.8465C42.6398 71.2552 42.6722 71.7194 42.7102 72.2179C47.0607 67.8906 48.1031 61.7369 48.2051 57.3011ZM10.1912 95.9914C10.1912 95.9914 10.1921 95.9914 10.1912 95.9905C10.1847 95.921 10.0337 94.8081 8.25271 94.2892C6.43653 93.7592 3.60661 96.1823 3.54082 96.2388C3.38052 95.4864 2.98207 95.4271 2.90053 94.7331C2.80045 93.8583 2.90053 91.4713 2.90053 90.8329C2.90053 90.1945 2.5308 88.6803 2.59752 87.6045C2.66516 86.5287 2.66516 85.351 2.4298 84.3762C2.19444 83.4014 2.4298 79.1973 2.4298 79.1973C2.4298 79.1973 2.52988 75.5992 2.56416 74.3223C2.59752 73.0435 3.00153 70.2868 3.40461 69.3787C3.80769 68.4697 4.48042 63.3918 4.48042 63.3918C4.48042 63.3918 5.25415 58.6512 5.42187 57.3391C5.59052 56.027 6.16225 52.3622 7.03605 50.8147C7.91079 49.2682 8.44916 48.5278 9.92898 47.654C11.4088 46.7793 16.0827 44.7954 16.0827 44.7954C17.784 43.6936 20.7436 42.6252 20.7899 42.6095C20.7696 42.6595 20.0987 44.2589 20.0987 45.1744V47.3371C20.0987 47.3371 20.1061 47.3334 20.1228 47.3251C20.2581 47.2639 20.9818 46.922 22.5033 46.0704C24.4687 44.9705 26.9752 45.7164 27.975 47.7346C28.0019 47.7884 28.1103 48.1609 28.1362 48.2165C28.1344 48.4139 28.0982 48.601 28.013 48.765C28.0121 48.7669 28.0111 48.7678 28.0111 48.7678C27.8184 48.993 27.6025 49.1996 27.3644 49.3794C27.0827 49.5934 26.7843 49.9113 26.7046 50.3283C26.548 51.1669 26.2329 55.572 26.2329 57.6171V66.9686H28.5847V48.0497L28.5541 48.0265C29.5762 46.6903 31.763 44.1032 32.7119 45.0891C32.723 45.1012 32.7332 45.1132 32.7443 45.1262C33.7822 46.315 34.795 47.8977 34.795 47.8977C34.795 47.8977 35.1628 46.8182 35.1628 45.9138C35.1628 45.0094 36.2099 43.3962 36.1237 43.0848C36.0394 42.7744 35.3945 42.1221 35.3945 42.1221C36.6575 42.1619 39.2242 43.8586 39.2242 43.8586C39.2242 43.8586 42.2636 45.596 44.1983 46.5828C46.1331 47.5697 47.7112 49.2673 48.7379 50.7666C49.7646 52.2677 50.909 59.2544 50.909 59.2544C50.909 59.2544 52.9216 67.5829 53.5146 71.2542C54.1067 74.9255 53.5934 81.4786 53.1588 82.3469C52.7252 83.216 52.5667 85.5039 52.449 86.7289C52.3304 87.952 52.2127 91.2295 51.8958 92.5314C51.7865 92.9836 51.7151 93.5257 51.6512 94.1326C51.5511 93.7527 51.1462 93.1198 49.8554 92.1645C47.6519 90.5336 44.6051 93.3135 44.1826 93.7166C44.2882 92.3275 44.418 90.4039 44.455 88.9648C44.519 86.4379 44.455 85.5938 44.455 83.1391C44.455 80.6845 43.092 76.3924 43.0484 76.2571C43.2115 78.1502 43.3523 79.9126 43.3523 80.7985C43.3523 82.8723 42.9641 87.409 42.9641 87.409C42.9641 87.409 43.8666 93.0846 44.038 95.5114C44.0566 95.7672 44.0658 95.9868 44.0658 96.1591C44.0658 97.9735 44.1983 98.8473 44.1983 98.8473L44.4828 99.4635L44.5069 99.4792C44.4226 99.6127 44.3197 99.7711 44.1983 99.9555C43.6646 100.767 42.0662 102.438 41.8206 104.184C41.5741 105.929 41.7956 106.593 41.5 107.453C41.2063 108.313 40.2722 110.403 40.2722 110.992C40.2722 111.58 41.2545 111.778 41.7224 111.484C42.1885 111.189 43.4672 109.149 43.6646 107.919C43.7137 107.614 43.7573 107.231 43.8018 106.828C43.748 107.311 44.6468 107.133 44.6468 107.133L44.6663 107.131C44.7126 107.667 44.6737 108.409 44.3401 109.247C43.6646 110.943 43.0002 112.861 42.3609 113.402C41.7215 113.943 41.2786 114.384 41.5982 115.147C41.5982 115.147 41.765 115.318 41.9856 115.377C41.9856 115.377 41.7298 116.435 42.9048 116.122L44.3225 114.874C44.5366 114.748 44.7552 114.581 44.9721 114.393C44.9943 114.801 45.1092 116.903 45.2241 120.355C45.3539 124.219 45.2241 132.657 45.2241 132.657C45.2241 132.657 44.6626 133.138 43.0021 133.598C42.5591 133.721 42.0365 133.843 41.425 133.953C38.5265 134.477 35.6929 134.331 32.988 133.59C32.446 133.441 31.7936 133.328 31.081 133.246C29.6179 133.079 27.9009 133.045 26.3469 133.119C24.8875 133.189 23.5717 133.353 22.747 133.59C22.2735 133.726 21.7592 133.809 21.2394 133.859C19.4204 134.033 17.5254 133.797 17.0584 133.953C16.4561 134.155 11.6701 134.203 9.73716 133.953C9.07 133.868 8.54923 133.616 8.14708 133.27C7.38539 132.613 7.05273 131.61 6.96841 130.725C6.83961 129.372 5.48674 128.149 5.4228 126.475C5.35886 124.799 5.67947 123.769 5.91484 121.644C6.1502 119.519 6.0668 119.197 5.938 117.393C5.82959 115.874 6.13167 113.168 6.22896 112.353C6.41336 112.547 6.58108 112.696 6.69784 112.792C7.10092 113.129 9.75755 115.954 10.3293 115.18C10.3293 115.18 10.7333 115.046 10.4979 114.305L10.4951 114.3C10.6656 114.201 10.7917 114.003 10.7666 113.633C10.7666 113.633 9.97716 112.427 9.43231 111.412L9.53331 106.966C9.59817 107.311 9.65377 107.705 9.68991 108.152C9.89191 110.64 11.9092 110.775 12.3799 110.473C12.8516 110.17 11.7081 107.244 11.7081 106.538C11.7081 105.832 11.6738 104.251 11.6405 103.814C11.6062 103.377 11.0687 100.721 9.89099 100.056C9.89099 100.056 10.2042 98.573 10.2042 96.6289C10.2042 96.4186 10.1986 96.2064 10.1857 95.9923L10.1912 95.9914ZM12.5634 72.8286C12.594 74.1777 12.5763 74.7615 12.4985 75.2489C12.2205 76.991 10.8139 82.9566 10.8139 83.962C10.8139 84.9674 9.67415 89.9943 9.67415 91.2675C9.67415 91.6122 9.71307 92.0208 9.77052 92.473C9.86041 93.18 9.99477 93.9908 10.0911 94.8239C10.1013 94.7636 10.4785 92.3229 10.4785 90.9997C10.4785 89.6765 11.886 85.3695 12.0862 83.3597C12.2882 81.3489 12.8905 77.9982 12.9581 76.3219C13.0258 74.6466 12.5634 72.8295 12.5634 72.8295V72.8286Z" fill="white"/>
<path d="M37.4496 22.5839C37.8842 23.6106 37.5673 24.4779 37.3709 25.4657C37.1735 26.4526 36.9363 27.558 36.9363 27.558C36.0615 27.0159 35.3962 28.9822 35.3962 28.9822V25.26C35.3962 24.3871 35.0284 23.6977 35.0738 22.9166C35.1201 22.1354 35.0738 21.5841 35.0738 20.8029C35.0738 20.0218 34.0174 19.93 33.7413 19.5223C33.4661 19.1137 31.812 19.0581 31.674 19.0118C31.5368 18.9654 29.9291 19.0572 29.5603 19.3787C29.1934 19.7002 28.0537 19.3787 28.0537 19.3787C28.0537 19.3787 26.344 19.5158 25.7473 19.2406C25.1496 18.9654 23.4502 18.7356 22.4846 19.7456C21.52 20.7566 21.6581 21.3079 21.6118 22.5941C21.5654 23.8802 21.3366 23.8348 21.2448 24.8912C21.1522 25.9475 21.1985 26.1319 21.015 27.1429C20.9631 27.4255 20.9474 27.7146 20.9501 28C20.8862 26.0096 19.639 26.7787 19.639 26.7787C19.639 26.7787 19.5361 25.3406 19.639 23.3372C19.7409 21.3348 19.5871 19.0748 20.6657 17.9443C21.7452 16.8147 23.5419 14.8633 23.5419 14.8633C26.4191 12.9628 31.1894 13.5595 31.1894 13.5595C33.1788 13.9107 34.212 14.6881 35.1599 15.4387C36.1079 16.1883 36.3831 17.2938 36.3831 17.9647C36.3831 18.6355 36.8964 19.4649 37.0938 20.2145C37.2912 20.9642 37.015 21.5563 37.4496 22.583V22.5839Z" fill="#285642"/>
<path d="M36.9365 27.5569C37.3313 27.7932 37.2525 27.9915 37.2525 28.7013C37.2525 29.4111 37.095 30.4776 36.5029 31.7017C35.9108 32.9248 34.4495 32.6885 34.4495 32.6885C34.5894 31.9704 35.0536 31.3755 35.2436 30.5202C35.4613 29.5334 35.3974 28.9802 35.3974 28.9802C35.3974 28.9802 36.0627 27.0139 36.9375 27.556L36.9365 27.5569Z" fill="white"/>
<path d="M36.1266 43.0872C36.2119 43.3985 35.1657 45.0109 35.1657 45.9162C35.1657 46.8215 34.7978 47.9001 34.7978 47.9001C34.7978 47.9001 33.785 46.3174 32.7472 45.1285C32.7361 45.1156 32.7259 45.1035 32.7148 45.0915C32.2821 44.5994 31.8475 44.1797 31.4805 43.973C31.2276 43.8322 30.9134 43.8665 30.692 44.0537C30.2388 44.4336 29.3261 45.3306 29.0435 46.5676H29.0426C29.0398 46.411 29.0213 46.2618 28.9981 46.1302C28.9323 45.7642 29.0277 45.3871 29.264 45.0998C29.8052 44.4401 30.8328 43.266 32.005 42.307C33.7359 40.892 33.7415 39.2417 33.7415 39.2417C33.9778 40.5835 35.3992 42.1235 35.3992 42.1235C35.3992 42.1235 36.0441 42.7758 36.1285 43.0863L36.1266 43.0872Z" fill="#285642"/>
<path d="M35.3974 28.9812C35.3974 28.9812 35.4613 29.5344 35.2436 30.5213C35.0536 31.3766 34.5903 31.9714 34.4495 32.6896C34.3763 33.2558 34.1798 33.9146 34.0038 34.4641C33.3783 35.4185 30.9765 37.066 29.7904 37.5886C28.6052 38.1094 27.3015 37.9204 25.7596 37.9204C24.2177 37.9204 22.3107 36.0245 22.3107 36.0245C21.5406 35.3564 21.1811 32.3782 21.1811 32.3782C21.1811 32.3782 20.9244 30.727 21.0162 29.9931C21.082 29.4631 20.9578 28.7412 20.9513 28.0018C20.9495 27.7164 20.9652 27.4273 21.0162 27.1447C21.1997 26.1337 21.1533 25.9493 21.246 24.893C21.3377 23.8366 21.5675 23.882 21.6129 22.5959C21.6583 21.3097 21.5212 20.7584 22.4858 19.7474C23.4513 18.7365 25.1508 18.9663 25.7485 19.2424C26.3452 19.5176 28.0548 19.3805 28.0548 19.3805C28.0548 19.3805 29.1946 19.702 29.5615 19.3805C29.9294 19.0589 31.538 18.9663 31.6751 19.0135C31.8132 19.0589 33.4672 19.1145 33.7424 19.5241C34.0177 19.9318 35.0749 20.0235 35.0749 20.8047C35.0749 21.5858 35.1213 22.1372 35.0749 22.9183C35.0295 23.6995 35.3974 24.3889 35.3974 25.2618V28.984V28.9812Z" fill="white"/>
<path d="M34.0036 34.4639C33.897 34.7947 33.7988 35.0866 33.7395 35.295C33.582 35.8473 33.5032 37.9007 33.7395 39.2425C33.7395 39.2425 33.7339 40.8919 32.003 42.3077C30.8317 43.2668 29.8041 44.4418 29.262 45.1006C29.0257 45.3878 28.9303 45.765 28.9961 46.131C29.0193 46.2626 29.0378 46.4118 29.0406 46.5684C29.0471 46.8547 29.0044 47.167 28.8552 47.4468C28.7459 47.6516 28.6301 47.8592 28.518 48.0528C28.4939 48.0945 28.4688 48.1362 28.4429 48.1788C28.1909 48.5134 28.0315 48.7413 28.012 48.7691C28.0973 48.6051 28.1334 48.4188 28.1353 48.2205C28.139 47.9453 28.0787 47.6451 27.9953 47.3458C27.6451 46.0967 26.7907 45.0552 25.6704 44.4001L25.5917 44.3537C23.5012 43.1139 22.7729 41.9538 22.5894 41.7008C22.3707 41.3997 22.4115 39.8262 22.4115 39.8262L22.3096 36.0262C22.3096 36.0262 24.2166 37.922 25.7585 37.922C27.3004 37.922 28.6041 38.1111 29.7893 37.5903C30.9754 37.0686 33.3772 35.4201 34.0026 34.4657L34.0036 34.4639Z" fill="white"/>
<path d="M32.714 45.0915C31.7651 44.1056 29.5783 46.6927 28.5562 48.0289C28.5173 48.0808 28.4793 48.1299 28.4441 48.1781C28.47 48.1364 28.4951 48.0947 28.5191 48.0521C28.6313 47.8584 28.7471 47.6509 28.8564 47.4461C29.0056 47.1662 29.0482 46.854 29.0418 46.5676H29.0427C29.3262 45.3306 30.239 44.4336 30.6912 44.0537C30.9135 43.8665 31.2267 43.8313 31.4797 43.9731C31.8457 44.1797 32.2812 44.5995 32.714 45.0915Z" fill="#285642"/>
<path d="M28.5866 48.0514V66.9703H26.2349V57.6188C26.2349 55.5738 26.549 51.1686 26.7065 50.33C26.7853 49.913 27.0846 49.5961 27.3663 49.3811C27.6035 49.2014 27.8203 48.9947 28.0131 48.7696C28.0131 48.7696 28.014 48.7686 28.0149 48.7668C28.1734 48.5815 28.3179 48.3841 28.4458 48.1765C28.481 48.1283 28.519 48.0792 28.5579 48.0273L28.5885 48.0505L28.5866 48.0514Z" fill="white"/>
<path d="M27.9971 47.3447C28.0805 47.644 28.1416 47.9433 28.137 48.2195C28.111 48.1639 28.0026 47.7914 27.9758 47.7376C26.9769 45.7194 24.4694 44.9735 22.504 46.0734C20.9825 46.925 20.2588 47.2669 20.1235 47.3281C20.3098 47.2345 21.5357 46.6034 22.4095 45.6694C23.3575 44.6566 23.6947 43.4733 25.5934 44.3527L25.6722 44.399C26.7925 45.0541 27.6459 46.0956 27.9971 47.3447Z" fill="#285642"/>
<path d="M25.5936 44.3512C23.6958 43.4718 23.3576 44.6551 22.4097 45.6679C21.5359 46.602 20.31 47.233 20.1237 47.3266C20.107 47.334 20.0996 47.3386 20.0996 47.3386V45.1759C20.0996 44.2604 20.7705 42.6601 20.7909 42.611H20.7918L21.1615 41.5343C21.8 39.4494 22.4125 39.8246 22.4125 39.8246C22.4125 39.8246 22.3717 41.398 22.5904 41.6992C22.7748 41.9522 23.5031 43.1123 25.5926 44.3521L25.5936 44.3512Z" fill="#285642"/>
<path d="M20.9515 28.0007C20.958 28.7411 21.0831 29.463 21.0164 29.9921C20.9237 30.7259 21.1813 32.3772 21.1813 32.3772C20.1018 32.2743 19.8451 31.761 19.3318 29.5519C18.8184 27.3438 19.6404 26.7795 19.6404 26.7795C19.6404 26.7795 20.8867 26.0104 20.9515 28.0007Z" fill="white"/>
<path d="M20.7904 42.6079C20.745 42.6237 17.7854 43.6921 16.0832 44.7938C16.0832 44.7938 11.4084 46.7777 9.92947 47.6525C8.44965 48.5263 7.91128 49.2666 7.03654 50.8132C6.16274 52.3606 5.59101 56.0254 5.42236 57.3375C5.25372 58.6496 4.48091 63.3903 4.48091 63.3903C4.48091 63.3903 3.80818 68.4682 3.4051 69.3772C3.00202 70.2853 2.59801 73.042 2.56465 74.3207C2.53036 75.5985 2.43029 79.1957 2.43029 79.1957C2.43029 79.1957 2.19493 83.3998 2.43029 84.3746C2.66473 85.3494 2.66473 86.5271 2.59801 87.603C2.53036 88.6788 2.90101 90.192 2.90101 90.8313C2.90101 91.4707 2.80094 93.8577 2.90101 94.7315C2.98163 95.4255 3.38008 95.4839 3.54131 96.2373C3.58208 96.4318 3.6071 96.6737 3.6071 96.9841C3.6071 98.4973 3.53946 101.222 3.53946 101.222C3.53946 101.222 3.67382 102.534 4.58284 102.499C4.58284 102.499 4.54855 103.105 4.5152 103.811C4.48091 104.518 4.04354 104.887 4.01111 105.695C3.97683 106.501 3.91011 107.006 4.01111 107.309C4.11119 107.613 5.05356 108.991 5.15457 110.235C5.22592 111.122 5.77633 111.872 6.23223 112.351C6.41663 112.545 6.58435 112.694 6.7011 112.79C7.10419 113.128 9.76082 115.952 10.3325 115.178C10.3325 115.178 10.7366 115.044 10.5012 114.304" stroke="#285642" stroke-width="0.194591" stroke-miterlimit="10"/>
<path d="M44.0384 95.5117C44.057 95.7665 44.0662 95.9861 44.0662 96.1584C44.0662 97.9728 44.1987 98.8466 44.1987 98.8466C44.1987 98.8466 44.4628 98.8466 44.8789 98.8735C45.9019 98.943 47.8432 99.1792 49.0339 99.9993C49.5899 100.382 49.9818 100.892 50.0411 101.57C50.0411 101.57 50.7917 100.228 51.1864 98.0571C51.4107 96.8238 51.507 95.6303 51.6071 94.5897C51.6219 94.4331 51.6368 94.2802 51.6516 94.131C51.7146 93.524 51.7869 92.982 51.8962 92.5298C52.2131 91.2279 52.3308 87.9504 52.4494 86.7273C52.5671 85.5032 52.7256 83.2144 53.1592 82.3452C53.5938 81.4761 54.1071 74.9239 53.515 71.2526C52.9229 67.5823 50.9094 59.2528 50.9094 59.2528C50.9094 59.2528 49.765 52.2661 48.7383 50.7649C47.7116 49.2647 46.1326 47.5672 44.1987 46.5812C42.2649 45.5953 39.2246 43.8569 39.2246 43.8569C39.2246 43.8569 36.6588 42.1603 35.3949 42.1205C35.3949 42.1205 33.9744 40.5804 33.7372 39.2387C33.4999 37.8969 33.5796 35.8435 33.7372 35.2912C33.7965 35.0827 33.8947 34.7918 34.0012 34.46C34.1773 33.9106 34.3747 33.2517 34.4469 32.6856C34.4469 32.6856 35.9082 32.9218 36.5003 31.6987C37.0925 30.4746 37.25 29.409 37.25 28.6983C37.25 27.9876 37.3288 27.7902 36.934 27.5539C36.934 27.5539 37.1703 26.4484 37.3686 25.4616C37.565 24.4738 37.8819 23.6065 37.4474 22.5798C37.0128 21.5531 37.2898 20.961 37.0915 20.2113C36.8932 19.4617 36.3808 18.6324 36.3808 17.9615C36.3808 17.2906 36.1056 16.1851 35.1577 15.4355C34.2097 14.6849 33.1765 13.9075 31.1871 13.5563C31.1871 13.5563 26.4168 12.9605 23.5396 14.8601C23.5396 14.8601 21.7429 16.8115 20.6634 17.9411C19.5857 19.0707 19.7396 21.3316 19.6367 23.3341C19.5338 25.3374 19.6367 26.7755 19.6367 26.7755C19.6367 26.7755 18.8148 27.3408 19.3281 29.548C19.8415 31.7571 20.0982 32.2704 21.1777 32.3733C21.1777 32.3733 21.5372 35.3515 22.3072 36.0196L22.4092 39.8196C22.4092 39.8196 21.7976 39.4434 21.1582 41.5293L20.7885 42.6051" stroke="#285642" stroke-width="0.194591" stroke-miterlimit="10"/>
<path d="M33.7392 39.2388C33.7392 39.2388 33.7336 40.8882 32.0027 42.304C30.8314 43.2631 29.8038 44.4381 29.2617 45.0969C29.0254 45.3841 28.93 45.7613 28.9958 46.1273C29.019 46.2589 29.0375 46.4081 29.0403 46.5647C29.0468 46.851 29.0041 47.1633 28.8549 47.4431C28.7456 47.6479 28.6298 47.8555 28.5177 48.0491C28.4936 48.0908 28.4685 48.1325 28.4426 48.1751C28.3147 48.3827 28.1711 48.5801 28.0117 48.7654" stroke="#285642" stroke-width="0.194591" stroke-miterlimit="10"/>
<path d="M32.7458 45.126C32.7572 45.1374 32.7658 45.1478 32.7743 45.1601" stroke="#285642" stroke-width="0.194591" stroke-miterlimit="10"/>
<path d="M28.5861 48.049V66.9679H26.2344V57.6164C26.2344 55.5714 26.5485 51.1662 26.706 50.3276C26.7848 49.9106 27.0841 49.5937 27.3658 49.3788C27.603 49.199 27.8198 48.9924 28.0126 48.7672C28.0126 48.7672 28.0135 48.7663 28.0144 48.7644C28.0339 48.7375 28.1923 48.5087 28.4453 48.1741C28.4805 48.126 28.5185 48.0768 28.5574 48.025C29.5795 46.6888 31.7663 44.1016 32.7152 45.0876" fill="#285642"/>
<path d="M28.5861 48.049V66.9679H26.2344V57.6164C26.2344 55.5714 26.5485 51.1662 26.706 50.3276C26.7848 49.9106 27.0841 49.5937 27.3658 49.3788C27.603 49.199 27.8198 48.9924 28.0126 48.7672C28.0126 48.7672 28.0135 48.7663 28.0144 48.7644C28.0339 48.7375 28.1923 48.5087 28.4453 48.1741C28.4805 48.126 28.5185 48.0768 28.5574 48.025C29.5795 46.6888 31.7663 44.1016 32.7152 45.0876" stroke="#285642" stroke-width="0.194591" stroke-miterlimit="10"/>
<path d="M22.4122 39.8223C22.4122 39.8223 22.3714 41.3957 22.5901 41.6968C22.7745 41.9498 23.5028 43.1099 25.5924 44.3498L25.6711 44.3961C26.7914 45.0512 27.6448 46.0927 27.996 47.3418C28.0794 47.6411 28.1406 47.9404 28.1359 48.2166C28.1341 48.4139 28.098 48.6011 28.0127 48.7651" stroke="#285642" stroke-width="0.194591" stroke-miterlimit="10"/>
<path d="M20.1233 47.3246C20.3095 47.2311 21.5355 46.6 22.4093 45.666C23.3572 44.6532 23.6945 43.4699 25.5932 44.3492" stroke="#285642" stroke-width="0.194591" stroke-miterlimit="10"/>
<path d="M20.7916 42.6074H20.7906C20.7702 42.6584 20.0994 44.2587 20.0994 45.1732V47.336" stroke="#285642" stroke-width="0.194591" stroke-miterlimit="10"/>
<path d="M20.0994 47.3371C20.0994 47.3371 20.1068 47.3334 20.1235 47.325C20.2587 47.2639 20.9824 46.922 22.504 46.0704C24.4693 44.9705 26.9758 45.7164 27.9757 47.7346C28.0025 47.7884 28.111 48.1609 28.1369 48.2165" stroke="#285642" stroke-width="0.194591" stroke-miterlimit="10"/>
<path d="M35.3968 42.1206C35.3968 42.1206 36.0418 42.7729 36.1261 43.0834C36.2113 43.3947 35.1652 45.007 35.1652 45.9124C35.1652 46.8177 34.7973 47.8963 34.7973 47.8963C34.7973 47.8963 33.7845 46.3136 32.7467 45.1247C32.7356 45.1117 32.7254 45.0997 32.7143 45.0877C32.2815 44.5956 31.8469 44.1759 31.48 43.9692C31.227 43.8284 30.9129 43.8627 30.6914 44.0498C30.2383 44.4298 29.3256 45.3267 29.043 46.5638" fill="#285642"/>
<path d="M35.3968 42.1206C35.3968 42.1206 36.0418 42.7729 36.1261 43.0834C36.2113 43.3947 35.1652 45.007 35.1652 45.9124C35.1652 46.8177 34.7973 47.8963 34.7973 47.8963C34.7973 47.8963 33.7845 46.3136 32.7467 45.1247C32.7356 45.1117 32.7254 45.0997 32.7143 45.0877C32.2815 44.5956 31.8469 44.1759 31.48 43.9692C31.227 43.8284 30.9129 43.8627 30.6914 44.0498C30.2383 44.4298 29.3256 45.3267 29.043 46.5638" stroke="#285642" stroke-width="0.194591" stroke-miterlimit="10"/>
<path d="M11.1258 50.6021C11.1258 50.6021 11.0479 55.1203 11.527 57.3785C12.0061 59.6376 12.0061 62.6232 12.0061 62.6232" stroke="#285642" stroke-width="0.194591" stroke-miterlimit="10"/>
<path d="M8.0957 49.8975C8.0957 49.8975 9.51529 57.7339 10.6189 58.1194" stroke="#285642" stroke-width="0.194591" stroke-miterlimit="10"/>
<path d="M9.35693 53.5376C9.35693 53.5376 10.6171 57.7371 11.1203 57.8112" stroke="#285642" stroke-width="0.194591" stroke-miterlimit="10"/>
<path d="M46.8094 50.6021C46.8094 50.6021 43.7988 56.1145 43.5282 58.4802C43.2576 60.8468 43.5282 59.2855 43.5282 59.2855" stroke="#285642" stroke-width="0.194591" stroke-miterlimit="10"/>
<path d="M47.8488 51.7153C47.8488 51.7153 48.2797 54.0439 48.2046 57.3001C48.1027 61.7349 47.0602 67.8896 42.7097 72.2169" stroke="#285642" stroke-width="0.194591" stroke-miterlimit="10"/>
<path d="M34.4491 32.6867C34.5891 31.9685 35.0533 31.3737 35.2433 30.5184C35.461 29.5315 35.3971 28.9783 35.3971 28.9783V25.2561C35.3971 24.3832 35.0292 23.6938 35.0746 22.9126C35.1209 22.1315 35.0746 21.5802 35.0746 20.799C35.0746 20.0179 34.0183 19.9261 33.7421 19.5184C33.4669 19.1098 31.8129 19.0542 31.6748 19.0078C31.5377 18.9615 29.93 19.0532 29.5612 19.3748C29.1942 19.6963 28.0545 19.3748 28.0545 19.3748C28.0545 19.3748 26.3449 19.5119 25.7481 19.2367C25.1505 18.9615 23.451 18.7317 22.4855 19.7417C21.5209 20.7527 21.6589 21.304 21.6126 22.5902C21.5663 23.8763 21.3374 23.8309 21.2457 24.8873C21.153 25.9436 21.1993 26.128 21.0159 27.139C20.964 27.4216 20.9482 27.7107 20.951 27.9961C20.9575 28.7365 21.0826 29.4583 21.0159 29.9874C20.9232 30.7213 21.1808 32.3726 21.1808 32.3726" stroke="#285642" stroke-width="0.194591" stroke-miterlimit="10"/>
<path d="M19.6396 26.7765C19.6396 26.7765 20.886 26.0074 20.9508 27.9978" stroke="#285642" stroke-width="0.194591" stroke-miterlimit="10"/>
<path d="M35.3967 28.9797C35.3967 28.9797 36.062 27.0134 36.9368 27.5555" stroke="#285642" stroke-width="0.194591" stroke-miterlimit="10"/>
<path d="M22.3101 36.0219C22.3101 36.0219 24.2171 37.9177 25.759 37.9177C27.3009 37.9177 28.6046 38.1068 29.7898 37.586C30.9759 37.0643 33.3777 35.4158 34.0031 34.4614" stroke="#285642" stroke-width="0.194591" stroke-miterlimit="10"/>
</g>
</g>
<mask id="mask1_76_6486" style="mask-type:alpha" maskUnits="userSpaceOnUse" x="0" y="0" width="57" height="57">
<circle cx="28.4" cy="28.4303" r="28.1214" fill="#D9D9D9" stroke="white" stroke-width="0.55716"/>
</mask>
<g mask="url(#mask1_76_6486)">
<circle cx="28.4" cy="28.4303" r="28.4" fill="#004F24"/>
<g clip-path="url(#clip1_76_6486)">
<path d="M48.2051 57.3319C47.6954 63.556 43.0558 70.2564 42.6175 70.8773C42.6398 71.2859 42.6722 71.7502 42.7102 72.2487C47.0607 67.9213 48.1031 61.7676 48.2051 57.3319ZM10.1912 96.0222C10.1912 96.0222 10.1921 96.0222 10.1912 96.0213C10.1847 95.9518 10.0337 94.8389 8.25271 94.32C6.43653 93.7899 3.60661 96.2131 3.54082 96.2696C3.38052 95.5172 2.98207 95.4579 2.90053 94.7638C2.80045 93.8891 2.90053 91.5021 2.90053 90.8637C2.90053 90.2252 2.5308 88.7111 2.59752 87.6353C2.66516 86.5595 2.66516 85.3817 2.4298 84.4069C2.19444 83.4321 2.4298 79.228 2.4298 79.228C2.4298 79.228 2.52988 75.6299 2.56416 74.3531C2.59752 73.0743 3.00153 70.3176 3.40461 69.4095C3.80769 68.5005 4.48042 63.4226 4.48042 63.4226C4.48042 63.4226 5.25415 58.682 5.42187 57.3699C5.59052 56.0578 6.16225 52.393 7.03605 50.8455C7.91079 49.299 8.44916 48.5586 9.92898 47.6848C11.4088 46.81 16.0827 44.8261 16.0827 44.8261C17.784 43.7244 20.7436 42.656 20.7899 42.6402C20.7696 42.6903 20.0987 44.2896 20.0987 45.2051V47.3679C20.0987 47.3679 20.1061 47.3642 20.1228 47.3558C20.2581 47.2947 20.9818 46.9527 22.5033 46.1012C24.4687 45.0013 26.9752 45.7472 27.975 47.7654C28.0019 47.8191 28.1103 48.1916 28.1362 48.2472C28.1344 48.4446 28.0982 48.6318 28.013 48.7958C28.0121 48.7977 28.0111 48.7986 28.0111 48.7986C27.8184 49.0238 27.6025 49.2304 27.3644 49.4102C27.0827 49.6242 26.7843 49.942 26.7046 50.359C26.548 51.1976 26.2329 55.6028 26.2329 57.6479V66.9994H28.5847V48.0805L28.5541 48.0573C29.5762 46.7211 31.763 44.134 32.7119 45.1199C32.723 45.1319 32.7332 45.144 32.7443 45.1569C33.7822 46.3458 34.795 47.9285 34.795 47.9285C34.795 47.9285 35.1628 46.849 35.1628 45.9446C35.1628 45.0402 36.2099 43.4269 36.1237 43.1156C36.0394 42.8052 35.3945 42.1528 35.3945 42.1528C36.6575 42.1927 39.2242 43.8893 39.2242 43.8893C39.2242 43.8893 42.2636 45.6267 44.1983 46.6136C46.1331 47.6005 47.7112 49.298 48.7379 50.7973C49.7646 52.2984 50.909 59.2852 50.909 59.2852C50.909 59.2852 52.9216 67.6137 53.5146 71.285C54.1067 74.9563 53.5934 81.5094 53.1588 82.3776C52.7252 83.2468 52.5667 85.5346 52.449 86.7596C52.3304 87.9828 52.2127 91.2603 51.8958 92.5622C51.7865 93.0144 51.7151 93.5564 51.6512 94.1634C51.5511 93.7835 51.1462 93.1506 49.8554 92.1952C47.6519 90.5644 44.6051 93.3442 44.1826 93.7473C44.2882 92.3583 44.418 90.4346 44.455 88.9956C44.519 86.4687 44.455 85.6245 44.455 83.1699C44.455 80.7153 43.092 76.4231 43.0484 76.2878C43.2115 78.1809 43.3523 79.9434 43.3523 80.8292C43.3523 82.903 42.9641 87.4398 42.9641 87.4398C42.9641 87.4398 43.8666 93.1154 44.038 95.5422C44.0566 95.7979 44.0658 96.0175 44.0658 96.1899C44.0658 98.0042 44.1983 98.878 44.1983 98.878L44.4828 99.4942L44.5069 99.51C44.4226 99.6434 44.3197 99.8019 44.1983 99.9863C43.6646 100.798 42.0662 102.469 41.8206 104.214C41.5741 105.959 41.7956 106.624 41.5 107.484C41.2063 108.344 40.2722 110.434 40.2722 111.022C40.2722 111.611 41.2545 111.809 41.7224 111.514C42.1885 111.22 43.4672 109.179 43.6646 107.95C43.7137 107.645 43.7573 107.262 43.8018 106.859C43.748 107.342 44.6468 107.164 44.6468 107.164L44.6663 107.162C44.7126 107.698 44.6737 108.44 44.3401 109.278C43.6646 110.974 43.0002 112.891 42.3609 113.433C41.7215 113.974 41.2786 114.415 41.5982 115.177C41.5982 115.177 41.765 115.349 41.9856 115.408C41.9856 115.408 41.7298 116.465 42.9048 116.153L44.3225 114.905C44.5366 114.779 44.7552 114.612 44.9721 114.424C44.9943 114.832 45.1092 116.934 45.2241 120.386C45.3539 124.25 45.2241 132.688 45.2241 132.688C45.2241 132.688 44.6626 133.169 43.0021 133.628C42.5591 133.752 42.0365 133.874 41.425 133.984C38.5265 134.508 35.6929 134.362 32.988 133.621C32.446 133.472 31.7936 133.359 31.081 133.277C29.6179 133.109 27.9009 133.076 26.3469 133.15C24.8875 133.22 23.5717 133.384 22.747 133.621C22.2735 133.757 21.7592 133.84 21.2394 133.89C19.4204 134.064 17.5254 133.828 17.0584 133.984C16.4561 134.186 11.6701 134.233 9.73716 133.984C9.07 133.899 8.54923 133.647 8.14708 133.3C7.38539 132.644 7.05273 131.641 6.96841 130.756C6.83961 129.403 5.48674 128.18 5.4228 126.505C5.35886 124.83 5.67947 123.8 5.91484 121.675C6.1502 119.55 6.0668 119.228 5.938 117.424C5.82959 115.905 6.13167 113.199 6.22896 112.384C6.41336 112.577 6.58108 112.726 6.69784 112.823C7.10092 113.16 9.75755 115.984 10.3293 115.211C10.3293 115.211 10.7333 115.076 10.4979 114.336L10.4951 114.33C10.6656 114.231 10.7917 114.034 10.7666 113.664C10.7666 113.664 9.97716 112.458 9.43231 111.443L9.53331 106.997C9.59817 107.342 9.65377 107.736 9.68991 108.182C9.89191 110.67 11.9092 110.806 12.3799 110.503C12.8516 110.2 11.7081 107.275 11.7081 106.569C11.7081 105.863 11.6738 104.282 11.6405 103.845C11.6062 103.407 11.0687 100.752 9.89099 100.086C9.89099 100.086 10.2042 98.6038 10.2042 96.6597C10.2042 96.4494 10.1986 96.2372 10.1857 96.0231L10.1912 96.0222ZM12.5634 72.8593C12.594 74.2085 12.5763 74.7923 12.4985 75.2797C12.2205 77.0217 10.8139 82.9873 10.8139 83.9927C10.8139 84.9981 9.67415 90.0251 9.67415 91.2982C9.67415 91.6429 9.71307 92.0516 9.77052 92.5038C9.86041 93.2108 9.99477 94.0216 10.0911 94.8546C10.1013 94.7944 10.4785 92.3537 10.4785 91.0304C10.4785 89.7072 11.886 85.4003 12.0862 83.3904C12.2882 81.3796 12.8905 78.029 12.9581 76.3527C13.0258 74.6774 12.5634 72.8603 12.5634 72.8603V72.8593Z" fill="white"/>
<path d="M37.4496 22.6147C37.8842 23.6414 37.5673 24.5087 37.3709 25.4965C37.1735 26.4833 36.9363 27.5888 36.9363 27.5888C36.0615 27.0467 35.3962 29.013 35.3962 29.013V25.2908C35.3962 24.4179 35.0284 23.7285 35.0738 22.9473C35.1201 22.1662 35.0738 21.6148 35.0738 20.8337C35.0738 20.0525 34.0174 19.9608 33.7413 19.5531C33.4661 19.1444 31.812 19.0889 31.674 19.0425C31.5368 18.9962 29.9291 19.0879 29.5603 19.4095C29.1934 19.731 28.0537 19.4095 28.0537 19.4095C28.0537 19.4095 26.344 19.5466 25.7473 19.2714C25.1496 18.9962 23.4502 18.7664 22.4846 19.7764C21.52 20.7874 21.6581 21.3387 21.6118 22.6249C21.5654 23.911 21.3366 23.8656 21.2448 24.922C21.1522 25.9783 21.1985 26.1627 21.015 27.1737C20.9631 27.4563 20.9474 27.7454 20.9501 28.0308C20.8862 26.0404 19.639 26.8095 19.639 26.8095C19.639 26.8095 19.5361 25.3714 19.639 23.368C19.7409 21.3656 19.5871 19.1055 20.6657 17.975C21.7452 16.8455 23.5419 14.894 23.5419 14.894C26.4191 12.9935 31.1894 13.5903 31.1894 13.5903C33.1788 13.9415 34.212 14.7189 35.1599 15.4695C36.1079 16.2191 36.3831 17.3246 36.3831 17.9954C36.3831 18.6663 36.8964 19.4956 37.0938 20.2453C37.2912 20.9949 37.015 21.587 37.4496 22.6137V22.6147Z" fill="#B2B2B2"/>
<path d="M36.9365 27.5872C37.3313 27.8234 37.2525 28.0217 37.2525 28.7315C37.2525 29.4413 37.095 30.5079 36.5029 31.7319C35.9108 32.9551 34.4495 32.7188 34.4495 32.7188C34.5894 32.0007 35.0536 31.4058 35.2436 30.5505C35.4613 29.5636 35.3974 29.0104 35.3974 29.0104C35.3974 29.0104 36.0627 27.0441 36.9375 27.5862L36.9365 27.5872Z" fill="white"/>
<path d="M36.1266 43.1175C36.2119 43.4288 35.1657 45.0411 35.1657 45.9465C35.1657 46.8518 34.7978 47.9304 34.7978 47.9304C34.7978 47.9304 33.785 46.3477 32.7472 45.1588C32.7361 45.1458 32.7259 45.1338 32.7148 45.1218C32.2821 44.6297 31.8475 44.21 31.4805 44.0033C31.2276 43.8625 30.9134 43.8968 30.692 44.0839C30.2388 44.4639 29.3261 45.3608 29.0435 46.5979H29.0426C29.0398 46.4413 29.0213 46.2921 28.9981 46.1605C28.9323 45.7945 29.0277 45.4173 29.264 45.1301C29.8052 44.4703 30.8328 43.2963 32.005 42.3372C33.7359 40.9223 33.7415 39.272 33.7415 39.272C33.9778 40.6137 35.3992 42.1538 35.3992 42.1538C35.3992 42.1538 36.0441 42.8061 36.1285 43.1165L36.1266 43.1175Z" fill="#B2B2B2"/>
<path d="M35.3974 29.012C35.3974 29.012 35.4613 29.5652 35.2436 30.552C35.0536 31.4073 34.5903 32.0022 34.4495 32.7203C34.3763 33.2865 34.1798 33.9453 34.0038 34.4948C33.3783 35.4493 30.9765 37.0968 29.7904 37.6194C28.6052 38.1402 27.3015 37.9511 25.7596 37.9511C24.2177 37.9511 22.3107 36.0553 22.3107 36.0553C21.5406 35.3872 21.1811 32.409 21.1811 32.409C21.1811 32.409 20.9244 30.7578 21.0162 30.0239C21.082 29.4938 20.9578 28.772 20.9513 28.0325C20.9495 27.7471 20.9652 27.458 21.0162 27.1754C21.1997 26.1645 21.1533 25.9801 21.246 24.9237C21.3377 23.8674 21.5675 23.9128 21.6129 22.6266C21.6583 21.3405 21.5212 20.7891 22.4858 19.7782C23.4513 18.7672 25.1508 18.997 25.7485 19.2732C26.3452 19.5484 28.0548 19.4112 28.0548 19.4112C28.0548 19.4112 29.1946 19.7328 29.5615 19.4112C29.9294 19.0897 31.538 18.997 31.6751 19.0443C31.8132 19.0897 33.4672 19.1453 33.7424 19.5549C34.0177 19.9626 35.0749 20.0543 35.0749 20.8355C35.0749 21.6166 35.1213 22.1679 35.0749 22.9491C35.0295 23.7302 35.3974 24.4196 35.3974 25.2925V29.0148V29.012Z" fill="white"/>
<path d="M34.0036 34.4941C33.897 34.8249 33.7988 35.1168 33.7395 35.3253C33.582 35.8776 33.5032 37.931 33.7395 39.2727C33.7395 39.2727 33.7339 40.9221 32.003 42.338C30.8317 43.2971 29.8041 44.472 29.262 45.1309C29.0257 45.4181 28.9303 45.7953 28.9961 46.1613C29.0193 46.2929 29.0378 46.442 29.0406 46.5986C29.0471 46.885 29.0044 47.1972 28.8552 47.4771C28.7459 47.6819 28.6301 47.8894 28.518 48.0831C28.4939 48.1248 28.4688 48.1665 28.4429 48.2091C28.1909 48.5436 28.0315 48.7716 28.012 48.7994C28.0973 48.6354 28.1334 48.4491 28.1353 48.2508C28.139 47.9756 28.0787 47.6754 27.9953 47.3761C27.6451 46.127 26.7907 45.0855 25.6704 44.4303L25.5917 44.384C23.5012 43.1442 22.7729 41.9841 22.5894 41.7311C22.3707 41.4299 22.4115 39.8565 22.4115 39.8565L22.3096 36.0564C22.3096 36.0564 24.2166 37.9523 25.7585 37.9523C27.3004 37.9523 28.6041 38.1413 29.7893 37.6206C30.9754 37.0989 33.3772 35.4504 34.0026 34.496L34.0036 34.4941Z" fill="white"/>
<path d="M32.714 45.1218C31.7651 44.1359 29.5783 46.723 28.5562 48.0592C28.5173 48.1111 28.4793 48.1602 28.4441 48.2084C28.47 48.1667 28.4951 48.125 28.5191 48.0824C28.6313 47.8887 28.7471 47.6811 28.8564 47.4764C29.0056 47.1965 29.0482 46.8842 29.0418 46.5979H29.0427C29.3262 45.3609 30.239 44.4639 30.6912 44.084C30.9135 43.8968 31.2267 43.8616 31.4797 44.0034C31.8457 44.21 32.2812 44.6298 32.714 45.1218Z" fill="#B2B2B2"/>
<path d="M28.5866 48.0817V67.0006H26.2349V57.6491C26.2349 55.604 26.549 51.1989 26.7065 50.3603C26.7853 49.9433 27.0846 49.6264 27.3663 49.4114C27.6035 49.2316 27.8203 49.025 28.0131 48.7998C28.0131 48.7998 28.014 48.7989 28.0149 48.7971C28.1734 48.6117 28.3179 48.4144 28.4458 48.2068C28.481 48.1586 28.519 48.1095 28.5579 48.0576L28.5885 48.0808L28.5866 48.0817Z" fill="white"/>
<path d="M27.9971 47.3755C28.0805 47.6748 28.1416 47.9741 28.137 48.2502C28.111 48.1946 28.0026 47.8221 27.9758 47.7684C26.9769 45.7502 24.4694 45.0043 22.504 46.1042C20.9825 46.9557 20.2588 47.2977 20.1235 47.3588C20.3098 47.2652 21.5357 46.6342 22.4095 45.7002C23.3575 44.6874 23.6947 43.5041 25.5934 44.3834L25.6722 44.4298C26.7925 45.0849 27.6459 46.1264 27.9971 47.3755Z" fill="#B2B2B2"/>
<path d="M25.5936 44.3815C23.6958 43.5021 23.3576 44.6854 22.4097 45.6982C21.5359 46.6322 20.31 47.2633 20.1237 47.3569C20.107 47.3643 20.0996 47.3689 20.0996 47.3689V45.2062C20.0996 44.2907 20.7705 42.6904 20.7909 42.6413H20.7918L21.1615 41.5645C21.8 39.4796 22.4125 39.8549 22.4125 39.8549C22.4125 39.8549 22.3717 41.4283 22.5904 41.7295C22.7748 41.9824 23.5031 43.1426 25.5926 44.3824L25.5936 44.3815Z" fill="#B2B2B2"/>
<path d="M20.9515 28.031C20.958 28.7714 21.0831 29.4932 21.0164 30.0223C20.9237 30.7562 21.1813 32.4075 21.1813 32.4075C20.1018 32.3046 19.8451 31.7913 19.3318 29.5822C18.8184 27.374 19.6404 26.8097 19.6404 26.8097C19.6404 26.8097 20.8867 26.0406 20.9515 28.031Z" fill="white"/>
<path d="M20.7904 42.6387C20.745 42.6544 17.7854 43.7228 16.0832 44.8246C16.0832 44.8246 11.4084 46.8085 9.92947 47.6832C8.44965 48.557 7.91128 49.2974 7.03654 50.8439C6.16274 52.3914 5.59101 56.0562 5.42236 57.3683C5.25372 58.6804 4.48091 63.421 4.48091 63.421C4.48091 63.421 3.80818 68.4989 3.4051 69.4079C3.00202 70.316 2.59801 73.0727 2.56465 74.3515C2.53036 75.6293 2.43029 79.2265 2.43029 79.2265C2.43029 79.2265 2.19493 83.4306 2.43029 84.4054C2.66473 85.3802 2.66473 86.5579 2.59801 87.6337C2.53036 88.7095 2.90101 90.2227 2.90101 90.8621C2.90101 91.5015 2.80094 93.8884 2.90101 94.7623C2.98163 95.4563 3.38008 95.5147 3.54131 96.268C3.58208 96.4626 3.6071 96.7045 3.6071 97.0149C3.6071 98.5281 3.53946 101.252 3.53946 101.252C3.53946 101.252 3.67382 102.564 4.58284 102.53C4.58284 102.53 4.54855 103.136 4.5152 103.842C4.48091 104.548 4.04354 104.918 4.01111 105.726C3.97683 106.532 3.91011 107.037 4.01111 107.34C4.11119 107.643 5.05356 109.022 5.15457 110.266C5.22592 111.152 5.77633 111.903 6.23223 112.382C6.41663 112.576 6.58435 112.725 6.7011 112.821C7.10419 113.159 9.76082 115.983 10.3325 115.209C10.3325 115.209 10.7366 115.075 10.5012 114.334" stroke="#B2B2B2" stroke-width="0.194591" stroke-miterlimit="10"/>
<path d="M44.0384 95.5419C44.057 95.7968 44.0662 96.0164 44.0662 96.1887C44.0662 98.003 44.1987 98.8769 44.1987 98.8769C44.1987 98.8769 44.4628 98.8769 44.8789 98.9037C45.9019 98.9732 47.8432 99.2095 49.0339 100.03C49.5899 100.412 49.9818 100.922 50.0411 101.6C50.0411 101.6 50.7917 100.258 51.1864 98.0874C51.4107 96.854 51.507 95.6605 51.6071 94.6199C51.6219 94.4633 51.6368 94.3104 51.6516 94.1613C51.7146 93.5543 51.7869 93.0122 51.8962 92.5601C52.2131 91.2581 52.3308 87.9807 52.4494 86.7575C52.5671 85.5335 52.7256 83.2447 53.1592 82.3755C53.5938 81.5063 54.1071 74.9542 53.515 71.2829C52.9229 67.6125 50.9094 59.2831 50.9094 59.2831C50.9094 59.2831 49.765 52.2963 48.7383 50.7952C47.7116 49.295 46.1326 47.5974 44.1987 46.6115C42.2649 45.6256 39.2246 43.8872 39.2246 43.8872C39.2246 43.8872 36.6588 42.1906 35.3949 42.1507C35.3949 42.1507 33.9744 40.6107 33.7372 39.2689C33.4999 37.9272 33.5796 35.8738 33.7372 35.3215C33.7965 35.113 33.8947 34.8221 34.0012 34.4903C34.1773 33.9408 34.3747 33.282 34.4469 32.7158C34.4469 32.7158 35.9082 32.9521 36.5003 31.729C37.0925 30.5049 37.25 29.4393 37.25 28.7286C37.25 28.0178 37.3288 27.8205 36.934 27.5842C36.934 27.5842 37.1703 26.4787 37.3686 25.4919C37.565 24.5041 37.8819 23.6368 37.4474 22.6101C37.0128 21.5834 37.2898 20.9912 37.0915 20.2416C36.8932 19.492 36.3808 18.6626 36.3808 17.9918C36.3808 17.3209 36.1056 16.2154 35.1577 15.4658C34.2097 14.7152 33.1765 13.9378 31.1871 13.5866C31.1871 13.5866 26.4168 12.9908 23.5396 14.8903C23.5396 14.8903 21.7429 16.8418 20.6634 17.9714C19.5857 19.1009 19.7396 21.3619 19.6367 23.3643C19.5338 25.3677 19.6367 26.8058 19.6367 26.8058C19.6367 26.8058 18.8148 27.3711 19.3281 29.5783C19.8415 31.7874 20.0982 32.3007 21.1777 32.4036C21.1777 32.4036 21.5372 35.3817 22.3072 36.0498L22.4092 39.8499C22.4092 39.8499 21.7976 39.4737 21.1582 41.5595L20.7885 42.6354" stroke="#B2B2B2" stroke-width="0.194591" stroke-miterlimit="10"/>
<path d="M33.7392 39.2695C33.7392 39.2695 33.7336 40.9189 32.0027 42.3348C30.8314 43.2939 29.8038 44.4688 29.2617 45.1277C29.0254 45.4149 28.93 45.792 28.9958 46.1581C29.019 46.2896 29.0375 46.4388 29.0403 46.5954C29.0468 46.8818 29.0041 47.194 28.8549 47.4739C28.7456 47.6787 28.6298 47.8862 28.5177 48.0799C28.4936 48.1216 28.4685 48.1633 28.4426 48.2059C28.3147 48.4135 28.1711 48.6108 28.0117 48.7962" stroke="#B2B2B2" stroke-width="0.194591" stroke-miterlimit="10"/>
<path d="M32.7458 45.1567C32.7572 45.1681 32.7658 45.1786 32.7743 45.1909" stroke="#B2B2B2" stroke-width="0.194591" stroke-miterlimit="10"/>
<path d="M28.5861 48.0798V66.9987H26.2344V57.6472C26.2344 55.6021 26.5485 51.197 26.706 50.3584C26.7848 49.9414 27.0841 49.6245 27.3658 49.4095C27.603 49.2298 27.8198 49.0231 28.0126 48.7979C28.0126 48.7979 28.0135 48.797 28.0144 48.7952C28.0339 48.7683 28.1923 48.5394 28.4453 48.2049C28.4805 48.1567 28.5185 48.1076 28.5574 48.0557C29.5795 46.7195 31.7663 44.1324 32.7152 45.1183" fill="#B2B2B2"/>
<path d="M28.5861 48.0798V66.9987H26.2344V57.6472C26.2344 55.6021 26.5485 51.197 26.706 50.3584C26.7848 49.9414 27.0841 49.6245 27.3658 49.4095C27.603 49.2298 27.8198 49.0231 28.0126 48.7979C28.0126 48.7979 28.0135 48.797 28.0144 48.7952C28.0339 48.7683 28.1923 48.5394 28.4453 48.2049C28.4805 48.1567 28.5185 48.1076 28.5574 48.0557C29.5795 46.7195 31.7663 44.1324 32.7152 45.1183" stroke="#B2B2B2" stroke-width="0.194591" stroke-miterlimit="10"/>
<path d="M22.4122 39.8525C22.4122 39.8525 22.3714 41.4259 22.5901 41.7271C22.7745 41.9801 23.5028 43.1402 25.5924 44.38L25.6711 44.4264C26.7914 45.0815 27.6448 46.123 27.996 47.3721C28.0794 47.6714 28.1406 47.9707 28.1359 48.2468C28.1341 48.4442 28.098 48.6314 28.0127 48.7954" stroke="#B2B2B2" stroke-width="0.194591" stroke-miterlimit="10"/>
<path d="M20.1233 47.3554C20.3095 47.2618 21.5355 46.6308 22.4093 45.6967C23.3572 44.6839 23.6945 43.5006 25.5932 44.38" stroke="#B2B2B2" stroke-width="0.194591" stroke-miterlimit="10"/>
<path d="M20.7916 42.6382H20.7906C20.7702 42.6891 20.0994 44.2894 20.0994 45.204V47.3668" stroke="#B2B2B2" stroke-width="0.194591" stroke-miterlimit="10"/>
<path d="M20.0994 47.3674C20.0994 47.3674 20.1068 47.3637 20.1235 47.3553C20.2587 47.2942 20.9824 46.9522 22.504 46.1007C24.4693 45.0008 26.9758 45.7467 27.9757 47.7649C28.0025 47.8186 28.111 48.1911 28.1369 48.2467" stroke="#B2B2B2" stroke-width="0.194591" stroke-miterlimit="10"/>
<path d="M35.3968 42.1509C35.3968 42.1509 36.0418 42.8032 36.1261 43.1136C36.2113 43.425 35.1652 45.0373 35.1652 45.9426C35.1652 46.8479 34.7973 47.9265 34.7973 47.9265C34.7973 47.9265 33.7845 46.3439 32.7467 45.155C32.7356 45.142 32.7254 45.13 32.7143 45.1179C32.2815 44.6259 31.8469 44.2061 31.48 43.9995C31.227 43.8586 30.9129 43.8929 30.6914 44.0801C30.2383 44.46 29.3256 45.357 29.043 46.594" fill="#B2B2B2"/>
<path d="M35.3968 42.1509C35.3968 42.1509 36.0418 42.8032 36.1261 43.1136C36.2113 43.425 35.1652 45.0373 35.1652 45.9426C35.1652 46.8479 34.7973 47.9265 34.7973 47.9265C34.7973 47.9265 33.7845 46.3439 32.7467 45.155C32.7356 45.142 32.7254 45.13 32.7143 45.1179C32.2815 44.6259 31.8469 44.2061 31.48 43.9995C31.227 43.8586 30.9129 43.8929 30.6914 44.0801C30.2383 44.46 29.3256 45.357 29.043 46.594" stroke="#B2B2B2" stroke-width="0.194591" stroke-miterlimit="10"/>
<path d="M11.1258 50.6323C11.1258 50.6323 11.0479 55.1505 11.527 57.4087C12.0061 59.6678 12.0061 62.6534 12.0061 62.6534" stroke="#B2B2B2" stroke-width="0.194591" stroke-miterlimit="10"/>
<path d="M8.0957 49.9277C8.0957 49.9277 9.51529 57.7642 10.6189 58.1497" stroke="#B2B2B2" stroke-width="0.194591" stroke-miterlimit="10"/>
<path d="M9.35693 53.5679C9.35693 53.5679 10.6171 57.7673 11.1203 57.8415" stroke="#B2B2B2" stroke-width="0.194591" stroke-miterlimit="10"/>
<path d="M46.8094 50.6323C46.8094 50.6323 43.7988 56.1448 43.5282 58.5105C43.2576 60.8771 43.5282 59.3157 43.5282 59.3157" stroke="#B2B2B2" stroke-width="0.194591" stroke-miterlimit="10"/>
<path d="M47.8488 51.7456C47.8488 51.7456 48.2797 54.0742 48.2046 57.3304C48.1027 61.7652 47.0602 67.9198 42.7097 72.2472" stroke="#B2B2B2" stroke-width="0.194591" stroke-miterlimit="10"/>
<path d="M34.4491 32.7174C34.5891 31.9993 35.0533 31.4044 35.2433 30.5491C35.461 29.5623 35.3971 29.0091 35.3971 29.0091V25.2868C35.3971 24.414 35.0292 23.7245 35.0746 22.9434C35.1209 22.1623 35.0746 21.6109 35.0746 20.8298C35.0746 20.0486 34.0183 19.9569 33.7421 19.5492C33.4669 19.1405 31.8129 19.0849 31.6748 19.0386C31.5377 18.9923 29.93 19.084 29.5612 19.4055C29.1942 19.7271 28.0545 19.4055 28.0545 19.4055C28.0545 19.4055 26.3449 19.5427 25.7481 19.2675C25.1505 18.9923 23.451 18.7625 22.4855 19.7725C21.5209 20.7834 21.6589 21.3348 21.6126 22.6209C21.5663 23.9071 21.3374 23.8617 21.2457 24.918C21.153 25.9744 21.1993 26.1588 21.0159 27.1697C20.964 27.4524 20.9482 27.7415 20.951 28.0269C20.9575 28.7672 21.0826 29.4891 21.0159 30.0182C20.9232 30.7521 21.1808 32.4033 21.1808 32.4033" stroke="#B2B2B2" stroke-width="0.194591" stroke-miterlimit="10"/>
<path d="M19.6396 26.8073C19.6396 26.8073 20.886 26.0382 20.9508 28.0286" stroke="#B2B2B2" stroke-width="0.194591" stroke-miterlimit="10"/>
<path d="M35.3967 29.01C35.3967 29.01 36.062 27.0437 36.9368 27.5857" stroke="#B2B2B2" stroke-width="0.194591" stroke-miterlimit="10"/>
<path d="M22.3101 36.0521C22.3101 36.0521 24.2171 37.948 25.759 37.948C27.3009 37.948 28.6046 38.137 29.7898 37.6163C30.9759 37.0946 33.3777 35.4461 34.0031 34.4917" stroke="#B2B2B2" stroke-width="0.194591" stroke-miterlimit="10"/>
</g>
</g>
<circle cx="28.4" cy="28.4303" r="27.8428" stroke="#004F24" stroke-width="1.11432"/>
<defs>
<clipPath id="clip0_76_6486">
<rect width="51.6519" height="171.026" fill="white" transform="translate(2.22876 13.3721)"/>
</clipPath>
<clipPath id="clip1_76_6486">
<rect width="51.6519" height="171.026" fill="white" transform="translate(2.22876 13.4023)"/>
</clipPath>
</defs>
</svg>
