<svg width="42" height="41" viewBox="0 0 42 41" fill="none" xmlns="http://www.w3.org/2000/svg">
<mask id="mask0_403_5279" style="mask-type:alpha" maskUnits="userSpaceOnUse" x="0" y="0" width="42" height="41">
<circle cx="20.6477" cy="20.4734" r="20.0717" fill="#D9D9D9" stroke="white" stroke-width="0.803306"/>
</mask>
<g mask="url(#mask0_403_5279)">
<circle cx="20.6477" cy="20.4734" r="20.4734" fill="#EFEFEF"/>
<g clip-path="url(#clip0_403_5279)">
<path d="M34.9251 41.3082C34.5577 45.7951 31.213 50.6254 30.8971 51.073C30.9131 51.3676 30.9365 51.7022 30.9639 52.0616C34.1001 48.9421 34.8516 44.5059 34.9251 41.3082ZM7.52115 69.1998C7.52115 69.1998 7.52182 69.1998 7.52115 69.1991C7.51647 69.149 7.40759 68.3468 6.1237 67.9727C4.81442 67.5906 2.77435 69.3374 2.72693 69.3782C2.61136 68.8357 2.32412 68.793 2.26534 68.2927C2.19319 67.6621 2.26534 65.9413 2.26534 65.481C2.26534 65.0208 1.99881 63.9293 2.0469 63.1537C2.09567 62.3782 2.09567 61.5292 1.926 60.8264C1.75632 60.1237 1.926 57.093 1.926 57.093C1.926 57.093 1.99814 54.4992 2.02286 53.5787C2.0469 52.6568 2.33815 50.6695 2.62873 50.0149C2.91931 49.3596 3.40428 45.6989 3.40428 45.6989C3.40428 45.6989 3.96205 42.2815 4.08296 41.3356C4.20454 40.3897 4.61669 37.7478 5.24661 36.6322C5.8772 35.5173 6.26531 34.9836 7.3321 34.3537C8.3989 33.7231 11.7683 32.2929 11.7683 32.2929C12.9947 31.4986 15.1283 30.7284 15.1617 30.7171C15.147 30.7532 14.6634 31.9061 14.6634 32.5661V34.1252C14.6634 34.1252 14.6687 34.1225 14.6808 34.1165C14.7783 34.0724 15.3 33.826 16.3968 33.2121C17.8137 32.4191 19.6206 32.9569 20.3414 34.4118C20.3607 34.4505 20.4389 34.7191 20.4576 34.7591C20.4563 34.9014 20.4302 35.0364 20.3688 35.1546C20.3681 35.1559 20.3674 35.1566 20.3674 35.1566C20.2285 35.3189 20.0728 35.4679 19.9012 35.5975C19.6981 35.7518 19.483 35.9809 19.4255 36.2815C19.3127 36.8861 19.0855 40.0617 19.0855 41.536V48.2774H20.7809V34.6389L20.7589 34.6222C21.4957 33.659 23.0721 31.7939 23.7562 32.5047C23.7642 32.5133 23.7715 32.522 23.7796 32.5314C24.5277 33.3884 25.2578 34.5294 25.2578 34.5294C25.2578 34.5294 25.523 33.7511 25.523 33.0992C25.523 32.4472 26.2779 31.2842 26.2157 31.0598C26.155 30.836 25.69 30.3657 25.69 30.3657C26.6005 30.3944 28.4509 31.6176 28.4509 31.6176C28.4509 31.6176 30.6419 32.87 32.0367 33.5815C33.4315 34.2929 34.5691 35.5167 35.3092 36.5975C36.0493 37.6796 36.8743 42.7163 36.8743 42.7163C36.8743 42.7163 38.3252 48.7203 38.7527 51.3669C39.1796 54.0135 38.8095 58.7376 38.4962 59.3635C38.1836 59.9901 38.0694 61.6394 37.9845 62.5225C37.899 63.4042 37.8142 65.767 37.5857 66.7055C37.5069 67.0315 37.4555 67.4222 37.4094 67.8598C37.3372 67.5859 37.0453 67.1297 36.1148 66.441C34.5263 65.2653 32.3299 67.2693 32.0253 67.5599C32.1015 66.5585 32.195 65.1718 32.2217 64.1344C32.2678 62.3127 32.2217 61.7042 32.2217 59.9347C32.2217 58.1651 31.2391 55.071 31.2077 54.9734C31.3253 56.3382 31.4268 57.6087 31.4268 58.2473C31.4268 59.7423 31.1469 63.0128 31.1469 63.0128C31.1469 63.0128 31.7975 67.1043 31.9211 68.8538C31.9345 69.0381 31.9412 69.1965 31.9412 69.3207C31.9412 70.6286 32.0367 71.2586 32.0367 71.2586L32.2418 71.7028L32.2591 71.7141C32.1983 71.8103 32.1242 71.9246 32.0367 72.0575C31.6519 72.6427 30.4996 73.8471 30.3226 75.1056C30.1449 76.3634 30.3046 76.8424 30.0915 77.4623C29.8797 78.0822 29.2064 79.5892 29.2064 80.0133C29.2064 80.4375 29.9144 80.5805 30.2518 80.3681C30.5878 80.1556 31.5096 78.6847 31.6519 77.7983C31.6873 77.5785 31.7187 77.3026 31.7508 77.012C31.712 77.3601 32.36 77.2318 32.36 77.2318L32.374 77.2305C32.4074 77.6166 32.3794 78.1516 32.1389 78.7555C31.6519 79.9786 31.173 81.3607 30.712 81.7508C30.2511 82.1409 29.9318 82.4589 30.1623 83.0086C30.1623 83.0086 30.2825 83.1322 30.4415 83.175C30.4415 83.175 30.2571 83.9372 31.1042 83.7121L32.1262 82.8123C32.2805 82.7214 32.4381 82.6012 32.5945 82.4656C32.6105 82.7595 32.6933 84.2752 32.7762 86.7635C32.8697 89.549 32.7762 95.6318 32.7762 95.6318C32.7762 95.6318 32.3713 95.9785 31.1743 96.3098C30.855 96.3987 30.4782 96.4868 30.0374 96.5663C27.9479 96.9438 25.9051 96.8389 23.9552 96.3045C23.5645 96.1969 23.0942 96.1154 22.5805 96.0567C21.5257 95.9358 20.2879 95.9117 19.1677 95.9651C18.1156 96.0152 17.167 96.1335 16.5725 96.3045C16.2312 96.4027 15.8604 96.4621 15.4857 96.4982C14.1744 96.6238 12.8084 96.4535 12.4717 96.5663C12.0375 96.712 8.58727 96.746 7.19383 96.5663C6.71287 96.5049 6.33746 96.3232 6.04754 96.0734C5.49845 95.6004 5.25864 94.877 5.19785 94.239C5.105 93.2638 4.12972 92.382 4.08363 91.1749C4.03754 89.9672 4.26866 89.2244 4.43834 87.6926C4.60801 86.1609 4.54789 85.9285 4.45504 84.6279C4.37688 83.533 4.59465 81.5825 4.66479 80.9946C4.79772 81.1343 4.91863 81.2418 5.00279 81.3113C5.29337 81.5544 7.20852 83.5905 7.62068 83.0327C7.62068 83.0327 7.91193 82.9358 7.74225 82.4021L7.74025 82.3981C7.86316 82.3266 7.95401 82.1843 7.93597 81.9178C7.93597 81.9178 7.36684 81.0481 6.97406 80.3166L7.04687 77.1116C7.09363 77.3601 7.13371 77.644 7.15976 77.9659C7.30538 79.7595 8.75962 79.857 9.09896 79.6393C9.43897 79.4208 8.61466 77.312 8.61466 76.8029C8.61466 76.2939 8.58994 75.1543 8.5659 74.839C8.54118 74.5237 8.15374 72.6093 7.30472 72.1296C7.30472 72.1296 7.5305 71.0608 7.5305 69.6594C7.5305 69.5077 7.52649 69.3548 7.51714 69.2005L7.52115 69.1998ZM9.23122 52.5018C9.25327 53.4744 9.24057 53.8953 9.18446 54.2467C8.98406 55.5025 7.97004 59.8031 7.97004 60.5278C7.97004 61.2526 7.1484 64.8765 7.1484 65.7943C7.1484 66.0428 7.17646 66.3374 7.21788 66.6634C7.28267 67.1731 7.37953 67.7576 7.449 68.3581C7.45635 68.3147 7.72823 66.5552 7.72823 65.6013C7.72823 64.6474 8.74292 61.5425 8.8872 60.0936C9.03283 58.6441 9.46703 56.2286 9.51579 55.0202C9.56455 53.8125 9.23122 52.5025 9.23122 52.5025V52.5018Z" fill="white"/>
<path d="M27.1714 16.2808C27.4847 17.021 27.2562 17.6462 27.1146 18.3583C26.9723 19.0697 26.8013 19.8666 26.8013 19.8666C26.1707 19.4759 25.6911 20.8934 25.6911 20.8934V18.21C25.6911 17.5808 25.4259 17.0838 25.4586 16.5206C25.492 15.9575 25.4586 15.5601 25.4586 14.9969C25.4586 14.4338 24.6971 14.3677 24.498 14.0738C24.2996 13.7792 23.1073 13.7391 23.0077 13.7057C22.9089 13.6723 21.7499 13.7384 21.484 13.9702C21.2195 14.202 20.3979 13.9702 20.3979 13.9702C20.3979 13.9702 19.1654 14.0691 18.7352 13.8707C18.3044 13.6723 17.0793 13.5066 16.3832 14.2347C15.6878 14.9635 15.7874 15.361 15.754 16.2882C15.7206 17.2154 15.5556 17.1826 15.4894 17.9441C15.4226 18.7057 15.456 18.8386 15.3238 19.5674C15.2864 19.7711 15.275 19.9795 15.277 20.1853C15.2309 18.7504 14.3318 19.3049 14.3318 19.3049C14.3318 19.3049 14.2576 18.2681 14.3318 16.8239C14.4053 15.3804 14.2944 13.7511 15.0719 12.9362C15.8501 12.1219 17.1454 10.7151 17.1454 10.7151C19.2195 9.345 22.6584 9.77519 22.6584 9.77519C24.0926 10.0284 24.8374 10.5888 25.5208 11.1299C26.2041 11.6703 26.4025 12.4672 26.4025 12.9509C26.4025 13.4345 26.7726 14.0323 26.9149 14.5728C27.0571 15.1132 26.8581 15.54 27.1714 16.2802V16.2808Z" fill="#285642"/>
<path d="M26.8012 19.8657C27.0858 20.036 27.029 20.179 27.029 20.6907C27.029 21.2023 26.9154 21.9712 26.4886 22.8536C26.0617 23.7354 25.0083 23.5651 25.0083 23.5651C25.1092 23.0474 25.4438 22.6185 25.5808 22.0019C25.7378 21.2905 25.6917 20.8917 25.6917 20.8917C25.6917 20.8917 26.1713 19.4742 26.8019 19.865L26.8012 19.8657Z" fill="white"/>
<path d="M26.2175 31.0614C26.279 31.2858 25.5248 32.4481 25.5248 33.1008C25.5248 33.7534 25.2596 34.531 25.2596 34.531C25.2596 34.531 24.5295 33.39 23.7813 32.533C23.7733 32.5236 23.766 32.5149 23.7579 32.5063C23.446 32.1515 23.1327 31.8489 22.8682 31.7C22.6858 31.5984 22.4594 31.6232 22.2997 31.7581C21.9731 32.032 21.3151 32.6786 21.1113 33.5704H21.1107C21.1087 33.4575 21.0953 33.3499 21.0786 33.2551C21.0312 32.9912 21.1 32.7193 21.2703 32.5123C21.6604 32.0367 22.4012 31.1903 23.2463 30.4989C24.4941 29.4789 24.4981 28.2892 24.4981 28.2892C24.6684 29.2564 25.6931 30.3667 25.6931 30.3667C25.6931 30.3667 26.1581 30.8369 26.2189 31.0607L26.2175 31.0614Z" fill="#285642"/>
<path d="M25.6915 20.8927C25.6915 20.8927 25.7376 21.2915 25.5807 22.0029C25.4437 22.6195 25.1097 23.0484 25.0082 23.5661C24.9554 23.9742 24.8138 24.4492 24.6869 24.8453C24.236 25.5333 22.5045 26.721 21.6495 27.0978C20.7951 27.4732 19.8552 27.3369 18.7437 27.3369C17.6321 27.3369 16.2574 25.9702 16.2574 25.9702C15.7023 25.4886 15.4431 23.3416 15.4431 23.3416C15.4431 23.3416 15.2581 22.1512 15.3242 21.6222C15.3716 21.2401 15.2821 20.7197 15.2774 20.1867C15.2761 19.9809 15.2875 19.7725 15.3242 19.5688C15.4565 18.84 15.4231 18.707 15.4899 17.9455C15.556 17.184 15.7217 17.2167 15.7544 16.2896C15.7871 15.3624 15.6883 14.9649 16.3837 14.2361C17.0797 13.5073 18.3048 13.673 18.7357 13.8721C19.1659 14.0705 20.3983 13.9716 20.3983 13.9716C20.3983 13.9716 21.22 14.2034 21.4845 13.9716C21.7497 13.7398 22.9093 13.673 23.0082 13.7071C23.1077 13.7398 24.3001 13.7799 24.4985 14.0751C24.6969 14.3691 25.4591 14.4352 25.4591 14.9983C25.4591 15.5614 25.4925 15.9589 25.4591 16.522C25.4263 17.0851 25.6915 17.5821 25.6915 18.2114V20.8947V20.8927Z" fill="white"/>
<path d="M24.687 24.845C24.6102 25.0834 24.5393 25.2939 24.4966 25.4442C24.383 25.8423 24.3263 27.3226 24.4966 28.2898C24.4966 28.2898 24.4926 29.4789 23.2448 30.4996C22.4004 31.191 21.6596 32.038 21.2688 32.5129C21.0985 32.72 21.0297 32.9919 21.0771 33.2557C21.0938 33.3506 21.1072 33.4581 21.1092 33.571C21.1139 33.7774 21.0831 34.0026 20.9756 34.2043C20.8968 34.3519 20.8133 34.5015 20.7324 34.6412C20.7151 34.6712 20.697 34.7013 20.6783 34.732C20.4966 34.9732 20.3817 35.1375 20.3677 35.1575C20.4292 35.0393 20.4552 34.905 20.4565 34.7621C20.4592 34.5637 20.4158 34.3472 20.3557 34.1315C20.1032 33.231 19.4873 32.4802 18.6797 32.0079L18.6229 31.9745C17.1159 31.0807 16.5908 30.2444 16.4586 30.062C16.3009 29.8449 16.3303 28.7107 16.3303 28.7107L16.2568 25.9712C16.2568 25.9712 17.6316 27.3379 18.7431 27.3379C19.8547 27.3379 20.7945 27.4742 21.6489 27.0988C22.504 26.7227 24.2354 25.5343 24.6863 24.8463L24.687 24.845Z" fill="white"/>
<path d="M23.7573 32.5061C23.0733 31.7953 21.4968 33.6604 20.76 34.6236C20.732 34.6611 20.7046 34.6965 20.6792 34.7312C20.6979 34.7011 20.7159 34.6711 20.7333 34.6403C20.8141 34.5007 20.8976 34.3511 20.9765 34.2035C21.084 34.0017 21.1147 33.7766 21.1101 33.5702H21.1107C21.3151 32.6784 21.9731 32.0318 22.2991 31.7579C22.4594 31.623 22.6852 31.5976 22.8676 31.6998C23.1314 31.8488 23.4454 32.1514 23.7573 32.5061Z" fill="#285642"/>
<path d="M20.7818 34.6403V48.2788H19.0864V41.5374C19.0864 40.0631 19.3129 36.8874 19.4264 36.2829C19.4832 35.9823 19.699 35.7538 19.9021 35.5989C20.0731 35.4693 20.2294 35.3203 20.3683 35.158C20.3683 35.158 20.369 35.1573 20.3696 35.156C20.4839 35.0224 20.5881 34.8801 20.6803 34.7305C20.7057 34.6957 20.733 34.6603 20.7611 34.6229L20.7831 34.6396L20.7818 34.6403Z" fill="white"/>
<path d="M20.3571 34.1306C20.4173 34.3464 20.4613 34.5622 20.458 34.7612C20.4393 34.7212 20.3611 34.4526 20.3418 34.4139C19.6217 32.959 17.8141 32.4212 16.3972 33.2142C15.3004 33.828 14.7787 34.0745 14.6812 34.1186C14.8154 34.0512 15.6992 33.5962 16.3291 32.9229C17.0125 32.1928 17.2556 31.3398 18.6243 31.9737L18.6811 32.0071C19.4887 32.4794 20.104 33.2302 20.3571 34.1306Z" fill="#285642"/>
<path d="M18.6241 31.9726C17.2561 31.3386 17.0123 32.1917 16.3289 32.9218C15.699 33.5951 14.8152 34.05 14.6809 34.1175C14.6689 34.1228 14.6636 34.1262 14.6636 34.1262V32.5671C14.6636 31.9071 15.1472 30.7535 15.1619 30.7181H15.1626L15.4291 29.9418C15.8894 28.4388 16.3309 28.7094 16.3309 28.7094C16.3309 28.7094 16.3015 29.8436 16.4592 30.0607C16.5921 30.2431 17.1171 31.0794 18.6235 31.9732L18.6241 31.9726Z" fill="#285642"/>
<path d="M15.2781 20.1856C15.2827 20.7193 15.3729 21.2397 15.3248 21.6211C15.258 22.1502 15.4437 23.3406 15.4437 23.3406C14.6655 23.2664 14.4805 22.8963 14.1104 21.3038C13.7403 19.712 14.3328 19.3052 14.3328 19.3052C14.3328 19.3052 15.2313 18.7508 15.2781 20.1856Z" fill="white"/>
<path d="M15.1617 30.7158C15.129 30.7272 12.9954 31.4974 11.7683 32.2916C11.7683 32.2916 8.39823 33.7218 7.3321 34.3524C6.26531 34.9823 5.8772 35.5161 5.24661 36.6309C4.61669 37.7465 4.20454 40.3884 4.08296 41.3343C3.96139 42.2802 3.40428 45.6977 3.40428 45.6977C3.40428 45.6977 2.91931 49.3583 2.62873 50.0136C2.33815 50.6683 2.0469 52.6555 2.02286 53.5774C1.99814 54.4986 1.926 57.0917 1.926 57.0917C1.926 57.0917 1.75632 60.1224 1.926 60.8252C2.095 61.5279 2.095 62.3769 2.0469 63.1525C1.99814 63.928 2.26534 65.0189 2.26534 65.4798C2.26534 65.9407 2.19319 67.6615 2.26534 68.2914C2.32345 68.7917 2.61069 68.8338 2.72693 69.3769C2.75632 69.5172 2.77435 69.6915 2.77435 69.9153C2.77435 71.0061 2.72559 72.97 2.72559 72.97C2.72559 72.97 2.82245 73.9159 3.47776 73.8912C3.47776 73.8912 3.45304 74.3281 3.42899 74.8371C3.40428 75.3461 3.08898 75.6126 3.0656 76.1951C3.04088 76.7763 2.99279 77.1403 3.0656 77.3588C3.13774 77.5772 3.8171 78.5712 3.88991 79.4677C3.94135 80.1069 4.33814 80.648 4.66679 80.9934C4.79972 81.133 4.92063 81.2405 5.0048 81.31C5.29538 81.5531 7.21053 83.5892 7.62268 83.0314C7.62268 83.0314 7.91393 82.9346 7.74426 82.4008" stroke="#285642" stroke-width="0.14028" stroke-miterlimit="10"/>
<path d="M31.9215 68.8532C31.9348 69.0369 31.9415 69.1952 31.9415 69.3194C31.9415 70.6274 32.037 71.2573 32.037 71.2573C32.037 71.2573 32.2274 71.2573 32.5273 71.2767C33.2648 71.3268 34.6643 71.4971 35.5226 72.0883C35.9234 72.3642 36.206 72.7316 36.2487 73.2205C36.2487 73.2205 36.7898 72.2533 37.0744 70.6882C37.236 69.7991 37.3055 68.9387 37.3777 68.1885C37.3884 68.0756 37.399 67.9654 37.4097 67.8579C37.4552 67.4203 37.5073 67.0295 37.5861 66.7036C37.8145 65.765 37.8994 63.4023 37.9849 62.5206C38.0697 61.6381 38.1839 59.9882 38.4966 59.3616C38.8099 58.735 39.1799 54.0116 38.7531 51.365C38.3262 48.719 36.8747 42.7144 36.8747 42.7144C36.8747 42.7144 36.0497 37.6777 35.3095 36.5955C34.5694 35.5141 33.4311 34.2903 32.037 33.5795C30.6429 32.8688 28.4512 31.6156 28.4512 31.6156C28.4512 31.6156 26.6015 30.3925 25.6904 30.3638C25.6904 30.3638 24.6663 29.2536 24.4953 28.2863C24.3243 27.3191 24.3818 25.8388 24.4953 25.4406C24.5381 25.2903 24.6089 25.0806 24.6857 24.8414C24.8126 24.4453 24.9549 23.9704 25.007 23.5622C25.007 23.5622 26.0604 23.7326 26.4873 22.8508C26.9141 21.9684 27.0277 21.2002 27.0277 20.6878C27.0277 20.1755 27.0845 20.0332 26.7999 19.8629C26.7999 19.8629 26.9703 19.0659 27.1132 18.3545C27.2548 17.6424 27.4833 17.0172 27.17 16.277C26.8567 15.5369 27.0564 15.1101 26.9135 14.5696C26.7705 14.0292 26.4011 13.4314 26.4011 12.9477C26.4011 12.4641 26.2027 11.6672 25.5194 11.1268C24.836 10.5857 24.0912 10.0253 22.657 9.77208C22.657 9.77208 19.2181 9.34256 17.144 10.712C17.144 10.712 15.8488 12.1188 15.0705 12.933C14.2937 13.7473 14.4045 15.3773 14.3304 16.8208C14.2562 18.265 14.3304 19.3017 14.3304 19.3017C14.3304 19.3017 13.7379 19.7092 14.1079 21.3004C14.478 22.8929 14.6631 23.263 15.4413 23.3371C15.4413 23.3371 15.7005 25.4841 16.2556 25.9657L16.329 28.7052C16.329 28.7052 15.8882 28.4339 15.4272 29.9376L15.1607 30.7132" stroke="#285642" stroke-width="0.14028" stroke-miterlimit="10"/>
<path d="M24.4966 28.2871C24.4966 28.2871 24.4926 29.4761 23.2447 30.4968C22.4004 31.1882 21.6596 32.0352 21.2688 32.5102C21.0985 32.7173 21.0297 32.9891 21.0771 33.253C21.0938 33.3479 21.1072 33.4554 21.1092 33.5683C21.1138 33.7747 21.0831 33.9998 20.9756 34.2016C20.8967 34.3492 20.8132 34.4988 20.7324 34.6384C20.715 34.6685 20.697 34.6986 20.6783 34.7293C20.5861 34.8789 20.4826 35.0212 20.3677 35.1548" stroke="#285642" stroke-width="0.14028" stroke-miterlimit="10"/>
<path d="M23.7803 32.5311C23.7885 32.5393 23.7946 32.5469 23.8008 32.5558" stroke="#285642" stroke-width="0.14028" stroke-miterlimit="10"/>
<path d="M20.7818 34.6382V48.2767H19.0864V41.5353C19.0864 40.061 19.3129 36.8853 19.4264 36.2808C19.4832 35.9802 19.699 35.7517 19.9021 35.5968C20.0731 35.4672 20.2294 35.3182 20.3683 35.1559C20.3683 35.1559 20.369 35.1552 20.3696 35.1539C20.3837 35.1345 20.4979 34.9695 20.6803 34.7284C20.7057 34.6936 20.733 34.6582 20.7611 34.6208C21.4979 33.6576 23.0744 31.7925 23.7584 32.5033" fill="#285642"/>
<path d="M20.7818 34.6382V48.2767H19.0864V41.5353C19.0864 40.061 19.3129 36.8853 19.4264 36.2808C19.4832 35.9802 19.699 35.7517 19.9021 35.5968C20.0731 35.4672 20.2294 35.3182 20.3683 35.1559C20.3683 35.1559 20.369 35.1552 20.3696 35.1539C20.3837 35.1345 20.4979 34.9695 20.6803 34.7284C20.7057 34.6936 20.733 34.6582 20.7611 34.6208C21.4979 33.6576 23.0744 31.7925 23.7584 32.5033" stroke="#285642" stroke-width="0.14028" stroke-miterlimit="10"/>
<path d="M16.3308 28.7074C16.3308 28.7074 16.3014 29.8417 16.459 30.0588C16.592 30.2411 17.117 31.0775 18.6234 31.9712L18.6801 32.0046C19.4877 32.4769 20.103 33.2277 20.3561 34.1282C20.4163 34.344 20.4603 34.5597 20.457 34.7588C20.4557 34.9011 20.4296 35.036 20.3682 35.1542" stroke="#285642" stroke-width="0.14028" stroke-miterlimit="10"/>
<path d="M14.6807 34.1158C14.8149 34.0483 15.6987 33.5934 16.3286 32.9201C17.012 32.19 17.2551 31.3369 18.6239 31.9709" stroke="#285642" stroke-width="0.14028" stroke-miterlimit="10"/>
<path d="M15.1626 30.7151H15.1619C15.1472 30.7518 14.6636 31.9055 14.6636 32.5648V34.1239" stroke="#285642" stroke-width="0.14028" stroke-miterlimit="10"/>
<path d="M14.6636 34.125C14.6636 34.125 14.6689 34.1223 14.6809 34.1163C14.7785 34.0722 15.3002 33.8257 16.397 33.2118C17.8139 32.4189 19.6208 32.9567 20.3416 34.4116C20.3609 34.4503 20.4391 34.7188 20.4578 34.7589" stroke="#285642" stroke-width="0.14028" stroke-miterlimit="10"/>
<path d="M25.6913 30.3644C25.6913 30.3644 26.1562 30.8346 26.217 31.0584C26.2785 31.2829 25.5243 32.4452 25.5243 33.0978C25.5243 33.7505 25.2591 34.528 25.2591 34.528C25.2591 34.528 24.529 33.3871 23.7808 32.53C23.7728 32.5207 23.7655 32.512 23.7574 32.5033C23.4455 32.1486 23.1322 31.846 22.8677 31.697C22.6853 31.5955 22.4589 31.6202 22.2992 31.7552C21.9726 32.029 21.3146 32.6757 21.1108 33.5674" fill="#285642"/>
<path d="M25.6913 30.3644C25.6913 30.3644 26.1562 30.8346 26.217 31.0584C26.2785 31.2829 25.5243 32.4452 25.5243 33.0978C25.5243 33.7505 25.2591 34.528 25.2591 34.528C25.2591 34.528 24.529 33.3871 23.7808 32.53C23.7728 32.5207 23.7655 32.512 23.7574 32.5033C23.4455 32.1486 23.1322 31.846 22.8677 31.697C22.6853 31.5955 22.4589 31.6202 22.2992 31.7552C21.9726 32.029 21.3146 32.6757 21.1108 33.5674" stroke="#285642" stroke-width="0.14028" stroke-miterlimit="10"/>
<path d="M8.19478 36.4783C8.19478 36.4783 8.13867 39.7354 8.48402 41.3633C8.82938 42.9919 8.82938 45.1442 8.82938 45.1442" stroke="#285642" stroke-width="0.14028" stroke-miterlimit="10"/>
<path d="M6.01025 35.9705C6.01025 35.9705 7.03363 41.6197 7.82921 41.8976" stroke="#285642" stroke-width="0.14028" stroke-miterlimit="10"/>
<path d="M6.91943 38.5946C6.91943 38.5946 7.82791 41.622 8.19063 41.6754" stroke="#285642" stroke-width="0.14028" stroke-miterlimit="10"/>
<path d="M33.9189 36.4783C33.9189 36.4783 31.7485 40.4522 31.5535 42.1576C31.3584 43.8637 31.5535 42.7381 31.5535 42.7381" stroke="#285642" stroke-width="0.14028" stroke-miterlimit="10"/>
<path d="M34.6681 37.2808C34.6681 37.2808 34.9787 38.9594 34.9246 41.3068C34.8511 44.5038 34.0996 48.9407 30.9634 52.0602" stroke="#285642" stroke-width="0.14028" stroke-miterlimit="10"/>
<path d="M25.0078 23.5636C25.1087 23.0459 25.4433 22.617 25.5803 22.0004C25.7373 21.289 25.6912 20.8902 25.6912 20.8902V18.2069C25.6912 17.5776 25.426 17.0806 25.4587 16.5175C25.4921 15.9544 25.4587 15.5569 25.4587 14.9938C25.4587 14.4307 24.6972 14.3646 24.4981 14.0706C24.2997 13.7761 23.1073 13.736 23.0078 13.7026C22.909 13.6692 21.75 13.7353 21.4841 13.9671C21.2196 14.1989 20.3979 13.9671 20.3979 13.9671C20.3979 13.9671 19.1655 14.066 18.7353 13.8676C18.3044 13.6692 17.0793 13.5035 16.3833 14.2316C15.6879 14.9604 15.7874 15.3579 15.754 16.2851C15.7206 17.2122 15.5556 17.1795 15.4895 17.941C15.4227 18.7025 15.4561 18.8355 15.3238 19.5643C15.2864 19.768 15.2751 19.9764 15.2771 20.1822C15.2818 20.7159 15.3719 21.2363 15.3238 21.6177C15.257 22.1467 15.4427 23.3371 15.4427 23.3371" stroke="#285642" stroke-width="0.14028" stroke-miterlimit="10"/>
<path d="M14.332 19.3031C14.332 19.3031 15.2305 18.7487 15.2772 20.1835" stroke="#285642" stroke-width="0.14028" stroke-miterlimit="10"/>
<path d="M25.6914 20.891C25.6914 20.891 26.171 19.4735 26.8016 19.8643" stroke="#285642" stroke-width="0.14028" stroke-miterlimit="10"/>
<path d="M16.2573 25.9678C16.2573 25.9678 17.6321 27.3345 18.7436 27.3345C19.8552 27.3345 20.795 27.4708 21.6494 27.0954C22.5044 26.7193 24.2359 25.5309 24.6868 24.8429" stroke="#285642" stroke-width="0.14028" stroke-miterlimit="10"/>
</g>
</g>
<mask id="mask1_403_5279" style="mask-type:alpha" maskUnits="userSpaceOnUse" x="0" y="0" width="42" height="41">
<circle cx="20.6477" cy="20.4954" r="20.2726" fill="#D9D9D9" stroke="white" stroke-width="0.401653"/>
</mask>
<g mask="url(#mask1_403_5279)">
<circle cx="20.6477" cy="20.4954" r="20.4734" fill="#004F24"/>
<g clip-path="url(#clip1_403_5279)">
<path d="M34.9251 41.3302C34.5577 45.8171 31.213 50.6474 30.8971 51.095C30.9131 51.3896 30.9365 51.7242 30.9639 52.0836C34.1001 48.9641 34.8516 44.5279 34.9251 41.3302ZM7.52115 69.2218C7.52115 69.2218 7.52182 69.2218 7.52115 69.2211C7.51647 69.171 7.40759 68.3687 6.1237 67.9947C4.81442 67.6126 2.77435 69.3594 2.72693 69.4001C2.61136 68.8577 2.32412 68.815 2.26534 68.3146C2.19319 67.684 2.26534 65.9633 2.26534 65.503C2.26534 65.0428 1.99881 63.9513 2.0469 63.1757C2.09567 62.4002 2.09567 61.5511 1.926 60.8484C1.75632 60.1457 1.926 57.115 1.926 57.115C1.926 57.115 1.99814 54.5211 2.02286 53.6006C2.0469 52.6788 2.33815 50.6915 2.62873 50.0369C2.91931 49.3816 3.40428 45.7209 3.40428 45.7209C3.40428 45.7209 3.96205 42.3034 4.08296 41.3576C4.20454 40.4117 4.61669 37.7697 5.24661 36.6542C5.8772 35.5393 6.26531 35.0056 7.3321 34.3756C8.3989 33.7451 11.7683 32.3149 11.7683 32.3149C12.9947 31.5206 15.1283 30.7504 15.1617 30.7391C15.147 30.7751 14.6634 31.9281 14.6634 32.5881V34.1472C14.6634 34.1472 14.6687 34.1445 14.6808 34.1385C14.7783 34.0944 15.3 33.8479 16.3968 33.234C17.8137 32.4411 19.6206 32.9789 20.3414 34.4338C20.3607 34.4725 20.4389 34.741 20.4576 34.7811C20.4563 34.9234 20.4302 35.0583 20.3688 35.1766C20.3681 35.1779 20.3674 35.1786 20.3674 35.1786C20.2285 35.3409 20.0728 35.4899 19.9012 35.6195C19.6981 35.7738 19.483 36.0029 19.4255 36.3035C19.3127 36.908 19.0855 40.0837 19.0855 41.558V48.2994H20.7809V34.6609L20.7589 34.6442C21.4957 33.6809 23.0721 31.8159 23.7562 32.5266C23.7642 32.5353 23.7715 32.544 23.7796 32.5533C24.5277 33.4104 25.2578 34.5513 25.2578 34.5513C25.2578 34.5513 25.523 33.7731 25.523 33.1211C25.523 32.4692 26.2779 31.3062 26.2157 31.0817C26.155 30.858 25.69 30.3877 25.69 30.3877C26.6005 30.4164 28.4509 31.6395 28.4509 31.6395C28.4509 31.6395 30.6419 32.892 32.0367 33.6034C33.4315 34.3149 34.5691 35.5386 35.3092 36.6194C36.0493 37.7016 36.8743 42.7383 36.8743 42.7383C36.8743 42.7383 38.3252 48.7423 38.7527 51.3889C39.1796 54.0355 38.8095 58.7596 38.4962 59.3855C38.1836 60.0121 38.0694 61.6614 37.9845 62.5445C37.899 63.4262 37.8142 65.7889 37.5857 66.7275C37.5069 67.0534 37.4555 67.4442 37.4094 67.8818C37.3372 67.6079 37.0453 67.1516 36.1148 66.4629C34.5263 65.2873 32.3299 67.2913 32.0253 67.5818C32.1015 66.5805 32.195 65.1937 32.2217 64.1563C32.2678 62.3347 32.2217 61.7262 32.2217 59.9566C32.2217 58.1871 31.2391 55.0929 31.2077 54.9954C31.3253 56.3601 31.4268 57.6307 31.4268 58.2693C31.4268 59.7642 31.1469 63.0348 31.1469 63.0348C31.1469 63.0348 31.7975 67.1263 31.9211 68.8757C31.9345 69.0601 31.9412 69.2184 31.9412 69.3427C31.9412 70.6506 32.0367 71.2805 32.0367 71.2805L32.2418 71.7248L32.2591 71.7361C32.1983 71.8323 32.1242 71.9465 32.0367 72.0795C31.6519 72.6646 30.4996 73.869 30.3226 75.1275C30.1449 76.3854 30.3046 76.8643 30.0915 77.4842C29.8797 78.1041 29.2064 79.6111 29.2064 80.0353C29.2064 80.4595 29.9144 80.6025 30.2518 80.39C30.5878 80.1776 31.5096 78.7067 31.6519 77.8202C31.6873 77.6005 31.7187 77.3246 31.7508 77.034C31.712 77.382 32.36 77.2538 32.36 77.2538L32.374 77.2524C32.4074 77.6385 32.3794 78.1736 32.1389 78.7775C31.6519 80.0006 31.173 81.3827 30.712 81.7728C30.2511 82.1629 29.9318 82.4809 30.1623 83.0306C30.1623 83.0306 30.2825 83.1542 30.4415 83.1969C30.4415 83.1969 30.2571 83.9591 31.1042 83.734L32.1262 82.8342C32.2805 82.7434 32.4381 82.6231 32.5945 82.4875C32.6105 82.7815 32.6933 84.2971 32.7762 86.7854C32.8697 89.571 32.7762 95.6538 32.7762 95.6538C32.7762 95.6538 32.3713 96.0005 31.1743 96.3318C30.855 96.4206 30.4782 96.5088 30.0374 96.5883C27.9479 96.9657 25.9051 96.8609 23.9552 96.3265C23.5645 96.2189 23.0942 96.1374 22.5805 96.0786C21.5257 95.9577 20.2879 95.9337 19.1677 95.9871C18.1156 96.0372 17.167 96.1554 16.5725 96.3265C16.2312 96.4247 15.8604 96.4841 15.4857 96.5202C14.1744 96.6458 12.8084 96.4754 12.4717 96.5883C12.0375 96.7339 8.58727 96.768 7.19383 96.5883C6.71287 96.5269 6.33746 96.3452 6.04754 96.0953C5.49845 95.6224 5.25864 94.8989 5.19785 94.261C5.105 93.2857 4.12972 92.404 4.08363 91.1969C4.03754 89.9892 4.26866 89.2463 4.43834 87.7146C4.60801 86.1829 4.54789 85.9504 4.45504 84.6498C4.37688 83.555 4.59465 81.6045 4.66479 81.0166C4.79772 81.1562 4.91863 81.2638 5.00279 81.3332C5.29337 81.5764 7.20852 83.6124 7.62068 83.0547C7.62068 83.0547 7.91193 82.9578 7.74225 82.4241L7.74025 82.4201C7.86316 82.3486 7.95401 82.2063 7.93597 81.9398C7.93597 81.9398 7.36684 81.07 6.97406 80.3386L7.04687 77.1335C7.09363 77.382 7.13371 77.6659 7.15976 77.9879C7.30538 79.7815 8.75962 79.879 9.09896 79.6612C9.43897 79.4428 8.61466 77.3339 8.61466 76.8249C8.61466 76.3159 8.58994 75.1763 8.5659 74.861C8.54118 74.5457 8.15374 72.6312 7.30472 72.1516C7.30472 72.1516 7.5305 71.0828 7.5305 69.6813C7.5305 69.5297 7.52649 69.3767 7.51714 69.2224L7.52115 69.2218ZM9.23122 52.5238C9.25327 53.4964 9.24057 53.9173 9.18446 54.2686C8.98406 55.5245 7.97004 59.825 7.97004 60.5498C7.97004 61.2746 7.1484 64.8985 7.1484 65.8163C7.1484 66.0648 7.17646 66.3594 7.21788 66.6854C7.28267 67.1951 7.37953 67.7796 7.449 68.3801C7.45635 68.3367 7.72823 66.5772 7.72823 65.6233C7.72823 64.6694 8.74292 61.5645 8.8872 60.1156C9.03283 58.6661 9.46703 56.2506 9.51579 55.0422C9.56455 53.8344 9.23122 52.5245 9.23122 52.5245V52.5238Z" fill="white"/>
<path d="M27.1714 16.3028C27.4847 17.0429 27.2562 17.6682 27.1146 18.3803C26.9723 19.0917 26.8013 19.8886 26.8013 19.8886C26.1707 19.4978 25.6911 20.9153 25.6911 20.9153V18.232C25.6911 17.6027 25.4259 17.1057 25.4586 16.5426C25.492 15.9795 25.4586 15.582 25.4586 15.0189C25.4586 14.4558 24.6971 14.3897 24.498 14.0957C24.2996 13.8011 23.1073 13.7611 23.0077 13.7277C22.9089 13.6943 21.7499 13.7604 21.484 13.9922C21.2195 14.224 20.3979 13.9922 20.3979 13.9922C20.3979 13.9922 19.1654 14.0911 18.7352 13.8927C18.3044 13.6943 17.0793 13.5286 16.3832 14.2567C15.6878 14.9855 15.7874 15.383 15.754 16.3101C15.7206 17.2373 15.5556 17.2046 15.4894 17.9661C15.4226 18.7276 15.456 18.8606 15.3238 19.5893C15.2864 19.7931 15.275 20.0015 15.277 20.2072C15.2309 18.7724 14.3318 19.3268 14.3318 19.3268C14.3318 19.3268 14.2576 18.2901 14.3318 16.8459C14.4053 15.4023 14.2944 13.7731 15.0719 12.9581C15.8501 12.1438 17.1454 10.737 17.1454 10.737C19.2195 9.36698 22.6584 9.79717 22.6584 9.79717C24.0926 10.0503 24.8374 10.6108 25.5208 11.1519C26.2041 11.6923 26.4025 12.4892 26.4025 12.9728C26.4025 13.4565 26.7726 14.0543 26.9149 14.5947C27.0571 15.1351 26.8581 15.562 27.1714 16.3021V16.3028Z" fill="#B2B2B2"/>
<path d="M26.8012 19.8877C27.0858 20.058 27.029 20.2009 27.029 20.7126C27.029 21.2243 26.9154 21.9932 26.4886 22.8756C26.0617 23.7574 25.0083 23.587 25.0083 23.587C25.1092 23.0693 25.4438 22.6405 25.5808 22.0239C25.7378 21.3125 25.6917 20.9137 25.6917 20.9137C25.6917 20.9137 26.1713 19.4962 26.8019 19.887L26.8012 19.8877Z" fill="white"/>
<path d="M26.2175 31.0833C26.279 31.3078 25.5248 32.4701 25.5248 33.1227C25.5248 33.7754 25.2596 34.5529 25.2596 34.5529C25.2596 34.5529 24.5295 33.412 23.7813 32.5549C23.7733 32.5456 23.766 32.5369 23.7579 32.5282C23.446 32.1735 23.1327 31.8709 22.8682 31.722C22.6858 31.6204 22.4594 31.6451 22.2997 31.7801C21.9731 32.0539 21.3151 32.7006 21.1113 33.5923H21.1107C21.1087 33.4795 21.0953 33.3719 21.0786 33.2771C21.0312 33.0132 21.1 32.7413 21.2703 32.5342C21.6604 32.0586 22.4012 31.2123 23.2463 30.5209C24.4941 29.5009 24.4981 28.3112 24.4981 28.3112C24.6684 29.2784 25.6931 30.3886 25.6931 30.3886C25.6931 30.3886 26.1581 30.8589 26.2189 31.0827L26.2175 31.0833Z" fill="#B2B2B2"/>
<path d="M25.6915 20.9147C25.6915 20.9147 25.7376 21.3135 25.5807 22.0249C25.4437 22.6415 25.1097 23.0703 25.0082 23.588C24.9554 23.9962 24.8138 24.4711 24.6869 24.8672C24.236 25.5553 22.5045 26.743 21.6495 27.1197C20.7951 27.4952 19.8552 27.3589 18.7437 27.3589C17.6321 27.3589 16.2574 25.9922 16.2574 25.9922C15.7023 25.5105 15.4431 23.3636 15.4431 23.3636C15.4431 23.3636 15.2581 22.1732 15.3242 21.6442C15.3716 21.2621 15.2821 20.7417 15.2774 20.2086C15.2761 20.0029 15.2875 19.7945 15.3242 19.5907C15.4565 18.8619 15.4231 18.729 15.4899 17.9675C15.556 17.206 15.7217 17.2387 15.7544 16.3115C15.7871 15.3843 15.6883 14.9869 16.3837 14.2581C17.0797 13.5293 18.3048 13.695 18.7357 13.894C19.1659 14.0924 20.3983 13.9936 20.3983 13.9936C20.3983 13.9936 21.22 14.2254 21.4845 13.9936C21.7497 13.7618 22.9093 13.695 23.0082 13.729C23.1077 13.7618 24.3001 13.8019 24.4985 14.0971C24.6969 14.391 25.4591 14.4572 25.4591 15.0203C25.4591 15.5834 25.4925 15.9809 25.4591 16.544C25.4263 17.1071 25.6915 17.6041 25.6915 18.2334V20.9167V20.9147Z" fill="white"/>
<path d="M24.687 24.8669C24.6102 25.1054 24.5393 25.3158 24.4966 25.4661C24.383 25.8643 24.3263 27.3445 24.4966 28.3118C24.4966 28.3118 24.4926 29.5008 23.2448 30.5215C22.4004 31.2129 21.6596 32.0599 21.2688 32.5349C21.0985 32.742 21.0297 33.0138 21.0771 33.2777C21.0938 33.3726 21.1072 33.4801 21.1092 33.593C21.1139 33.7994 21.0831 34.0245 20.9756 34.2263C20.8968 34.3739 20.8133 34.5235 20.7324 34.6631C20.7151 34.6932 20.697 34.7233 20.6783 34.754C20.4966 34.9951 20.3817 35.1595 20.3677 35.1795C20.4292 35.0613 20.4552 34.927 20.4565 34.784C20.4592 34.5856 20.4158 34.3692 20.3557 34.1535C20.1032 33.253 19.4873 32.5022 18.6797 32.0299L18.6229 31.9965C17.1159 31.1027 16.5908 30.2664 16.4586 30.084C16.3009 29.8669 16.3303 28.7326 16.3303 28.7326L16.2568 25.9932C16.2568 25.9932 17.6316 27.3599 18.7431 27.3599C19.8547 27.3599 20.7945 27.4962 21.6489 27.1208C22.504 26.7447 24.2354 25.5563 24.6863 24.8683L24.687 24.8669Z" fill="white"/>
<path d="M23.7573 32.5279C23.0733 31.8172 21.4968 33.6822 20.76 34.6455C20.732 34.6829 20.7046 34.7183 20.6792 34.753C20.6979 34.723 20.7159 34.6929 20.7333 34.6622C20.8141 34.5226 20.8976 34.373 20.9765 34.2253C21.084 34.0236 21.1147 33.7985 21.1101 33.5921H21.1107C21.3151 32.7003 21.9731 32.0537 22.2991 31.7798C22.4594 31.6449 22.6852 31.6195 22.8676 31.7217C23.1314 31.8706 23.4454 32.1732 23.7573 32.5279Z" fill="#B2B2B2"/>
<path d="M20.7818 34.6621V48.3007H19.0864V41.5592C19.0864 40.085 19.3129 36.9093 19.4264 36.3047C19.4832 36.0041 19.699 35.7757 19.9021 35.6207C20.0731 35.4911 20.2294 35.3422 20.3683 35.1798C20.3683 35.1798 20.369 35.1792 20.3696 35.1778C20.4839 35.0442 20.5881 34.902 20.6803 34.7523C20.7057 34.7176 20.733 34.6822 20.7611 34.6448L20.7831 34.6615L20.7818 34.6621Z" fill="white"/>
<path d="M20.3571 34.1526C20.4173 34.3684 20.4613 34.5841 20.458 34.7832C20.4393 34.7431 20.3611 34.4746 20.3418 34.4359C19.6217 32.981 17.8141 32.4432 16.3972 33.2361C15.3004 33.85 14.7787 34.0965 14.6812 34.1406C14.8154 34.0731 15.6992 33.6182 16.3291 32.9449C17.0125 32.2148 17.2556 31.3617 18.6243 31.9957L18.6811 32.0291C19.4887 32.5013 20.104 33.2522 20.3571 34.1526Z" fill="#B2B2B2"/>
<path d="M18.6241 31.9945C17.2561 31.3606 17.0123 32.2136 16.3289 32.9438C15.699 33.6171 14.8152 34.072 14.6809 34.1395C14.6689 34.1448 14.6636 34.1482 14.6636 34.1482V32.589C14.6636 31.9291 15.1472 30.7754 15.1619 30.74H15.1626L15.4291 29.9638C15.8894 28.4608 16.3309 28.7314 16.3309 28.7314C16.3309 28.7314 16.3015 29.8656 16.4592 30.0827C16.5921 30.2651 17.1171 31.1014 18.6235 31.9952L18.6241 31.9945Z" fill="#B2B2B2"/>
<path d="M15.2781 20.2076C15.2827 20.7413 15.3729 21.2617 15.3248 21.6431C15.258 22.1722 15.4437 23.3625 15.4437 23.3625C14.6655 23.2884 14.4805 22.9183 14.1104 21.3258C13.7403 19.734 14.3328 19.3272 14.3328 19.3272C14.3328 19.3272 15.2313 18.7727 15.2781 20.2076Z" fill="white"/>
<path d="M15.1617 30.7378C15.129 30.7491 12.9954 31.5194 11.7683 32.3136C11.7683 32.3136 8.39823 33.7438 7.3321 34.3744C6.26531 35.0043 5.8772 35.538 5.24661 36.6529C4.61669 37.7685 4.20454 40.4104 4.08296 41.3563C3.96139 42.3022 3.40428 45.7197 3.40428 45.7197C3.40428 45.7197 2.91931 49.3803 2.62873 50.0356C2.33815 50.6902 2.0469 52.6775 2.02286 53.5994C1.99814 54.5205 1.926 57.1137 1.926 57.1137C1.926 57.1137 1.75632 60.1444 1.926 60.8471C2.095 61.5499 2.095 62.3989 2.0469 63.1744C1.99814 63.95 2.26534 65.0408 2.26534 65.5018C2.26534 65.9627 2.19319 67.6834 2.26534 68.3134C2.32345 68.8137 2.61069 68.8558 2.72693 69.3988C2.75632 69.5391 2.77435 69.7135 2.77435 69.9373C2.77435 71.0281 2.72559 72.992 2.72559 72.992C2.72559 72.992 2.82245 73.9379 3.47776 73.9132C3.47776 73.9132 3.45304 74.35 3.42899 74.8591C3.40428 75.3681 3.08898 75.6346 3.0656 76.2171C3.04088 76.7983 2.99279 77.1623 3.0656 77.3808C3.13774 77.5992 3.8171 78.5932 3.88991 79.4896C3.94135 80.1289 4.33814 80.67 4.66679 81.0153C4.79972 81.1549 4.92063 81.2625 5.0048 81.332C5.29538 81.5751 7.21053 83.6112 7.62268 83.0534C7.62268 83.0534 7.91393 82.9565 7.74426 82.4228" stroke="#B2B2B2" stroke-width="0.14028" stroke-miterlimit="10"/>
<path d="M31.9215 68.8751C31.9348 69.0588 31.9415 69.2172 31.9415 69.3414C31.9415 70.6493 32.037 71.2793 32.037 71.2793C32.037 71.2793 32.2274 71.2793 32.5273 71.2986C33.2648 71.3487 34.6643 71.5191 35.5226 72.1103C35.9234 72.3861 36.206 72.7535 36.2487 73.2425C36.2487 73.2425 36.7898 72.2753 37.0744 70.7101C37.236 69.821 37.3055 68.9606 37.3777 68.2105C37.3884 68.0976 37.399 67.9874 37.4097 67.8798C37.4552 67.4423 37.5073 67.0515 37.5861 66.7255C37.8145 65.787 37.8994 63.4243 37.9849 62.5425C38.0697 61.6601 38.1839 60.0101 38.4966 59.3836C38.8099 58.757 39.1799 54.0336 38.7531 51.387C38.3262 48.741 36.8747 42.7364 36.8747 42.7364C36.8747 42.7364 36.0497 37.6997 35.3095 36.6175C34.5694 35.536 33.4311 34.3123 32.037 33.6015C30.6429 32.8908 28.4512 31.6376 28.4512 31.6376C28.4512 31.6376 26.6015 30.4145 25.6904 30.3858C25.6904 30.3858 24.6663 29.2755 24.4953 28.3083C24.3243 27.341 24.3818 25.8607 24.4953 25.4626C24.5381 25.3123 24.6089 25.1026 24.6857 24.8634C24.8126 24.4673 24.9549 23.9924 25.007 23.5842C25.007 23.5842 26.0604 23.7545 26.4873 22.8728C26.9141 21.9904 27.0277 21.2222 27.0277 20.7098C27.0277 20.1975 27.0845 20.0552 26.7999 19.8848C26.7999 19.8848 26.9703 19.0879 27.1132 18.3765C27.2548 17.6644 27.4833 17.0392 27.17 16.299C26.8567 15.5589 27.0564 15.132 26.9135 14.5916C26.7705 14.0512 26.4011 13.4533 26.4011 12.9697C26.4011 12.4861 26.2027 11.6892 25.5194 11.1488C24.836 10.6077 24.0912 10.0472 22.657 9.79405C22.657 9.79405 19.2181 9.36453 17.144 10.7339C17.144 10.7339 15.8488 12.1407 15.0705 12.955C14.2937 13.7693 14.4045 15.3992 14.3304 16.8428C14.2562 18.287 14.3304 19.3237 14.3304 19.3237C14.3304 19.3237 13.7379 19.7312 14.1079 21.3224C14.478 22.9149 14.6631 23.2849 15.4413 23.3591C15.4413 23.3591 15.7005 25.506 16.2556 25.9877L16.329 28.7271C16.329 28.7271 15.8882 28.4559 15.4272 29.9596L15.1607 30.7351" stroke="#B2B2B2" stroke-width="0.14028" stroke-miterlimit="10"/>
<path d="M24.4966 28.3091C24.4966 28.3091 24.4926 29.4981 23.2447 30.5188C22.4004 31.2102 21.6596 32.0572 21.2688 32.5322C21.0985 32.7392 21.0297 33.0111 21.0771 33.275C21.0938 33.3698 21.1072 33.4774 21.1092 33.5903C21.1138 33.7967 21.0831 34.0218 20.9756 34.2235C20.8967 34.3712 20.8132 34.5208 20.7324 34.6604C20.715 34.6905 20.697 34.7205 20.6783 34.7513C20.5861 34.9009 20.4826 35.0432 20.3677 35.1768" stroke="#B2B2B2" stroke-width="0.14028" stroke-miterlimit="10"/>
<path d="M23.7803 32.5531C23.7885 32.5613 23.7946 32.5688 23.8008 32.5777" stroke="#B2B2B2" stroke-width="0.14028" stroke-miterlimit="10"/>
<path d="M20.7818 34.6602V48.2987H19.0864V41.5572C19.0864 40.083 19.3129 36.9073 19.4264 36.3028C19.4832 36.0022 19.699 35.7737 19.9021 35.6187C20.0731 35.4891 20.2294 35.3402 20.3683 35.1779C20.3683 35.1779 20.369 35.1772 20.3696 35.1759C20.3837 35.1565 20.4979 34.9915 20.6803 34.7503C20.7057 34.7156 20.733 34.6802 20.7611 34.6428C21.4979 33.6795 23.0744 31.8145 23.7584 32.5252" fill="#B2B2B2"/>
<path d="M20.7818 34.6602V48.2987H19.0864V41.5572C19.0864 40.083 19.3129 36.9073 19.4264 36.3028C19.4832 36.0022 19.699 35.7737 19.9021 35.6187C20.0731 35.4891 20.2294 35.3402 20.3683 35.1779C20.3683 35.1779 20.369 35.1772 20.3696 35.1759C20.3837 35.1565 20.4979 34.9915 20.6803 34.7503C20.7057 34.7156 20.733 34.6802 20.7611 34.6428C21.4979 33.6795 23.0744 31.8145 23.7584 32.5252" stroke="#B2B2B2" stroke-width="0.14028" stroke-miterlimit="10"/>
<path d="M16.3308 28.7294C16.3308 28.7294 16.3014 29.8636 16.459 30.0807C16.592 30.2631 17.117 31.0994 18.6234 31.9932L18.6801 32.0266C19.4877 32.4989 20.103 33.2497 20.3561 34.1502C20.4163 34.3659 20.4603 34.5817 20.457 34.7808C20.4557 34.923 20.4296 35.058 20.3682 35.1762" stroke="#B2B2B2" stroke-width="0.14028" stroke-miterlimit="10"/>
<path d="M14.6807 34.1378C14.8149 34.0703 15.6987 33.6154 16.3286 32.9421C17.012 32.212 17.2551 31.3589 18.6239 31.9928" stroke="#B2B2B2" stroke-width="0.14028" stroke-miterlimit="10"/>
<path d="M15.1626 30.7371H15.1619C15.1472 30.7738 14.6636 31.9274 14.6636 32.5867V34.1459" stroke="#B2B2B2" stroke-width="0.14028" stroke-miterlimit="10"/>
<path d="M14.6636 34.147C14.6636 34.147 14.6689 34.1443 14.6809 34.1383C14.7785 34.0942 15.3002 33.8477 16.397 33.2338C17.8139 32.4409 19.6208 32.9786 20.3416 34.4335C20.3609 34.4723 20.4391 34.7408 20.4578 34.7809" stroke="#B2B2B2" stroke-width="0.14028" stroke-miterlimit="10"/>
<path d="M25.6913 30.3864C25.6913 30.3864 26.1562 30.8566 26.217 31.0804C26.2785 31.3048 25.5243 32.4672 25.5243 33.1198C25.5243 33.7724 25.2591 34.55 25.2591 34.55C25.2591 34.55 24.529 33.409 23.7808 32.552C23.7728 32.5426 23.7655 32.534 23.7574 32.5253C23.4455 32.1706 23.1322 31.868 22.8677 31.719C22.6853 31.6175 22.4589 31.6422 22.2992 31.7771C21.9726 32.051 21.3146 32.6976 21.1108 33.5894" fill="#B2B2B2"/>
<path d="M25.6913 30.3864C25.6913 30.3864 26.1562 30.8566 26.217 31.0804C26.2785 31.3048 25.5243 32.4672 25.5243 33.1198C25.5243 33.7724 25.2591 34.55 25.2591 34.55C25.2591 34.55 24.529 33.409 23.7808 32.552C23.7728 32.5426 23.7655 32.534 23.7574 32.5253C23.4455 32.1706 23.1322 31.868 22.8677 31.719C22.6853 31.6175 22.4589 31.6422 22.2992 31.7771C21.9726 32.051 21.3146 32.6976 21.1108 33.5894" stroke="#B2B2B2" stroke-width="0.14028" stroke-miterlimit="10"/>
<path d="M8.19478 36.5002C8.19478 36.5002 8.13867 39.7574 8.48402 41.3853C8.82938 43.0139 8.82938 45.1662 8.82938 45.1662" stroke="#B2B2B2" stroke-width="0.14028" stroke-miterlimit="10"/>
<path d="M6.01025 35.9924C6.01025 35.9924 7.03363 41.6417 7.82921 41.9196" stroke="#B2B2B2" stroke-width="0.14028" stroke-miterlimit="10"/>
<path d="M6.91943 38.6166C6.91943 38.6166 7.82791 41.6439 8.19063 41.6974" stroke="#B2B2B2" stroke-width="0.14028" stroke-miterlimit="10"/>
<path d="M33.9189 36.5002C33.9189 36.5002 31.7485 40.4742 31.5535 42.1796C31.3584 43.8856 31.5535 42.7601 31.5535 42.7601" stroke="#B2B2B2" stroke-width="0.14028" stroke-miterlimit="10"/>
<path d="M34.6681 37.3027C34.6681 37.3027 34.9787 38.9814 34.9246 41.3288C34.8511 44.5258 34.0996 48.9626 30.9634 52.0822" stroke="#B2B2B2" stroke-width="0.14028" stroke-miterlimit="10"/>
<path d="M25.0078 23.5855C25.1087 23.0678 25.4433 22.639 25.5803 22.0224C25.7373 21.311 25.6912 20.9122 25.6912 20.9122V18.2289C25.6912 17.5996 25.426 17.1026 25.4587 16.5395C25.4921 15.9764 25.4587 15.5789 25.4587 15.0158C25.4587 14.4527 24.6972 14.3865 24.4981 14.0926C24.2997 13.798 23.1073 13.7579 23.0078 13.7245C22.909 13.6911 21.75 13.7573 21.4841 13.9891C21.2196 14.2209 20.3979 13.9891 20.3979 13.9891C20.3979 13.9891 19.1655 14.0879 18.7353 13.8895C18.3044 13.6911 17.0793 13.5255 16.3833 14.2536C15.6879 14.9824 15.7874 15.3798 15.754 16.307C15.7206 17.2342 15.5556 17.2015 15.4895 17.963C15.4227 18.7245 15.4561 18.8574 15.3238 19.5862C15.2864 19.79 15.2751 19.9984 15.2771 20.2041C15.2818 20.7379 15.3719 21.2582 15.3238 21.6397C15.257 22.1687 15.4427 23.3591 15.4427 23.3591" stroke="#B2B2B2" stroke-width="0.14028" stroke-miterlimit="10"/>
<path d="M14.332 19.3251C14.332 19.3251 15.2305 18.7706 15.2772 20.2055" stroke="#B2B2B2" stroke-width="0.14028" stroke-miterlimit="10"/>
<path d="M25.6914 20.913C25.6914 20.913 26.171 19.4955 26.8016 19.8863" stroke="#B2B2B2" stroke-width="0.14028" stroke-miterlimit="10"/>
<path d="M16.2573 25.9898C16.2573 25.9898 17.6321 27.3565 18.7436 27.3565C19.8552 27.3565 20.795 27.4928 21.6494 27.1174C22.5044 26.7413 24.2359 25.5529 24.6868 24.8649" stroke="#B2B2B2" stroke-width="0.14028" stroke-miterlimit="10"/>
</g>
</g>
<circle cx="20.6477" cy="20.4954" r="20.0717" stroke="#004F24" stroke-width="0.803306"/>
<defs>
<clipPath id="clip0_403_5279">
<rect width="37.2355" height="123.292" fill="white" transform="translate(1.78076 9.63965)"/>
</clipPath>
<clipPath id="clip1_403_5279">
<rect width="37.2355" height="123.292" fill="white" transform="translate(1.78076 9.66162)"/>
</clipPath>
</defs>
</svg>
