<svg width="57" height="57" viewBox="0 0 57 57" fill="none" xmlns="http://www.w3.org/2000/svg">
<mask id="mask0_76_4804" style="mask-type:alpha" maskUnits="userSpaceOnUse" x="0" y="0" width="57" height="57">
<circle cx="28.4" cy="28.4" r="28.4" fill="#D9D9D9"/>
</mask>
<g mask="url(#mask0_76_4804)">
<circle cx="28.4" cy="28.4" r="27.8428" fill="#EFEFEF" stroke="#004F24" stroke-width="1.11432"/>
<g clip-path="url(#clip0_76_4804)">
<path d="M48.2051 57.3011C47.6954 63.5253 43.0558 70.2257 42.6175 70.8465C42.6398 71.2552 42.6722 71.7194 42.7102 72.2179C47.0607 67.8906 48.1031 61.7369 48.2051 57.3011ZM10.1912 95.9914C10.1912 95.9914 10.1921 95.9914 10.1912 95.9905C10.1847 95.921 10.0337 94.8081 8.25271 94.2892C6.43653 93.7592 3.60661 96.1823 3.54082 96.2388C3.38052 95.4864 2.98207 95.4271 2.90053 94.7331C2.80045 93.8583 2.90053 91.4713 2.90053 90.8329C2.90053 90.1945 2.5308 88.6803 2.59752 87.6045C2.66516 86.5287 2.66516 85.351 2.4298 84.3762C2.19444 83.4014 2.4298 79.1973 2.4298 79.1973C2.4298 79.1973 2.52988 75.5992 2.56416 74.3223C2.59752 73.0435 3.00153 70.2868 3.40461 69.3787C3.80769 68.4697 4.48042 63.3918 4.48042 63.3918C4.48042 63.3918 5.25415 58.6512 5.42187 57.3391C5.59052 56.027 6.16225 52.3622 7.03605 50.8147C7.91079 49.2682 8.44916 48.5278 9.92898 47.654C11.4088 46.7793 16.0827 44.7954 16.0827 44.7954C17.784 43.6936 20.7436 42.6252 20.7899 42.6095C20.7696 42.6595 20.0987 44.2589 20.0987 45.1744V47.3371C20.0987 47.3371 20.1061 47.3334 20.1228 47.3251C20.2581 47.2639 20.9818 46.922 22.5033 46.0704C24.4687 44.9705 26.9752 45.7164 27.975 47.7346C28.0019 47.7884 28.1103 48.1609 28.1362 48.2165C28.1344 48.4139 28.0982 48.601 28.013 48.765C28.0121 48.7669 28.0111 48.7678 28.0111 48.7678C27.8184 48.993 27.6025 49.1996 27.3644 49.3794C27.0827 49.5934 26.7843 49.9113 26.7046 50.3283C26.548 51.1669 26.2329 55.572 26.2329 57.6171V66.9686H28.5847V48.0497L28.5541 48.0265C29.5762 46.6903 31.763 44.1032 32.7119 45.0891C32.723 45.1012 32.7332 45.1132 32.7443 45.1262C33.7822 46.315 34.795 47.8977 34.795 47.8977C34.795 47.8977 35.1628 46.8182 35.1628 45.9138C35.1628 45.0094 36.2099 43.3962 36.1237 43.0848C36.0394 42.7744 35.3945 42.1221 35.3945 42.1221C36.6575 42.1619 39.2242 43.8586 39.2242 43.8586C39.2242 43.8586 42.2636 45.596 44.1983 46.5828C46.1331 47.5697 47.7112 49.2673 48.7379 50.7666C49.7646 52.2677 50.909 59.2544 50.909 59.2544C50.909 59.2544 52.9216 67.5829 53.5146 71.2542C54.1067 74.9255 53.5934 81.4786 53.1588 82.3469C52.7252 83.216 52.5667 85.5039 52.449 86.7289C52.3304 87.952 52.2127 91.2295 51.8958 92.5314C51.7865 92.9836 51.7151 93.5257 51.6512 94.1326C51.5511 93.7527 51.1462 93.1198 49.8554 92.1645C47.6519 90.5336 44.6051 93.3135 44.1826 93.7166C44.2882 92.3275 44.418 90.4039 44.455 88.9648C44.519 86.4379 44.455 85.5938 44.455 83.1391C44.455 80.6845 43.092 76.3924 43.0484 76.2571C43.2115 78.1502 43.3523 79.9126 43.3523 80.7985C43.3523 82.8723 42.9641 87.409 42.9641 87.409C42.9641 87.409 43.8666 93.0846 44.038 95.5114C44.0566 95.7672 44.0658 95.9868 44.0658 96.1591C44.0658 97.9735 44.1983 98.8473 44.1983 98.8473L44.4828 99.4635L44.5069 99.4792C44.4226 99.6127 44.3197 99.7711 44.1983 99.9555C43.6646 100.767 42.0662 102.438 41.8206 104.184C41.5741 105.929 41.7956 106.593 41.5 107.453C41.2063 108.313 40.2722 110.403 40.2722 110.992C40.2722 111.58 41.2545 111.778 41.7224 111.484C42.1885 111.189 43.4672 109.149 43.6646 107.919C43.7137 107.614 43.7573 107.231 43.8018 106.828C43.748 107.311 44.6468 107.133 44.6468 107.133L44.6663 107.131C44.7126 107.667 44.6737 108.409 44.3401 109.247C43.6646 110.943 43.0002 112.861 42.3609 113.402C41.7215 113.943 41.2786 114.384 41.5982 115.147C41.5982 115.147 41.765 115.318 41.9856 115.377C41.9856 115.377 41.7298 116.435 42.9048 116.122L44.3225 114.874C44.5366 114.748 44.7552 114.581 44.9721 114.393C44.9943 114.801 45.1092 116.903 45.2241 120.355C45.3539 124.219 45.2241 132.657 45.2241 132.657C45.2241 132.657 44.6626 133.138 43.0021 133.598C42.5591 133.721 42.0365 133.843 41.425 133.953C38.5265 134.477 35.6929 134.331 32.988 133.59C32.446 133.441 31.7936 133.328 31.081 133.246C29.6179 133.079 27.9009 133.045 26.3469 133.119C24.8875 133.189 23.5717 133.353 22.747 133.59C22.2735 133.726 21.7592 133.809 21.2394 133.859C19.4204 134.033 17.5254 133.797 17.0584 133.953C16.4561 134.155 11.6701 134.203 9.73716 133.953C9.07 133.868 8.54923 133.616 8.14708 133.27C7.38539 132.613 7.05273 131.61 6.96841 130.725C6.83961 129.372 5.48674 128.149 5.4228 126.475C5.35886 124.799 5.67947 123.769 5.91484 121.644C6.1502 119.519 6.0668 119.197 5.938 117.393C5.82959 115.874 6.13167 113.168 6.22896 112.353C6.41336 112.547 6.58108 112.696 6.69784 112.792C7.10092 113.129 9.75755 115.954 10.3293 115.18C10.3293 115.18 10.7333 115.046 10.4979 114.305L10.4951 114.3C10.6656 114.201 10.7917 114.003 10.7666 113.633C10.7666 113.633 9.97716 112.427 9.43231 111.412L9.53331 106.966C9.59817 107.311 9.65377 107.705 9.68991 108.152C9.89191 110.64 11.9092 110.775 12.3799 110.473C12.8516 110.17 11.7081 107.244 11.7081 106.538C11.7081 105.832 11.6738 104.251 11.6405 103.814C11.6062 103.377 11.0687 100.721 9.89099 100.056C9.89099 100.056 10.2042 98.573 10.2042 96.6289C10.2042 96.4186 10.1986 96.2064 10.1857 95.9923L10.1912 95.9914ZM12.5634 72.8286C12.594 74.1777 12.5763 74.7615 12.4985 75.2489C12.2205 76.991 10.8139 82.9566 10.8139 83.962C10.8139 84.9674 9.67415 89.9943 9.67415 91.2675C9.67415 91.6122 9.71307 92.0208 9.77052 92.473C9.86041 93.18 9.99477 93.9908 10.0911 94.8239C10.1013 94.7636 10.4785 92.3229 10.4785 90.9997C10.4785 89.6765 11.886 85.3695 12.0862 83.3597C12.2882 81.3489 12.8905 77.9982 12.9581 76.3219C13.0258 74.6466 12.5634 72.8295 12.5634 72.8295V72.8286Z" fill="white"/>
<path d="M37.4496 22.5841C37.8842 23.6108 37.5673 24.4782 37.3709 25.4659C37.1735 26.4528 36.9363 27.5583 36.9363 27.5583C36.0615 27.0162 35.3962 28.9825 35.3962 28.9825V25.2602C35.3962 24.3874 35.0284 23.6979 35.0738 22.9168C35.1201 22.1357 35.0738 21.5843 35.0738 20.8032C35.0738 20.022 34.0174 19.9303 33.7413 19.5226C33.4661 19.1139 31.812 19.0583 31.674 19.012C31.5368 18.9657 29.9291 19.0574 29.5603 19.3789C29.1934 19.7005 28.0537 19.3789 28.0537 19.3789C28.0537 19.3789 26.344 19.5161 25.7473 19.2409C25.1496 18.9657 23.4502 18.7359 22.4846 19.7459C21.52 20.7568 21.6581 21.3082 21.6118 22.5943C21.5654 23.8805 21.3366 23.8351 21.2448 24.8914C21.1522 25.9478 21.1985 26.1322 21.015 27.1431C20.9631 27.4258 20.9474 27.7149 20.9501 28.0003C20.8862 26.0099 19.639 26.779 19.639 26.779C19.639 26.779 19.5361 25.3409 19.639 23.3375C19.7409 21.3351 19.5871 19.075 20.6657 17.9445C21.7452 16.815 23.5419 14.8635 23.5419 14.8635C26.4191 12.963 31.1894 13.5597 31.1894 13.5597C33.1788 13.9109 34.212 14.6884 35.1599 15.4389C36.1079 16.1886 36.3831 17.294 36.3831 17.9649C36.3831 18.6358 36.8964 19.4651 37.0938 20.2148C37.2912 20.9644 37.015 21.5565 37.4496 22.5832V22.5841Z" fill="#285642"/>
<path d="M36.9365 27.5569C37.3313 27.7932 37.2525 27.9915 37.2525 28.7013C37.2525 29.4111 37.095 30.4776 36.5029 31.7017C35.9108 32.9248 34.4495 32.6885 34.4495 32.6885C34.5894 31.9704 35.0536 31.3755 35.2436 30.5202C35.4613 29.5334 35.3974 28.9802 35.3974 28.9802C35.3974 28.9802 36.0627 27.0139 36.9375 27.556L36.9365 27.5569Z" fill="white"/>
<path d="M36.1266 43.0872C36.2119 43.3985 35.1657 45.0109 35.1657 45.9162C35.1657 46.8215 34.7978 47.9001 34.7978 47.9001C34.7978 47.9001 33.785 46.3174 32.7472 45.1285C32.7361 45.1156 32.7259 45.1035 32.7148 45.0915C32.2821 44.5994 31.8475 44.1797 31.4805 43.973C31.2276 43.8322 30.9134 43.8665 30.692 44.0537C30.2388 44.4336 29.3261 45.3306 29.0435 46.5676H29.0426C29.0398 46.411 29.0213 46.2618 28.9981 46.1302C28.9323 45.7642 29.0277 45.3871 29.264 45.0998C29.8052 44.4401 30.8328 43.266 32.005 42.307C33.7359 40.892 33.7415 39.2417 33.7415 39.2417C33.9778 40.5835 35.3992 42.1235 35.3992 42.1235C35.3992 42.1235 36.0441 42.7758 36.1285 43.0863L36.1266 43.0872Z" fill="#285642"/>
<path d="M35.3974 28.9815C35.3974 28.9815 35.4613 29.5347 35.2436 30.5215C35.0536 31.3768 34.5903 31.9717 34.4495 32.6898C34.3763 33.256 34.1798 33.9148 34.0038 34.4643C33.3783 35.4187 30.9765 37.0663 29.7904 37.5889C28.6052 38.1097 27.3015 37.9206 25.7596 37.9206C24.2177 37.9206 22.3107 36.0247 22.3107 36.0247C21.5406 35.3567 21.1811 32.3785 21.1811 32.3785C21.1811 32.3785 20.9244 30.7272 21.0162 29.9934C21.082 29.4633 20.9578 28.7415 20.9513 28.002C20.9495 27.7166 20.9652 27.4275 21.0162 27.1449C21.1997 26.134 21.1533 25.9496 21.246 24.8932C21.3377 23.8369 21.5675 23.8823 21.6129 22.5961C21.6583 21.3099 21.5212 20.7586 22.4858 19.7477C23.4513 18.7367 25.1508 18.9665 25.7485 19.2426C26.3452 19.5179 28.0548 19.3807 28.0548 19.3807C28.0548 19.3807 29.1946 19.7023 29.5615 19.3807C29.9294 19.0592 31.538 18.9665 31.6751 19.0138C31.8132 19.0592 33.4672 19.1148 33.7424 19.5243C34.0177 19.9321 35.0749 20.0238 35.0749 20.8049C35.0749 21.5861 35.1213 22.1374 35.0749 22.9186C35.0295 23.6997 35.3974 24.3891 35.3974 25.262V28.9843V28.9815Z" fill="white"/>
<path d="M34.0036 34.4639C33.897 34.7947 33.7988 35.0866 33.7395 35.295C33.582 35.8473 33.5032 37.9007 33.7395 39.2425C33.7395 39.2425 33.7339 40.8919 32.003 42.3077C30.8317 43.2668 29.8041 44.4418 29.262 45.1006C29.0257 45.3878 28.9303 45.765 28.9961 46.131C29.0193 46.2626 29.0378 46.4118 29.0406 46.5684C29.0471 46.8547 29.0044 47.167 28.8552 47.4468C28.7459 47.6516 28.6301 47.8592 28.518 48.0528C28.4939 48.0945 28.4688 48.1362 28.4429 48.1788C28.1909 48.5134 28.0315 48.7413 28.012 48.7691C28.0973 48.6051 28.1334 48.4188 28.1353 48.2205C28.139 47.9453 28.0787 47.6451 27.9953 47.3458C27.6451 46.0967 26.7907 45.0552 25.6704 44.4001L25.5917 44.3537C23.5012 43.1139 22.7729 41.9538 22.5894 41.7008C22.3707 41.3997 22.4115 39.8262 22.4115 39.8262L22.3096 36.0262C22.3096 36.0262 24.2166 37.922 25.7585 37.922C27.3004 37.922 28.6041 38.1111 29.7893 37.5903C30.9754 37.0686 33.3772 35.4201 34.0026 34.4657L34.0036 34.4639Z" fill="white"/>
<path d="M32.714 45.091C31.7651 44.1051 29.5783 46.6922 28.5562 48.0284C28.5173 48.0803 28.4793 48.1294 28.4441 48.1776C28.47 48.1359 28.4951 48.0942 28.5191 48.0516C28.6313 47.8579 28.7471 47.6504 28.8564 47.4456C29.0056 47.1657 29.0482 46.8535 29.0418 46.5671H29.0427C29.3262 45.3301 30.239 44.4331 30.6912 44.0532C30.9135 43.866 31.2267 43.8308 31.4797 43.9726C31.8457 44.1792 32.2812 44.599 32.714 45.091Z" fill="#285642"/>
<path d="M28.5866 48.0517V66.9706H26.2349V57.6191C26.2349 55.574 26.549 51.1688 26.7065 50.3302C26.7853 49.9133 27.0846 49.5964 27.3663 49.3814C27.6035 49.2016 27.8203 48.995 28.0131 48.7698C28.0131 48.7698 28.014 48.7689 28.0149 48.767C28.1734 48.5817 28.3179 48.3843 28.4458 48.1768C28.481 48.1286 28.519 48.0795 28.5579 48.0276L28.5885 48.0508L28.5866 48.0517Z" fill="white"/>
<path d="M27.9971 47.3447C28.0805 47.644 28.1416 47.9433 28.137 48.2195C28.111 48.1639 28.0026 47.7914 27.9758 47.7376C26.9769 45.7194 24.4694 44.9735 22.504 46.0734C20.9825 46.925 20.2588 47.2669 20.1235 47.3281C20.3098 47.2345 21.5357 46.6034 22.4095 45.6694C23.3575 44.6566 23.6947 43.4733 25.5934 44.3527L25.6722 44.399C26.7925 45.0541 27.6459 46.0956 27.9971 47.3447Z" fill="#285642"/>
<path d="M25.5936 44.3512C23.6958 43.4718 23.3576 44.6551 22.4097 45.6679C21.5359 46.602 20.31 47.233 20.1237 47.3266C20.107 47.334 20.0996 47.3386 20.0996 47.3386V45.1759C20.0996 44.2604 20.7705 42.6601 20.7909 42.611H20.7918L21.1615 41.5343C21.8 39.4494 22.4125 39.8246 22.4125 39.8246C22.4125 39.8246 22.3717 41.398 22.5904 41.6992C22.7748 41.9522 23.5031 43.1123 25.5926 44.3521L25.5936 44.3512Z" fill="#285642"/>
<path d="M20.9515 28.0007C20.958 28.7411 21.0831 29.463 21.0164 29.9921C20.9237 30.7259 21.1813 32.3772 21.1813 32.3772C20.1018 32.2743 19.8451 31.761 19.3318 29.5519C18.8184 27.3438 19.6404 26.7795 19.6404 26.7795C19.6404 26.7795 20.8867 26.0104 20.9515 28.0007Z" fill="white"/>
<path d="M20.7904 42.6079C20.745 42.6237 17.7854 43.6921 16.0832 44.7938C16.0832 44.7938 11.4084 46.7777 9.92947 47.6525C8.44965 48.5263 7.91128 49.2666 7.03654 50.8132C6.16274 52.3606 5.59101 56.0254 5.42236 57.3375C5.25372 58.6496 4.48091 63.3903 4.48091 63.3903C4.48091 63.3903 3.80818 68.4682 3.4051 69.3772C3.00202 70.2853 2.59801 73.042 2.56465 74.3207C2.53036 75.5985 2.43029 79.1957 2.43029 79.1957C2.43029 79.1957 2.19493 83.3998 2.43029 84.3746C2.66473 85.3494 2.66473 86.5271 2.59801 87.603C2.53036 88.6788 2.90101 90.192 2.90101 90.8313C2.90101 91.4707 2.80094 93.8577 2.90101 94.7315C2.98163 95.4255 3.38008 95.4839 3.54131 96.2373C3.58208 96.4318 3.6071 96.6737 3.6071 96.9841C3.6071 98.4973 3.53946 101.222 3.53946 101.222C3.53946 101.222 3.67382 102.534 4.58284 102.499C4.58284 102.499 4.54855 103.105 4.5152 103.811C4.48091 104.518 4.04354 104.887 4.01111 105.695C3.97683 106.501 3.91011 107.006 4.01111 107.309C4.11119 107.613 5.05356 108.991 5.15457 110.235C5.22592 111.122 5.77633 111.872 6.23223 112.351C6.41663 112.545 6.58435 112.694 6.7011 112.79C7.10419 113.128 9.76082 115.952 10.3325 115.178C10.3325 115.178 10.7366 115.044 10.5012 114.304" stroke="#285642" stroke-width="0.194591" stroke-miterlimit="10"/>
<path d="M44.0384 95.5109C44.057 95.7658 44.0662 95.9854 44.0662 96.1577C44.0662 97.972 44.1987 98.8459 44.1987 98.8459C44.1987 98.8459 44.4628 98.8458 44.8789 98.8727C45.9019 98.9422 47.8432 99.1785 49.0339 99.9986C49.5899 100.381 49.9818 100.891 50.0411 101.569C50.0411 101.569 50.7917 100.227 51.1864 98.0564C51.4107 96.823 51.507 95.6295 51.6071 94.5889C51.6219 94.4323 51.6368 94.2794 51.6516 94.1303C51.7146 93.5233 51.7869 92.9812 51.8962 92.529C52.2131 91.2271 52.3308 87.9497 52.4494 86.7265C52.5671 85.5025 52.7256 83.2137 53.1592 82.3445C53.5938 81.4753 54.1071 74.9232 53.515 71.2519C52.9229 67.5815 50.9094 59.2521 50.9094 59.2521C50.9094 59.2521 49.765 52.2653 48.7383 50.7642C47.7116 49.264 46.1326 47.5664 44.1987 46.5805C42.2649 45.5946 39.2246 43.8562 39.2246 43.8562C39.2246 43.8562 36.6588 42.1596 35.3949 42.1197C35.3949 42.1197 33.9744 40.5797 33.7372 39.2379C33.4999 37.8962 33.5796 35.8428 33.7372 35.2905C33.7965 35.082 33.8947 34.791 34.0012 34.4593C34.1773 33.9098 34.3747 33.251 34.4469 32.6848C34.4469 32.6848 35.9082 32.9211 36.5003 31.698C37.0925 30.4739 37.25 29.4083 37.25 28.6976C37.25 27.9868 37.3288 27.7895 36.934 27.5532C36.934 27.5532 37.1703 26.4477 37.3686 25.4609C37.565 24.4731 37.8819 23.6058 37.4474 22.5791C37.0128 21.5524 37.2898 20.9602 37.0915 20.2106C36.8932 19.461 36.3808 18.6316 36.3808 17.9608C36.3808 17.2899 36.1056 16.1844 35.1577 15.4348C34.2097 14.6842 33.1765 13.9068 31.1871 13.5556C31.1871 13.5556 26.4168 12.9598 23.5396 14.8593C23.5396 14.8593 21.7429 16.8108 20.6634 17.9404C19.5857 19.0699 19.7396 21.3309 19.6367 23.3333C19.5338 25.3367 19.6367 26.7748 19.6367 26.7748C19.6367 26.7748 18.8148 27.3401 19.3281 29.5473C19.8415 31.7564 20.0982 32.2697 21.1777 32.3726C21.1777 32.3726 21.5372 35.3507 22.3072 36.0188L22.4092 39.8189C22.4092 39.8189 21.7976 39.4427 21.1582 41.5285L20.7885 42.6043" stroke="#285642" stroke-width="0.194591" stroke-miterlimit="10"/>
<path d="M33.7392 39.239C33.7392 39.239 33.7336 40.8884 32.0027 42.3043C30.8314 43.2633 29.8038 44.4383 29.2617 45.0971C29.0254 45.3844 28.93 45.7615 28.9958 46.1275C29.019 46.2591 29.0375 46.4083 29.0403 46.5649C29.0468 46.8512 29.0041 47.1635 28.8549 47.4434C28.7456 47.6481 28.6298 47.8557 28.5177 48.0494C28.4936 48.0911 28.4685 48.1328 28.4426 48.1754C28.3147 48.3829 28.1711 48.5803 28.0117 48.7656" stroke="#285642" stroke-width="0.194591" stroke-miterlimit="10"/>
<path d="M32.7458 45.1262C32.7572 45.1376 32.7658 45.1481 32.7743 45.1604" stroke="#285642" stroke-width="0.194591" stroke-miterlimit="10"/>
<path d="M28.5861 48.0488V66.9677H26.2344V57.6162C26.2344 55.5711 26.5485 51.166 26.706 50.3274C26.7848 49.9104 27.0841 49.5935 27.3658 49.3785C27.603 49.1987 27.8198 48.9921 28.0126 48.7669C28.0126 48.7669 28.0135 48.766 28.0144 48.7642C28.0339 48.7373 28.1923 48.5084 28.4453 48.1739C28.4805 48.1257 28.5185 48.0766 28.5574 48.0247C29.5795 46.6885 31.7663 44.1014 32.7152 45.0873" fill="#285642"/>
<path d="M28.5861 48.0488V66.9677H26.2344V57.6162C26.2344 55.5711 26.5485 51.166 26.706 50.3274C26.7848 49.9104 27.0841 49.5935 27.3658 49.3785C27.603 49.1987 27.8198 48.9921 28.0126 48.7669C28.0126 48.7669 28.0135 48.766 28.0144 48.7642C28.0339 48.7373 28.1923 48.5084 28.4453 48.1739C28.4805 48.1257 28.5185 48.0766 28.5574 48.0247C29.5795 46.6885 31.7663 44.1014 32.7152 45.0873" stroke="#285642" stroke-width="0.194591" stroke-miterlimit="10"/>
<path d="M22.4122 39.822C22.4122 39.822 22.3714 41.3954 22.5901 41.6966C22.7745 41.9496 23.5028 43.1097 25.5924 44.3495L25.6711 44.3958C26.7914 45.051 27.6448 46.0925 27.996 47.3416C28.0794 47.6409 28.1406 47.9402 28.1359 48.2163C28.1341 48.4137 28.098 48.6009 28.0127 48.7649" stroke="#285642" stroke-width="0.194591" stroke-miterlimit="10"/>
<path d="M20.1233 47.3244C20.3095 47.2308 21.5355 46.5998 22.4093 45.6657C23.3572 44.6529 23.6945 43.4696 25.5932 44.349" stroke="#285642" stroke-width="0.194591" stroke-miterlimit="10"/>
<path d="M20.7916 42.6069H20.7906C20.7702 42.6579 20.0994 44.2582 20.0994 45.1728V47.3355" stroke="#285642" stroke-width="0.194591" stroke-miterlimit="10"/>
<path d="M20.0994 47.3371C20.0994 47.3371 20.1068 47.3334 20.1235 47.325C20.2587 47.2639 20.9824 46.922 22.504 46.0704C24.4693 44.9705 26.9758 45.7164 27.9757 47.7346C28.0025 47.7884 28.111 48.1609 28.1369 48.2165" stroke="#285642" stroke-width="0.194591" stroke-miterlimit="10"/>
<path d="M35.3968 42.1206C35.3968 42.1206 36.0418 42.7729 36.1261 43.0834C36.2113 43.3947 35.1652 45.007 35.1652 45.9124C35.1652 46.8177 34.7973 47.8963 34.7973 47.8963C34.7973 47.8963 33.7845 46.3136 32.7467 45.1247C32.7356 45.1117 32.7254 45.0997 32.7143 45.0877C32.2815 44.5956 31.8469 44.1759 31.48 43.9692C31.227 43.8284 30.9129 43.8627 30.6914 44.0498C30.2383 44.4298 29.3256 45.3267 29.043 46.5638" fill="#285642"/>
<path d="M35.3968 42.1206C35.3968 42.1206 36.0418 42.7729 36.1261 43.0834C36.2113 43.3947 35.1652 45.007 35.1652 45.9124C35.1652 46.8177 34.7973 47.8963 34.7973 47.8963C34.7973 47.8963 33.7845 46.3136 32.7467 45.1247C32.7356 45.1117 32.7254 45.0997 32.7143 45.0877C32.2815 44.5956 31.8469 44.1759 31.48 43.9692C31.227 43.8284 30.9129 43.8627 30.6914 44.0498C30.2383 44.4298 29.3256 45.3267 29.043 46.5638" stroke="#285642" stroke-width="0.194591" stroke-miterlimit="10"/>
<path d="M11.1258 50.6013C11.1258 50.6013 11.0479 55.1195 11.527 57.3777C12.0061 59.6368 12.0061 62.6224 12.0061 62.6224" stroke="#285642" stroke-width="0.194591" stroke-miterlimit="10"/>
<path d="M8.0957 49.897C8.0957 49.897 9.51529 57.7334 10.6189 58.1189" stroke="#285642" stroke-width="0.194591" stroke-miterlimit="10"/>
<path d="M9.35693 53.5371C9.35693 53.5371 10.6171 57.7366 11.1203 57.8107" stroke="#285642" stroke-width="0.194591" stroke-miterlimit="10"/>
<path d="M46.8094 50.6013C46.8094 50.6013 43.7988 56.1138 43.5282 58.4795C43.2576 60.8461 43.5282 59.2847 43.5282 59.2847" stroke="#285642" stroke-width="0.194591" stroke-miterlimit="10"/>
<path d="M47.8488 51.7146C47.8488 51.7146 48.2797 54.0432 48.2046 57.2994C48.1027 61.7342 47.0602 67.8888 42.7097 72.2162" stroke="#285642" stroke-width="0.194591" stroke-miterlimit="10"/>
<path d="M34.4491 32.6867C34.5891 31.9685 35.0533 31.3737 35.2433 30.5184C35.461 29.5315 35.3971 28.9783 35.3971 28.9783V25.2561C35.3971 24.3832 35.0292 23.6938 35.0746 22.9126C35.1209 22.1315 35.0746 21.5802 35.0746 20.799C35.0746 20.0179 34.0183 19.9261 33.7421 19.5184C33.4669 19.1098 31.8129 19.0542 31.6748 19.0078C31.5377 18.9615 29.93 19.0532 29.5612 19.3748C29.1942 19.6963 28.0545 19.3748 28.0545 19.3748C28.0545 19.3748 26.3449 19.5119 25.7481 19.2367C25.1505 18.9615 23.451 18.7317 22.4855 19.7417C21.5209 20.7527 21.6589 21.304 21.6126 22.5902C21.5663 23.8763 21.3374 23.8309 21.2457 24.8873C21.153 25.9436 21.1993 26.128 21.0159 27.139C20.964 27.4216 20.9482 27.7107 20.951 27.9961C20.9575 28.7365 21.0826 29.4583 21.0159 29.9874C20.9232 30.7213 21.1808 32.3726 21.1808 32.3726" stroke="#285642" stroke-width="0.194591" stroke-miterlimit="10"/>
<path d="M19.6396 26.7765C19.6396 26.7765 20.886 26.0074 20.9508 27.9978" stroke="#285642" stroke-width="0.194591" stroke-miterlimit="10"/>
<path d="M35.3967 28.9792C35.3967 28.9792 36.062 27.0129 36.9368 27.555" stroke="#285642" stroke-width="0.194591" stroke-miterlimit="10"/>
<path d="M22.3101 36.0216C22.3101 36.0216 24.2171 37.9175 25.759 37.9175C27.3009 37.9175 28.6046 38.1065 29.7898 37.5858C30.9759 37.0641 33.3777 35.4156 34.0031 34.4612" stroke="#285642" stroke-width="0.194591" stroke-miterlimit="10"/>
</g>
</g>
<circle cx="28.4" cy="28.4" r="27.8428" stroke="#004F24" stroke-width="1.11432"/>
<defs>
<clipPath id="clip0_76_4804">
<rect width="51.6519" height="171.026" fill="white" transform="translate(2.22876 13.3718)"/>
</clipPath>
</defs>
</svg>
