<svg id="Layer_1" data-name="Layer 1" xmlns="http://www.w3.org/2000/svg" xmlns:xlink="http://www.w3.org/1999/xlink" viewBox="0 0 245 245">
  <defs>
    <style>
      .cls-1 {
        clip-path: url(#clippath);
      }

      .cls-2, .cls-3, .cls-4, .cls-5, .cls-6, .cls-7 {
        fill: none;
      }

      .cls-2, .cls-8, .cls-9, .cls-10 {
        stroke-width: 0px;
      }

      .cls-3 {
        stroke-width: .1px;
      }

      .cls-3, .cls-5, .cls-6 {
        stroke: #2c7155;
      }

      .cls-3, .cls-6 {
        stroke-miterlimit: 10;
      }

      .cls-4 {
        stroke-dasharray: 0 0 5.79 5.79;
        stroke-width: .29px;
      }

      .cls-4, .cls-7 {
        stroke: #285742;
      }

      .cls-5 {
        stroke-linecap: round;
        stroke-linejoin: round;
      }

      .cls-5, .cls-6 {
        stroke-width: .09px;
      }

      .cls-11 {
        clip-path: url(#clippath-1);
      }

      .cls-7 {
        stroke-width: 1.56px;
      }

      .cls-8 {
        fill: #2c7155;
      }

      .cls-9 {
        fill: #2aab80;
      }

      .cls-10 {
        fill: #e2f2ed;
      }
    </style>
    <clipPath id="clippath">
      <rect class="cls-2" y="50.61" width="130.64" height="192.98"/>
    </clipPath>
    <clipPath id="clippath-1">
      <rect class="cls-2" x="141.2" y="30.25" width="77.8" height="213.98"/>
    </clipPath>
  </defs>
  <g class="cls-1">
    <g>
      <path class="cls-10" d="m85.46,151.18c1.02,1.27,1.58,2.93,1.18,5.08-.08.44-.2.86-.34,1.26-2.3,6.47-12.01,7-17.03,1.8l-.04-.03c2.64-4.06,5.85-8.91,8.09-12.06,0,0,5.55.72,8.14,3.96h0Z"/>
      <path class="cls-8" d="m129.94,98.79c.45,1.43.72,3.23.62,5.46,0,0,.12,2.58-1.91,4.52l-23.35,1.18c-.74.04-1.37-.5-1.43-1.21-.05-.62-.1-1.42-.14-2.34-.15-3.53-.1-8.65,1.27-10.49,1.81-2.44,12.44-2.4,18.1-2.2,3.18.11,5.94,2.15,6.84,5.07h0Z"/>
      <path class="cls-8" d="m105.3,109.96l23.35-1.18c-1.34,1.28-3.61,2.29-7.47,2.11,0,0-20.48-1.69-19.4,2.42-1.15-1.81-2.06-3.59-2.56-5.24-.11-.38-.27-.82-.48-1.33,0,0,2.7.6,4.99-.32.04.91.09,1.72.14,2.34.05.71.69,1.24,1.43,1.21Z"/>
      <path class="cls-8" d="m74.94,141.9h0s30.01-16.67,26.85-28.59c3.08,4.84,7.87,9.83,10.83,12.72,1.84,1.8,3.44,3.81,4.76,5.99l3.81,7.7-.1,3.16h0s-.2,6.51-.2,6.51l-2.3,23.19h0c-2.67,4.88-7.37,5.33-15.69,4.92-8.32-.41-40.38,10.42-50.6,12.44-10.23,2.02-52.24,1.04-52.24,1.04v-19.36c.57.13,1.16.25,1.79.35,0,0,0,0,.01,0,11.24,1.85,31.13-1.07,41.15-2.81,3.9-.68,7.43-2.65,9.95-5.57l12.9-14.9c.73-.84.02-2.11-1.11-2l-5.41.53-13.45,1.3-21.29,2.07-1.05.1c-4.42.43-8.58,2.22-11.85,5.11l-1.15,1.02-3.74,3.31-1.87,1.65c-1.33,1.18-3.07,1.83-4.88,1.83v-2.52c3.63-1.06,6.15-3.42,6.15-6.16s-2.4-4.92-6.15-5.95v-8.71l62.12-.56c4.37-.04,8.7.7,12.77,2.16h0Zm4.86,2.16c-.44.39-1.33,1.56-2.48,3.17-2.24,3.15-5.45,8.01-8.09,12.06-1.21,1.85-2.3,3.54-3.12,4.82-.68,1.05.21,2.39,1.5,2.24,3.17-.36,8.82-1.32,17.01-3.83,0,0,3.59-1.06,8.17-1.69.11-.01.21-.03.32-.04,0,0,.01,0,.02,0,2.12-.28,4.42-.47,6.67-.42.67.01,1.34,0,2-.05,3.05-.21,6.02-1.04,8.69-2.49,1.46-.8,2.96-1.81,4.33-3.07,3.23-2.98,4.58-7.36,3.63-11.56l-1.08-4.76-.41-1.82c-.21-.91-1.25-1.41-2.13-1.01,0,0-7.01,2.44-14.88,3.11-7.88.66-17.96,3.42-20.12,5.35h0Z"/>
      <path class="cls-8" d="m84.61,222.77c.01-1.59.12-2.23.12-2.23v-5.18c0-3.25,2.75-5.88,6.15-5.88h7.17c.86.07,1.87.08,3.03,0h1.83c4.7,0,8.87-2.34,11.23-5.92,1.09-1.65,1.8-3.57,2-5.64l1.97-20.53.48-4.83h0s2.3-23.19,2.3-23.19l.2-6.51v33.26l-.95,51.47s-.36,15.46-7.07,15.78c-6.91.33-19.64,0-19.64,0,0,0-6.87.75-8.05-9.39-.66-5.67-.78-9.21-.77-11.22h0Z"/>
      <path class="cls-8" d="m93.33,204.38c-.14,2.52,1.81,4.84,4.6,5.09.04,0,.07,0,.11,0h-7.17c-3.4,0-6.15,2.63-6.15,5.88v5.18h-9.08v-4.76H.05v-2.96h68.19c5.38.43,8.17-.89,9.34-1.68.44-.3.89-.57,1.37-.82,1.62-.83,2.24-2.86,1.2-4.43l-5.54-8.3c-1.82-2.73-4.99-4.37-8.38-4.32L.05,194.19v-3.21s42.01.97,52.24-1.04c10.23-2.02,42.28-12.85,50.6-12.44,8.32.41,13.02-.04,15.69-4.92l-.48,4.83-1.97,20.53c-.2,2.07-.91,3.98-2,5.63l.61-18.58c.04-1.34-1.09-2.39-2.41-2.39-.2,0-.41.02-.61.08-.84.21-1.65.46-2.45.75-6.22,2.28-11.14,7.09-13.35,13.2l-2.32,6.42c-.16.45-.25.9-.27,1.34h0Z"/>
      <path class="cls-8" d="m117.35,138.43l1.08,4.76c.95,4.19-.41,8.57-3.63,11.56-1.37,1.27-2.87,2.28-4.33,3.07-2.67,1.46-5.64,2.29-8.69,2.49,3.85-2.24,5.87-4.44,6.71-6.48,2.37,2.57,14.43-7.29,7.42-11.94-7.01-4.65-10.91,2.69-10.91,2.69-1.93-1.41-4.33-2.2-6.82-2.22-4.53-.03-10.99,1.31-12.73,8.82-2.59-3.24-8.14-3.96-8.14-3.96,1.15-1.61,2.04-2.78,2.48-3.17,2.16-1.93,12.24-4.69,20.12-5.35,7.88-.66,14.88-3.11,14.88-3.11.89-.4,1.93.09,2.14,1.01l.41,1.82h0Z"/>
      <path class="cls-10" d="m115.92,141.89c7.01,4.65-5.05,14.51-7.42,11.94,1.08-2.6.26-4.94-1.05-6.79-.68-.95-1.51-1.78-2.44-2.46,0,0,3.9-7.34,10.91-2.69h0Z"/>
      <path class="cls-8" d="m112.34,182.59c1.32,0,2.46,1.05,2.41,2.39l-.61,18.58c-2.37,3.57-6.53,5.92-11.23,5.92h-4.87s-.07,0-.11,0c-2.79-.25-4.74-2.57-4.6-5.09l6.17-1.04c4.69-.79,8.25-4.49,8.7-9.02l1.07-10.89c.8-.29,1.62-.54,2.45-.75.21-.05.41-.08.61-.08h0Z"/>
      <path class="cls-9" d="m109.28,183.42l-1.07,10.89c-.45,4.54-4.01,8.23-8.7,9.03l-6.17,1.04c.02-.45.11-.9.27-1.34l2.32-6.42c2.21-6.11,7.12-10.91,13.35-13.2h0Z"/>
      <path class="cls-9" d="m107.45,147.05c1.31,1.85,2.13,4.19,1.05,6.79-.85,2.04-2.86,4.24-6.71,6.48-.66.05-1.33.06-2,.05-2.25-.05-4.56.14-6.67.42,0,0-.01,0-.02,0-.11.01-.21.03-.32.04-4.53.53-6.47-3.31-6.47-3.31.14-.4.25-.82.34-1.26.4-2.15-.16-3.81-1.18-5.08,1.74-7.51,8.19-8.85,12.73-8.82,2.49.02,4.89.81,6.82,2.22.94.68,1.76,1.51,2.44,2.46h0Zm-9.07,6.28c0-1.34-1.13-2.42-2.53-2.42s-2.53,1.08-2.53,2.42,1.13,2.42,2.53,2.42,2.53-1.08,2.53-2.42Z"/>
      <path class="cls-8" d="m101.79,113.3c3.16,11.93-26.85,28.59-26.85,28.59h0c-4.07-1.46-8.39-2.2-12.77-2.16L.05,140.29v-30.27h85.82c4.04,0,6.88-4.05,5.62-7.98-5.53-17.13-15.06-29.96-20.13-35.98-2.03-2.41-5.04-3.87-8.27-4.03L.05,58.93v-8.27h23.35l22.74.63c5.1.14,10.11,1.29,14.72,3.37,3.11,1.4,5.97,3.23,8.49,5.41,2.53,2.18,4.72,4.71,6.5,7.52,7.38,11.65,19.87,31.76,22.89,39.16.21.5.37.95.48,1.33.49,1.65,1.4,3.43,2.56,5.24h0Z"/>
      <path class="cls-10" d="m95.85,155.75c1.4,0,2.53-1.08,2.53-2.42s-1.13-2.42-2.53-2.42-2.53,1.08-2.53,2.42,1.13,2.42,2.53,2.42Z"/>
      <path class="cls-8" d="m86.3,157.52s1.95,3.84,6.47,3.31c-4.57.64-8.17,1.69-8.17,1.69-8.19,2.51-13.84,3.46-17.01,3.83-1.28.15-2.17-1.19-1.5-2.24.83-1.28,1.91-2.97,3.12-4.82l.04.03c5.03,5.2,14.74,4.67,17.03-1.8h0Z"/>
      <path class="cls-8" d="m91.49,102.05c1.27,3.93-1.58,7.98-5.62,7.98H.05v-2.95h81.24c3.82,0,6.51-3.58,5.31-7.05-5.24-15.14-14.25-26.49-19.06-31.81-1.92-2.13-4.77-3.43-7.83-3.57L.05,61.9v-2.97l63.04,3.11c3.23.16,6.24,1.62,8.27,4.03,5.08,6.02,14.6,18.85,20.13,35.98h0Z"/>
      <path class="cls-10" d="m86.6,100.02c1.2,3.47-1.5,7.05-5.31,7.05H.05v-45.18l59.67,2.75c3.06.14,5.91,1.44,7.83,3.57,4.8,5.32,13.82,16.66,19.06,31.81Z"/>
      <path class="cls-10" d="m75.64,220.54h9.08s-.1.64-.12,2.23c-1.39.23-15.2,2.29-25.99-2.23h0c6.25-.41,12.11-.92,17.03-1.55v1.55h0Z"/>
      <path class="cls-9" d="m80.14,205.9c1.04,1.57.42,3.59-1.2,4.43-.47.24-.93.52-1.37.82-1.16.79-3.96,2.1-9.34,1.68h1.49c.41,0,.8-.06,1.16-.18,1.87-.61,2.97-2.64,2.17-4.54l-1.07-2.55-1.5-3.57-1.23-2.93-.64-1.52c-.2-.46-.53-.85-.94-1.11-.41-.27-.91-.42-1.43-.42H.05v-1.82l66.17-.91c3.39-.05,6.56,1.59,8.38,4.32l5.54,8.3Z"/>
      <path class="cls-9" d="m75.64,215.78v3.21c-4.92.63-10.78,1.14-17.03,1.55-.86.06-1.72.11-2.6.16-25.46,1.53-55.97,1.49-55.97,1.49v-6.42h75.59Z"/>
      <path class="cls-8" d="m73.06,208.11c.79,1.89-.3,3.93-2.17,4.53-.36.12-.75.18-1.16.18H.05v-4.96s44.11,2.56,71.94-2.3l1.07,2.55h0Z"/>
      <path class="cls-8" d="m70.5,201.99l1.5,3.57C44.16,210.43.05,207.86.05,207.86v-4.14s40.26,1.77,70.44-1.73Z"/>
      <path class="cls-8" d="m69.27,199.06l1.23,2.93C40.31,205.5.05,203.73.05,203.73v-3.86s40.39.46,69.22-.8Z"/>
      <path class="cls-8" d="m68.63,197.54l.64,1.52c-28.83,1.26-69.22.8-69.22.8v-3.86h66.2c.52,0,1.02.15,1.43.42.41.27.75.65.94,1.11h0Z"/>
      <path class="cls-8" d="m33.71,169.21c2.94-.46,5.25-.84,6.46-1.05.49-.08.97-.14,1.46-.2,4.04-.43,5.76-4.43,5.76-4.43,5.03-.42,6.47-1.85,6.85-2.86.19-.5-.24-1.01-.79-.96l-2.29.21h0c1.34-1.14,2.28-3.6,2.28-3.6l-.03-.21c4.23-.52,5.5-1.82,5.85-2.76.19-.5-.24-1.01-.79-.96l-2.47.23c1.3-.73,3.27-5.31,3.31-5.4l5.41-.53c1.14-.11,1.85,1.16,1.11,2l-12.9,14.9c-2.53,2.92-6.05,4.89-9.95,5.57-10.01,1.74-29.9,4.66-41.15,2.81,3.41.44,9.26.08,15.42-.57,5.8-.61,11.88-1.49,16.44-2.2h0Z"/>
      <path class="cls-8" d="m45.88,148.53l13.45-1.3c-.04.09-2.01,4.67-3.31,5.4l-13.1,1.21,2.96-5.31Z"/>
      <path class="cls-9" d="m22.01,159.39c-7.44.66-13.71,1.07-15.21.75l3.74-3.31,12.54-1.16,19.83-1.83,13.1-1.21,2.47-.23c.55-.05.98.46.79.96-.35.94-1.62,2.24-5.85,2.76-.32.04-.65.07-1,.1,0,0-4.98.58-11.66,1.3-5.69.61-12.61,1.33-18.75,1.87h0Z"/>
      <path class="cls-9" d="m53.46,159.71c.55-.05.98.46.79.96-.38,1.01-1.82,2.44-6.85,2.86,0,0-4.49.49-10.71,1.12-5.3.54-11.86,1.18-17.98,1.71-8.96.78-16.97,1.33-18.66.97v-2.68l20.29-1.88,18-1.66,12.83-1.19,2.29-.21h0Z"/>
      <path class="cls-8" d="m53.42,156.12l.03.21s-.94,2.46-2.28,3.6h0s-12.83,1.19-12.83,1.19l2.42-3.59c6.68-.72,11.66-1.3,11.66-1.3.35-.03.69-.06,1-.1Z"/>
      <path class="cls-8" d="m47.39,163.53s-1.73,4-5.76,4.43c-.49.05-.98.11-1.46.2-1.21.21-3.52.6-6.46,1.05l2.98-4.56c6.22-.63,10.71-1.12,10.71-1.12h0Z"/>
      <path class="cls-8" d="m45.87,148.53l-2.96,5.31-19.83,1.83,1.53-4.76-.03-.31,21.29-2.07Z"/>
      <path class="cls-8" d="m40.76,157.52l-2.42,3.59-18,1.66,1.68-3.39c6.13-.54,13.06-1.26,18.75-1.87Z"/>
      <path class="cls-8" d="m36.69,164.65l-2.98,4.56c-4.56.71-10.64,1.58-16.44,2.2l1.44-5.05c6.12-.53,12.68-1.17,17.98-1.71Z"/>
      <path class="cls-8" d="m24.59,150.6l.03.31-1.53,4.76-12.54,1.16,1.15-1.02c3.26-2.89,7.42-4.68,11.85-5.11l1.05-.1h0Z"/>
      <path class="cls-8" d="m22.01,159.39l-1.68,3.39L.05,164.65v-1.02c1.81,0,3.55-.65,4.88-1.83l1.87-1.65c1.5.32,7.77-.09,15.21-.75h0Z"/>
      <path class="cls-8" d="m1.84,171.98c-.62-.1-1.22-.22-1.79-.35v-4.29c1.69.36,9.7-.19,18.66-.97l-1.44,5.05c-6.15.65-12,1.01-15.42.57,0,0,0,0-.01,0h0Z"/>
      <path class="cls-10" d="m.05,149.01c3.76,1.02,6.15,3.15,6.15,5.95s-2.52,5.09-6.15,6.16v-12.1H.05Z"/>
      <path class="cls-3" d="m101.78,113.3c3.08,4.84,7.87,9.83,10.83,12.72,1.84,1.8,3.44,3.81,4.76,5.99"/>
      <path class="cls-3" d="m118.58,172.57l-.48,4.83-1.97,20.53c-.2,2.07-.91,3.98-2,5.63-2.37,3.57-6.53,5.92-11.23,5.92h-12.03c-3.4,0-6.15,2.63-6.15,5.88v5.18h-9.08v-4.76H.05V50.66h23.35l22.74.63c5.1.14,10.11,1.29,14.72,3.37,3.11,1.4,5.97,3.23,8.49,5.41,2.53,2.18,4.72,4.71,6.5,7.52,7.38,11.65,19.87,31.76,22.89,39.16.21.5.37.95.48,1.33.49,1.65,1.4,3.43,2.56,5.24"/>
      <path class="cls-3" d="m121.08,142.88l-.2,6.51-2.3,23.19"/>
      <path class="cls-3" d="m117.37,132.01l3.81,7.7-.1,3.16"/>
      <path class="cls-3" d="m121.08,142.88v33.26l-.95,51.48s-.35,15.46-7.07,15.78c-6.91.33-19.64,0-19.64,0,0,0-6.87.75-8.05-9.39-.66-5.67-.79-9.21-.77-11.22.01-1.59.12-2.23.12-2.23"/>
      <path class="cls-3" d="m.05,215.78v6.42s30.51.04,55.97-1.49c.87-.05,1.74-.11,2.6-.16,6.25-.41,12.11-.92,17.03-1.55"/>
      <path class="cls-3" d="m84.72,222.75s-.04,0-.11.02c-1.39.23-15.2,2.29-25.99-2.23"/>
      <path class="cls-3" d="m.05,196.01h66.2c.52,0,1.02.15,1.43.42.41.27.75.65.94,1.11l.64,1.52,1.23,2.93,1.5,3.57,1.07,2.55c.79,1.89-.3,3.93-2.17,4.54-.36.12-.75.18-1.16.18H.05"/>
      <path class="cls-3" d="m.05,199.87s40.39.46,69.22-.8"/>
      <path class="cls-3" d="m.05,203.73s40.26,1.77,70.44-1.73"/>
      <path class="cls-3" d="m.05,207.86s44.11,2.56,71.94-2.3"/>
      <path class="cls-3" d="m1.83,171.98c-.62-.1-1.22-.22-1.79-.36"/>
      <path class="cls-3" d="m.05,163.63c1.81,0,3.55-.65,4.88-1.83l1.87-1.65,3.74-3.31,1.15-1.02c3.26-2.89,7.42-4.69,11.85-5.11l1.05-.1,21.29-2.07,13.45-1.3,5.41-.53c1.14-.11,1.85,1.16,1.11,2l-12.9,14.9c-2.53,2.92-6.05,4.89-9.95,5.57-10.01,1.73-29.9,4.66-41.15,2.81"/>
      <path class="cls-3" d="m93.11,160.78c2.12-.28,4.42-.47,6.67-.42.67.01,1.34,0,2-.05,3.05-.21,6.02-1.04,8.69-2.49,1.46-.8,2.96-1.81,4.33-3.07,3.23-2.98,4.58-7.36,3.63-11.56l-1.08-4.76-.41-1.82c-.21-.91-1.25-1.41-2.13-1.01,0,0-7,2.44-14.88,3.11-7.88.66-17.96,3.42-20.12,5.35-.44.39-1.33,1.56-2.48,3.17-2.24,3.15-5.45,8.01-8.09,12.06-1.21,1.85-2.3,3.54-3.12,4.82-.68,1.05.21,2.39,1.5,2.24,3.17-.36,8.82-1.32,17.01-3.83,0,0,3.59-1.06,8.17-1.69.11-.01.21-.03.32-.04"/>
      <path class="cls-3" d="m.05,140.29l62.12-.56c4.37-.04,8.7.7,12.77,2.16,1.67.6,3.29,1.32,4.86,2.16"/>
      <path class="cls-3" d="m.05,58.93l63.04,3.11c3.23.16,6.24,1.62,8.27,4.03,5.08,6.02,14.6,18.85,20.13,35.98,1.27,3.93-1.58,7.98-5.62,7.98H.05"/>
      <path class="cls-3" d="m.05,61.9l59.67,2.75c3.06.14,5.91,1.44,7.83,3.57,4.8,5.32,13.82,16.66,19.06,31.81,1.2,3.47-1.5,7.05-5.31,7.05H.05"/>
      <path class="cls-3" d="m.05,190.98s42.01.98,52.24-1.04c10.23-2.02,42.28-12.85,50.6-12.44,8.32.41,13.02-.04,15.69-4.92h0"/>
      <path class="cls-3" d="m101.07,209.48c-1.16.08-2.17.07-3.03,0-.04,0-.07,0-.11,0-2.79-.25-4.74-2.57-4.6-5.09.02-.45.11-.9.28-1.34l2.32-6.42c2.21-6.11,7.12-10.91,13.35-13.2.8-.29,1.61-.54,2.45-.75.21-.05.41-.08.61-.08,1.32,0,2.46,1.05,2.41,2.39l-.61,18.58"/>
      <path class="cls-3" d="m98.74,106.74s2.7.6,4.99-.32"/>
      <path class="cls-3" d="m.05,149.01c3.76,1.02,6.15,3.15,6.15,5.95s-2.52,5.09-6.15,6.16"/>
      <path class="cls-3" d="m.05,164.65l20.29-1.88,18-1.66,12.83-1.19,2.29-.21c.55-.05.98.46.79.96-.38,1.01-1.82,2.44-6.85,2.86,0,0-4.49.49-10.71,1.12-5.3.54-11.86,1.18-17.98,1.71-8.96.78-16.97,1.33-18.66.97"/>
      <path class="cls-3" d="m10.54,156.83l12.54-1.16,19.83-1.83,13.1-1.21,2.47-.23c.55-.05.98.46.79.96-.35.94-1.62,2.24-5.85,2.76-.32.04-.65.07-1,.1,0,0-4.98.58-11.66,1.3-5.69.61-12.61,1.33-18.75,1.87-7.44.66-13.71,1.07-15.21.75"/>
      <path class="cls-3" d="m59.31,147.23h0c-.04.09-2.01,4.67-3.31,5.4"/>
      <path class="cls-3" d="m53.45,156.32s-.94,2.46-2.28,3.6"/>
      <path class="cls-3" d="m3.12,167.85l-1.29,4.12s0,0,.01,0c3.41.44,9.26.08,15.42-.57,5.8-.61,11.88-1.49,16.44-2.2,2.94-.46,5.25-.84,6.46-1.05.49-.08.97-.14,1.46-.2,4.04-.43,5.76-4.43,5.76-4.43"/>
      <path class="cls-3" d="m24.61,150.91l-1.53,4.76"/>
      <path class="cls-3" d="m45.88,148.53l-2.96,5.31"/>
      <path class="cls-3" d="m40.75,157.52h0s-2.42,3.59-2.42,3.59"/>
      <path class="cls-3" d="m36.68,164.65l-2.98,4.56h0"/>
      <path class="cls-3" d="m22.04,159.31l-.04.07-1.68,3.39"/>
      <path class="cls-3" d="m18.71,166.36l-1.44,5.05h0"/>
      <path class="cls-3" d="m77.31,147.23s5.55.72,8.14,3.96c1.02,1.27,1.58,2.93,1.18,5.08-.08.44-.2.86-.34,1.26-2.3,6.47-12.01,7-17.03,1.8"/>
      <path class="cls-3" d="m85.45,151.19c1.74-7.51,8.19-8.85,12.73-8.82,2.49.02,4.89.81,6.82,2.22.94.68,1.76,1.51,2.44,2.46,1.31,1.85,2.13,4.19,1.05,6.79-.85,2.04-2.86,4.24-6.71,6.48"/>
      <path class="cls-3" d="m86.3,157.52s1.95,3.84,6.47,3.31c.11-.01.21-.03.32-.04,0,0,.01,0,.02,0"/>
      <path class="cls-3" d="m105,144.58s3.9-7.34,10.91-2.69c7.01,4.65-5.05,14.51-7.42,11.94"/>
      <path class="cls-3" d="m95.85,155.75c1.39,0,2.53-1.08,2.53-2.42s-1.13-2.42-2.53-2.42-2.53,1.08-2.53,2.42,1.13,2.42,2.53,2.42Z"/>
      <path class="cls-3" d="m74.93,141.89s30.01-16.67,26.85-28.59h0c-1.09-4.11,19.4-2.42,19.4-2.42,3.86.18,6.13-.82,7.47-2.11,2.03-1.95,1.91-4.52,1.91-4.52.1-2.23-.18-4.03-.62-5.46-.91-2.92-3.66-4.96-6.84-5.07-5.66-.2-16.29-.24-18.1,2.2-1.36,1.84-1.41,6.96-1.27,10.49.04.91.09,1.72.14,2.34.05.71.69,1.24,1.43,1.21l23.35-1.18"/>
      <path class="cls-3" d="m.05,194.19l66.17-.91c3.39-.05,6.56,1.59,8.38,4.32l5.54,8.3c1.05,1.57.43,3.59-1.2,4.43-.47.24-.93.52-1.37.82-1.16.79-3.96,2.1-9.34,1.68"/>
      <path class="cls-3" d="m109.28,183.42l-1.07,10.89c-.45,4.54-4.01,8.23-8.7,9.03l-6.17,1.04-.21.04"/>
      <path class="cls-3" d="m79.79,147.3s7.45-5.13,22.11-6.95c14.66-1.83,15.45-1.92,15.45-1.92"/>
    </g>
  </g>
  <g class="cls-11">
    <g>
      <path class="cls-8" d="m200.16,96c.06-4.11.13-8.07.13-8.07l.56-3.62c-.25-2.62,0-9.1,0-9.1l-.17-.03c.77-1.97,1.6-5.09,2.11-7.18,0,0,0,0,0,0h0s1.7,1.62,1.7,1.62h0s.4.68.4.68c0,0,0,0,0,0,0,.01.01.03.02.04.98,2.25,2.09,6.42,2.09,6.42l3.8,15.47,3.5,16.55,2.42,11.94,2.11,11.14s.02.07.03.11c.04.11.12.43.08.87-.29.05-6.23,1.07-7.21,2.08-.33.34-1.44.7-2.79,1.04h0s-6.56,1.26-6.56,1.26c0,0,0,0,0,0h0s.28-6.95.28-7.74-.76-8.59-.76-8.59c0,0-1.21-6.29-1.21-9.1s-.55-4.37-.59-7.41c-.02-1.39.02-4.94.07-8.38h0Z"/>
      <path class="cls-8" d="m216.4,155.71c.03.41-.28.77-.69.77-.29,0-.63.12-.96.47-.85.9-2.5,1.35-2.85.6-.35-.75-1.69-.49-2.3.38l-.61.87v-.19s.02-.08.02-.13c.04-.56.09-1.08.12-1.55,0-.04,0-.08,0-.12v-.02s0-.08,0-.08v-.03c.08-1.07.13-1.83.12-2.04,0-.05,0-.1,0-.16v-1.28s0,0,0,0c0-.03,0-.06,0-.09v-.09s.04-1.6.04-1.6c0-.04,0-.07,0-.11v-.15c0-.05,0-.1,0-.15v-.23c0-.05,0-.11.01-.16v-.13s0-.07,0-.07v-.18s0-.16,0-.16v-.17s0-.01,0-.01v-.09s0-.1,0-.1c.09-.18.17-.35.24-.51,0,0,0,0,0,0,.18-.39.29-.73.33-.96l.11-.58.31-1.25s0-.01,0-.02l.33-1.16.2-.63s.02-.06.03-.08c.07-.21.11-.43.11-.66.01-.36-.05-.75-.19-1.18,0,0,0,0,0-.01,0-.02-.01-.04-.02-.06h0c-.11-.34-.27-.7-.46-1.1,0,0,0,0,0,0l-.32-.76-.3-.97s-.02-.07-.03-.11c-.03-.11-.05-.21-.08-.31,0-.02,0-.04-.01-.06,0,0,0,0,0,0l-.2-.99s0-.01,0-.01l3.18-.89s.06,0,.1-.02c.67-.17,1.27-.35,1.81-.54,0,0,1.45,13.15,1.93,18.88h0Z"/>
      <path class="cls-8" d="m211.73,134.93c.98-1.01,6.92-2.03,7.21-2.08-.09,1.02-.86,2.7-4.47,3.98-.54.19-1.14.37-1.81.54-.03,0-.06.01-.1.02l-3.18.89-.45-2.31c1.35-.34,2.46-.7,2.79-1.04h0Z"/>
      <path class="cls-8" d="m182.83,222.13h0s-.11.09-.54.22c-.74.22-2.48.65-6.55,1.47-.74.15-1.43.26-2.08.34-5.88.7-8.11-1.31-8.11-1.31v-2.48c0-1.37-.36-3.23-.57-3.85-.18-.52-.13-9.48-.05-14.23.01-.95.03-1.74.05-2.25l-.12-4.44h0c.71-.53,2.58-1.64,6.88-2.83,3.28-.91,8.18-1.58,11.92-1.99,3.04-.34,6.11-.18,9.11.45,2.09.44,4.93.91,8.25,1.16,0,0,5.6.07,6.75,3.05l1.06,7.13s.84,6.96,1.59,9.88c.75,2.92,1.73,12.54,1.73,12.54-1.11-.41-3.84-.59-6.91-.67-2.16-.06-4.5-.07-6.56-.09h-.04c-2.34-.02-4.33-.05-5.32-.16-3.11-.36-10.72.25-10.72.25l.22-2.16s0-.01,0-.01h0Z"/>
      <path class="cls-8" d="m210.83,142.66c.14.43.2.82.19,1.18,0,0-.09-.82-.19-1.18Z"/>
      <path class="cls-8" d="m211.02,143.84l-.11.66s-.02.05-.03.08c-.06.18-.12.39-.2.63-.11.35-.22.75-.33,1.16,0,0,0,.01,0,.02-.12.43-.22.86-.31,1.25-.04.21-.08.41-.11.58l-.32.96s0,0,0,0c-.07.16-.15.33-.24.51-.72,1.44-2,3.33-3.08,4.09-.06.04-.11.08-.16.14l-.38.42c-.6.67-1.7.06-1.45-.8,0-.01,0-.03.01-.04.4-1.28,1.18-2.42,1.38-3.09.2-.67.3-2.59.17-3.9-.13-1.31-1.13-2.75-1.13-2.75l.02-2.56s-.13,1.13-.02,2.56c.04.6.13,1.26.29,1.91,0,0,.32,2.61.19,3.29-.13.68-1.78,1.09-2.35.32-.57-.78-.21-1.54-.3-3.01-.1-1.47-.67-2.38-.67-3.33s-.11-1.44.48-5.73h0s0,0,0,0c.25-.04,3.87-.59,6.56-1.25l.45,2.31s0,0,0,.01c.01.07.08.47.2.99,0,0,0,0,0,0v.02s.01.03.01.03c.02.1.05.2.08.31l.02.09v.02c.09.31.19.64.31.97.09.26.2.52.32.76,0,0,0,0,0,0,.04.09.36.8.46,1.09h0s.01.05.02.07c0,0,0,0,0,.01.1.36.19,1.18.19,1.18h0Z"/>
      <path class="cls-8" d="m210.9,144.5l.11-.66c0,.23-.04.45-.11.66Z"/>
      <path class="cls-8" d="m210.96,240.67c.34,1.28.12,2.14-.14,2.64-.17.33-.53.53-.91.5-1.91-.15-7.58.28-9.42.07-2.05-.23-2.04-2.79-2.04-2.79,0,0,.08-.96.16-1.72.06.04,2.21,1.58,5.7,1.12,3.53-.46,4.8.14,6.51-.28.05.15.09.31.13.47h0Z"/>
      <path class="cls-8" d="m210.8,142.57c-.11-.29-.42-.99-.46-1.08.2.39.35.75.46,1.08Z"/>
      <path class="cls-8" d="m209.61,149.2l.32-.96c-.03.23-.15.56-.32.96Z"/>
      <path class="cls-8" d="m208.59,235.84c.52.82,1.6,2.33,2.24,4.37-1.72.42-2.98-.18-6.51.28-3.48.46-5.64-1.08-5.7-1.12.03-.25.05-.48.08-.65.1-.65-.24-.84-.24-1.86s.42-2.05.84-3.02c.42-.98.14-2.7,0-3.63-.14-.93-.35-1.58-.35-1.58-.25-1.01-.3-2.82-.3-2.82v-1.59h.04l6.56.08v1.07s.8,3.12,1.56,5.76c.49,1.35,1.22,3.83,1.78,4.71h0Z"/>
      <path class="cls-8" d="m209.72,139.75v-.02s-.03-.09-.03-.09c0,.04.02.07.03.11h0Z"/>
      <path class="cls-8" d="m209.6,139.28s0,.04.01.06v-.04s-.01-.02-.01-.02Z"/>
      <path class="cls-8" d="m159.02,137.4h-.01s-5.38-1.51-5.38-1.51l-12.37-3.45h0s3.46-9.47,3.46-9.47c0,0,2.1-4.43,2.26-6.09.15-1.65,2.33-8.04,2.33-8.04l5.79-19.92s1.95-8.79,2.18-10.52c.23-1.73,2.33-6.16,3.38-7.06.49,1.91,5.75,17.53,11.75,17.53s10.46,4.15,17.9-.66c7.44-4.81,7.88-11.23,9.19-11.18.34,0,.76-.74,1.19-1.85l.17.03s-.25,6.48,0,9.1l-.56,3.62s-.07,3.97-.13,8.07c-.05,3.45-.09,6.99-.07,8.38.04,3.04.58,4.6.58,7.41s1.21,9.1,1.21,9.1c0,0,.76,7.8.76,8.59s-.28,7.74-.28,7.74c-.59,4.28-.48,4.77-.48,5.73s.57,1.86.67,3.33c.09,1.47-.27,2.24.3,3.01.57.78,2.22.36,2.35-.32.13-.68-.19-3.29-.19-3.29-.16-.65-.25-1.31-.29-1.91,0,0,1,1.44,1.13,2.75.13,1.31.03,3.23-.17,3.9-.2.67-.98,1.82-1.38,3.09,0,.01,0,.02-.01.04-.26.86.85,1.47,1.45.8l.38-.42c.05-.05.1-.1.16-.14,1.08-.76,2.35-2.65,3.08-4.09v.1s0,.05,0,.09h0c0,.06,0,.12,0,.18,0,.05,0,.1,0,.16,0,.06,0,.12,0,.18v.07s0,.08,0,.13c0,.05,0,.1,0,.16v.23c0,.05,0,.1-.01.15v.15s0,.07,0,.11c-.01.51-.03,1.08-.03,1.6v.05s0,.04,0,.04v.04s0,.06,0,.06c0,.51-.01.96,0,1.26v.02l-.11,2.2s0,.08,0,.12v.02s0,.08,0,.12l-.12,1.55s0,.08,0,.13v.19c-.34,4.06-.84,9.59-.84,9.59,0,0-.4,5.54-.62,9.66s.62,12.67.62,14.84-.4,2.52-.4,2.52c-1.15-2.98-6.75-3.05-6.75-3.05-3.33-.24-6.17-.72-8.25-1.16-2.99-.63-6.07-.79-9.11-.45-3.73.42-8.64,1.09-11.92,1.99-4.3,1.19-6.18,2.3-6.88,2.83h0c-.27.2-.37.31-.37.31l-.58.59v-2.53l-.55-2.26c-.3-1.44-.21-2.46-1.4-9.63-1.18-7.17-2.2-9.06-2.4-13.54-.2-4.48-2.3-13.93-2.3-13.93l.21-.19c1,1.14,3.24,2.48,3.61,2.29,0,0,1.64-.21,1.83-1.89.07-.6-.09-1.2-.41-1.72-.25-.41-.59-.95-.81-1.24.12-.11.23-.23.33-.37.61-.81-.57-3.46-.74-4.84-.17-1.38.07-2.22,0-3.63-.07-1.41-1.84-4.33-1.84-4.33l-.41-1.28h0Z"/>
      <path class="cls-8" d="m209.28,154.64c0,.21-.04.97-.12,2.04l.11-2.2c0,.06,0,.12,0,.16h0Z"/>
      <path class="cls-8" d="m209.28,153.1s0,.06,0,.08v-.08Z"/>
      <path class="cls-8" d="m209.02,158.49l.12-1.55c-.04.47-.08,1-.12,1.55Z"/>
      <path class="cls-8" d="m212.16,224.97c-1.02.89-6.91.4-6.91.4v-1.07c3.08.08,5.8.25,6.91.67Z"/>
      <path class="cls-8" d="m205.25,224.3l-6.56-.09c2.06.02,4.4.03,6.56.09Z"/>
      <path class="cls-8" d="m204.9,70.29s0,0,0,0c-.1-.23-.24-.46-.41-.68h0c-.44-.59-1.05-1.14-1.7-1.62h0s0,0,0,0v-.02c.27-1.09.46-1.9.5-2.1v-.02s0-.01,0-.01c0,0,0,0,0,0l1.59,4.46h0Z"/>
      <path class="cls-8" d="m204.9,70.3s0,0,0,0l-.4-.68c.16.22.3.45.41.68Z"/>
      <path class="cls-8" d="m204.49,69.62l-1.7-1.62c.64.48,1.26,1.03,1.7,1.62Z"/>
      <path class="cls-8" d="m199.46,65.48l-.33.54-2.07-.63c-.35-.11-.59-.42-.61-.78,0-.23-.03-.52-.05-.87.98.36,2.36,1.03,3.08.87.98-.22,2.72.55,2.72.55l1.1.66s0,0,0,.03v.02s-.51,2.1-.51,2.1v.02s0,0,0,0c-1.29-.96-2.7-1.63-2.99-1.77-.04-.02-.07-.03-.11-.04l-.45-.14c.14-.35.22-.55.23-.57h0Z"/>
      <path class="cls-8" d="m202.8,67.97l.5-2.1c-.05.21-.23,1.01-.5,2.1Z"/>
      <path class="cls-8" d="m199.8,66.23c.29.14,1.7.81,2.99,1.77-.52,2.09-1.34,5.21-2.11,7.18-.43,1.11-.86,1.86-1.19,1.85-1.31-.04-1.75,6.38-9.19,11.18-7.44,4.81-11.9.66-17.9.66s-11.26-15.62-11.75-17.53c1.05-.9,2.51-1.65,2.51-1.65.01-.02.03-.03.05-.05.14-.15.38-.33.69-.54,1.23,3.44,5.5,14.29,10.71,14.74l-10.45-14.9c1.08-.66,2.85-1.52,4.76-2.3.33,1.97,1.36,6.97,3.49,8.61l-3.33-8.67c.7-.28,1.42-.56,2.14-.81.39-.14.74-.28,1.05-.42.75,2.37,2.04,11.57,8.33,12.06.35.03.68.04,1.01.03l.61,2.26.78-2.37c4.5-.72,6.29-4.64,7.9-7.42.15-.2.29-.41.41-.63l.2.11-4.42,7.65c6.58-2.99,6.89-11.93,6.89-11.93l.03-.21c.94.24,1.97.42,3.08.51l2.07.63-6.63,11c3.34-3.01,5.97-9.08,6.73-10.97l.45.14s.07.03.11.04h0Zm-9.5,13.09l-13.17,2.34s6.76,3.1,13.17-2.34Z"/>
      <path class="cls-8" d="m199.13,66.02l.33-.54s-.09.23-.23.57l-.1-.03Z"/>
      <path class="cls-8" d="m199.13,66.02l.1.03c-.76,1.89-3.39,7.96-6.73,10.97l6.63-11h0Z"/>
      <path class="cls-8" d="m198.64,224.22v1.59s-1.02.09-4.83.18c-3.81.09-11.21-1.69-11.21-1.69,0,0,7.61-.61,10.72-.25.99.12,2.98.14,5.32.16Z"/>
      <path class="cls-8" d="m197.06,65.39l-3.38-.66c.98.04,1.19-1.22,1.87-1.22.2,0,.5.09.85.22.02.34.04.64.05.87.02.36.26.68.61.78h0Z"/>
      <path class="cls-8" d="m193.68,64.74l3.38.66c-1.11-.09-2.14-.27-3.08-.51-.23-.06-.47-.12-.69-.19,0-.02,0-.03,0-.03.14.05.27.07.39.08h0Z"/>
      <path class="cls-8" d="m195.14,56.58c.84,2.93,1.15,5.59,1.26,7.16-.35-.13-.65-.22-.85-.22-.68,0-.89,1.26-1.87,1.22h0l-.39-.08c-.07-.02-.14-.04-.21-.04-2.85-.91-4.7-2.34-5.26-3.14-1.09-1.57-.65-4.9-.65-4.9,2.38-1.49,4.04-7.9,2.56-15.65-1.5-7.83-10.24-5.57-11.35-5.25-.1.03-.21.06-.31.08-2.12.57-3.54,2.41-4.34,3.79-.45.78-.77,1.63-.96,2.52-.38,1.81-.68,1.51.17,7.02.22,1.39,1.53,4.66,2.4,6.15,0,0,0,0,0,0,.02.04.2.4.41,2.02.23,1.72-.09,4.09-.09,4.09-.41,1.3-.74,2.61-2.94,3.75-.15.08-.31.15-.47.23-.08-.27-.16-.45-.24-.52-.65-.59-3.12.56-4.43.67-.64.05-1.6.24-2.43.52,1.35-3.27,2.5-7.34,2.63-7.82,0,0,0,0,0,0,.03-.07.89-2.47.98-5.76.1-3.34.79-9.98,1.24-11.83.49-2.03,1.57-4.79,1.95-5.72.12-.3.26-.59.43-.87,2.19-3.55,7.56-3.55,7.58-3.55,0,0,6.69-1.09,9.3,2.75,2.61,3.84,3.13,7.73,3.61,10.53.47,2.8.95,8.21,2.28,12.86h0Z"/>
      <path class="cls-8" d="m193.98,64.88l-.03.21-2.47,4.28-.2-.11c.06-.11.13-.23.18-.35.09-.13.16-.29.23-.47,1.42-2.94,1.58-3.63,1.59-3.76.22.07.45.13.69.19h0Z"/>
      <path class="cls-8" d="m191.49,69.37l2.47-4.28s-.31,8.95-6.89,11.93l4.42-7.65Z"/>
      <path class="cls-8" d="m193.29,64.66s0,0,0,.03c-.07-.02-.14-.04-.21-.06.06,0,.13.01.21.04Z"/>
      <path class="cls-8" d="m193.09,64.62c.07.02.14.04.21.06-.02.13-.18.81-1.59,3.76.5-1.37.43-3.84,1.39-3.82h0Z"/>
      <path class="cls-8" d="m193.09,64.62c-.96-.02-.88,2.45-1.39,3.82-.07.15-.15.31-.23.47-.2.3-.4.63-.6.98-2.22,3-6.72,3.83-6.72,3.83l-1.18,3.59c-.44.07-.9.11-1.39.11l-1.04-3.86c-7.27-.7-7.82-8.46-7.82-8.46,2.2-1.14,2.52-2.46,2.94-3.75,0,0,.32-2.37.09-4.09-.22-1.61-.39-1.98-.41-2.02.06.11.12.21.18.29.15.22.28.38.38.44.3.18.59.38.87.59,4.61,3.46,7.99,1.69,9.25.74.32-.24.64-.47.99-.65.05-.03.1-.05.15-.08,0,0-.44,3.32.65,4.9.56.81,2.41,2.24,5.26,3.14h0Z"/>
      <path class="cls-8" d="m191.47,68.91c.08-.16.16-.32.23-.47-.06.18-.14.34-.23.47Z"/>
      <path class="cls-8" d="m191.47,68.91c-.06.12-.12.23-.18.35-.13.22-.26.43-.41.63.2-.35.4-.68.6-.98Z"/>
      <path class="cls-8" d="m177.13,81.66l13.17-2.34c-6.41,5.43-13.17,2.34-13.17,2.34Z"/>
      <path class="cls-8" d="m189.74,40.94c1.48,7.75-.18,14.16-2.56,15.65-.05.03-.1.06-.15.08-.35.19-.67.41-.99.65-1.27.95-4.64,2.71-9.25-.74-.28-.21-.57-.41-.87-.59-.1-.06-.23-.21-.38-.44-.06-.09-.12-.19-.18-.29,0,0,0,0,0,0-.87-1.49-2.19-4.76-2.4-6.15-.86-5.52-.55-5.21-.17-7.02.19-.88.51-1.73.96-2.52.8-1.38,2.22-3.23,4.34-3.79.1-.03.21-.05.31-.08,1.11-.32,9.85-2.58,11.35,5.25h0Z"/>
      <path class="cls-8" d="m184.16,73.72s4.5-.83,6.72-3.83c-1.61,2.78-3.4,6.7-7.9,7.42l1.18-3.59Z"/>
      <path class="cls-8" d="m182.98,77.31l-.78,2.37-.61-2.26c.49,0,.95-.04,1.39-.11Z"/>
      <path class="cls-8" d="m182.28,222.35v.94l-.34,8.17s-.38,1.93,0,3.55c.15.63.24,1.23.3,1.77h0s-.48,2.09-1.71,2.56c-1.23.47-1.46,1.58-1.46,1.58-1.25-.7-10.55-.6-10.55-.6.05-1.44.93-1.95,1.77-3.08.84-1.13,1.58-1.8,2.14-2.63.56-.84,1.14-2.3,1.14-2.3,1.16-1.37.28-7.22.28-7.22l-.17-.86v-.06c.64-.08,1.34-.19,2.08-.34,4.07-.82,5.81-1.25,6.55-1.47h0Z"/>
      <path class="cls-8" d="m182.24,236.78c.08.84.06,1.51-.06,1.91-.13.46-.15,1.56-.15,2.15,0,.27-.09.53-.26.73-.85,1.02-1.6,1.64-2.22,2.02,0,0,.31-1.67-.48-2.68,0,0,.23-1.11,1.46-1.58,1.23-.46,1.71-2.56,1.71-2.56h0Z"/>
      <path class="cls-8" d="m181.59,77.43c-.32,0-.66,0-1.01-.03-6.28-.49-7.58-9.69-8.33-12.06.17-.08.32-.15.47-.23,0,0,.55,7.76,7.82,8.46l1.04,3.86h0Z"/>
      <path class="cls-8" d="m179.06,240.91c.79,1.02.48,2.68.48,2.68-1.11.68-1.78.58-1.78.58,0,0-6.53-.68-8.95-.7-.52,0-.95-.41-.99-.93-.05-.7.04-1.61.68-2.23,0,0,9.3-.1,10.55.6h0Z"/>
      <path class="cls-8" d="m164.15,68.94l10.45,14.9c-5.21-.45-9.48-11.3-10.71-14.74.08-.05.17-.11.26-.16h0Z"/>
      <path class="cls-8" d="m169.07,66.57l3.33,8.67c-2.13-1.63-3.16-6.64-3.49-8.61.05-.02.11-.04.16-.07h0Z"/>
      <path class="cls-8" d="m172.02,64.82c.08.07.15.25.24.52-.32.14-.67.28-1.05.42-.71.25-1.43.53-2.14.81l-.28-.74s.04.3.12.81c-1.92.79-3.68,1.64-4.76,2.3l-.23-.33c.42-.72.84-1.62,1.24-2.6.82-.28,1.79-.46,2.43-.52,1.31-.11,3.78-1.26,4.43-.67h0Z"/>
      <path class="cls-8" d="m168.78,65.83l.28.74c-.05.02-.11.04-.16.07-.08-.5-.12-.81-.12-.81Z"/>
      <path class="cls-8" d="m163.54,68.07s.1.3.25.74c-.2.32-.4.6-.59.82-.02.02-.03.04-.05.05,0,0-1.45.74-2.51,1.65-.49-1.91,2.79-3.33,2.89-4.21.05-.45.76-.83,1.62-1.12-.4.98-.82,1.88-1.24,2.6l-.38-.54Z"/>
      <path class="cls-8" d="m163.91,68.6l.23.33c-.09.06-.18.11-.26.16-.04-.1-.07-.2-.1-.29.04-.07.08-.14.12-.21Z"/>
      <path class="cls-8" d="m163.54,68.07l.38.54c-.04.07-.08.14-.12.21-.16-.45-.24-.71-.25-.74Z"/>
      <path class="cls-8" d="m163.36,191.69l.55,2.26-10.32,4.39c-.49-.84-.75-8.77-.75-9.61s1.33-11.92,1.33-11.92c0,0,1.11-4.65,1.2-6.07.09-1.42.84-4.96.84-7,0-1.35.27-3.49.46-4.79.09-.66.17-1.11.17-1.11l.44-3.25s2.1,9.44,2.3,13.93c.2,4.48,1.22,6.37,2.4,13.54,1.18,7.17,1.09,8.19,1.4,9.63h0Z"/>
      <path class="cls-8" d="m163.79,68.81c.03.09.06.18.1.29-.31.2-.55.39-.69.54.19-.22.39-.5.59-.82Z"/>
      <path class="cls-8" d="m161.68,151.85c.22.29.56.83.81,1.24.32.51.47,1.12.41,1.72-.18,1.68-1.83,1.89-1.83,1.89-.37.18-2.61-1.15-3.61-2.29-.19-.22-.34-.44-.42-.63-.49-1.2-2.35-4.56-3.15-5.09s-.97-2.26-.27-4.74c.71-2.48,0-6.65,0-6.65,0,0-.06-.64,0-1.28,2.28.59,4.28,1.11,5.39,1.39h.01s.41,1.28.41,1.28c0,0,1.77,2.92,1.84,4.33.07,1.41-.17,2.25,0,3.63.17,1.38,1.34,4.03.74,4.84-.1.14-.21.26-.33.37Zm-2.53-2.14c-.1-1.14-.07-2.38-.13-2.9-.06-.59-.98-3.23-.98-3.23v3.28s.52,2.39,1.1,2.85h0Z"/>
      <path class="cls-8" d="m157.47,154.4l-.21.19-.44,3.25s-.07.44-.17,1.11h0s0,.05-.72-1.03c-.59-.88-1.95-1.13-2.3-.38-.35.75-2,.3-2.85-.6-.34-.35-.67-.47-.96-.47-.41,0-.72-.37-.69-.77.46-5.55,1.86-18.28,1.95-19.07,1.24.45,2.21.73,2.55.66,0,0,.71,4.17,0,6.65-.71,2.48-.53,4.21.27,4.74.8.53,2.66,3.9,3.15,5.09.08.19.23.41.42.63h0Z"/>
      <path class="cls-8" d="m151.08,136.63c-3.41-1.24-8.93-3.78-9.73-4.15,1.47.65,7.48,2.28,12.27,3.53-.05.65,0,1.28,0,1.28-.35.07-1.31-.21-2.55-.66h0Z"/>
      <path class="cls-6" d="m175.35,55.25c-.87-1.49-2.19-4.76-2.4-6.15-.86-5.52-.55-5.21-.17-7.02.19-.88.51-1.73.96-2.52.8-1.38,2.22-3.23,4.34-3.79.1-.03.21-.05.31-.08,1.11-.32,9.85-2.58,11.35,5.25,1.48,7.75-.18,14.16-2.56,15.65-.05.03-.1.06-.15.08-.35.19-.67.41-.99.65-1.27.95-4.64,2.71-9.25-.74-.28-.21-.57-.41-.87-.59-.1-.06-.23-.21-.38-.44-.06-.09-.12-.19-.18-.29"/>
      <path class="cls-6" d="m200.16,95.99l.69-1.85s.9-3.28,1.72-6.4c0,0,1.79-6.34,1.68-11.11v-3.36"/>
      <path class="cls-6" d="m141.35,132.48c.8.37,6.32,2.91,9.73,4.15,1.24.45,2.21.73,2.55.66,0,0,.71,4.16,0,6.65-.71,2.48-.53,4.21.27,4.74.8.53,2.66,3.9,3.15,5.09.08.19.23.41.42.63,1,1.14,3.24,2.48,3.61,2.29,0,0,1.64-.21,1.83-1.89.07-.6-.09-1.2-.41-1.72-.25-.41-.59-.95-.81-1.24"/>
      <path class="cls-6" d="m141.27,132.45s.03.01.05.02"/>
      <path class="cls-6" d="m167.81,58.09s-.01.06-.02.09"/>
      <path class="cls-6" d="m196.4,63.74c-.11-1.57-.42-4.24-1.26-7.16-1.33-4.65-1.8-10.06-2.28-12.86-.47-2.8-1-6.69-3.61-10.53-2.61-3.84-9.3-2.75-9.3-2.75-.01,0-5.38,0-7.58,3.56-.17.28-.31.57-.43.87-.37.93-1.46,3.7-1.95,5.72-.45,1.86-1.15,8.49-1.24,11.83-.09,3.29-.96,5.69-.98,5.76,0,0,0,0,0,0-.13.48-1.28,4.55-2.63,7.82"/>
      <path class="cls-6" d="m202.79,68s0,0,0,0"/>
      <path class="cls-6" d="m209.4,138.27l3.18-.89s.06,0,.1-.02c.67-.17,1.27-.35,1.81-.54,3.61-1.28,4.37-2.95,4.47-3.98.04-.44-.04-.76-.08-.87-.01-.04-.02-.07-.03-.11l-2.11-11.14-2.42-11.94-3.5-16.55-3.8-15.47s-1.11-4.17-2.09-6.42c0-.01-.01-.03-.02-.04"/>
      <path class="cls-6" d="m209.6,139.27c-.12-.52-.19-.91-.2-.99"/>
      <path class="cls-6" d="m209.61,139.34s0-.04-.01-.06"/>
      <path class="cls-6" d="m210.33,141.48c-.12-.23-.22-.49-.32-.76-.12-.32-.22-.66-.3-.97"/>
      <path class="cls-6" d="m210.8,142.57c-.11-.33-.27-.69-.46-1.08"/>
      <path class="cls-6" d="m210.83,142.65s-.01-.04-.02-.06"/>
      <path class="cls-6" d="m210.9,144.5c.07-.21.11-.43.11-.66.01-.36-.05-.75-.19-1.18"/>
      <path class="cls-5" d="m210.35,146.38c.11-.41.23-.81.33-1.16.07-.24.14-.45.2-.63"/>
      <path class="cls-6" d="m209.61,149.2c.17-.39.29-.73.32-.96.03-.18.06-.38.11-.58.08-.39.19-.83.31-1.25"/>
      <path class="cls-6" d="m204.72,143.77s1,1.44,1.13,2.75c.13,1.31.03,3.23-.17,3.9-.2.67-.98,1.82-1.38,3.09,0,.01,0,.02-.01.04-.26.86.85,1.47,1.45.8l.38-.42c.05-.05.1-.1.16-.14,1.08-.76,2.35-2.65,3.08-4.09.09-.18.17-.35.24-.51"/>
      <path class="cls-6" d="m204.73,143.77c-.11-1.43.02-2.56.02-2.56l-.02,2.56Z"/>
      <path class="cls-6" d="m200.85,75.2s-.24,6.48,0,9.1l-.56,3.62s-.07,3.97-.13,8.07c-.05,3.45-.09,6.99-.07,8.38.04,3.04.59,4.6.59,7.41s1.21,9.1,1.21,9.1c0,0,.76,7.8.76,8.59s-.28,7.74-.28,7.74c-.59,4.28-.48,4.77-.48,5.73s.57,1.86.67,3.33c.09,1.47-.27,2.24.3,3.01.57.78,2.22.36,2.35-.32.13-.68-.19-3.29-.19-3.29-.16-.65-.25-1.31-.29-1.91"/>
      <path class="cls-6" d="m159.02,137.4l.41,1.28s1.77,2.92,1.84,4.33c.07,1.41-.17,2.25,0,3.63.17,1.38,1.35,4.03.74,4.84-.1.14-.22.26-.33.37-.58.53-1.31.67-1.95,0-.35-.36-.5-1.22-.58-2.14-.1-1.14-.07-2.38-.13-2.9-.06-.59-.98-3.23-.98-3.23v3.28"/>
      <path class="cls-6" d="m160.64,71.33c-1.05.9-3.16,5.34-3.38,7.06-.22,1.73-2.18,10.52-2.18,10.52l-5.79,19.92s-2.18,6.39-2.33,8.04c-.15,1.65-2.26,6.09-2.26,6.09l-3.46,9.47h0s0,0,0,0l12.37,3.45,5.38,1.5"/>
      <path class="cls-6" d="m159.01,137.4c-1.11-.28-3.11-.79-5.39-1.39-4.79-1.25-10.8-2.87-12.27-3.53,0,0-.02,0-.03-.01-.02,0-.04-.02-.05-.02h-.01"/>
      <path class="cls-6" d="m159.01,137.4h.01"/>
      <path class="cls-6" d="m163.43,81.66s-.09,12.55,0,14.13c.09,1.58.2,7.34-.04,10.04-.24,2.7-2.56,7.53-2.56,10.97s-1.21,7.06-.84,9.76c.37,2.7-.07,10.09-.07,10.09v.99s-.33-.08-.9-.23"/>
      <path class="cls-6" d="m172.26,65.34c.17-.08.32-.15.47-.23,2.2-1.14,2.52-2.46,2.94-3.75,0,0,.32-2.37.09-4.09-.22-1.61-.39-1.98-.41-2.02,0,0,0,0,0,0"/>
      <path class="cls-6" d="m181.59,77.43l-1.04-3.86c-7.27-.7-7.82-8.46-7.82-8.46"/>
      <path class="cls-6" d="m190.88,69.89c-2.22,3-6.72,3.83-6.72,3.83l-1.18,3.59"/>
      <path class="cls-6" d="m191.7,68.44c-.07.15-.15.31-.23.47"/>
      <path class="cls-6" d="m193.68,64.74l-.39-.08"/>
      <path class="cls-6" d="m187.17,56.58s-.44,3.32.65,4.9c.56.81,2.41,2.24,5.26,3.14"/>
      <path class="cls-6" d="m164.86,195.59c.71-.53,2.58-1.64,6.88-2.83,3.28-.91,8.18-1.58,11.92-1.99,3.04-.34,6.11-.18,9.11.45,2.09.44,4.93.91,8.25,1.16,0,0,5.6.07,6.75,3.05"/>
      <path class="cls-6" d="m163.91,193.96l-.55-2.26c-.3-1.44-.21-2.46-1.4-9.63-1.18-7.17-2.2-9.06-2.4-13.54-.2-4.48-2.3-13.93-2.3-13.93l-.44,3.25s-.07.44-.17,1.11c-.18,1.3-.46,3.44-.46,4.79,0,2.04-.75,5.58-.84,7-.09,1.42-1.2,6.07-1.2,6.07,0,0-1.33,11.08-1.33,11.92s.27,8.77.75,9.61l10.32-4.39v2.53l.58-.59s.1-.11.37-.31"/>
      <path class="cls-6" d="m182.83,222.13s0,0,0,.01c-.02.02-.11.08-.54.2-.74.22-2.48.65-6.55,1.47-.74.15-1.43.26-2.08.34-5.88.7-8.11-1.31-8.11-1.31v-2.48c0-1.37-.36-3.23-.57-3.85-.18-.52-.13-9.48-.05-14.23.01-.95.03-1.74.05-2.25l-.12-4.44h0"/>
      <path class="cls-6" d="m198.64,225.81s-1.02.09-4.83.18c-3.81.09-11.21-1.69-11.21-1.69"/>
      <path class="cls-6" d="m209,158.8c-.33,4.06-.83,9.59-.83,9.59,0,0-.4,5.54-.62,9.66-.22,4.12.62,12.67.62,14.84s-.4,2.52-.4,2.52l1.06,7.13s.84,6.96,1.59,9.88c.75,2.92,1.73,12.54,1.73,12.54-1.02.89-6.91.4-6.91.4"/>
      <path class="cls-6" d="m209.14,156.93c-.04.47-.08,1-.12,1.55"/>
      <path class="cls-6" d="m209.27,154.48c0,.06,0,.12,0,.16,0,.21-.04.97-.12,2.04,0,.04,0,.08,0,.12"/>
      <path class="cls-6" d="m209.28,153.2c0,.51-.01.96,0,1.26"/>
      <path class="cls-6" d="m209.28,153.1s0,.06,0,.08"/>
      <path class="cls-6" d="m209.31,151.42c-.01.51-.03,1.08-.04,1.6"/>
      <path class="cls-6" d="m209.34,150.49s0,.08,0,.13"/>
      <path class="cls-6" d="m209.36,149.91s0,.11,0,.17c0,.05,0,.1,0,.16,0,.06,0,.12,0,.18"/>
      <path class="cls-6" d="m209.36,149.71v.1s0,.05,0,.09"/>
      <path class="cls-5" d="m209.36,149.89v-.09"/>
      <path class="cls-6" d="m209.36,149.89h0"/>
      <path class="cls-5" d="m209.35,150.08v-.17"/>
      <path class="cls-6" d="m209.35,150.24v-.16"/>
      <path class="cls-5" d="m209.34,150.42v-.18"/>
      <path class="cls-6" d="m209.34,150.42v.07"/>
      <path class="cls-5" d="m209.34,150.62v-.13"/>
      <path class="cls-6" d="m209.34,150.62c0,.05,0,.1,0,.16v.23c0,.05,0,.1-.01.15v.15s0,.07,0,.11"/>
      <path class="cls-6" d="m209.28,153.02l.04-1.6"/>
      <path class="cls-6" d="m209.28,153.02v.05s0,.04,0,.04"/>
      <path class="cls-6" d="m209.28,153.19h0"/>
      <path class="cls-5" d="m209.27,154.46v-1.26"/>
      <path class="cls-6" d="m209.27,154.46v.02"/>
      <path class="cls-6" d="m209.15,156.8v-.08s0-.03,0-.03l.11-2.2"/>
      <path class="cls-6" d="m209.15,156.8v.02s0,.08,0,.12"/>
      <path class="cls-6" d="m209.02,158.49s0,.08,0,.13v.19"/>
      <path class="cls-6" d="m214.47,136.82s1.45,13.15,1.93,18.88c.03.41-.28.77-.69.77-.29,0-.63.12-.96.47-.85.9-2.5,1.35-2.85.6-.35-.75-1.69-.49-2.3.38l-.61.87"/>
      <path class="cls-6" d="m156.4,99.72c.03,6.16,2.05,11.81,1.8,15.42"/>
      <path class="cls-6" d="m202.37,137.22h0s0,0,0,0c.25-.04,3.87-.59,6.56-1.25,1.35-.34,2.46-.7,2.79-1.04.98-1.01,6.92-2.03,7.21-2.08,0,0,.01,0,.01,0"/>
      <path class="cls-6" d="m209.4,138.28s0-.01,0-.01l-.45-2.31h0s-6.56,1.26-6.56,1.26"/>
      <path class="cls-5" d="m209.6,139.27l-.2-.99"/>
      <path class="cls-6" d="m209.69,139.64c-.03-.11-.05-.21-.08-.31v-.03s-.01-.02-.01-.02c0,0,0,0,0,0"/>
      <path class="cls-5" d="m210.33,141.48l-.32-.76-.3-.97"/>
      <path class="cls-6" d="m210.34,141.49s0,0,0-.01"/>
      <path class="cls-5" d="m210.83,142.65s-.01-.04-.02-.06"/>
      <path class="cls-5" d="m210.88,144.59s.02-.06.03-.08"/>
      <path class="cls-6" d="m210.68,145.22l.2-.63"/>
      <path class="cls-5" d="m209.93,148.24l.11-.58.31-1.25s0-.01,0-.02l.33-1.16"/>
      <path class="cls-6" d="m209.6,149.2s0,0,0,0"/>
      <path class="cls-6" d="m198.64,224.22c-2.34-.02-4.33-.05-5.32-.16-3.11-.36-10.72.25-10.72.25l.22-2.16h0c.12-.55.21-1.1.27-1.65.06-.55.09-1.1.09-1.66v-2.22c0-1.32.06-2.64.19-3.95l.48-4.94.6-13.43"/>
      <path class="cls-6" d="m212.16,224.97c-1.11-.41-3.84-.59-6.91-.67-2.16-.06-4.5-.07-6.56-.09"/>
      <path class="cls-6" d="m198.94,228.64c-.25-1.01-.3-2.82-.3-2.82v-1.59h.04l6.56.09v1.07s.8,3.12,1.56,5.76"/>
      <path class="cls-6" d="m158.05,146.86s.52,2.39,1.1,2.85"/>
      <path class="cls-6" d="m203.3,65.84s0-.03,0-.03l-1.1-.66s-1.74-.76-2.72-.55c-.72.16-2.1-.51-3.08-.87-.35-.13-.65-.22-.85-.22-.68,0-.89,1.26-1.87,1.22h0c-.12,0-.25-.03-.39-.08-.07-.02-.14-.04-.21-.04-.96-.02-.88,2.45-1.39,3.82-.06.18-.14.34-.23.47-.2.3-.4.63-.6.98-1.61,2.78-3.4,6.7-7.9,7.42-.44.07-.9.11-1.39.11-.32,0-.66,0-1.01-.03-6.28-.49-7.58-9.69-8.33-12.06-.08-.27-.16-.45-.24-.52-.65-.6-3.12.56-4.43.67-.64.05-1.6.24-2.43.52-.86.29-1.57.68-1.62,1.12-.1.87-3.38,2.3-2.89,4.21.49,1.91,5.75,17.53,11.75,17.53s10.46,4.15,17.9-.66c7.44-4.81,7.88-11.23,9.19-11.18.34,0,.76-.74,1.19-1.85.77-1.97,1.6-5.09,2.11-7.18"/>
      <path class="cls-6" d="m203.3,65.84h0s0-.02,0-.01l1.59,4.46s0,0,0,0c0,0,0,0,0,0l-.4-.68h0s-1.7-1.62-1.7-1.62h0s0,0,0,0"/>
      <path class="cls-5" d="m151.08,136.59s0,.01,0,.04c-.09.79-1.48,13.52-1.95,19.07-.03.41.28.77.69.77.29,0,.63.12.96.47.85.9,2.5,1.35,2.85.6.35-.75,1.71-.51,2.3.38.72,1.08.72,1.03.72,1.03"/>
      <path class="cls-6" d="m163.54,68.07s.1.3.25.74c.03.09.06.18.1.29,1.23,3.44,5.5,14.29,10.71,14.74"/>
      <path class="cls-6" d="m163.54,68.07h0"/>
      <path class="cls-6" d="m177.13,81.66s6.76,3.1,13.17-2.34"/>
      <path class="cls-6" d="m193.96,65.09s-.31,8.95-6.89,11.93"/>
      <path class="cls-6" d="m199.46,65.48s-.09.23-.23.57c-.76,1.89-3.39,7.96-6.73,10.97"/>
      <path class="cls-6" d="m199.46,65.48h0"/>
      <path class="cls-6" d="m168.78,65.83s.04.3.12.81c.33,1.97,1.36,6.97,3.49,8.61"/>
      <path class="cls-5" d="m198.94,228.64s.21.65.35,1.58c.14.93.42,2.65,0,3.63-.42.98-.84,2-.84,3.02s.33,1.21.24,1.86c-.02.16-.05.39-.08.65-.08.76-.16,1.72-.16,1.72,0,0,0,2.56,2.04,2.79,1.85.21,7.51-.22,9.42-.07.37.03.73-.16.91-.5.26-.5.48-1.36.14-2.64-.04-.16-.09-.31-.13-.47-.64-2.04-1.72-3.55-2.24-4.37-.56-.88-1.29-3.36-1.78-4.71"/>
      <path class="cls-5" d="m198.61,239.37h0c.06.04,2.21,1.58,5.7,1.12,3.53-.46,4.8.14,6.51-.28"/>
      <path class="cls-5" d="m168.51,240.31c.05-1.44.93-1.95,1.77-3.08s1.58-1.8,2.14-2.64c.56-.84,1.14-2.3,1.14-2.3,1.16-1.37.28-7.22.28-7.22l-.17-.86"/>
      <path class="cls-5" d="m182.24,236.78s-.48,2.09-1.71,2.56c-1.23.47-1.46,1.58-1.46,1.58-1.25-.7-10.55-.6-10.55-.6-.64.62-.73,1.53-.68,2.23.04.52.46.93.99.93,2.42.02,8.95.7,8.95.7,0,0,.67.11,1.78-.58.62-.38,1.37-1,2.22-2.02.17-.21.26-.47.26-.73,0-.6.02-1.69.15-2.15.11-.4.14-1.07.06-1.91-.05-.53-.15-1.13-.3-1.77-.38-1.63,0-3.55,0-3.55l.34-8.17v-.94"/>
      <path class="cls-5" d="m179.55,243.6s.31-1.67-.48-2.68"/>
      <path class="cls-5" d="m153.63,137.29s-.06-.64,0-1.28c0-.04,0-.08,0-.12"/>
    </g>
  </g>
  <line class="cls-4" x2="245"/>
  <line class="cls-4" y1="40.8" x2="245" y2="40.8"/>
  <line class="cls-4" y1="81.6" x2="245" y2="81.6"/>
  <line class="cls-4" y1="122.4" x2="245" y2="122.4"/>
  <line class="cls-4" y1="163.2" x2="245" y2="163.2"/>
  <line class="cls-4" y1="204" x2="245" y2="204"/>
  <line class="cls-7" y1="244.23" x2="245" y2="244.23"/>
</svg>