<svg width="58" height="57" viewBox="0 0 58 57" fill="none" xmlns="http://www.w3.org/2000/svg">
<circle cx="28.64" cy="28.4" r="27.8428" fill="#EFEFEF" stroke="#285642" stroke-width="1.11432"/>
<mask id="mask0_76_6487" style="mask-type:alpha" maskUnits="userSpaceOnUse" x="0" y="0" width="58" height="57">
<circle cx="28.64" cy="28.4" r="27.8428" fill="#D9D9D9" stroke="#285642" stroke-width="1.11432"/>
</mask>
<g mask="url(#mask0_76_6487)">
<g clip-path="url(#clip0_76_6487)">
<path d="M42.7081 89.3855C42.2916 92.4274 42.3704 92.7763 42.3704 93.4517C42.3704 94.1271 42.7757 94.7696 42.8432 95.8174C42.9108 96.8651 42.6519 97.4054 43.0571 97.9578C43.4623 98.5103 44.6339 98.2176 44.7248 97.7327C44.8148 97.2487 44.5863 95.3974 44.5863 95.3974C44.4728 94.9367 44.4096 94.4683 44.3776 94.0397C44.3776 94.0397 45.0885 95.0623 45.1837 95.9949C45.2798 96.9257 45.208 98.2877 45.0651 98.7649C44.9214 99.2428 44.3724 100.055 44.0849 100.962C44.0823 100.972 44.0797 100.981 44.0771 100.989C43.8953 101.603 44.678 102.034 45.1049 101.557L45.3733 101.257C45.4071 101.221 45.4444 101.188 45.4842 101.159C46.2479 100.622 47.1553 99.2801 47.6706 98.2583C47.6688 98.3146 47.5796 101.087 47.6108 101.761C47.6428 102.441 46.8246 111.526 46.8246 111.526C46.8246 111.526 46.5423 115.459 46.3847 118.386C46.2271 121.312 46.8246 127.384 46.8246 128.926C46.8246 130.467 46.5423 130.719 46.5423 130.719C45.7249 128.604 41.7444 128.553 41.7444 128.553C39.3822 128.38 37.3665 128.043 35.8849 127.732C33.7583 127.286 31.5762 127.175 29.4167 127.416C26.7636 127.712 23.2836 128.187 20.9535 128.831C17.8952 129.676 16.566 130.468 16.0655 130.839C15.8742 130.981 15.804 131.063 15.804 131.063L15.3927 131.478V129.681L15.0005 128.074C14.7831 127.051 14.8498 126.326 14.009 121.234C13.1683 116.142 12.4452 114.799 12.3041 111.616C12.1638 108.434 10.6693 101.726 10.6693 101.726L10.8165 101.592C11.53 102.402 13.1163 103.351 13.3795 103.219C13.3795 103.219 14.545 103.071 14.6766 101.879C14.7234 101.453 14.6117 101.022 14.3874 100.657C14.2091 100.368 13.9657 99.9823 13.8099 99.7771C13.8939 99.7 13.9727 99.6117 14.0463 99.5147C14.4766 98.9424 13.641 97.0565 13.5215 96.078C13.402 95.0987 13.5692 94.5021 13.5215 93.4994C13.4739 92.4975 12.2149 90.422 12.2149 90.422L11.9231 89.5145L11.9136 89.5119L-0.694668 85.9921H-0.697266L1.7584 79.265C1.7584 79.265 3.25293 76.1166 3.35944 74.9416C3.46681 73.7674 5.01415 69.2302 5.01415 69.2302L9.12454 55.085C9.12454 55.085 10.5126 48.8393 10.6728 47.6123C10.8321 46.3845 12.3275 43.2352 13.0747 42.5945C13.822 41.9537 14.8533 41.4255 14.8533 41.4255C14.8637 41.4134 14.8749 41.4004 14.887 41.3883C15.4542 40.7917 18.0744 39.5197 20.576 38.6365C20.995 38.4884 21.3518 38.3343 21.6592 38.175C21.6592 38.175 22.048 43.6872 27.2095 44.1851L28.3846 48.5284L29.7735 44.2925C29.7735 44.2925 33.6535 43.5799 34.9705 40.8748C36.1282 38.4971 36.2486 37.9672 36.2607 37.8745C37.0539 38.1161 37.9501 38.2988 38.9389 38.3759L40.8049 38.9439C40.8309 38.9517 40.8577 38.9612 40.882 38.9733C41.2335 39.1361 43.871 40.4003 44.517 41.8931C45.2097 43.4941 45.9977 46.4555 45.9977 46.4555L48.6966 57.4428L51.1809 69.1938L52.9005 77.6735L54.3959 85.5825C54.4011 85.6085 54.4081 85.6345 54.4167 85.6596C54.4427 85.7401 54.5033 85.9661 54.4747 86.2787C54.2764 86.3125 50.0483 87.0364 49.3556 87.7568C49.1235 87.9984 48.3278 88.2573 47.3649 88.4945C47.3649 88.4945 47.3649 88.4945 47.3632 88.4945L42.7185 89.3829C42.7185 89.3829 42.7151 89.3829 42.7133 89.3829H42.7081V89.3855Z" fill="#285642"/>
<path d="M38.9375 38.3763L36.261 37.8577C36.261 37.8577 36.261 37.8629 36.2593 37.875C34.1552 37.2351 32.7836 36.1839 32.3775 35.5977C31.6042 34.4824 31.9142 32.1211 31.9142 32.1211C33.6079 31.0665 34.7864 26.5084 33.7343 21.0083C32.671 15.4467 26.4652 17.0503 25.6737 17.278C25.6001 17.2997 25.5257 17.317 25.4529 17.3369C23.9472 17.7395 22.9367 19.0479 22.3695 20.0307C22.0491 20.5857 21.8223 21.1901 21.6906 21.8179C21.4196 23.1037 21.2049 22.8873 21.8119 26.8046C21.9651 27.7899 22.896 30.114 23.5177 31.1721C23.5177 31.1721 23.5177 31.1738 23.5194 31.1747C23.5194 31.1764 23.5194 31.1773 23.5211 31.179C23.5428 31.2215 23.664 31.4994 23.8129 32.6069C23.9766 33.8295 23.7463 35.5102 23.7463 35.5102C23.4519 36.4307 23.2189 37.3658 21.6586 38.1754C21.3521 38.3348 20.9953 38.4889 20.5754 38.637C18.0747 39.5202 15.4536 40.7922 14.8865 41.3888C16.3152 39.7695 18.0071 33.7542 18.1457 33.2554C18.1457 33.2554 18.1457 33.2554 18.1457 33.2537C18.1457 33.2537 18.1457 33.252 18.1457 33.2502C18.1829 33.1463 18.7769 31.4587 18.8427 29.1606C18.9103 26.789 19.403 22.0751 19.7233 20.7572C20.0732 19.3181 20.8412 17.3533 21.1053 16.6953C21.191 16.4823 21.2889 16.2736 21.4092 16.0779C22.9661 13.5564 26.7769 13.5538 26.7916 13.5538C26.7916 13.5538 31.541 12.7788 33.3949 15.5081C35.2479 18.2366 35.6176 20.9996 35.9553 22.9868C36.293 24.9741 36.629 28.8152 37.572 32.1168C38.2967 34.6521 38.4647 36.9095 38.5037 37.8204C38.5149 38.0785 38.6881 38.301 38.9349 38.3763H38.9375Z" fill="#285642"/>
<path d="M36.2592 37.8737C36.2471 37.9663 36.1268 38.4954 34.9691 40.874C33.652 43.579 29.772 44.2917 29.772 44.2917L28.3831 48.5276L27.2081 44.1843C22.0465 43.6864 21.6577 38.1741 21.6577 38.1741C23.2181 37.3645 23.4501 36.4294 23.7454 35.5089C23.7454 35.5089 23.9766 33.8282 23.8121 32.6056C23.6631 31.4981 23.5419 31.2202 23.5202 31.1777C23.5653 31.2539 23.6077 31.3223 23.6484 31.3838C23.7549 31.5431 23.8467 31.6514 23.9186 31.6938C24.1324 31.8211 24.3351 31.9657 24.5342 32.1146C27.8125 34.5694 30.2058 33.3182 31.1063 32.6437C31.3306 32.474 31.5626 32.3129 31.8103 32.1813C31.8458 32.1623 31.8796 32.1423 31.9142 32.1207C31.9142 32.1207 31.6042 34.482 32.3774 35.5972C32.7827 36.1835 34.1551 37.2346 36.2592 37.8745V37.8737Z" fill="white"/>
<path d="M33.734 21.0071C34.7861 26.5072 33.6076 31.0652 31.9139 32.1199C31.8793 32.1416 31.8455 32.1615 31.81 32.1805C31.5615 32.3121 31.3303 32.4732 31.1061 32.6429C30.2064 33.3174 27.8122 34.5686 24.5339 32.1138C24.3348 31.9649 24.1322 31.8203 23.9183 31.693C23.8464 31.6506 23.7546 31.5424 23.6481 31.383C23.6074 31.3216 23.565 31.2531 23.52 31.1769C23.52 31.1752 23.52 31.1743 23.5182 31.1726C23.5165 31.1709 23.5165 31.17 23.5165 31.17C22.8957 30.111 21.964 27.7878 21.8107 26.8025C21.2037 22.8852 21.4185 23.1016 21.6895 21.8158C21.8211 21.188 22.048 20.5836 22.3683 20.0286C22.9355 19.0467 23.9451 17.7374 25.4518 17.3348C25.5254 17.3149 25.5998 17.2976 25.6726 17.2759C26.464 17.0473 32.669 15.4437 33.7332 21.0062L33.734 21.0071Z" fill="white"/>
<path d="M23.5195 31.1742C23.5195 31.1742 23.5173 31.172 23.5173 31.1709C23.5173 31.1709 23.5173 31.1709 23.5195 31.1742Z" fill="white"/>
<path d="M23.5195 31.1736C23.5195 31.1736 23.5177 31.1719 23.5177 31.171C22.8969 30.112 21.9652 27.7888 21.8119 26.8034C21.2049 22.8861 21.4197 23.1026 21.6907 21.8168C21.8223 21.189 22.0492 20.5846 22.3696 20.0296C22.9367 19.0477 23.9464 17.7384 25.453 17.3358C25.5266 17.3159 25.6011 17.2986 25.6738 17.2769C26.4652 17.0483 32.6702 15.4447 33.7344 21.0072C34.7864 26.5073 33.608 31.0654 31.9143 32.12C31.8796 32.1417 31.8459 32.1616 31.8104 32.1806C31.5619 32.3122 31.3307 32.4733 31.1064 32.643C30.2067 33.3175 27.8126 34.5688 24.5343 32.114C24.3351 31.965 24.1325 31.8204 23.9186 31.6931C23.8468 31.6507 23.755 31.5425 23.6485 31.3831C23.6078 31.3217 23.5654 31.2533 23.5203 31.1771" stroke="#285642" stroke-width="0.159324" stroke-miterlimit="10"/>
<path d="M41.1367 60.1101L41.6242 58.7965C41.6242 58.7965 42.265 56.4664 42.8477 54.2532C42.8477 54.2532 44.1206 49.7531 44.0375 46.3658L44.0418 43.9785" stroke="#285642" stroke-width="0.159324" stroke-miterlimit="10"/>
<path d="M18.1462 33.2516L18.1597 33.1885C18.1563 33.2087 18.153 33.228 18.1471 33.2482" stroke="#285642" stroke-width="0.159324" stroke-miterlimit="10"/>
<path d="M47.6704 98.2561C47.8912 97.8196 48.0393 97.4421 48.0748 97.2109C48.1934 96.423 48.5761 95.157 48.7675 94.5596C48.9589 93.9621 48.8151 93.3179 48.3614 92.4096C47.9077 91.5012 47.6964 90.1331 47.6964 90.1331L49.9521 89.501C49.9746 89.4976 49.9979 89.4932 50.0196 89.4872C53.6927 88.5615 54.3984 87.112 54.4746 86.2782C54.5023 85.9656 54.4426 85.7396 54.4166 85.6591C54.4079 85.6331 54.401 85.608 54.3958 85.582L52.9004 77.673L51.1808 69.1933L48.6965 57.4423L45.9975 46.455C45.9975 46.455 45.2096 43.4936 44.5169 41.8926C43.8709 40.3998 41.2334 39.1365 40.8818 38.9728C40.8567 38.9607 40.8308 38.9512 40.8048 38.9434L38.9388 38.3753C38.692 38.3 38.5188 38.0775 38.5076 37.8194C38.4686 36.9085 38.3006 34.6511 37.5759 32.1158C36.6329 28.815 36.2961 24.9739 35.9592 22.9859C35.6224 20.9978 35.2518 18.2356 33.3988 15.5072C31.5458 12.7779 26.7955 13.5528 26.7955 13.5528C26.7808 13.5528 22.9709 13.5554 21.4131 16.0769C21.2928 16.2726 21.1941 16.4813 21.1092 16.6943C20.8451 17.3524 20.0771 19.3171 19.7272 20.7562C19.4069 22.0749 18.9142 26.788 18.8466 29.1597C18.7808 31.4577 18.1868 33.1454 18.1496 33.2493C18.1496 33.251 18.1496 33.2519 18.1496 33.2527V33.2545C18.0111 33.7524 16.3182 39.7677 14.8904 41.3878" stroke="#285642" stroke-width="0.159324" stroke-miterlimit="10"/>
<path d="M41.6249 45.3398C41.6249 45.3398 41.45 49.9421 41.6249 51.8055L41.2266 54.3737C41.2266 54.3737 41.1781 57.1913 41.1374 60.1085C41.1037 62.5564 41.076 65.0761 41.089 66.0615C41.1167 68.2219 41.5046 69.3302 41.5046 71.3235C41.5046 73.3168 42.3653 77.7839 42.3653 77.7839C42.3653 77.7839 42.9056 83.3248 42.9056 83.885C42.9056 84.4452 42.709 89.3843 42.709 89.3843C42.2925 92.4261 42.3713 92.7751 42.3713 93.4505C42.3713 94.1259 42.7766 94.7684 42.8441 95.8161C42.9117 96.8638 42.6528 97.4042 43.058 97.9566C43.4632 98.509 44.6348 98.2164 44.7257 97.7315C44.8158 97.2474 44.5872 95.3961 44.5872 95.3961C44.4737 94.9355 44.4105 94.467 44.3785 94.0384" stroke="#285642" stroke-width="0.159324" stroke-miterlimit="10"/>
<path d="M14.8524 41.4258C14.8524 41.4258 13.8211 41.9548 13.0739 42.5947C12.3266 43.2364 10.8312 46.3847 10.6719 47.6126C10.5117 48.8395 9.12367 55.0852 9.12367 55.0852L5.01329 69.2304C5.01329 69.2304 3.46594 73.7677 3.35857 74.9418C3.25206 76.1169 1.75754 79.2652 1.75754 79.2652L-0.697266 85.9906H-0.695534L11.9136 89.5096" stroke="#285642" stroke-width="0.159324" stroke-miterlimit="10"/>
<path d="M15.0524 49.9272C15.0524 49.9272 14.9858 58.8373 15.0524 59.9595C15.1182 61.0817 15.191 65.173 15.023 67.0875C14.855 69.002 13.2046 72.4326 13.2046 74.8744C13.2046 77.3163 12.3465 79.8905 12.6106 81.8042C12.8738 83.7187 12.5604 88.9685 12.5604 88.9685V89.6734C12.5604 89.6734 12.3283 89.6154 11.9231 89.5132" stroke="#285642" stroke-width="0.159324" stroke-miterlimit="10"/>
<path d="M14.8525 41.4253C14.8629 41.4131 14.8742 41.4002 14.8863 41.388C15.4535 40.7914 18.0737 39.5194 20.5752 38.6362C20.9943 38.4882 21.3511 38.334 21.6584 38.1747C23.2188 37.3651 23.4508 36.4299 23.7461 35.5095C23.7461 35.5095 23.9773 33.8288 23.8128 32.6062C23.6638 31.4987 23.5426 31.2207 23.521 31.1783C23.521 31.1766 23.521 31.1757 23.5192 31.174C23.5175 31.1723 23.5175 31.1714 23.5175 31.1714" stroke="#285642" stroke-width="0.159324" stroke-miterlimit="10"/>
<path d="M31.9142 32.1201C31.9142 32.1201 31.6042 34.4814 32.3774 35.5967C32.7827 36.1829 34.1551 37.2341 36.2592 37.874M36.2592 37.874C37.0524 38.1155 37.9486 38.2983 38.9374 38.3753L36.261 37.8566C36.261 37.8566 36.261 37.8618 36.2592 37.874ZM36.2592 37.874C36.2471 37.9666 36.1268 38.4957 34.9691 40.8743C33.652 43.5793 29.772 44.292 29.772 44.292L28.3831 48.5279L27.2081 44.1846C22.0465 43.6867 21.6577 38.1744 21.6577 38.1744" stroke="#285642" stroke-width="0.159324" stroke-miterlimit="10"/>
</g>
</g>
<defs>
<clipPath id="clip0_76_6487">
<rect width="55.3582" height="151.547" fill="white" transform="translate(-0.796875 13.3721)"/>
</clipPath>
</defs>
</svg>
