<svg width="42" height="41" viewBox="0 0 42 41" fill="none" xmlns="http://www.w3.org/2000/svg">
<mask id="mask0_403_5375" style="mask-type:alpha" maskUnits="userSpaceOnUse" x="0" y="0" width="42" height="41">
<circle cx="20.6477" cy="20.4734" r="20.4734" fill="#D9D9D9"/>
</mask>
<g mask="url(#mask0_403_5375)">
<circle cx="20.6477" cy="20.4734" r="20.0717" fill="#EFEFEF" stroke="#004F24" stroke-width="0.803306"/>
<g clip-path="url(#clip0_403_5375)">
<path d="M34.9251 41.3082C34.5577 45.7951 31.213 50.6254 30.8971 51.073C30.9131 51.3676 30.9365 51.7022 30.9639 52.0616C34.1001 48.9421 34.8516 44.5059 34.9251 41.3082ZM7.52115 69.1998C7.52115 69.1998 7.52182 69.1998 7.52115 69.1991C7.51647 69.149 7.40759 68.3468 6.1237 67.9727C4.81442 67.5906 2.77435 69.3374 2.72693 69.3782C2.61136 68.8357 2.32412 68.793 2.26534 68.2927C2.19319 67.6621 2.26534 65.9413 2.26534 65.481C2.26534 65.0208 1.99881 63.9293 2.0469 63.1537C2.09567 62.3782 2.09567 61.5292 1.926 60.8264C1.75632 60.1237 1.926 57.093 1.926 57.093C1.926 57.093 1.99814 54.4992 2.02286 53.5787C2.0469 52.6568 2.33815 50.6695 2.62873 50.0149C2.91931 49.3596 3.40428 45.699 3.40428 45.699C3.40428 45.699 3.96205 42.2815 4.08296 41.3356C4.20454 40.3897 4.61669 37.7478 5.24661 36.6322C5.8772 35.5173 6.26531 34.9836 7.3321 34.3537C8.3989 33.7231 11.7683 32.2929 11.7683 32.2929C12.9947 31.4986 15.1283 30.7284 15.1617 30.7171C15.147 30.7532 14.6634 31.9061 14.6634 32.5661V34.1252C14.6634 34.1252 14.6687 34.1225 14.6808 34.1165C14.7783 34.0724 15.3 33.826 16.3968 33.2121C17.8137 32.4191 19.6206 32.9569 20.3414 34.4118C20.3607 34.4505 20.4389 34.7191 20.4576 34.7591C20.4563 34.9014 20.4302 35.0364 20.3688 35.1546C20.3681 35.1559 20.3674 35.1566 20.3674 35.1566C20.2285 35.3189 20.0728 35.4679 19.9012 35.5975C19.6981 35.7518 19.483 35.9809 19.4255 36.2815C19.3127 36.8861 19.0855 40.0617 19.0855 41.536V48.2774H20.7809V34.6389L20.7589 34.6222C21.4957 33.659 23.0721 31.7939 23.7562 32.5047C23.7642 32.5133 23.7715 32.522 23.7796 32.5314C24.5277 33.3884 25.2578 34.5294 25.2578 34.5294C25.2578 34.5294 25.523 33.7511 25.523 33.0992C25.523 32.4472 26.2779 31.2842 26.2157 31.0598C26.155 30.836 25.69 30.3657 25.69 30.3657C26.6005 30.3944 28.4509 31.6176 28.4509 31.6176C28.4509 31.6176 30.6419 32.87 32.0367 33.5815C33.4315 34.2929 34.5691 35.5167 35.3092 36.5975C36.0493 37.6796 36.8743 42.7163 36.8743 42.7163C36.8743 42.7163 38.3252 48.7203 38.7527 51.3669C39.1796 54.0135 38.8095 58.7376 38.4962 59.3635C38.1836 59.9901 38.0694 61.6394 37.9845 62.5225C37.899 63.4042 37.8142 65.767 37.5857 66.7055C37.5069 67.0315 37.4555 67.4222 37.4094 67.8598C37.3372 67.5859 37.0453 67.1297 36.1148 66.441C34.5263 65.2653 32.3299 67.2693 32.0253 67.5599C32.1015 66.5585 32.195 65.1718 32.2217 64.1344C32.2678 62.3127 32.2217 61.7042 32.2217 59.9347C32.2217 58.1651 31.2391 55.071 31.2077 54.9734C31.3253 56.3382 31.4268 57.6087 31.4268 58.2473C31.4268 59.7423 31.1469 63.0128 31.1469 63.0128C31.1469 63.0128 31.7975 67.1043 31.9211 68.8538C31.9345 69.0381 31.9412 69.1965 31.9412 69.3207C31.9412 70.6286 32.0367 71.2586 32.0367 71.2586L32.2418 71.7028L32.2591 71.7141C32.1983 71.8103 32.1242 71.9246 32.0367 72.0575C31.6519 72.6427 30.4996 73.8471 30.3226 75.1056C30.1449 76.3634 30.3046 76.8424 30.0915 77.4623C29.8797 78.0822 29.2064 79.5892 29.2064 80.0133C29.2064 80.4375 29.9144 80.5805 30.2518 80.3681C30.5878 80.1556 31.5096 78.6847 31.6519 77.7983C31.6873 77.5785 31.7187 77.3026 31.7508 77.012C31.712 77.3601 32.36 77.2318 32.36 77.2318L32.374 77.2305C32.4074 77.6166 32.3794 78.1516 32.1389 78.7555C31.6519 79.9786 31.173 81.3607 30.712 81.7508C30.2511 82.1409 29.9318 82.4589 30.1623 83.0086C30.1623 83.0086 30.2825 83.1322 30.4415 83.175C30.4415 83.175 30.2571 83.9372 31.1042 83.7121L32.1262 82.8123C32.2805 82.7214 32.4381 82.6012 32.5945 82.4656C32.6105 82.7595 32.6933 84.2752 32.7762 86.7635C32.8697 89.549 32.7762 95.6318 32.7762 95.6318C32.7762 95.6318 32.3713 95.9785 31.1743 96.3098C30.855 96.3987 30.4782 96.4869 30.0374 96.5663C27.9479 96.9438 25.9051 96.8389 23.9552 96.3045C23.5645 96.1969 23.0942 96.1154 22.5805 96.0567C21.5257 95.9358 20.2879 95.9117 19.1677 95.9651C18.1156 96.0152 17.167 96.1335 16.5725 96.3045C16.2312 96.4027 15.8604 96.4621 15.4857 96.4982C14.1744 96.6238 12.8084 96.4535 12.4717 96.5663C12.0375 96.712 8.58727 96.746 7.19383 96.5663C6.71287 96.5049 6.33746 96.3232 6.04754 96.0734C5.49845 95.6004 5.25864 94.877 5.19785 94.239C5.105 93.2638 4.12972 92.382 4.08363 91.1749C4.03754 89.9672 4.26866 89.2244 4.43834 87.6926C4.60801 86.1609 4.54789 85.9285 4.45504 84.6279C4.37688 83.533 4.59465 81.5825 4.66479 80.9946C4.79772 81.1343 4.91863 81.2418 5.00279 81.3113C5.29337 81.5544 7.20852 83.5905 7.62068 83.0327C7.62068 83.0327 7.91193 82.9358 7.74225 82.4021L7.74025 82.3981C7.86316 82.3266 7.95401 82.1843 7.93597 81.9178C7.93597 81.9178 7.36684 81.0481 6.97406 80.3166L7.04687 77.1116C7.09363 77.3601 7.13371 77.644 7.15976 77.9659C7.30538 79.7595 8.75962 79.857 9.09896 79.6393C9.43897 79.4208 8.61466 77.312 8.61466 76.8029C8.61466 76.2939 8.58994 75.1543 8.5659 74.839C8.54118 74.5237 8.15374 72.6093 7.30472 72.1296C7.30472 72.1296 7.5305 71.0608 7.5305 69.6594C7.5305 69.5077 7.52649 69.3548 7.51714 69.2005L7.52115 69.1998ZM9.23122 52.5018C9.25327 53.4744 9.24057 53.8953 9.18446 54.2467C8.98406 55.5025 7.97004 59.8031 7.97004 60.5278C7.97004 61.2526 7.1484 64.8765 7.1484 65.7943C7.1484 66.0428 7.17646 66.3374 7.21788 66.6634C7.28267 67.1731 7.37953 67.7576 7.449 68.3581C7.45635 68.3147 7.72823 66.5552 7.72823 65.6013C7.72823 64.6474 8.74292 61.5425 8.8872 60.0936C9.03283 58.6441 9.46703 56.2286 9.51579 55.0202C9.56455 53.8125 9.23122 52.5025 9.23122 52.5025V52.5018Z" fill="white"/>
<path d="M27.1714 16.2807C27.4847 17.0208 27.2562 17.6461 27.1146 18.3582C26.9723 19.0696 26.8013 19.8665 26.8013 19.8665C26.1707 19.4757 25.6911 20.8932 25.6911 20.8932V18.2099C25.6911 17.5806 25.4259 17.0836 25.4586 16.5205C25.492 15.9574 25.4586 15.5599 25.4586 14.9968C25.4586 14.4337 24.6971 14.3676 24.498 14.0736C24.2996 13.7791 23.1073 13.739 23.0077 13.7056C22.9089 13.6722 21.7499 13.7383 21.484 13.9701C21.2195 14.2019 20.3979 13.9701 20.3979 13.9701C20.3979 13.9701 19.1654 14.069 18.7352 13.8706C18.3044 13.6722 17.0793 13.5065 16.3832 14.2346C15.6878 14.9634 15.7874 15.3609 15.754 16.2881C15.7206 17.2152 15.5556 17.1825 15.4894 17.944C15.4226 18.7055 15.456 18.8385 15.3238 19.5673C15.2864 19.771 15.275 19.9794 15.277 20.1852C15.2309 18.7503 14.3318 19.3047 14.3318 19.3047C14.3318 19.3047 14.2576 18.268 14.3318 16.8238C14.4053 15.3802 14.2944 13.751 15.0719 12.936C15.8501 12.1217 17.1454 10.7149 17.1454 10.7149C19.2195 9.34488 22.6584 9.77507 22.6584 9.77507C24.0926 10.0282 24.8374 10.5887 25.5208 11.1298C26.2041 11.6702 26.4025 12.4671 26.4025 12.9507C26.4025 13.4344 26.7726 14.0322 26.9149 14.5726C27.0571 15.113 26.8581 15.5399 27.1714 16.28V16.2807Z" fill="#285642"/>
<path d="M26.8012 19.8656C27.0858 20.0359 27.029 20.1789 27.029 20.6905C27.029 21.2022 26.9154 21.9711 26.4886 22.8535C26.0617 23.7353 25.0083 23.5649 25.0083 23.5649C25.1092 23.0472 25.4438 22.6184 25.5808 22.0018C25.7378 21.2904 25.6917 20.8916 25.6917 20.8916C25.6917 20.8916 26.1713 19.4741 26.8019 19.8649L26.8012 19.8656Z" fill="white"/>
<path d="M26.2175 31.0611C26.279 31.2856 25.5248 32.4479 25.5248 33.1005C25.5248 33.7532 25.2596 34.5307 25.2596 34.5307C25.2596 34.5307 24.5295 33.3898 23.7813 32.5327C23.7733 32.5234 23.766 32.5147 23.7579 32.506C23.446 32.1513 23.1327 31.8487 22.8682 31.6997C22.6858 31.5982 22.4594 31.6229 22.2997 31.7579C21.9731 32.0317 21.3151 32.6784 21.1113 33.5701H21.1107C21.1087 33.4572 21.0953 33.3497 21.0786 33.2548C21.0312 32.991 21.1 32.7191 21.2703 32.512C21.6604 32.0364 22.4012 31.1901 23.2463 30.4987C24.4941 29.4786 24.4981 28.2889 24.4981 28.2889C24.6684 29.2562 25.6931 30.3664 25.6931 30.3664C25.6931 30.3664 26.1581 30.8367 26.2189 31.0605L26.2175 31.0611Z" fill="#285642"/>
<path d="M25.6915 20.8926C25.6915 20.8926 25.7376 21.2914 25.5806 22.0028C25.4437 22.6194 25.1097 23.0482 25.0082 23.5659C24.9554 23.9741 24.8138 24.449 24.6869 24.8452C24.236 25.5332 22.5045 26.7209 21.6495 27.0976C20.7951 27.4731 19.8552 27.3368 18.7437 27.3368C17.6321 27.3368 16.2574 25.9701 16.2574 25.9701C15.7023 25.4884 15.4431 23.3415 15.4431 23.3415C15.4431 23.3415 15.2581 22.1511 15.3242 21.6221C15.3716 21.24 15.2821 20.7196 15.2774 20.1865C15.2761 19.9808 15.2875 19.7724 15.3242 19.5686C15.4565 18.8398 15.4231 18.7069 15.4899 17.9454C15.556 17.1839 15.7217 17.2166 15.7544 16.2894C15.7871 15.3623 15.6883 14.9648 16.3837 14.236C17.0797 13.5072 18.3048 13.6729 18.7357 13.8719C19.1659 14.0703 20.3983 13.9715 20.3983 13.9715C20.3983 13.9715 21.22 14.2033 21.4845 13.9715C21.7497 13.7397 22.9093 13.6729 23.0082 13.707C23.1077 13.7397 24.3001 13.7798 24.4985 14.075C24.6969 14.3689 25.4591 14.4351 25.4591 14.9982C25.4591 15.5613 25.4925 15.9588 25.4591 16.5219C25.4263 17.085 25.6915 17.582 25.6915 18.2113V20.8946V20.8926Z" fill="white"/>
<path d="M24.687 24.8447C24.6102 25.0832 24.5393 25.2936 24.4966 25.4439C24.383 25.842 24.3263 27.3223 24.4966 28.2896C24.4966 28.2896 24.4926 29.4786 23.2448 30.4993C22.4004 31.1907 21.6596 32.0377 21.2688 32.5127C21.0985 32.7198 21.0297 32.9916 21.0771 33.2555C21.0938 33.3503 21.1072 33.4579 21.1092 33.5708C21.1139 33.7772 21.0831 34.0023 20.9756 34.204C20.8968 34.3517 20.8133 34.5013 20.7324 34.6409C20.7151 34.671 20.697 34.701 20.6783 34.7318C20.4966 34.9729 20.3817 35.1372 20.3677 35.1573C20.4292 35.039 20.4552 34.9048 20.4565 34.7618C20.4592 34.5634 20.4158 34.347 20.3557 34.1312C20.1032 33.2308 19.4873 32.4799 18.6797 32.0077L18.6229 31.9743C17.1159 31.0805 16.5908 30.2442 16.4586 30.0618C16.3009 29.8447 16.3303 28.7104 16.3303 28.7104L16.2568 25.971C16.2568 25.971 17.6316 27.3377 18.7431 27.3377C19.8547 27.3377 20.7945 27.474 21.6489 27.0986C22.504 26.7225 24.2354 25.5341 24.6863 24.8461L24.687 24.8447Z" fill="white"/>
<path d="M23.7573 32.506C23.0733 31.7952 21.4968 33.6603 20.76 34.6235C20.732 34.6609 20.7046 34.6963 20.6792 34.7311C20.6979 34.701 20.7159 34.671 20.7333 34.6402C20.8141 34.5006 20.8976 34.351 20.9765 34.2034C21.084 34.0016 21.1147 33.7765 21.1101 33.5701H21.1107C21.3151 32.6783 21.9731 32.0317 22.2991 31.7578C22.4594 31.6229 22.6852 31.5975 22.8676 31.6997C23.1314 31.8487 23.4454 32.1513 23.7573 32.506Z" fill="#285642"/>
<path d="M20.7818 34.64V48.2786H19.0864V41.5371C19.0864 40.0629 19.3129 36.8872 19.4264 36.2827C19.4832 35.9821 19.699 35.7536 19.9021 35.5986C20.0731 35.469 20.2294 35.3201 20.3683 35.1577C20.3683 35.1577 20.369 35.1571 20.3696 35.1557C20.4839 35.0221 20.5881 34.8799 20.6803 34.7302C20.7057 34.6955 20.733 34.6601 20.7611 34.6227L20.7831 34.6394L20.7818 34.64Z" fill="white"/>
<path d="M20.3571 34.1305C20.4173 34.3463 20.4613 34.5621 20.458 34.7611C20.4393 34.721 20.3611 34.4525 20.3418 34.4138C19.6217 32.9589 17.8141 32.4211 16.3972 33.214C15.3004 33.8279 14.7787 34.0744 14.6812 34.1185C14.8154 34.051 15.6992 33.5961 16.3291 32.9228C17.0125 32.1927 17.2556 31.3396 18.6243 31.9736L18.6811 32.007C19.4887 32.4792 20.104 33.2301 20.3571 34.1305Z" fill="#285642"/>
<path d="M18.6241 31.9723C17.2561 31.3384 17.0123 32.1914 16.3289 32.9215C15.699 33.5949 14.8152 34.0498 14.6809 34.1173C14.6689 34.1226 14.6636 34.1259 14.6636 34.1259V32.5668C14.6636 31.9068 15.1472 30.7532 15.1619 30.7178H15.1626L15.4291 29.9416C15.8894 28.4386 16.3309 28.7091 16.3309 28.7091C16.3309 28.7091 16.3015 29.8434 16.4592 30.0605C16.5921 30.2429 17.1171 31.0792 18.6235 31.973L18.6241 31.9723Z" fill="#285642"/>
<path d="M15.2781 20.1854C15.2827 20.7191 15.3729 21.2395 15.3248 21.6209C15.258 22.1499 15.4437 23.3403 15.4437 23.3403C14.6655 23.2662 14.4805 22.8961 14.1104 21.3036C13.7403 19.7118 14.3328 19.3049 14.3328 19.3049C14.3328 19.3049 15.2313 18.7505 15.2781 20.1854Z" fill="white"/>
<path d="M15.1617 30.7159C15.129 30.7273 12.9954 31.4975 11.7683 32.2917C11.7683 32.2917 8.39823 33.7219 7.3321 34.3525C6.26531 34.9824 5.8772 35.5162 5.24661 36.6311C4.61669 37.7466 4.20454 40.3886 4.08296 41.3344C3.96139 42.2803 3.40428 45.6978 3.40428 45.6978C3.40428 45.6978 2.91931 49.3584 2.62873 50.0137C2.33815 50.6684 2.0469 52.6557 2.02286 53.5775C1.99814 54.4987 1.926 57.0918 1.926 57.0918C1.926 57.0918 1.75632 60.1226 1.926 60.8253C2.095 61.528 2.095 62.377 2.0469 63.1526C1.99814 63.9281 2.26534 65.019 2.26534 65.4799C2.26534 65.9408 2.19319 67.6616 2.26534 68.2915C2.32345 68.7918 2.61069 68.8339 2.72693 69.377C2.75632 69.5173 2.77435 69.6916 2.77435 69.9154C2.77435 71.0062 2.72559 72.9702 2.72559 72.9702C2.72559 72.9702 2.82245 73.916 3.47776 73.8913C3.47776 73.8913 3.45304 74.3282 3.42899 74.8372C3.40428 75.3462 3.08898 75.6128 3.0656 76.1953C3.04088 76.7764 2.99279 77.1405 3.0656 77.3589C3.13774 77.5773 3.8171 78.5713 3.88991 79.4678C3.94135 80.107 4.33814 80.6481 4.66679 80.9935C4.79972 81.1331 4.92063 81.2406 5.0048 81.3101C5.29538 81.5533 7.21053 83.5893 7.62268 83.0315C7.62268 83.0315 7.91393 82.9347 7.74426 82.401" stroke="#285642" stroke-width="0.14028" stroke-miterlimit="10"/>
<path d="M31.9215 68.8534C31.9348 69.0371 31.9415 69.1954 31.9415 69.3197C31.9415 70.6276 32.037 71.2575 32.037 71.2575C32.037 71.2575 32.2274 71.2575 32.5273 71.2769C33.2648 71.327 34.6643 71.4974 35.5226 72.0885C35.9234 72.3644 36.206 72.7318 36.2487 73.2208C36.2487 73.2208 36.7898 72.2535 37.0744 70.6884C37.236 69.7993 37.3055 68.9389 37.3777 68.1888C37.3884 68.0759 37.399 67.9656 37.4097 67.8581C37.4552 67.4206 37.5073 67.0298 37.5861 66.7038C37.8145 65.7653 37.8994 63.4026 37.9849 62.5208C38.0697 61.6384 38.1839 59.9884 38.4966 59.3618C38.8099 58.7352 39.1799 54.0118 38.7531 51.3652C38.3262 48.7193 36.8747 42.7147 36.8747 42.7147C36.8747 42.7147 36.0497 37.6779 35.3095 36.5958C34.5694 35.5143 33.4311 34.2905 32.037 33.5798C30.6429 32.869 28.4512 31.6159 28.4512 31.6159C28.4512 31.6159 26.6015 30.3928 25.6904 30.364C25.6904 30.364 24.6663 29.2538 24.4953 28.2866C24.3243 27.3193 24.3818 25.839 24.4953 25.4409C24.5381 25.2906 24.6089 25.0808 24.6857 24.8417C24.8126 24.4456 24.9549 23.9706 25.007 23.5625C25.007 23.5625 26.0604 23.7328 26.4873 22.8511C26.9141 21.9686 27.0277 21.2004 27.0277 20.6881C27.0277 20.1757 27.0845 20.0334 26.7999 19.8631C26.7999 19.8631 26.9703 19.0662 27.1132 18.3548C27.2548 17.6427 27.4833 17.0174 27.17 16.2773C26.8567 15.5371 27.0564 15.1103 26.9135 14.5699C26.7705 14.0295 26.4011 13.4316 26.4011 12.948C26.4011 12.4644 26.2027 11.6674 25.5194 11.127C24.836 10.5859 24.0912 10.0255 22.657 9.77232C22.657 9.77232 19.2181 9.3428 17.144 10.7122C17.144 10.7122 15.8488 12.119 15.0705 12.9333C14.2937 13.7476 14.4045 15.3775 14.3304 16.821C14.2562 18.2653 14.3304 19.302 14.3304 19.302C14.3304 19.302 13.7379 19.7095 14.1079 21.3006C14.478 22.8931 14.6631 23.2632 15.4413 23.3374C15.4413 23.3374 15.7005 25.4843 16.2556 25.9659L16.329 28.7054C16.329 28.7054 15.8882 28.4342 15.4272 29.9379L15.1607 30.7134" stroke="#285642" stroke-width="0.14028" stroke-miterlimit="10"/>
<path d="M24.4966 28.2871C24.4966 28.2871 24.4926 29.4761 23.2447 30.4968C22.4004 31.1882 21.6596 32.0352 21.2688 32.5102C21.0985 32.7173 21.0297 32.9891 21.0771 33.253C21.0938 33.3479 21.1072 33.4554 21.1092 33.5683C21.1138 33.7747 21.0831 33.9998 20.9756 34.2016C20.8967 34.3492 20.8132 34.4988 20.7324 34.6384C20.715 34.6685 20.697 34.6986 20.6783 34.7293C20.5861 34.8789 20.4826 35.0212 20.3677 35.1548" stroke="#285642" stroke-width="0.14028" stroke-miterlimit="10"/>
<path d="M23.7803 32.5312C23.7885 32.5395 23.7946 32.547 23.8008 32.5559" stroke="#285642" stroke-width="0.14028" stroke-miterlimit="10"/>
<path d="M20.7818 34.6383V48.2768H19.0864V41.5354C19.0864 40.0611 19.3129 36.8855 19.4264 36.2809C19.4832 35.9803 19.699 35.7519 19.9021 35.5969C20.0731 35.4673 20.2294 35.3183 20.3683 35.156C20.3683 35.156 20.369 35.1553 20.3696 35.154C20.3837 35.1346 20.4979 34.9696 20.6803 34.7285C20.7057 34.6938 20.733 34.6583 20.7611 34.6209C21.4979 33.6577 23.0744 31.7926 23.7584 32.5034" fill="#285642"/>
<path d="M20.7818 34.6383V48.2768H19.0864V41.5354C19.0864 40.0611 19.3129 36.8855 19.4264 36.2809C19.4832 35.9803 19.699 35.7519 19.9021 35.5969C20.0731 35.4673 20.2294 35.3183 20.3683 35.156C20.3683 35.156 20.369 35.1553 20.3696 35.154C20.3837 35.1346 20.4979 34.9696 20.6803 34.7285C20.7057 34.6938 20.733 34.6583 20.7611 34.6209C21.4979 33.6577 23.0744 31.7926 23.7584 32.5034" stroke="#285642" stroke-width="0.14028" stroke-miterlimit="10"/>
<path d="M16.3308 28.7075C16.3308 28.7075 16.3014 29.8418 16.459 30.0589C16.592 30.2412 17.117 31.0776 18.6234 31.9714L18.6801 32.0048C19.4877 32.477 20.103 33.2279 20.3561 34.1283C20.4163 34.3441 20.4603 34.5599 20.457 34.7589C20.4557 34.9012 20.4296 35.0361 20.3682 35.1544" stroke="#285642" stroke-width="0.14028" stroke-miterlimit="10"/>
<path d="M14.6807 34.1159C14.8149 34.0485 15.6987 33.5936 16.3286 32.9202C17.012 32.1901 17.2551 31.3371 18.6239 31.971" stroke="#285642" stroke-width="0.14028" stroke-miterlimit="10"/>
<path d="M15.1626 30.7152H15.1619C15.1472 30.7519 14.6636 31.9056 14.6636 32.5649V34.124" stroke="#285642" stroke-width="0.14028" stroke-miterlimit="10"/>
<path d="M14.6636 34.1251C14.6636 34.1251 14.6689 34.1224 14.6809 34.1164C14.7785 34.0723 15.3002 33.8259 16.397 33.212C17.8139 32.419 19.6208 32.9568 20.3416 34.4117C20.3609 34.4504 20.4391 34.719 20.4578 34.759" stroke="#285642" stroke-width="0.14028" stroke-miterlimit="10"/>
<path d="M25.6913 30.3645C25.6913 30.3645 26.1562 30.8348 26.217 31.0586C26.2785 31.283 25.5243 32.4453 25.5243 33.0979C25.5243 33.7506 25.2591 34.5281 25.2591 34.5281C25.2591 34.5281 24.529 33.3872 23.7808 32.5302C23.7728 32.5208 23.7655 32.5121 23.7574 32.5034C23.4455 32.1487 23.1322 31.8461 22.8677 31.6972C22.6853 31.5956 22.4589 31.6203 22.2992 31.7553C21.9726 32.0292 21.3146 32.6758 21.1108 33.5676" fill="#285642"/>
<path d="M25.6913 30.3645C25.6913 30.3645 26.1562 30.8348 26.217 31.0586C26.2785 31.283 25.5243 32.4453 25.5243 33.0979C25.5243 33.7506 25.2591 34.5281 25.2591 34.5281C25.2591 34.5281 24.529 33.3872 23.7808 32.5302C23.7728 32.5208 23.7655 32.5121 23.7574 32.5034C23.4455 32.1487 23.1322 31.8461 22.8677 31.6972C22.6853 31.5956 22.4589 31.6203 22.2992 31.7553C21.9726 32.0292 21.3146 32.6758 21.1108 33.5676" stroke="#285642" stroke-width="0.14028" stroke-miterlimit="10"/>
<path d="M8.19478 36.4784C8.19478 36.4784 8.13867 39.7356 8.48402 41.3635C8.82938 42.992 8.82938 45.1443 8.82938 45.1443" stroke="#285642" stroke-width="0.14028" stroke-miterlimit="10"/>
<path d="M6.01025 35.9707C6.01025 35.9707 7.03363 41.62 7.82921 41.8979" stroke="#285642" stroke-width="0.14028" stroke-miterlimit="10"/>
<path d="M6.91943 38.5946C6.91943 38.5946 7.82791 41.622 8.19063 41.6754" stroke="#285642" stroke-width="0.14028" stroke-miterlimit="10"/>
<path d="M33.9184 36.4784C33.9184 36.4784 31.7481 40.4523 31.553 42.1577C31.3579 43.8638 31.553 42.7382 31.553 42.7382" stroke="#285642" stroke-width="0.14028" stroke-miterlimit="10"/>
<path d="M34.6676 37.281C34.6676 37.281 34.9782 38.9597 34.9241 41.307C34.8506 44.5041 34.0991 48.9409 30.9629 52.0605" stroke="#285642" stroke-width="0.14028" stroke-miterlimit="10"/>
<path d="M25.0078 23.5637C25.1087 23.046 25.4433 22.6171 25.5803 22.0006C25.7373 21.2892 25.6912 20.8904 25.6912 20.8904V18.207C25.6912 17.5778 25.426 17.0808 25.4587 16.5176C25.4921 15.9545 25.4587 15.5571 25.4587 14.9939C25.4587 14.4308 24.6972 14.3647 24.4981 14.0708C24.2997 13.7762 23.1073 13.7361 23.0078 13.7027C22.909 13.6693 21.75 13.7354 21.4841 13.9672C21.2196 14.199 20.3979 13.9672 20.3979 13.9672C20.3979 13.9672 19.1655 14.0661 18.7353 13.8677C18.3044 13.6693 17.0793 13.5036 16.3833 14.2318C15.6879 14.9605 15.7874 15.358 15.754 16.2852C15.7206 17.2124 15.5556 17.1796 15.4895 17.9411C15.4227 18.7027 15.4561 18.8356 15.3238 19.5644C15.2864 19.7681 15.2751 19.9765 15.2771 20.1823C15.2818 20.716 15.3719 21.2364 15.3238 21.6178C15.257 22.1469 15.4427 23.3372 15.4427 23.3372" stroke="#285642" stroke-width="0.14028" stroke-miterlimit="10"/>
<path d="M14.332 19.3031C14.332 19.3031 15.2305 18.7487 15.2772 20.1835" stroke="#285642" stroke-width="0.14028" stroke-miterlimit="10"/>
<path d="M25.6914 20.8911C25.6914 20.8911 26.171 19.4736 26.8016 19.8644" stroke="#285642" stroke-width="0.14028" stroke-miterlimit="10"/>
<path d="M16.2573 25.9678C16.2573 25.9678 17.6321 27.3345 18.7436 27.3345C19.8552 27.3345 20.795 27.4708 21.6494 27.0954C22.5044 26.7193 24.2359 25.5309 24.6868 24.8429" stroke="#285642" stroke-width="0.14028" stroke-miterlimit="10"/>
</g>
</g>
<circle cx="20.6477" cy="20.4734" r="20.0717" stroke="#004F24" stroke-width="0.803306"/>
<defs>
<clipPath id="clip0_403_5375">
<rect width="37.2355" height="123.292" fill="white" transform="translate(1.78076 9.63965)"/>
</clipPath>
</defs>
</svg>
