<svg width="58" height="57" viewBox="0 0 58 57" fill="none" xmlns="http://www.w3.org/2000/svg">
<circle cx="28.64" cy="28.4" r="27.8428" fill="#EFEFEF" stroke="white" stroke-width="1.11432"/>
<mask id="mask0_76_5079" style="mask-type:alpha" maskUnits="userSpaceOnUse" x="0" y="0" width="58" height="57">
<circle cx="28.64" cy="28.4" r="27.8428" fill="#D9D9D9" stroke="white" stroke-width="1.11432"/>
</mask>
<g mask="url(#mask0_76_5079)">
<g clip-path="url(#clip0_76_5079)">
<path d="M42.7081 89.3845C42.2916 92.4264 42.3704 92.7754 42.3704 93.4508C42.3704 94.1262 42.7757 94.7687 42.8432 95.8164C42.9108 96.8641 42.6519 97.4044 43.0571 97.9569C43.4623 98.5093 44.6339 98.2166 44.7248 97.7317C44.8148 97.2477 44.5863 95.3964 44.5863 95.3964C44.4728 94.9358 44.4096 94.4673 44.3776 94.0387C44.3776 94.0387 45.0885 95.0613 45.1837 95.9939C45.2798 96.9247 45.208 98.2868 45.0651 98.7639C44.9214 99.2418 44.3724 100.054 44.0849 100.962C44.0823 100.971 44.0797 100.98 44.0771 100.988C43.8953 101.602 44.678 102.033 45.1049 101.556L45.3733 101.256C45.4071 101.22 45.4444 101.188 45.4842 101.158C46.2479 100.621 47.1553 99.2791 47.6706 98.2573C47.6688 98.3136 47.5796 101.086 47.6108 101.76C47.6428 102.44 46.8246 111.525 46.8246 111.525C46.8246 111.525 46.5423 115.458 46.3847 118.385C46.2271 121.311 46.8246 127.383 46.8246 128.925C46.8246 130.466 46.5423 130.718 46.5423 130.718C45.7249 128.603 41.7444 128.552 41.7444 128.552C39.3822 128.379 37.3665 128.042 35.8849 127.731C33.7583 127.285 31.5762 127.174 29.4167 127.415C26.7636 127.711 23.2836 128.186 20.9535 128.83C17.8952 129.675 16.566 130.467 16.0655 130.838C15.8742 130.98 15.804 131.062 15.804 131.062L15.3927 131.477V129.68L15.0005 128.073C14.7831 127.05 14.8498 126.325 14.009 121.233C13.1683 116.141 12.4452 114.798 12.3041 111.615C12.1638 108.433 10.6693 101.725 10.6693 101.725L10.8165 101.591C11.53 102.401 13.1163 103.351 13.3795 103.218C13.3795 103.218 14.545 103.07 14.6766 101.878C14.7234 101.452 14.6117 101.021 14.3874 100.656C14.2091 100.367 13.9657 99.9813 13.8099 99.7761C13.8939 99.699 13.9727 99.6107 14.0463 99.5137C14.4766 98.9414 13.641 97.0555 13.5215 96.077C13.402 95.0977 13.5692 94.5011 13.5215 93.4984C13.4739 92.4966 12.2149 90.421 12.2149 90.421L11.9231 89.5136L11.9136 89.511L-0.694668 85.9911H-0.697266L1.7584 79.264C1.7584 79.264 3.25293 76.1156 3.35944 74.9406C3.46681 73.7665 5.01415 69.2292 5.01415 69.2292L9.12454 55.084C9.12454 55.084 10.5126 48.8383 10.6728 47.6113C10.8321 46.3835 12.3275 43.2343 13.0747 42.5935C13.822 41.9527 14.8533 41.4246 14.8533 41.4246C14.8637 41.4124 14.8749 41.3994 14.887 41.3873C15.4542 40.7907 18.0744 39.5187 20.576 38.6355C20.995 38.4875 21.3518 38.3333 21.6592 38.174C21.6592 38.174 22.048 43.6863 27.2095 44.1842L28.3846 48.5275L29.7735 44.2915C29.7735 44.2915 33.6535 43.5789 34.9705 40.8738C36.1282 38.4961 36.2486 37.9662 36.2607 37.8735C37.0539 38.1151 37.9501 38.2978 38.9389 38.3749L40.8049 38.9429C40.8309 38.9507 40.8577 38.9602 40.882 38.9724C41.2335 39.1351 43.871 40.3993 44.517 41.8921C45.2097 43.4932 45.9977 46.4545 45.9977 46.4545L48.6966 57.4418L51.1809 69.1928L52.9005 77.6725L54.3959 85.5815C54.4011 85.6075 54.4081 85.6335 54.4167 85.6586C54.4427 85.7391 54.5033 85.9651 54.4747 86.2777C54.2764 86.3115 50.0483 87.0354 49.3556 87.7558C49.1235 87.9974 48.3278 88.2563 47.3649 88.4935C47.3649 88.4935 47.3649 88.4935 47.3632 88.4935L42.7185 89.3819C42.7185 89.3819 42.7151 89.3819 42.7133 89.3819H42.7081V89.3845Z" fill="#285642"/>
<path d="M38.9372 38.3758L36.2608 37.8572C36.2608 37.8572 36.2608 37.8624 36.259 37.8745C34.1549 37.2346 32.7833 36.1834 32.3772 35.5972C31.604 34.4819 31.914 32.1206 31.914 32.1206C33.6077 31.066 34.7861 26.5079 33.7341 21.0078C32.6708 15.4462 26.4649 17.0498 25.6735 17.2775C25.5999 17.2992 25.5254 17.3165 25.4527 17.3364C23.9469 17.739 22.9364 19.0474 22.3693 20.0302C22.0489 20.5852 21.822 21.1896 21.6904 21.8174C21.4194 23.1032 21.2046 22.8868 21.8116 26.8041C21.9649 27.7894 22.8957 30.1135 23.5174 31.1716C23.5174 31.1716 23.5174 31.1734 23.5192 31.1742C23.5192 31.1759 23.5192 31.1768 23.5209 31.1785C23.5425 31.221 23.6638 31.4989 23.8127 32.6064C23.9764 33.829 23.746 35.5097 23.746 35.5097C23.4516 36.4302 23.2187 37.3653 21.6584 38.1749C21.3518 38.3343 20.9951 38.4884 20.5751 38.6365C18.0744 39.5197 15.4534 40.7917 14.8862 41.3883C16.315 39.7691 18.0069 33.7537 18.1454 33.255C18.1454 33.255 18.1454 33.255 18.1454 33.2532C18.1454 33.2532 18.1454 33.2515 18.1454 33.2498C18.1827 33.1459 18.7767 31.4582 18.8425 29.1602C18.91 26.7885 19.4027 22.0746 19.7231 20.7567C20.0729 19.3176 20.841 17.3529 21.1051 16.6948C21.1908 16.4818 21.2886 16.2731 21.409 16.0774C22.9659 13.5559 26.7766 13.5533 26.7914 13.5533C26.7914 13.5533 31.5408 12.7784 33.3947 15.5076C35.2477 18.2361 35.6174 20.9991 35.9551 22.9863C36.2928 24.9736 36.6288 28.8147 37.5717 32.1163C38.2965 34.6516 38.4644 36.909 38.5034 37.8199C38.5147 38.078 38.6878 38.3005 38.9346 38.3758H38.9372Z" fill="#285642"/>
<path d="M36.2592 37.8734C36.2471 37.9661 36.1268 38.4951 34.9691 40.8737C33.652 43.5788 29.772 44.2914 29.772 44.2914L28.3831 48.5274L27.2081 44.184C22.0465 43.6862 21.6577 38.1739 21.6577 38.1739C23.2181 37.3643 23.4501 36.4291 23.7454 35.5087C23.7454 35.5087 23.9766 33.828 23.8121 32.6053C23.6631 31.4979 23.5419 31.2199 23.5202 31.1775C23.5653 31.2537 23.6077 31.3221 23.6484 31.3836C23.7549 31.5429 23.8467 31.6511 23.9186 31.6936C24.1324 31.8208 24.3351 31.9655 24.5342 32.1144C27.8125 34.5692 30.2058 33.318 31.1063 32.6434C31.3306 32.4737 31.5626 32.3127 31.8103 32.1811C31.8458 32.162 31.8796 32.1421 31.9142 32.1204C31.9142 32.1204 31.6042 34.4817 32.3774 35.597C32.7827 36.1832 34.1551 37.2344 36.2592 37.8743V37.8734Z" fill="white"/>
<path d="M33.734 21.0071C34.7861 26.5072 33.6076 31.0652 31.9139 32.1199C31.8793 32.1416 31.8455 32.1615 31.81 32.1805C31.5615 32.3121 31.3303 32.4732 31.1061 32.6429C30.2064 33.3174 27.8122 34.5686 24.5339 32.1138C24.3348 31.9649 24.1322 31.8203 23.9183 31.693C23.8464 31.6506 23.7546 31.5424 23.6481 31.383C23.6074 31.3216 23.565 31.2531 23.52 31.1769C23.52 31.1752 23.52 31.1743 23.5182 31.1726C23.5165 31.1709 23.5165 31.17 23.5165 31.17C22.8957 30.111 21.964 27.7878 21.8107 26.8025C21.2037 22.8852 21.4185 23.1016 21.6895 21.8158C21.8211 21.188 22.048 20.5836 22.3683 20.0286C22.9355 19.0467 23.9451 17.7374 25.4518 17.3348C25.5254 17.3149 25.5998 17.2976 25.6726 17.2759C26.464 17.0473 32.669 15.4437 33.7332 21.0062L33.734 21.0071Z" fill="white"/>
<path d="M23.5195 31.1737C23.5195 31.1737 23.5173 31.1715 23.5173 31.1704C23.5173 31.1704 23.5173 31.1704 23.5195 31.1737Z" fill="white"/>
<path d="M23.5195 31.1738C23.5195 31.1738 23.5177 31.1721 23.5177 31.1712C22.8969 30.1123 21.9652 27.7891 21.8119 26.8037C21.2049 22.8864 21.4197 23.1029 21.6907 21.817C21.8223 21.1892 22.0492 20.5849 22.3696 20.0298C22.9367 19.0479 23.9464 17.7387 25.453 17.336C25.5266 17.3161 25.6011 17.2988 25.6738 17.2772C26.4652 17.0486 32.6702 15.4449 33.7344 21.0074C34.7864 26.5076 33.608 31.0656 31.9143 32.1203C31.8796 32.1419 31.8459 32.1618 31.8104 32.1809C31.5619 32.3125 31.3307 32.4735 31.1064 32.6433C30.2067 33.3178 27.8126 34.569 24.5343 32.1142C24.3351 31.9653 24.1325 31.8207 23.9186 31.6934C23.8468 31.6509 23.755 31.5427 23.6485 31.3834C23.6078 31.3219 23.5654 31.2535 23.5203 31.1773" stroke="#285642" stroke-width="0.159324" stroke-miterlimit="10"/>
<path d="M41.1367 60.1096L41.6242 58.796C41.6242 58.796 42.265 56.4659 42.8477 54.2527C42.8477 54.2527 44.1206 49.7527 44.0375 46.3653L44.0418 43.978" stroke="#285642" stroke-width="0.159324" stroke-miterlimit="10"/>
<path d="M18.1462 33.2516L18.1597 33.1885C18.1563 33.2087 18.153 33.228 18.1471 33.2482" stroke="#285642" stroke-width="0.159324" stroke-miterlimit="10"/>
<path d="M47.6704 98.2556C47.8912 97.8192 48.0393 97.4416 48.0748 97.2104C48.1934 96.4225 48.5761 95.1565 48.7675 94.5591C48.9589 93.9616 48.8151 93.3174 48.3614 92.4091C47.9077 91.5008 47.6964 90.1326 47.6964 90.1326L49.9521 89.5005C49.9746 89.4971 49.9979 89.4927 50.0196 89.4867C53.6927 88.561 54.3984 87.1115 54.4746 86.2777C54.5023 85.9651 54.4426 85.7391 54.4166 85.6586C54.4079 85.6326 54.401 85.6075 54.3958 85.5815L52.9004 77.6725L51.1808 69.1928L48.6965 57.4418L45.9975 46.4545C45.9975 46.4545 45.2096 43.4931 44.5169 41.8921C43.8709 40.3993 41.2334 39.136 40.8818 38.9723C40.8567 38.9602 40.8308 38.9507 40.8048 38.9429L38.9388 38.3749C38.692 38.2995 38.5188 38.077 38.5076 37.819C38.4686 36.908 38.3006 34.6507 37.5759 32.1153C36.6329 28.8146 36.2961 24.9735 35.9592 22.9854C35.6224 20.9973 35.2518 18.2351 33.3988 15.5067C31.5458 12.7774 26.7955 13.5524 26.7955 13.5524C26.7808 13.5524 22.9709 13.5549 21.4131 16.0764C21.2928 16.2721 21.1941 16.4808 21.1092 16.6938C20.8451 17.3519 20.0771 19.3166 19.7272 20.7557C19.4069 22.0745 18.9142 26.7875 18.8466 29.1592C18.7808 31.4573 18.1868 33.1449 18.1496 33.2488C18.1496 33.2505 18.1496 33.2514 18.1496 33.2522V33.254C18.0111 33.7519 16.3182 39.7672 14.8904 41.3873" stroke="#285642" stroke-width="0.159324" stroke-miterlimit="10"/>
<path d="M41.6249 45.3396C41.6249 45.3396 41.45 49.9418 41.6249 51.8052L41.2266 54.3734C41.2266 54.3734 41.1781 57.1911 41.1374 60.1082C41.1037 62.5561 41.076 65.0759 41.089 66.0612C41.1167 68.2216 41.5046 69.33 41.5046 71.3233C41.5046 73.3165 42.3653 77.7837 42.3653 77.7837C42.3653 77.7837 42.9056 83.3245 42.9056 83.8847C42.9056 84.445 42.709 89.384 42.709 89.384C42.2925 92.4259 42.3713 92.7749 42.3713 93.4503C42.3713 94.1256 42.7766 94.7681 42.8441 95.8159C42.9117 96.8636 42.6528 97.4039 43.058 97.9563C43.4632 98.5088 44.6348 98.2161 44.7257 97.7312C44.8158 97.2472 44.5872 95.3959 44.5872 95.3959C44.4737 94.9353 44.4105 94.4668 44.3785 94.0382" stroke="#285642" stroke-width="0.159324" stroke-miterlimit="10"/>
<path d="M14.8524 41.425C14.8524 41.425 13.8211 41.9541 13.0739 42.594C12.3266 43.2356 10.8312 46.384 10.6719 47.6118C10.5117 48.8388 9.12367 55.0845 9.12367 55.0845L5.01329 69.2297C5.01329 69.2297 3.46594 73.767 3.35857 74.9411C3.25206 76.1161 1.75754 79.2645 1.75754 79.2645L-0.697266 85.9899H-0.695534L11.9136 89.5089" stroke="#285642" stroke-width="0.159324" stroke-miterlimit="10"/>
<path d="M15.0524 49.9268C15.0524 49.9268 14.9858 58.8368 15.0524 59.959C15.1182 61.0812 15.191 65.1725 15.023 67.087C14.855 69.0015 13.2046 72.4321 13.2046 74.874C13.2046 77.3158 12.3465 79.8901 12.6106 81.8037C12.8738 83.7182 12.5604 88.9681 12.5604 88.9681V89.6729C12.5604 89.6729 12.3283 89.6149 11.9231 89.5127" stroke="#285642" stroke-width="0.159324" stroke-miterlimit="10"/>
<path d="M14.8525 41.4255C14.8629 41.4134 14.8742 41.4004 14.8863 41.3883C15.4535 40.7917 18.0737 39.5197 20.5752 38.6365C20.9943 38.4884 21.3511 38.3343 21.6584 38.175C23.2188 37.3654 23.4508 36.4302 23.7461 35.5097C23.7461 35.5097 23.9773 33.8291 23.8128 32.6064C23.6638 31.4989 23.5426 31.221 23.521 31.1786C23.521 31.1768 23.521 31.176 23.5192 31.1742C23.5175 31.1725 23.5175 31.1716 23.5175 31.1716" stroke="#285642" stroke-width="0.159324" stroke-miterlimit="10"/>
<path d="M31.9142 32.1199C31.9142 32.1199 31.6042 34.4812 32.3774 35.5964C32.7827 36.1826 34.1551 37.2338 36.2592 37.8737M36.2592 37.8737C37.0524 38.1153 37.9486 38.298 38.9374 38.3751L36.261 37.8564C36.261 37.8564 36.261 37.8616 36.2592 37.8737ZM36.2592 37.8737C36.2471 37.9664 36.1268 38.4954 34.9691 40.874C33.652 43.5791 29.772 44.2917 29.772 44.2917L28.3831 48.5276L27.2081 44.1843C22.0465 43.6864 21.6577 38.1742 21.6577 38.1742" stroke="#285642" stroke-width="0.159324" stroke-miterlimit="10"/>
</g>
</g>
<circle cx="28.64" cy="28.4305" r="28.1214" fill="#004F24" stroke="white" stroke-width="0.55716"/>
<mask id="mask1_76_5079" style="mask-type:alpha" maskUnits="userSpaceOnUse" x="0" y="0" width="58" height="57">
<circle cx="28.64" cy="28.4305" r="28.4" fill="#D9D9D9"/>
</mask>
<g mask="url(#mask1_76_5079)">
<g clip-path="url(#clip1_76_5079)">
<path d="M42.7081 89.4151C42.2916 92.4569 42.3704 92.8059 42.3704 93.4813C42.3704 94.1567 42.7757 94.7992 42.8432 95.8469C42.9108 96.8946 42.6519 97.4349 43.0571 97.9874C43.4623 98.5398 44.6339 98.2472 44.7248 97.7623C44.8148 97.2782 44.5863 95.4269 44.5863 95.4269C44.4728 94.9663 44.4096 94.4978 44.3776 94.0692C44.3776 94.0692 45.0885 95.0918 45.1837 96.0244C45.2798 96.9552 45.208 98.3173 45.0651 98.7944C44.9214 99.2724 44.3724 100.085 44.0849 100.992C44.0823 101.002 44.0797 101.01 44.0771 101.019C43.8953 101.633 44.678 102.063 45.1049 101.587L45.3733 101.286C45.4071 101.25 45.4444 101.218 45.4842 101.189C46.2479 100.652 47.1553 99.3096 47.6706 98.2878C47.6688 98.3441 47.5796 101.117 47.6108 101.79C47.6428 102.471 46.8246 111.556 46.8246 111.556C46.8246 111.556 46.5423 115.489 46.3847 118.415C46.2271 121.341 46.8246 127.414 46.8246 128.955C46.8246 130.496 46.5423 130.748 46.5423 130.748C45.7249 128.634 41.7444 128.583 41.7444 128.583C39.3822 128.41 37.3665 128.073 35.8849 127.762C33.7583 127.316 31.5762 127.204 29.4167 127.446C26.7636 127.742 23.2836 128.217 20.9535 128.861C17.8952 129.706 16.566 130.497 16.0655 130.869C15.8742 131.011 15.804 131.092 15.804 131.092L15.3927 131.508V129.71L15.0005 128.103C14.7831 127.08 14.8498 126.356 14.009 121.263C13.1683 116.172 12.4452 114.828 12.3041 111.646C12.1638 108.464 10.6693 101.756 10.6693 101.756L10.8165 101.622C11.53 102.432 13.1163 103.381 13.3795 103.249C13.3795 103.249 14.545 103.1 14.6766 101.908C14.7234 101.482 14.6117 101.052 14.3874 100.686C14.2091 100.397 13.9657 100.012 13.8099 99.8066C13.8939 99.7296 13.9727 99.6412 14.0463 99.5443C14.4766 98.9719 13.641 97.086 13.5215 96.1075C13.402 95.1282 13.5692 94.5316 13.5215 93.5289C13.4739 92.5271 12.2149 90.4515 12.2149 90.4515L11.9231 89.5441L11.9136 89.5415L-0.694668 86.0216H-0.697266L1.7584 79.2945C1.7584 79.2945 3.25293 76.1461 3.35944 74.9711C3.46681 73.797 5.01415 69.2597 5.01415 69.2597L9.12454 55.1145C9.12454 55.1145 10.5126 48.8688 10.6728 47.6419C10.8321 46.414 12.3275 43.2648 13.0747 42.624C13.822 41.9833 14.8533 41.4551 14.8533 41.4551C14.8637 41.443 14.8749 41.43 14.887 41.4178C15.4542 40.8212 18.0744 39.5492 20.576 38.666C20.995 38.518 21.3518 38.3638 21.6592 38.2045C21.6592 38.2045 22.048 43.7168 27.2095 44.2147L28.3846 48.558L29.7735 44.322C29.7735 44.322 33.6535 43.6094 34.9705 40.9044C36.1282 38.5266 36.2486 37.9967 36.2607 37.9041C37.0539 38.1456 37.9501 38.3283 38.9389 38.4054L40.8049 38.9734C40.8309 38.9812 40.8577 38.9907 40.882 39.0029C41.2335 39.1657 43.871 40.4299 44.517 41.9227C45.2097 43.5237 45.9977 46.485 45.9977 46.485L48.6966 57.4723L51.1809 69.2233L52.9005 77.703L54.3959 85.6121C54.4011 85.638 54.4081 85.664 54.4167 85.6891C54.4427 85.7697 54.5033 85.9957 54.4747 86.3082C54.2764 86.342 50.0483 87.0659 49.3556 87.7863C49.1235 88.0279 48.3278 88.2868 47.3649 88.5241C47.3649 88.5241 47.3649 88.5241 47.3632 88.5241L42.7185 89.4125C42.7185 89.4125 42.7151 89.4125 42.7133 89.4125H42.7081V89.4151Z" fill="#B2B2B2"/>
<path d="M38.9372 38.4064L36.2608 37.8877C36.2608 37.8877 36.2608 37.8929 36.259 37.905C34.1549 37.2651 32.7833 36.2139 32.3772 35.6277C31.604 34.5124 31.914 32.1512 31.914 32.1512C33.6077 31.0965 34.7861 26.5384 33.7341 21.0383C32.6708 15.4767 26.4649 17.0803 25.6735 17.308C25.5999 17.3297 25.5254 17.347 25.4527 17.3669C23.9469 17.7696 22.9364 19.0779 22.3693 20.0607C22.0489 20.6157 21.822 21.2201 21.6904 21.8479C21.4194 23.1338 21.2046 22.9173 21.8116 26.8346C21.9649 27.82 22.8957 30.144 23.5174 31.2021C23.5174 31.2021 23.5174 31.2039 23.5192 31.2047C23.5192 31.2065 23.5192 31.2073 23.5209 31.2091C23.5425 31.2515 23.6638 31.5294 23.8127 32.6369C23.9764 33.8596 23.746 35.5403 23.746 35.5403C23.4516 36.4607 23.2187 37.3959 21.6584 38.2055C21.3518 38.3648 20.9951 38.5189 20.5751 38.667C18.0744 39.5502 15.4534 40.8222 14.8862 41.4188C16.315 39.7996 18.0069 33.7842 18.1454 33.2855C18.1454 33.2855 18.1454 33.2855 18.1454 33.2837C18.1454 33.2837 18.1454 33.282 18.1454 33.2803C18.1827 33.1764 18.7767 31.4887 18.8425 29.1907C18.91 26.819 19.4027 22.1051 19.7231 20.7872C20.0729 19.3481 20.841 17.3834 21.1051 16.7253C21.1908 16.5123 21.2886 16.3036 21.409 16.1079C22.9659 13.5864 26.7766 13.5838 26.7914 13.5838C26.7914 13.5838 31.5408 12.8089 33.3947 15.5382C35.2477 18.2666 35.6174 21.0296 35.9551 23.0169C36.2928 25.0041 36.6288 28.8452 37.5717 32.1468C38.2965 34.6822 38.4644 36.9395 38.5034 37.8505C38.5147 38.1085 38.6878 38.331 38.9346 38.4064H38.9372Z" fill="#B2B2B2"/>
<path d="M36.2592 37.9039C36.2471 37.9966 36.1268 38.5257 34.9691 40.9043C33.652 43.6093 29.772 44.3219 29.772 44.3219L28.3831 48.5579L27.2081 44.2146C22.0465 43.7167 21.6577 38.2044 21.6577 38.2044C23.2181 37.3948 23.4501 36.4596 23.7454 35.5392C23.7454 35.5392 23.9766 33.8585 23.8121 32.6359C23.6631 31.5284 23.5419 31.2504 23.5202 31.208C23.5653 31.2842 23.6077 31.3526 23.6484 31.4141C23.7549 31.5734 23.8467 31.6817 23.9186 31.7241C24.1324 31.8514 24.3351 31.996 24.5342 32.1449C27.8125 34.5997 30.2058 33.3485 31.1063 32.674C31.3306 32.5042 31.5626 32.3432 31.8103 32.2116C31.8458 32.1925 31.8796 32.1726 31.9142 32.151C31.9142 32.151 31.6042 34.5122 32.3774 35.6275C32.7827 36.2137 34.1551 37.2649 36.2592 37.9048V37.9039Z" fill="white"/>
<path d="M33.734 21.0376C34.7861 26.5377 33.6076 31.0958 31.9139 32.1504C31.8793 32.1721 31.8455 32.192 31.81 32.211C31.5615 32.3426 31.3303 32.5037 31.1061 32.6734C30.2064 33.3479 27.8122 34.5992 24.5339 32.1444C24.3348 31.9954 24.1322 31.8508 23.9183 31.7235C23.8464 31.6811 23.7546 31.5729 23.6481 31.4135C23.6074 31.3521 23.565 31.2837 23.52 31.2075C23.52 31.2057 23.52 31.2049 23.5182 31.2031C23.5165 31.2014 23.5165 31.2005 23.5165 31.2005C22.8957 30.1416 21.964 27.8184 21.8107 26.833C21.2037 22.9157 21.4185 23.1322 21.6895 21.8463C21.8211 21.2185 22.048 20.6142 22.3683 20.0591C22.9355 19.0772 23.9451 17.768 25.4518 17.3653C25.5254 17.3454 25.5998 17.3281 25.6726 17.3064C26.464 17.0779 32.669 15.4742 33.7332 21.0367L33.734 21.0376Z" fill="white"/>
<path d="M23.5195 31.2042C23.5195 31.2042 23.5173 31.202 23.5173 31.2009C23.5173 31.2009 23.5173 31.2009 23.5195 31.2042Z" fill="white"/>
<path d="M23.5192 31.2044C23.5192 31.2044 23.5175 31.2026 23.5175 31.2018C22.8966 30.1428 21.9649 27.8196 21.8117 26.8342C21.2047 22.9169 21.4194 23.1334 21.6905 21.8475C21.8221 21.2198 22.0489 20.6154 22.3693 20.0603C22.9365 19.0784 23.9461 17.7692 25.4528 17.3665C25.5264 17.3466 25.6008 17.3293 25.6736 17.3077C26.465 17.0791 32.67 15.4754 33.7341 21.0379C34.7862 26.5381 33.6077 31.0961 31.914 32.1508C31.8794 32.1724 31.8456 32.1923 31.8101 32.2114C31.5616 32.343 31.3304 32.5041 31.1062 32.6738C30.2065 33.3483 27.8123 34.5995 24.534 32.1447C24.3349 31.9958 24.1323 31.8512 23.9184 31.7239C23.8465 31.6815 23.7547 31.5732 23.6482 31.4139C23.6075 31.3524 23.5651 31.284 23.5201 31.2078" stroke="#B2B2B2" stroke-width="0.159324" stroke-miterlimit="10"/>
<path d="M41.1367 60.1401L41.6242 58.8265C41.6242 58.8265 42.265 56.4964 42.8477 54.2832C42.8477 54.2832 44.1206 49.7832 44.0375 46.3958L44.0418 44.0085" stroke="#B2B2B2" stroke-width="0.159324" stroke-miterlimit="10"/>
<path d="M18.1462 33.2821L18.1597 33.219C18.1563 33.2392 18.153 33.2585 18.1471 33.2787" stroke="#B2B2B2" stroke-width="0.159324" stroke-miterlimit="10"/>
<path d="M47.6704 98.2861C47.8912 97.8497 48.0393 97.4721 48.0748 97.241C48.1934 96.453 48.5761 95.1871 48.7675 94.5896C48.9589 93.9921 48.8151 93.3479 48.3614 92.4396C47.9077 91.5313 47.6964 90.1632 47.6964 90.1632L49.9521 89.5311C49.9746 89.5276 49.9979 89.5233 50.0196 89.5172C53.6927 88.5916 54.3984 87.1421 54.4746 86.3082C54.5023 85.9956 54.4426 85.7696 54.4166 85.6891C54.4079 85.6631 54.401 85.638 54.3958 85.612L52.9004 77.703L51.1808 69.2233L48.6965 57.4723L45.9975 46.485C45.9975 46.485 45.2096 43.5237 44.5169 41.9226C43.8709 40.4298 41.2334 39.1665 40.8818 39.0028C40.8567 38.9907 40.8308 38.9812 40.8048 38.9734L38.9388 38.4054C38.692 38.33 38.5188 38.1075 38.5076 37.8495C38.4686 36.9386 38.3006 34.6812 37.5759 32.1458C36.6329 28.8451 36.2961 25.004 35.9592 23.0159C35.6224 21.0278 35.2518 18.2656 33.3988 15.5372C31.5458 12.8079 26.7955 13.5829 26.7955 13.5829C26.7808 13.5829 22.9709 13.5855 21.4131 16.1069C21.2928 16.3026 21.1941 16.5113 21.1092 16.7243C20.8451 17.3824 20.0771 19.3471 19.7272 20.7862C19.4069 22.105 18.9142 26.818 18.8466 29.1897C18.7808 31.4878 18.1868 33.1754 18.1496 33.2793C18.1496 33.281 18.1496 33.2819 18.1496 33.2828V33.2845C18.0111 33.7824 16.3182 39.7977 14.8904 41.4178" stroke="#B2B2B2" stroke-width="0.159324" stroke-miterlimit="10"/>
<path d="M41.6249 45.3701C41.6249 45.3701 41.45 49.9723 41.6249 51.8357L41.2266 54.404C41.2266 54.404 41.1781 57.2216 41.1374 60.1388C41.1037 62.5866 41.076 65.1064 41.089 66.0918C41.1167 68.2522 41.5046 69.3605 41.5046 71.3538C41.5046 73.3471 42.3653 77.8142 42.3653 77.8142C42.3653 77.8142 42.9056 83.355 42.9056 83.9153C42.9056 84.4755 42.709 89.4145 42.709 89.4145C42.2925 92.4564 42.3713 92.8054 42.3713 93.4808C42.3713 94.1562 42.7766 94.7987 42.8441 95.8464C42.9117 96.8941 42.6528 97.4344 43.058 97.9869C43.4632 98.5393 44.6348 98.2466 44.7257 97.7617C44.8158 97.2777 44.5872 95.4264 44.5872 95.4264C44.4737 94.9658 44.4105 94.4973 44.3785 94.0687" stroke="#B2B2B2" stroke-width="0.159324" stroke-miterlimit="10"/>
<path d="M14.8524 41.4556C14.8524 41.4556 13.8211 41.9846 13.0739 42.6245C12.3266 43.2661 10.8312 46.4145 10.6719 47.6424C10.5117 48.8693 9.12367 55.115 9.12367 55.115L5.01329 69.2602C5.01329 69.2602 3.46594 73.7975 3.35857 74.9716C3.25206 76.1466 1.75754 79.295 1.75754 79.295L-0.697266 86.0204H-0.695534L11.9136 89.5394" stroke="#B2B2B2" stroke-width="0.159324" stroke-miterlimit="10"/>
<path d="M15.0524 49.9573C15.0524 49.9573 14.9858 58.8673 15.0524 59.9895C15.1182 61.1117 15.191 65.203 15.023 67.1175C14.855 69.032 13.2046 72.4627 13.2046 74.9045C13.2046 77.3463 12.3465 79.9206 12.6106 81.8342C12.8738 83.7487 12.5604 88.9986 12.5604 88.9986V89.7034C12.5604 89.7034 12.3283 89.6454 11.9231 89.5432" stroke="#B2B2B2" stroke-width="0.159324" stroke-miterlimit="10"/>
<path d="M14.8525 41.456C14.8629 41.4439 14.8742 41.4309 14.8863 41.4188C15.4535 40.8222 18.0737 39.5502 20.5752 38.667C20.9943 38.5189 21.3511 38.3648 21.6584 38.2055C23.2188 37.3959 23.4508 36.4607 23.7461 35.5403C23.7461 35.5403 23.9773 33.8596 23.8128 32.6369C23.6638 31.5295 23.5426 31.2515 23.521 31.2091C23.521 31.2073 23.521 31.2065 23.5192 31.2047C23.5175 31.203 23.5175 31.2021 23.5175 31.2021" stroke="#B2B2B2" stroke-width="0.159324" stroke-miterlimit="10"/>
<path d="M31.9142 32.1504C31.9142 32.1504 31.6042 34.5117 32.3774 35.6269C32.7827 36.2132 34.1551 37.2643 36.2592 37.9042M36.2592 37.9042C37.0524 38.1458 37.9486 38.3285 38.9374 38.4056L36.261 37.8869C36.261 37.8869 36.261 37.8921 36.2592 37.9042ZM36.2592 37.9042C36.2471 37.9969 36.1268 38.5259 34.9691 40.9046C33.652 43.6096 29.772 44.3222 29.772 44.3222L28.3831 48.5582L27.2081 44.2149C22.0465 43.717 21.6577 38.2047 21.6577 38.2047" stroke="#B2B2B2" stroke-width="0.159324" stroke-miterlimit="10"/>
</g>
</g>
<defs>
<clipPath id="clip0_76_5079">
<rect width="55.3582" height="151.547" fill="white" transform="translate(-0.796875 13.3718)"/>
</clipPath>
<clipPath id="clip1_76_5079">
<rect width="55.3582" height="151.547" fill="white" transform="translate(-0.796875 13.4023)"/>
</clipPath>
</defs>
</svg>
