<svg width="42" height="41" viewBox="0 0 42 41" fill="none" xmlns="http://www.w3.org/2000/svg">
<circle cx="21.3518" cy="20.4954" r="20.2726" fill="#004F24" stroke="white" stroke-width="0.401653"/>
<mask id="mask0_411_4974" style="mask-type:alpha" maskUnits="userSpaceOnUse" x="0" y="0" width="42" height="41">
<circle cx="21.3518" cy="20.4954" r="20.4734" fill="#D9D9D9"/>
</mask>
<g mask="url(#mask0_411_4974)">
<g clip-path="url(#clip0_411_4974)">
<path d="M31.4938 64.4589C31.1936 66.6518 31.2504 66.9033 31.2504 67.3902C31.2504 67.8771 31.5425 68.3403 31.5912 69.0956C31.6399 69.8509 31.4532 70.2404 31.7454 70.6386C32.0375 71.0369 32.8821 70.8259 32.9476 70.4763C33.0125 70.1274 32.8477 68.7928 32.8477 68.7928C32.766 68.4608 32.7204 68.1231 32.6973 67.8141C32.6973 67.8141 33.2098 68.5513 33.2784 69.2235C33.3477 69.8946 33.2959 70.8765 33.1929 71.2204C33.0893 71.565 32.6935 72.1505 32.4863 72.8047C32.4844 72.8115 32.4826 72.8178 32.4807 72.824C32.3496 73.2666 32.9139 73.5768 33.2216 73.2335L33.4151 73.0169C33.4395 72.9907 33.4663 72.9676 33.495 72.9464C34.0456 72.5594 34.6998 71.5918 35.0712 70.8552C35.0699 70.8958 35.0056 72.8946 35.0281 73.3802C35.0512 73.8708 34.4613 80.4201 34.4613 80.4201C34.4613 80.4201 34.2578 83.2553 34.1442 85.3651C34.0306 87.4744 34.4613 91.852 34.4613 92.9631C34.4613 94.0742 34.2578 94.2558 34.2578 94.2558C33.6686 92.7315 30.7991 92.6947 30.7991 92.6947C29.0962 92.5698 27.643 92.327 26.575 92.1029C25.0419 91.7814 23.4689 91.7009 21.9121 91.8751C19.9995 92.0886 17.4908 92.4306 15.811 92.8951C13.6063 93.5043 12.6481 94.0748 12.2873 94.3426C12.1494 94.445 12.0988 94.5037 12.0988 94.5037L11.8023 94.8033V93.5074L11.5195 92.3489C11.3629 91.6117 11.4109 91.0892 10.8048 87.4182C10.1987 83.7478 9.67747 82.779 9.57572 80.485C9.4746 78.191 8.3972 73.3552 8.3972 73.3552L8.50332 73.2585C9.01767 73.8427 10.1612 74.5269 10.351 74.4314C10.351 74.4314 11.1912 74.3246 11.2861 73.4651C11.3198 73.158 11.2393 72.8477 11.0776 72.5843C10.949 72.3758 10.7736 72.0981 10.6612 71.9501C10.7218 71.8946 10.7786 71.8309 10.8316 71.761C11.1419 71.3484 10.5395 69.9888 10.4534 69.2835C10.3672 68.5775 10.4877 68.1474 10.4534 67.4246C10.419 66.7023 9.51143 65.2061 9.51143 65.2061L9.30107 64.5519L9.2942 64.55L0.204998 62.0126H0.203125L1.9734 57.1631C1.9734 57.1631 3.0508 54.8934 3.12757 54.0464C3.20498 53.1999 4.32045 49.929 4.32045 49.929L7.2836 39.7319C7.2836 39.7319 8.28422 35.2294 8.3997 34.3449C8.51456 33.4597 9.59258 31.1895 10.1313 30.7276C10.67 30.2656 11.4134 29.8849 11.4134 29.8849C11.4209 29.8761 11.429 29.8668 11.4378 29.858C11.8466 29.4279 13.7355 28.511 15.5389 27.8743C15.841 27.7675 16.0982 27.6564 16.3197 27.5416C16.3197 27.5416 16.6 31.5153 20.321 31.8742L21.168 35.0053L22.1693 31.9516C22.1693 31.9516 24.9664 31.4379 25.9158 29.4879C26.7504 27.7738 26.8372 27.3917 26.8459 27.325C27.4177 27.4991 28.0637 27.6308 28.7766 27.6864L30.1218 28.0959C30.1405 28.1015 30.1599 28.1083 30.1773 28.1171C30.4308 28.2344 32.3321 29.1458 32.7978 30.2219C33.2972 31.3761 33.8652 33.5109 33.8652 33.5109L35.8109 41.4316L37.6018 49.9028L38.8414 56.0158L39.9195 61.7174C39.9232 61.7361 39.9282 61.7548 39.9344 61.7729C39.9532 61.831 39.9969 61.9939 39.9763 62.2192C39.8333 62.2436 36.7853 62.7654 36.2859 63.2848C36.1186 63.4589 35.545 63.6456 34.8508 63.8166C34.8508 63.8166 34.8508 63.8166 34.8496 63.8166L31.5013 64.457C31.5013 64.457 31.4988 64.457 31.4975 64.457H31.4938V64.4589Z" fill="#B2B2B2"/>
<path d="M28.7752 27.6869L26.8458 27.313C26.8458 27.313 26.8458 27.3168 26.8445 27.3255C25.3277 26.8642 24.3389 26.1064 24.0462 25.6838C23.4887 24.8798 23.7122 23.1776 23.7122 23.1776C24.9332 22.4173 25.7827 19.1314 25.0243 15.1664C24.2578 11.1571 19.784 12.3131 19.2135 12.4773C19.1604 12.4929 19.1067 12.5054 19.0543 12.5197C17.9688 12.81 17.2403 13.7532 16.8315 14.4617C16.6005 14.8618 16.437 15.2975 16.3421 15.75C16.1467 16.677 15.9919 16.521 16.4295 19.3449C16.54 20.0553 17.211 21.7307 17.6592 22.4934C17.6592 22.4934 17.6592 22.4947 17.6604 22.4953C17.6604 22.4966 17.6604 22.4972 17.6617 22.4984C17.6773 22.529 17.7647 22.7294 17.872 23.5278C17.99 24.4092 17.824 25.6208 17.824 25.6208C17.6118 26.2843 17.4438 26.9585 16.319 27.5421C16.098 27.657 15.8409 27.7681 15.5381 27.8748C13.7354 28.5115 11.8459 29.4285 11.437 29.8586C12.467 28.6913 13.6867 24.3549 13.7866 23.9953C13.7866 23.9953 13.7866 23.9953 13.7866 23.9941C13.7866 23.9941 13.7866 23.9928 13.7866 23.9916C13.8134 23.9167 14.2416 22.7001 14.2891 21.0434C14.3377 19.3337 14.6929 15.9354 14.9239 14.9854C15.1761 13.9479 15.7297 12.5316 15.9201 12.0572C15.9819 11.9036 16.0525 11.7532 16.1392 11.6121C17.2616 9.7944 20.0087 9.79253 20.0194 9.79253C20.0194 9.79253 23.4432 9.23386 24.7796 11.2014C26.1154 13.1683 26.382 15.1602 26.6254 16.5927C26.8689 18.0253 27.1111 20.7943 27.7908 23.1745C28.3133 25.0022 28.4344 26.6295 28.4625 27.2862C28.4706 27.4722 28.5954 27.6326 28.7734 27.6869H28.7752Z" fill="#B2B2B2"/>
<path d="M26.8445 27.3247C26.8358 27.3915 26.749 27.7729 25.9144 29.4876C24.965 31.4377 22.1679 31.9514 22.1679 31.9514L21.1666 35.0051L20.3196 31.874C16.5986 31.5151 16.3184 27.5413 16.3184 27.5413C17.4432 26.9577 17.6105 26.2835 17.8233 25.62C17.8233 25.62 17.99 24.4084 17.8714 23.527C17.764 22.7286 17.6767 22.5283 17.661 22.4977C17.6935 22.5526 17.7241 22.6019 17.7534 22.6462C17.8302 22.7611 17.8964 22.8391 17.9482 22.8697C18.1024 22.9615 18.2484 23.0657 18.392 23.1731C20.7553 24.9427 22.4806 24.0407 23.1298 23.5545C23.2915 23.4321 23.4588 23.316 23.6373 23.2211C23.6629 23.2074 23.6872 23.1931 23.7122 23.1775C23.7122 23.1775 23.4887 24.8797 24.0461 25.6837C24.3383 26.1063 25.3277 26.8641 26.8445 27.3254V27.3247Z" fill="white"/>
<path d="M25.0241 15.1659C25.7826 19.1309 24.933 22.4168 23.712 23.1771C23.6871 23.1927 23.6627 23.2071 23.6371 23.2208C23.458 23.3157 23.2913 23.4318 23.1296 23.5541C22.4811 24.0404 20.7551 24.9424 18.3918 23.1727C18.2483 23.0654 18.1022 22.9611 17.948 22.8694C17.8962 22.8388 17.8301 22.7607 17.7533 22.6459C17.7239 22.6016 17.6933 22.5523 17.6609 22.4973C17.6609 22.4961 17.6609 22.4954 17.6596 22.4942C17.6584 22.493 17.6584 22.4923 17.6584 22.4923C17.2108 21.7289 16.5392 20.0541 16.4287 19.3438C15.9911 16.5198 16.1459 16.6759 16.3413 15.7489C16.4362 15.2964 16.5997 14.8607 16.8307 14.4605C17.2395 13.7527 17.9674 12.8089 19.0535 12.5186C19.1066 12.5043 19.1603 12.4918 19.2127 12.4762C19.7832 12.3114 24.2564 11.1553 25.0235 15.1653L25.0241 15.1659Z" fill="white"/>
<path d="M17.6614 22.4958C17.6614 22.4958 17.6592 22.4936 17.6592 22.4926C17.6592 22.4926 17.6592 22.4926 17.6614 22.4958Z" fill="white"/>
<path d="M17.6606 22.4949C17.6606 22.4949 17.6594 22.4937 17.6594 22.4931C17.2118 21.7296 16.5402 20.0549 16.4297 19.3445C15.9921 16.5206 16.1469 16.6766 16.3423 15.7497C16.4372 15.2971 16.6007 14.8614 16.8317 14.4613C17.2405 13.7534 17.9684 12.8096 19.0545 12.5193C19.1075 12.505 19.1612 12.4925 19.2137 12.4769C19.7842 12.3121 24.2573 11.1561 25.0245 15.166C25.7829 19.131 24.9334 22.4169 23.7124 23.1772C23.6874 23.1928 23.6631 23.2072 23.6375 23.2209C23.4583 23.3158 23.2917 23.4319 23.13 23.5542C22.4814 24.0405 20.7555 24.9425 18.3922 23.1728C18.2486 23.0655 18.1026 22.9612 17.9484 22.8695C17.8966 22.8389 17.8304 22.7608 17.7536 22.646C17.7243 22.6017 17.6937 22.5524 17.6612 22.4974" stroke="#B2B2B2" stroke-width="0.114856" stroke-miterlimit="10"/>
<path d="M30.3608 43.3547L30.7123 42.4078C30.7123 42.4078 31.1742 40.728 31.5943 39.1325C31.5943 39.1325 32.5119 35.8885 32.452 33.4465L32.4551 31.7256" stroke="#B2B2B2" stroke-width="0.114856" stroke-miterlimit="10"/>
<path d="M13.7871 23.993L13.7968 23.9475C13.7944 23.9621 13.792 23.976 13.7877 23.9906" stroke="#B2B2B2" stroke-width="0.114856" stroke-miterlimit="10"/>
<path d="M35.0714 70.8541C35.2305 70.5395 35.3373 70.2673 35.3629 70.1006C35.4484 69.5326 35.7243 68.62 35.8622 68.1893C36.0002 67.7586 35.8966 67.2942 35.5695 66.6394C35.2424 65.9846 35.0901 64.9983 35.0901 64.9983L36.7162 64.5426C36.7324 64.5401 36.7493 64.537 36.7649 64.5326C39.4128 63.8653 39.9215 62.8204 39.9764 62.2193C39.9964 61.9939 39.9534 61.831 39.9346 61.773C39.9284 61.7542 39.9234 61.7361 39.9196 61.7174L38.8416 56.0158L37.6019 49.9029L35.8111 41.4317L33.8654 33.511C33.8654 33.511 33.2973 31.3762 32.798 30.222C32.3323 29.1458 30.4309 28.2351 30.1775 28.1171C30.1594 28.1084 30.1407 28.1015 30.122 28.0959L28.7768 27.6864C28.5989 27.6321 28.474 27.4717 28.4659 27.2857C28.4378 26.629 28.3167 25.0017 27.7943 23.174C27.1145 20.7945 26.8717 18.0254 26.6288 16.5922C26.386 15.159 26.1189 13.1678 24.783 11.2009C23.4472 9.23337 20.0228 9.79204 20.0228 9.79204C20.0122 9.79204 17.2656 9.79391 16.1426 11.6116C16.0559 11.7527 15.9847 11.9031 15.9235 12.0567C15.7332 12.5311 15.1795 13.9474 14.9273 14.9849C14.6963 15.9356 14.3412 19.3332 14.2925 21.0429C14.245 22.6996 13.8168 23.9162 13.79 23.9911C13.79 23.9923 13.79 23.9929 13.79 23.9936V23.9948C13.6901 24.3537 12.4698 28.6902 11.4404 29.8581" stroke="#B2B2B2" stroke-width="0.114856" stroke-miterlimit="10"/>
<path d="M30.713 32.7073C30.713 32.7073 30.5869 36.025 30.713 37.3683L30.4258 39.2197C30.4258 39.2197 30.3909 41.2509 30.3615 43.3539C30.3372 45.1186 30.3172 46.935 30.3266 47.6454C30.3465 49.2028 30.6262 50.0018 30.6262 51.4387C30.6262 52.8757 31.2467 56.096 31.2467 56.096C31.2467 56.096 31.6362 60.0904 31.6362 60.4942C31.6362 60.8981 31.4945 64.4586 31.4945 64.4586C31.1942 66.6515 31.251 66.9031 31.251 67.3899C31.251 67.8768 31.5432 68.34 31.5919 69.0953C31.6405 69.8506 31.4539 70.2401 31.746 70.6384C32.0382 71.0366 32.8827 70.8256 32.9483 70.4761C33.0132 70.1271 32.8484 68.7926 32.8484 68.7926C32.7666 68.4605 32.7211 68.1228 32.698 67.8138" stroke="#B2B2B2" stroke-width="0.114856" stroke-miterlimit="10"/>
<path d="M11.4128 29.8851C11.4128 29.8851 10.6693 30.2665 10.1307 30.7278C9.59195 31.1904 8.51393 33.46 8.39908 34.3452C8.2836 35.2297 7.28298 39.7321 7.28298 39.7321L4.31983 49.9293C4.31983 49.9293 3.20435 53.2002 3.12695 54.0466C3.05017 54.8937 1.97278 57.1634 1.97278 57.1634L0.203125 62.0116H0.204373L9.2942 64.5484" stroke="#B2B2B2" stroke-width="0.114856" stroke-miterlimit="10"/>
<path d="M11.5567 36.0139C11.5567 36.0139 11.5086 42.4371 11.5567 43.2461C11.6041 44.0551 11.6566 47.0045 11.5355 48.3846C11.4144 49.7648 10.2246 52.2379 10.2246 53.9982C10.2246 55.7585 9.60602 57.6143 9.79641 58.9938C9.98617 60.3739 9.7602 64.1585 9.7602 64.1585V64.6667C9.7602 64.6667 9.59291 64.6248 9.30078 64.5512" stroke="#B2B2B2" stroke-width="0.114856" stroke-miterlimit="10"/>
<path d="M11.4126 29.8854C11.4201 29.8766 11.4282 29.8673 11.4369 29.8585C11.8458 29.4284 13.7347 28.5115 15.538 27.8748C15.8402 27.768 16.0973 27.6569 16.3189 27.5421C17.4438 26.9584 17.6111 26.2843 17.8239 25.6207C17.8239 25.6207 17.9906 24.4091 17.872 23.5277C17.7646 22.7294 17.6772 22.529 17.6616 22.4984C17.6616 22.4972 17.6616 22.4965 17.6604 22.4953C17.6591 22.494 17.6591 22.4934 17.6591 22.4934" stroke="#B2B2B2" stroke-width="0.114856" stroke-miterlimit="10"/>
<path d="M23.7122 23.177C23.7122 23.177 23.4887 24.8792 24.0461 25.6832C24.3383 26.1058 25.3277 26.8636 26.8445 27.3249M26.8445 27.3249C27.4163 27.4991 28.0624 27.6308 28.7752 27.6863L26.8458 27.3124C26.8458 27.3124 26.8458 27.3162 26.8445 27.3249ZM26.8445 27.3249C26.8358 27.3917 26.749 27.7731 25.9144 29.4878C24.965 31.4379 22.1679 31.9516 22.1679 31.9516L21.1666 35.0053L20.3196 31.8742C16.5986 31.5153 16.3184 27.5415 16.3184 27.5415" stroke="#B2B2B2" stroke-width="0.114856" stroke-miterlimit="10"/>
</g>
</g>
<defs>
<clipPath id="clip0_411_4974">
<rect width="39.9073" height="109.25" fill="white" transform="translate(0.131348 9.66162)"/>
</clipPath>
</defs>
</svg>
