<svg width="42" height="41" viewBox="0 0 42 41" fill="none" xmlns="http://www.w3.org/2000/svg">
<circle cx="21.3518" cy="20.4734" r="20.0717" fill="#EFEFEF" stroke="#285642" stroke-width="0.803306"/>
<mask id="mask0_403_5280" style="mask-type:alpha" maskUnits="userSpaceOnUse" x="0" y="0" width="42" height="41">
<circle cx="21.3518" cy="20.4734" r="20.0717" fill="#D9D9D9" stroke="#285642" stroke-width="0.803306"/>
</mask>
<g mask="url(#mask0_403_5280)">
<g clip-path="url(#clip0_403_5280)">
<path d="M31.4933 64.4369C31.1931 66.6298 31.2499 66.8814 31.2499 67.3683C31.2499 67.8551 31.542 68.3183 31.5907 69.0736C31.6394 69.8289 31.4527 70.2184 31.7449 70.6167C32.037 71.0149 32.8816 70.8039 32.9471 70.4544C33.012 70.1054 32.8472 68.7709 32.8472 68.7709C32.7655 68.4388 32.7199 68.1011 32.6968 67.7921C32.6968 67.7921 33.2093 68.5293 33.2779 69.2016C33.3472 69.8726 33.2954 70.8545 33.1924 71.1984C33.0888 71.543 32.6931 72.1285 32.4858 72.7827C32.4839 72.7896 32.4821 72.7958 32.4802 72.8021C32.3491 73.2446 32.9134 73.5549 33.2211 73.2115L33.4146 72.9949C33.439 72.9687 33.4658 72.9456 33.4945 72.9244C34.0451 72.5374 34.6993 71.5698 35.0707 70.8333C35.0694 70.8738 35.0051 72.8726 35.0276 73.3582C35.0507 73.8489 34.4608 80.3981 34.4608 80.3981C34.4608 80.3981 34.2573 83.2333 34.1437 85.3432C34.0301 87.4524 34.4608 91.83 34.4608 92.9411C34.4608 94.0522 34.2573 94.2339 34.2573 94.2339C33.6681 92.7095 30.7986 92.6727 30.7986 92.6727C29.0957 92.5479 27.6425 92.305 26.5745 92.0809C25.0414 91.7595 23.4684 91.6789 21.9116 91.8531C19.999 92.0666 17.4903 92.4087 15.8105 92.8731C13.6058 93.4823 12.6476 94.0528 12.2868 94.3206C12.1489 94.423 12.0983 94.4817 12.0983 94.4817L11.8018 94.7813V93.4854L11.519 92.3269C11.3624 91.5897 11.4104 91.0672 10.8043 87.3962C10.1982 83.7258 9.67698 82.757 9.57523 80.463C9.47411 78.1691 8.39672 73.3333 8.39672 73.3333L8.50283 73.2365C9.01719 73.8208 10.1607 74.5049 10.3505 74.4094C10.3505 74.4094 11.1907 74.3027 11.2856 73.4431C11.3193 73.136 11.2388 72.8258 11.0771 72.5624C10.9485 72.3539 10.7731 72.0761 10.6607 71.9281C10.7213 71.8726 10.7781 71.8089 10.8312 71.739C11.1414 71.3264 10.539 69.9669 10.4529 69.2615C10.3667 68.5555 10.4872 68.1254 10.4529 67.4026C10.4185 66.6804 9.51094 65.1841 9.51094 65.1841L9.30058 64.5299L9.29371 64.5281L0.204509 61.9906H0.202637L1.97291 57.1411C1.97291 57.1411 3.05031 54.8715 3.12709 54.0244C3.20449 53.178 4.31996 49.9071 4.31996 49.9071L7.28311 39.7099C7.28311 39.7099 8.28373 35.2074 8.39921 34.3229C8.51407 33.4378 9.59209 31.1675 10.1308 30.7056C10.6695 30.2437 11.4129 29.8629 11.4129 29.8629C11.4204 29.8541 11.4285 29.8448 11.4373 29.836C11.8461 29.406 13.735 28.489 15.5384 27.8523C15.8405 27.7455 16.0977 27.6344 16.3193 27.5196C16.3193 27.5196 16.5995 31.4933 20.3205 31.8523L21.1675 34.9833L22.1688 31.9297C22.1688 31.9297 24.9659 31.4159 25.9153 29.4659C26.7499 27.7518 26.8367 27.3698 26.8454 27.303C27.4172 27.4771 28.0632 27.6088 28.7761 27.6644L30.1213 28.0739C30.14 28.0795 30.1594 28.0864 30.1768 28.0951C30.4303 28.2125 32.3316 29.1238 32.7973 30.2C33.2967 31.3541 33.8647 33.489 33.8647 33.489L35.8104 41.4096L37.6013 49.8809L38.841 55.9938L39.919 61.6954C39.9227 61.7141 39.9277 61.7328 39.934 61.7509C39.9527 61.809 39.9964 61.9719 39.9758 62.1973C39.8328 62.2216 36.7848 62.7434 36.2854 63.2628C36.1181 63.4369 35.5445 63.6236 34.8503 63.7946C34.8503 63.7946 34.8503 63.7946 34.8491 63.7946L31.5008 64.4351C31.5008 64.4351 31.4983 64.4351 31.4971 64.4351H31.4933V64.4369Z" fill="#285642"/>
<path d="M28.7747 27.6651L26.8453 27.2912C26.8453 27.2912 26.8453 27.2949 26.844 27.3036C25.3272 26.8424 24.3384 26.0846 24.0457 25.662C23.4883 24.858 23.7117 23.1557 23.7117 23.1557C24.9327 22.3954 25.7822 19.1096 25.0238 15.1446C24.2573 11.1352 19.7835 12.2913 19.213 12.4554C19.1599 12.471 19.1063 12.4835 19.0538 12.4979C17.9683 12.7881 17.2399 13.7313 16.831 14.4398C16.6 14.8399 16.4365 15.2756 16.3416 15.7282C16.1462 16.6552 15.9914 16.4991 16.429 19.3231C16.5395 20.0334 17.2105 21.7088 17.6587 22.4716C17.6587 22.4716 17.6587 22.4728 17.66 22.4735C17.66 22.4747 17.66 22.4753 17.6612 22.4766C17.6768 22.5072 17.7642 22.7075 17.8716 23.5059C17.9895 24.3873 17.8235 25.5989 17.8235 25.5989C17.6113 26.2625 17.4433 26.9366 16.3185 27.5203C16.0975 27.6351 15.8404 27.7462 15.5376 27.853C13.7349 28.4897 11.8454 29.4066 11.4365 29.8367C12.4665 28.6694 13.6862 24.333 13.7861 23.9735C13.7861 23.9735 13.7861 23.9735 13.7861 23.9722C13.7861 23.9722 13.7861 23.971 13.7861 23.9697C13.8129 23.8948 14.2411 22.6782 14.2886 21.0215C14.3373 19.3118 14.6924 15.9136 14.9234 14.9635C15.1756 13.9261 15.7293 12.5097 15.9196 12.0353C15.9814 11.8818 16.052 11.7313 16.1387 11.5903C17.2611 9.77255 20.0083 9.77068 20.0189 9.77068C20.0189 9.77068 23.4427 9.21201 24.7791 11.1795C26.115 13.1464 26.3815 15.1383 26.6249 16.5709C26.8684 18.0035 27.1106 20.7725 27.7903 23.1526C28.3128 24.9803 28.4339 26.6076 28.462 27.2643C28.4701 27.4503 28.595 27.6108 28.7729 27.6651H28.7747Z" fill="#285642"/>
<path d="M26.844 27.3028C26.8353 27.3696 26.7485 27.751 25.9139 29.4657C24.9645 31.4157 22.1674 31.9295 22.1674 31.9295L21.1662 34.9831L20.3191 31.852C16.5981 31.4931 16.3179 27.5194 16.3179 27.5194C17.4427 26.9357 17.61 26.2616 17.8229 25.598C17.8229 25.598 17.9895 24.3864 17.8709 23.505C17.7636 22.7067 17.6762 22.5063 17.6606 22.4757C17.693 22.5306 17.7236 22.58 17.7529 22.6243C17.8297 22.7391 17.8959 22.8172 17.9477 22.8477C18.1019 22.9395 18.2479 23.0437 18.3915 23.1511C20.7548 24.9208 22.4801 24.0188 23.1293 23.5325C23.291 23.4102 23.4583 23.2941 23.6368 23.1992C23.6624 23.1854 23.6867 23.1711 23.7117 23.1555C23.7117 23.1555 23.4882 24.8577 24.0457 25.6617C24.3378 26.0843 25.3272 26.8421 26.844 27.3034V27.3028Z" fill="white"/>
<path d="M25.0236 15.1439C25.7821 19.109 24.9325 22.3948 23.7115 23.1551C23.6866 23.1707 23.6622 23.1851 23.6366 23.1988C23.4575 23.2937 23.2908 23.4098 23.1292 23.5321C22.4806 24.0184 20.7546 24.9204 18.3914 23.1507C18.2478 23.0434 18.1017 22.9391 17.9475 22.8474C17.8957 22.8168 17.8296 22.7388 17.7528 22.6239C17.7234 22.5796 17.6929 22.5303 17.6604 22.4753C17.6604 22.4741 17.6604 22.4735 17.6592 22.4722C17.6579 22.471 17.6579 22.4704 17.6579 22.4704C17.2103 21.7069 16.5387 20.0322 16.4282 19.3218C15.9906 16.4979 16.1454 16.6539 16.3408 15.727C16.4357 15.2744 16.5992 14.8387 16.8302 14.4386C17.2391 13.7307 17.9669 12.7869 19.053 12.4966C19.1061 12.4823 19.1598 12.4698 19.2122 12.4542C19.7827 12.2894 24.2559 11.1334 25.023 15.1433L25.0236 15.1439Z" fill="white"/>
<path d="M17.6609 22.4739C17.6609 22.4739 17.6587 22.4717 17.6587 22.4706C17.6587 22.4706 17.6587 22.4706 17.6609 22.4739Z" fill="white"/>
<path d="M17.6601 22.473C17.6601 22.473 17.6589 22.4717 17.6589 22.4711C17.2113 21.7077 16.5397 20.0329 16.4292 19.3225C15.9916 16.4986 16.1464 16.6546 16.3418 15.7277C16.4367 15.2751 16.6002 14.8394 16.8312 14.4393C17.24 13.7314 17.9679 12.7876 19.054 12.4974C19.1071 12.483 19.1607 12.4705 19.2132 12.4549C19.7837 12.2901 24.2568 11.1341 25.024 15.144C25.7824 19.1091 24.9329 22.3949 23.7119 23.1552C23.6869 23.1708 23.6626 23.1852 23.637 23.1989C23.4578 23.2938 23.2912 23.4099 23.1295 23.5323C22.4809 24.0185 20.755 24.9205 18.3917 23.1509C18.2481 23.0435 18.1021 22.9392 17.9479 22.8475C17.8961 22.8169 17.8299 22.7389 17.7531 22.624C17.7238 22.5797 17.6932 22.5304 17.6608 22.4755" stroke="#285642" stroke-width="0.114856" stroke-miterlimit="10"/>
<path d="M30.3604 43.3326L30.7118 42.3857C30.7118 42.3857 31.1737 40.7059 31.5938 39.1104C31.5938 39.1104 32.5114 35.8664 32.4515 33.4245L32.4546 31.7035" stroke="#285642" stroke-width="0.114856" stroke-miterlimit="10"/>
<path d="M13.7866 23.9709L13.7963 23.9254C13.7939 23.94 13.7915 23.9539 13.7872 23.9685" stroke="#285642" stroke-width="0.114856" stroke-miterlimit="10"/>
<path d="M35.0704 70.8318C35.2296 70.5172 35.3363 70.2451 35.3619 70.0784C35.4474 69.5104 35.7233 68.5978 35.8613 68.1671C35.9992 67.7364 35.8956 67.2719 35.5685 66.6171C35.2414 65.9623 35.0891 64.9761 35.0891 64.9761L36.7152 64.5204C36.7314 64.5179 36.7483 64.5148 36.7639 64.5104C39.4118 63.8431 39.9205 62.7982 39.9755 62.1971C39.9954 61.9717 39.9524 61.8088 39.9336 61.7508C39.9274 61.732 39.9224 61.7139 39.9187 61.6952L38.8406 55.9936L37.601 49.8807L35.8101 41.4094L33.8644 33.4888C33.8644 33.4888 33.2964 31.354 32.797 30.1998C32.3313 29.1236 30.43 28.2129 30.1765 28.0949C30.1584 28.0862 30.1397 28.0793 30.121 28.0737L28.7758 27.6642C28.5979 27.6099 28.473 27.4495 28.4649 27.2635C28.4368 26.6068 28.3157 24.9795 27.7933 23.1518C27.1135 20.7722 26.8707 18.0032 26.6279 16.57C26.385 15.1368 26.1179 13.1456 24.7821 11.1787C23.4462 9.21115 20.0218 9.76983 20.0218 9.76983C20.0112 9.76983 17.2646 9.7717 16.1417 11.5894C16.0549 11.7305 15.9837 11.8809 15.9226 12.0345C15.7322 12.5089 15.1785 13.9252 14.9263 14.9627C14.6954 15.9134 14.3402 19.311 14.2915 21.0207C14.2441 22.6774 13.8158 23.894 13.789 23.9689C13.789 23.9701 13.789 23.9707 13.789 23.9714V23.9726C13.6891 24.3315 12.4688 28.668 11.4395 29.8359" stroke="#285642" stroke-width="0.114856" stroke-miterlimit="10"/>
<path d="M30.7125 32.6851C30.7125 32.6851 30.5864 36.0028 30.7125 37.3461L30.4253 39.1975C30.4253 39.1975 30.3904 41.2287 30.361 43.3317C30.3367 45.0963 30.3167 46.9128 30.3261 47.6232C30.3461 49.1806 30.6257 49.9796 30.6257 51.4165C30.6257 52.8535 31.2462 56.0738 31.2462 56.0738C31.2462 56.0738 31.6357 60.0681 31.6357 60.472C31.6357 60.8759 31.494 64.4364 31.494 64.4364C31.1937 66.6293 31.2505 66.8808 31.2505 67.3677C31.2505 67.8546 31.5427 68.3178 31.5914 69.0731C31.6401 69.8284 31.4534 70.2179 31.7456 70.6161C32.0377 71.0144 32.8822 70.8034 32.9478 70.4538C33.0127 70.1049 32.8479 68.7703 32.8479 68.7703C32.7661 68.4383 32.7206 68.1006 32.6975 67.7916" stroke="#285642" stroke-width="0.114856" stroke-miterlimit="10"/>
<path d="M11.4123 29.8632C11.4123 29.8632 10.6689 30.2446 10.1302 30.7059C9.59146 31.1684 8.51344 33.438 8.39859 34.3232C8.28311 35.2077 7.28249 39.7102 7.28249 39.7102L4.31934 49.9073C4.31934 49.9073 3.20387 53.1782 3.12646 54.0247C3.04968 54.8717 1.97229 57.1414 1.97229 57.1414L0.202637 61.9897H0.203885L9.29371 64.5265" stroke="#285642" stroke-width="0.114856" stroke-miterlimit="10"/>
<path d="M11.5562 35.9918C11.5562 35.9918 11.5081 42.415 11.5562 43.224C11.6036 44.033 11.6561 46.9824 11.535 48.3625C11.4139 49.7427 10.2241 52.2158 10.2241 53.9761C10.2241 55.7364 9.60553 57.5922 9.79592 58.9717C9.98568 60.3518 9.75972 64.1365 9.75972 64.1365V64.6446C9.75972 64.6446 9.59243 64.6027 9.30029 64.5291" stroke="#285642" stroke-width="0.114856" stroke-miterlimit="10"/>
<path d="M11.4121 29.8634C11.4196 29.8547 11.4277 29.8453 11.4365 29.8366C11.8453 29.4065 13.7342 28.4895 15.5376 27.8528C15.8397 27.7461 16.0968 27.6349 16.3184 27.5201C17.4433 26.9364 17.6106 26.2623 17.8234 25.5988C17.8234 25.5988 17.9901 24.3872 17.8715 23.5058C17.7641 22.7074 17.6767 22.507 17.6611 22.4764C17.6611 22.4752 17.6611 22.4746 17.6599 22.4733C17.6586 22.4721 17.6586 22.4714 17.6586 22.4714" stroke="#285642" stroke-width="0.114856" stroke-miterlimit="10"/>
<path d="M23.7117 23.155C23.7117 23.155 23.4882 24.8573 24.0457 25.6613C24.3378 26.0838 25.3272 26.8416 26.844 27.3029M26.844 27.3029C27.4158 27.4771 28.0619 27.6088 28.7747 27.6644L26.8453 27.2905C26.8453 27.2905 26.8453 27.2942 26.844 27.3029ZM26.844 27.3029C26.8353 27.3697 26.7485 27.7511 25.9139 29.4658C24.9645 31.4159 22.1674 31.9296 22.1674 31.9296L21.1662 34.9833L20.3191 31.8522C16.5981 31.4933 16.3179 27.5195 16.3179 27.5195" stroke="#285642" stroke-width="0.114856" stroke-miterlimit="10"/>
</g>
</g>
<defs>
<clipPath id="clip0_403_5280">
<rect width="39.9073" height="109.25" fill="white" transform="translate(0.130859 9.63965)"/>
</clipPath>
</defs>
</svg>
