<svg id="Layer_1" data-name="Layer 1" xmlns="http://www.w3.org/2000/svg" xmlns:xlink="http://www.w3.org/1999/xlink" viewBox="0 0 245 245">
  <defs>
    <style>
      .cls-1 {
        clip-path: url(#clippath);
      }

      .cls-2, .cls-3, .cls-4, .cls-5, .cls-6, .cls-7, .cls-8 {
        fill: none;
      }

      .cls-2, .cls-9, .cls-10, .cls-11 {
        stroke-width: 0px;
      }

      .cls-3 {
        stroke-width: .1px;
      }

      .cls-3, .cls-4, .cls-6, .cls-7 {
        stroke: #2c7155;
      }

      .cls-3, .cls-4, .cls-7 {
        stroke-miterlimit: 10;
      }

      .cls-4 {
        stroke-width: .1px;
      }

      .cls-5 {
        stroke-dasharray: 0 0 5.79 5.79;
        stroke-width: .29px;
      }

      .cls-5, .cls-8 {
        stroke: #285742;
      }

      .cls-6 {
        stroke-linecap: round;
        stroke-linejoin: round;
      }

      .cls-6, .cls-7 {
        stroke-width: .09px;
      }

      .cls-12 {
        clip-path: url(#clippath-1);
      }

      .cls-8 {
        stroke-width: 1.56px;
      }

      .cls-9 {
        fill: #2c7155;
      }

      .cls-10 {
        fill: #2aab80;
      }

      .cls-11 {
        fill: #e2f2ed;
      }
    </style>
    <clipPath id="clippath">
      <rect class="cls-2" y="50.61" width="130.64" height="192.98"/>
    </clipPath>
    <clipPath id="clippath-1">
      <rect class="cls-2" x="152.12" y="10.56" width="70.39" height="233.48"/>
    </clipPath>
  </defs>
  <g class="cls-1">
    <g>
      <path class="cls-11" d="m85.46,151.18c1.02,1.27,1.58,2.93,1.18,5.08-.08.44-.2.86-.34,1.26-2.3,6.47-12.01,7-17.03,1.8l-.04-.03c2.64-4.06,5.85-8.91,8.09-12.06,0,0,5.55.72,8.14,3.96h0Z"/>
      <path class="cls-9" d="m129.94,98.79c.45,1.43.72,3.23.62,5.46,0,0,.12,2.58-1.91,4.52l-23.35,1.18c-.74.04-1.37-.5-1.43-1.21-.05-.62-.1-1.42-.14-2.34-.15-3.53-.1-8.65,1.27-10.49,1.81-2.44,12.44-2.4,18.1-2.2,3.18.11,5.94,2.15,6.84,5.07h0Z"/>
      <path class="cls-9" d="m105.3,109.96l23.35-1.18c-1.34,1.28-3.61,2.29-7.47,2.11,0,0-20.48-1.69-19.4,2.42-1.15-1.81-2.06-3.59-2.56-5.24-.11-.38-.27-.82-.48-1.33,0,0,2.7.6,4.99-.32.04.91.09,1.72.14,2.34.05.71.69,1.24,1.43,1.21Z"/>
      <path class="cls-9" d="m74.94,141.9h0s30.01-16.67,26.85-28.59c3.08,4.84,7.87,9.83,10.83,12.72,1.84,1.8,3.44,3.81,4.76,5.99l3.81,7.7-.1,3.16h0s-.2,6.51-.2,6.51l-2.3,23.19h0c-2.67,4.88-7.37,5.33-15.69,4.92-8.32-.41-40.38,10.42-50.6,12.44-10.23,2.02-52.24,1.04-52.24,1.04v-19.36c.57.13,1.16.25,1.79.35,0,0,0,0,.01,0,11.24,1.85,31.13-1.07,41.15-2.81,3.9-.68,7.43-2.65,9.95-5.57l12.9-14.9c.73-.84.02-2.11-1.11-2l-5.41.53-13.45,1.3-21.29,2.07-1.05.1c-4.42.43-8.58,2.22-11.85,5.11l-1.15,1.02-3.74,3.31-1.87,1.65c-1.33,1.18-3.07,1.83-4.88,1.83v-2.52c3.63-1.06,6.15-3.42,6.15-6.16s-2.4-4.92-6.15-5.95v-8.71l62.12-.56c4.37-.04,8.7.7,12.77,2.16h0Zm4.86,2.16c-.44.39-1.33,1.56-2.48,3.17-2.24,3.15-5.45,8.01-8.09,12.06-1.21,1.85-2.3,3.54-3.12,4.82-.68,1.05.21,2.39,1.5,2.24,3.17-.36,8.82-1.32,17.01-3.83,0,0,3.59-1.06,8.17-1.69.11-.01.21-.03.32-.04,0,0,.01,0,.02,0,2.12-.28,4.42-.47,6.67-.42.67.01,1.34,0,2-.05,3.05-.21,6.02-1.04,8.69-2.49,1.46-.8,2.96-1.81,4.33-3.07,3.23-2.98,4.58-7.36,3.63-11.56l-1.08-4.76-.41-1.82c-.21-.91-1.25-1.41-2.13-1.01,0,0-7.01,2.44-14.88,3.11-7.88.66-17.96,3.42-20.12,5.35h0Z"/>
      <path class="cls-9" d="m84.61,222.77c.01-1.59.12-2.23.12-2.23v-5.18c0-3.25,2.75-5.88,6.15-5.88h7.17c.86.07,1.87.08,3.03,0h1.83c4.7,0,8.87-2.34,11.23-5.92,1.09-1.65,1.8-3.57,2-5.64l1.97-20.53.48-4.83h0s2.3-23.19,2.3-23.19l.2-6.51v33.26l-.95,51.47s-.36,15.46-7.07,15.78c-6.91.33-19.64,0-19.64,0,0,0-6.87.75-8.05-9.39-.66-5.67-.78-9.21-.77-11.22h0Z"/>
      <path class="cls-9" d="m93.33,204.38c-.14,2.52,1.81,4.84,4.6,5.09.04,0,.07,0,.11,0h-7.17c-3.4,0-6.15,2.63-6.15,5.88v5.18h-9.08v-4.76H.05v-2.96h68.19c5.38.43,8.17-.89,9.34-1.68.44-.3.89-.57,1.37-.82,1.62-.83,2.24-2.86,1.2-4.43l-5.54-8.3c-1.82-2.73-4.99-4.37-8.38-4.32L.05,194.19v-3.21s42.01.97,52.24-1.04c10.23-2.02,42.28-12.85,50.6-12.44,8.32.41,13.02-.04,15.69-4.92l-.48,4.83-1.97,20.53c-.2,2.07-.91,3.98-2,5.63l.61-18.58c.04-1.34-1.09-2.39-2.41-2.39-.2,0-.41.02-.61.08-.84.21-1.65.46-2.45.75-6.22,2.28-11.14,7.09-13.35,13.2l-2.32,6.42c-.16.45-.25.9-.27,1.34h0Z"/>
      <path class="cls-9" d="m117.35,138.43l1.08,4.76c.95,4.19-.41,8.57-3.63,11.56-1.37,1.27-2.87,2.28-4.33,3.07-2.67,1.46-5.64,2.29-8.69,2.49,3.85-2.24,5.87-4.44,6.71-6.48,2.37,2.57,14.43-7.29,7.42-11.94-7.01-4.65-10.91,2.69-10.91,2.69-1.93-1.41-4.33-2.2-6.82-2.22-4.53-.03-10.99,1.31-12.73,8.82-2.59-3.24-8.14-3.96-8.14-3.96,1.15-1.61,2.04-2.78,2.48-3.17,2.16-1.93,12.24-4.69,20.12-5.35,7.88-.66,14.88-3.11,14.88-3.11.89-.4,1.93.09,2.14,1.01l.41,1.82h0Z"/>
      <path class="cls-11" d="m115.92,141.89c7.01,4.65-5.05,14.51-7.42,11.94,1.08-2.6.26-4.94-1.05-6.79-.68-.95-1.51-1.78-2.44-2.46,0,0,3.9-7.34,10.91-2.69h0Z"/>
      <path class="cls-9" d="m112.34,182.59c1.32,0,2.46,1.05,2.41,2.39l-.61,18.58c-2.37,3.57-6.53,5.92-11.23,5.92h-4.87s-.07,0-.11,0c-2.79-.25-4.74-2.57-4.6-5.09l6.17-1.04c4.69-.79,8.25-4.49,8.7-9.02l1.07-10.89c.8-.29,1.62-.54,2.45-.75.21-.05.41-.08.61-.08h0Z"/>
      <path class="cls-10" d="m109.28,183.42l-1.07,10.89c-.45,4.54-4.01,8.23-8.7,9.03l-6.17,1.04c.02-.45.11-.9.27-1.34l2.32-6.42c2.21-6.11,7.12-10.91,13.35-13.2h0Z"/>
      <path class="cls-10" d="m107.45,147.05c1.31,1.85,2.13,4.19,1.05,6.79-.85,2.04-2.86,4.24-6.71,6.48-.66.05-1.33.06-2,.05-2.25-.05-4.56.14-6.67.42,0,0-.01,0-.02,0-.11.01-.21.03-.32.04-4.53.53-6.47-3.31-6.47-3.31.14-.4.25-.82.34-1.26.4-2.15-.16-3.81-1.18-5.08,1.74-7.51,8.19-8.85,12.73-8.82,2.49.02,4.89.81,6.82,2.22.94.68,1.76,1.51,2.44,2.46h0Zm-9.07,6.28c0-1.34-1.13-2.42-2.53-2.42s-2.53,1.08-2.53,2.42,1.13,2.42,2.53,2.42,2.53-1.08,2.53-2.42Z"/>
      <path class="cls-9" d="m101.79,113.3c3.16,11.93-26.85,28.59-26.85,28.59h0c-4.07-1.46-8.39-2.2-12.77-2.16L.05,140.29v-30.27h85.82c4.04,0,6.88-4.05,5.62-7.98-5.53-17.13-15.06-29.96-20.13-35.98-2.03-2.41-5.04-3.87-8.27-4.03L.05,58.93v-8.27h23.35l22.74.63c5.1.14,10.11,1.29,14.72,3.37,3.11,1.4,5.97,3.23,8.49,5.41,2.53,2.18,4.72,4.71,6.5,7.52,7.38,11.65,19.87,31.76,22.89,39.16.21.5.37.95.48,1.33.49,1.65,1.4,3.43,2.56,5.24h0Z"/>
      <path class="cls-11" d="m95.85,155.75c1.4,0,2.53-1.08,2.53-2.42s-1.13-2.42-2.53-2.42-2.53,1.08-2.53,2.42,1.13,2.42,2.53,2.42Z"/>
      <path class="cls-9" d="m86.3,157.52s1.95,3.84,6.47,3.31c-4.57.64-8.17,1.69-8.17,1.69-8.19,2.51-13.84,3.46-17.01,3.83-1.28.15-2.17-1.19-1.5-2.24.83-1.28,1.91-2.97,3.12-4.82l.04.03c5.03,5.2,14.74,4.67,17.03-1.8h0Z"/>
      <path class="cls-9" d="m91.49,102.05c1.27,3.93-1.58,7.98-5.62,7.98H.05v-2.95h81.24c3.82,0,6.51-3.58,5.31-7.05-5.24-15.14-14.25-26.49-19.06-31.81-1.92-2.13-4.77-3.43-7.83-3.57L.05,61.9v-2.97l63.04,3.11c3.23.16,6.24,1.62,8.27,4.03,5.08,6.02,14.6,18.85,20.13,35.98h0Z"/>
      <path class="cls-11" d="m86.6,100.02c1.2,3.47-1.5,7.05-5.31,7.05H.05v-45.18l59.67,2.75c3.06.14,5.91,1.44,7.83,3.57,4.8,5.32,13.82,16.66,19.06,31.81Z"/>
      <path class="cls-11" d="m75.64,220.54h9.08s-.1.64-.12,2.23c-1.39.23-15.2,2.29-25.99-2.23h0c6.25-.41,12.11-.92,17.03-1.55v1.55h0Z"/>
      <path class="cls-10" d="m80.14,205.9c1.04,1.57.42,3.59-1.2,4.43-.47.24-.93.52-1.37.82-1.16.79-3.96,2.1-9.34,1.68h1.49c.41,0,.8-.06,1.16-.18,1.87-.61,2.97-2.64,2.17-4.54l-1.07-2.55-1.5-3.57-1.23-2.93-.64-1.52c-.2-.46-.53-.85-.94-1.11-.41-.27-.91-.42-1.43-.42H.05v-1.82l66.17-.91c3.39-.05,6.56,1.59,8.38,4.32l5.54,8.3Z"/>
      <path class="cls-10" d="m75.64,215.78v3.21c-4.92.63-10.78,1.14-17.03,1.55-.86.06-1.72.11-2.6.16-25.46,1.53-55.97,1.49-55.97,1.49v-6.42h75.59Z"/>
      <path class="cls-9" d="m73.06,208.11c.79,1.89-.3,3.93-2.17,4.53-.36.12-.75.18-1.16.18H.05v-4.96s44.11,2.56,71.94-2.3l1.07,2.55h0Z"/>
      <path class="cls-9" d="m70.5,201.99l1.5,3.57C44.16,210.43.05,207.86.05,207.86v-4.14s40.26,1.77,70.44-1.73Z"/>
      <path class="cls-9" d="m69.27,199.06l1.23,2.93C40.31,205.5.05,203.73.05,203.73v-3.86s40.39.46,69.22-.8Z"/>
      <path class="cls-9" d="m68.63,197.54l.64,1.52c-28.83,1.26-69.22.8-69.22.8v-3.86h66.2c.52,0,1.02.15,1.43.42.41.27.75.65.94,1.11h0Z"/>
      <path class="cls-9" d="m33.71,169.21c2.94-.46,5.25-.84,6.46-1.05.49-.08.97-.14,1.46-.2,4.04-.43,5.76-4.43,5.76-4.43,5.03-.42,6.47-1.85,6.85-2.86.19-.5-.24-1.01-.79-.96l-2.29.21h0c1.34-1.14,2.28-3.6,2.28-3.6l-.03-.21c4.23-.52,5.5-1.82,5.85-2.76.19-.5-.24-1.01-.79-.96l-2.47.23c1.3-.73,3.27-5.31,3.31-5.4l5.41-.53c1.14-.11,1.85,1.16,1.11,2l-12.9,14.9c-2.53,2.92-6.05,4.89-9.95,5.57-10.01,1.74-29.9,4.66-41.15,2.81,3.41.44,9.26.08,15.42-.57,5.8-.61,11.88-1.49,16.44-2.2h0Z"/>
      <path class="cls-9" d="m45.88,148.53l13.45-1.3c-.04.09-2.01,4.67-3.31,5.4l-13.1,1.21,2.96-5.31Z"/>
      <path class="cls-10" d="m22.01,159.39c-7.44.66-13.71,1.07-15.21.75l3.74-3.31,12.54-1.16,19.83-1.83,13.1-1.21,2.47-.23c.55-.05.98.46.79.96-.35.94-1.62,2.24-5.85,2.76-.32.04-.65.07-1,.1,0,0-4.98.58-11.66,1.3-5.69.61-12.61,1.33-18.75,1.87h0Z"/>
      <path class="cls-10" d="m53.46,159.71c.55-.05.98.46.79.96-.38,1.01-1.82,2.44-6.85,2.86,0,0-4.49.49-10.71,1.12-5.3.54-11.86,1.18-17.98,1.71-8.96.78-16.97,1.33-18.66.97v-2.68l20.29-1.88,18-1.66,12.83-1.19,2.29-.21h0Z"/>
      <path class="cls-9" d="m53.42,156.12l.03.21s-.94,2.46-2.28,3.6h0s-12.83,1.19-12.83,1.19l2.42-3.59c6.68-.72,11.66-1.3,11.66-1.3.35-.03.69-.06,1-.1Z"/>
      <path class="cls-9" d="m47.39,163.53s-1.73,4-5.76,4.43c-.49.05-.98.11-1.46.2-1.21.21-3.52.6-6.46,1.05l2.98-4.56c6.22-.63,10.71-1.12,10.71-1.12h0Z"/>
      <path class="cls-9" d="m45.87,148.53l-2.96,5.31-19.83,1.83,1.53-4.76-.03-.31,21.29-2.07Z"/>
      <path class="cls-9" d="m40.76,157.52l-2.42,3.59-18,1.66,1.68-3.39c6.13-.54,13.06-1.26,18.75-1.87Z"/>
      <path class="cls-9" d="m36.69,164.65l-2.98,4.56c-4.56.71-10.64,1.58-16.44,2.2l1.44-5.05c6.12-.53,12.68-1.17,17.98-1.71Z"/>
      <path class="cls-9" d="m24.59,150.6l.03.31-1.53,4.76-12.54,1.16,1.15-1.02c3.26-2.89,7.42-4.68,11.85-5.11l1.05-.1h0Z"/>
      <path class="cls-9" d="m22.01,159.39l-1.68,3.39L.05,164.65v-1.02c1.81,0,3.55-.65,4.88-1.83l1.87-1.65c1.5.32,7.77-.09,15.21-.75h0Z"/>
      <path class="cls-9" d="m1.84,171.98c-.62-.1-1.22-.22-1.79-.35v-4.29c1.69.36,9.7-.19,18.66-.97l-1.44,5.05c-6.15.65-12,1.01-15.42.57,0,0,0,0-.01,0h0Z"/>
      <path class="cls-11" d="m.05,149.01c3.76,1.02,6.15,3.15,6.15,5.95s-2.52,5.09-6.15,6.16v-12.1H.05Z"/>
      <path class="cls-4" d="m101.78,113.3c3.08,4.84,7.87,9.83,10.83,12.72,1.84,1.8,3.44,3.81,4.76,5.99"/>
      <path class="cls-4" d="m118.58,172.57l-.48,4.83-1.97,20.53c-.2,2.07-.91,3.98-2,5.63-2.37,3.57-6.53,5.92-11.23,5.92h-12.03c-3.4,0-6.15,2.63-6.15,5.88v5.18h-9.08v-4.76H.05V50.66h23.35l22.74.63c5.1.14,10.11,1.29,14.72,3.37,3.11,1.4,5.97,3.23,8.49,5.41,2.53,2.18,4.72,4.71,6.5,7.52,7.38,11.65,19.87,31.76,22.89,39.16.21.5.37.95.48,1.33.49,1.65,1.4,3.43,2.56,5.24"/>
      <path class="cls-4" d="m121.08,142.88l-.2,6.51-2.3,23.19"/>
      <path class="cls-4" d="m117.37,132.01l3.81,7.7-.1,3.16"/>
      <path class="cls-4" d="m121.08,142.88v33.26l-.95,51.48s-.35,15.46-7.07,15.78c-6.91.33-19.64,0-19.64,0,0,0-6.87.75-8.05-9.39-.66-5.67-.79-9.21-.77-11.22.01-1.59.12-2.23.12-2.23"/>
      <path class="cls-4" d="m.05,215.78v6.42s30.51.04,55.97-1.49c.87-.05,1.74-.11,2.6-.16,6.25-.41,12.11-.92,17.03-1.55"/>
      <path class="cls-4" d="m84.72,222.75s-.04,0-.11.02c-1.39.23-15.2,2.29-25.99-2.23"/>
      <path class="cls-4" d="m.05,196.01h66.2c.52,0,1.02.15,1.43.42.41.27.75.65.94,1.11l.64,1.52,1.23,2.93,1.5,3.57,1.07,2.55c.79,1.89-.3,3.93-2.17,4.54-.36.12-.75.18-1.16.18H.05"/>
      <path class="cls-4" d="m.05,199.87s40.39.46,69.22-.8"/>
      <path class="cls-4" d="m.05,203.73s40.26,1.77,70.44-1.73"/>
      <path class="cls-4" d="m.05,207.86s44.11,2.56,71.94-2.3"/>
      <path class="cls-4" d="m1.83,171.98c-.62-.1-1.22-.22-1.79-.36"/>
      <path class="cls-4" d="m.05,163.63c1.81,0,3.55-.65,4.88-1.83l1.87-1.65,3.74-3.31,1.15-1.02c3.26-2.89,7.42-4.69,11.85-5.11l1.05-.1,21.29-2.07,13.45-1.3,5.41-.53c1.14-.11,1.85,1.16,1.11,2l-12.9,14.9c-2.53,2.92-6.05,4.89-9.95,5.57-10.01,1.73-29.9,4.66-41.15,2.81"/>
      <path class="cls-4" d="m93.11,160.78c2.12-.28,4.42-.47,6.67-.42.67.01,1.34,0,2-.05,3.05-.21,6.02-1.04,8.69-2.49,1.46-.8,2.96-1.81,4.33-3.07,3.23-2.98,4.58-7.36,3.63-11.56l-1.08-4.76-.41-1.82c-.21-.91-1.25-1.41-2.13-1.01,0,0-7,2.44-14.88,3.11-7.88.66-17.96,3.42-20.12,5.35-.44.39-1.33,1.56-2.48,3.17-2.24,3.15-5.45,8.01-8.09,12.06-1.21,1.85-2.3,3.54-3.12,4.82-.68,1.05.21,2.39,1.5,2.24,3.17-.36,8.82-1.32,17.01-3.83,0,0,3.59-1.06,8.17-1.69.11-.01.21-.03.32-.04"/>
      <path class="cls-4" d="m.05,140.29l62.12-.56c4.37-.04,8.7.7,12.77,2.16,1.67.6,3.29,1.32,4.86,2.16"/>
      <path class="cls-4" d="m.05,58.93l63.04,3.11c3.23.16,6.24,1.62,8.27,4.03,5.08,6.02,14.6,18.85,20.13,35.98,1.27,3.93-1.58,7.98-5.62,7.98H.05"/>
      <path class="cls-4" d="m.05,61.9l59.67,2.75c3.06.14,5.91,1.44,7.83,3.57,4.8,5.32,13.82,16.66,19.06,31.81,1.2,3.47-1.5,7.05-5.31,7.05H.05"/>
      <path class="cls-4" d="m.05,190.98s42.01.98,52.24-1.04c10.23-2.02,42.28-12.85,50.6-12.44,8.32.41,13.02-.04,15.69-4.92h0"/>
      <path class="cls-4" d="m101.07,209.48c-1.16.08-2.17.07-3.03,0-.04,0-.07,0-.11,0-2.79-.25-4.74-2.57-4.6-5.09.02-.45.11-.9.28-1.34l2.32-6.42c2.21-6.11,7.12-10.91,13.35-13.2.8-.29,1.61-.54,2.45-.75.21-.05.41-.08.61-.08,1.32,0,2.46,1.05,2.41,2.39l-.61,18.58"/>
      <path class="cls-4" d="m98.74,106.74s2.7.6,4.99-.32"/>
      <path class="cls-4" d="m.05,149.01c3.76,1.02,6.15,3.15,6.15,5.95s-2.52,5.09-6.15,6.16"/>
      <path class="cls-4" d="m.05,164.65l20.29-1.88,18-1.66,12.83-1.19,2.29-.21c.55-.05.98.46.79.96-.38,1.01-1.82,2.44-6.85,2.86,0,0-4.49.49-10.71,1.12-5.3.54-11.86,1.18-17.98,1.71-8.96.78-16.97,1.33-18.66.97"/>
      <path class="cls-4" d="m10.54,156.83l12.54-1.16,19.83-1.83,13.1-1.21,2.47-.23c.55-.05.98.46.79.96-.35.94-1.62,2.24-5.85,2.76-.32.04-.65.07-1,.1,0,0-4.98.58-11.66,1.3-5.69.61-12.61,1.33-18.75,1.87-7.44.66-13.71,1.07-15.21.75"/>
      <path class="cls-4" d="m59.31,147.23h0c-.04.09-2.01,4.67-3.31,5.4"/>
      <path class="cls-4" d="m53.45,156.32s-.94,2.46-2.28,3.6"/>
      <path class="cls-4" d="m3.12,167.85l-1.29,4.12s0,0,.01,0c3.41.44,9.26.08,15.42-.57,5.8-.61,11.88-1.49,16.44-2.2,2.94-.46,5.25-.84,6.46-1.05.49-.08.97-.14,1.46-.2,4.04-.43,5.76-4.43,5.76-4.43"/>
      <path class="cls-4" d="m24.61,150.91l-1.53,4.76"/>
      <path class="cls-4" d="m45.88,148.53l-2.96,5.31"/>
      <path class="cls-4" d="m40.75,157.52h0s-2.42,3.59-2.42,3.59"/>
      <path class="cls-4" d="m36.68,164.65l-2.98,4.56h0"/>
      <path class="cls-4" d="m22.04,159.31l-.04.07-1.68,3.39"/>
      <path class="cls-4" d="m18.71,166.36l-1.44,5.05h0"/>
      <path class="cls-4" d="m77.31,147.23s5.55.72,8.14,3.96c1.02,1.27,1.58,2.93,1.18,5.08-.08.44-.2.86-.34,1.26-2.3,6.47-12.01,7-17.03,1.8"/>
      <path class="cls-4" d="m85.45,151.19c1.74-7.51,8.19-8.85,12.73-8.82,2.49.02,4.89.81,6.82,2.22.94.68,1.76,1.51,2.44,2.46,1.31,1.85,2.13,4.19,1.05,6.79-.85,2.04-2.86,4.24-6.71,6.48"/>
      <path class="cls-4" d="m86.3,157.52s1.95,3.84,6.47,3.31c.11-.01.21-.03.32-.04,0,0,.01,0,.02,0"/>
      <path class="cls-4" d="m105,144.58s3.9-7.34,10.91-2.69c7.01,4.65-5.05,14.51-7.42,11.94"/>
      <path class="cls-4" d="m95.85,155.75c1.39,0,2.53-1.08,2.53-2.42s-1.13-2.42-2.53-2.42-2.53,1.08-2.53,2.42,1.13,2.42,2.53,2.42Z"/>
      <path class="cls-4" d="m74.93,141.89s30.01-16.67,26.85-28.59h0c-1.09-4.11,19.4-2.42,19.4-2.42,3.86.18,6.13-.82,7.47-2.11,2.03-1.95,1.91-4.52,1.91-4.52.1-2.23-.18-4.03-.62-5.46-.91-2.92-3.66-4.96-6.84-5.07-5.66-.2-16.29-.24-18.1,2.2-1.36,1.84-1.41,6.96-1.27,10.49.04.91.09,1.72.14,2.34.05.71.69,1.24,1.43,1.21l23.35-1.18"/>
      <path class="cls-4" d="m.05,194.19l66.17-.91c3.39-.05,6.56,1.59,8.38,4.32l5.54,8.3c1.05,1.57.43,3.59-1.2,4.43-.47.24-.93.52-1.37.82-1.16.79-3.96,2.1-9.34,1.68"/>
      <path class="cls-4" d="m109.28,183.42l-1.07,10.89c-.45,4.54-4.01,8.23-8.7,9.03l-6.17,1.04-.21.04"/>
      <path class="cls-4" d="m79.79,147.3s7.45-5.13,22.11-6.95c14.66-1.83,15.45-1.92,15.45-1.92"/>
    </g>
  </g>
  <g class="cls-12">
    <g>
      <path class="cls-9" d="m166.07,95.01c-.38,2.38-2.3,10.53-2.3,11.9s-1.56,8.24-1.56,9.98c0,.47.05,1.03.13,1.65.12.97.31,2.07.44,3.21h0s.53-3.4.53-5.23,1.92-7.69,2.2-10.44c.28-2.75,1.1-7.33,1.19-9.61.09-2.29-.54-4.77-.54-4.77.04,1.84.02,2.64-.09,3.31h0Zm-3.15,28.34c0-.09-.22-1.62-2.65-2.33-2.48-.72-6.35,2.59-6.44,2.66-.22-1.03-.76-1.11-.87-2.06-.14-1.19,0-4.46,0-5.33s-.51-2.94-.41-4.41c.09-1.47.09-3.08-.23-4.41-.32-1.33,0-7.07,0-7.07,0,0,.14-4.92.18-6.66.04-1.75.6-5.51,1.15-6.75s1.47-8.18,1.47-8.18c0,0,1.06-6.48,1.29-8.27.23-1.79,1.01-6.8,2.2-8.91,1.2-2.11,1.93-3.12,3.95-4.32,2.02-1.19,8.41-3.9,8.41-3.9,2.32-1.5,6.37-2.96,6.43-2.98-.03.07-.94,2.25-.94,3.5v2.96s.01,0,.03-.02c.18-.08,1.17-.55,3.25-1.71,2.68-1.5,6.11-.48,7.47,2.27.04.07.19.58.22.66,0,.27-.05.52-.17.75,0,0,0,0,0,0-.26.31-.56.59-.88.84-.38.29-.79.73-.9,1.29-.21,1.15-.64,7.16-.64,9.96v12.78h3.21v-25.85l-.04-.03c1.39-1.82,4.37-5.34,5.67-4.02.01.01.03.03.04.05l.05.06c1.41,1.62,2.76,3.74,2.76,3.74,0,0,.5-1.47.5-2.71s1.43-3.44,1.31-3.86c-.12-.43-1-1.32-1-1.32,1.73.05,5.23,2.37,5.23,2.37,0,0,4.15,2.37,6.79,3.72,2.64,1.35,4.8,3.67,6.2,5.72,1.4,2.05,2.97,11.59,2.97,11.59,0,0,2.75,11.38,3.56,16.39.81,5.02.11,13.97-.49,15.15-.59,1.19-.81,4.32-.97,5.99-.16,1.67-.32,6.15-.76,7.93-.15.62-.25,1.36-.33,2.19-.14-.52-.69-1.38-2.45-2.69-3.01-2.23-7.17,1.57-7.75,2.12.14-1.9.32-4.53.37-6.49.09-3.45,0-4.6,0-7.96s-1.86-9.22-1.92-9.4c.22,2.59.41,4.99.41,6.2,0,2.83-.53,9.03-.53,9.03,0,0,1.23,7.76,1.47,11.07.03.35.04.65.04.88,0,2.48.18,3.67.18,3.67l.39.84.03.02c-.12.18-.26.4-.42.65-.73,1.11-2.91,3.39-3.25,5.78-.34,2.38-.03,3.29-.44,4.47-.4,1.18-1.68,4.03-1.68,4.84s1.34,1.07,1.98.67c.64-.4,2.38-3.19,2.65-4.87.07-.42.13-.94.19-1.49-.07.66,1.16.41,1.16.41h.03c.06.73.01,1.74-.45,2.89-.92,2.32-1.83,4.94-2.7,5.67-.87.74-1.48,1.34-1.04,2.38,0,0,.23.23.53.32,0,0-.35,1.44,1.26,1.02l1.94-1.71c.29-.17.59-.4.89-.66.03.55.19,3.42.35,8.15.18,5.28,0,16.8,0,16.8,0,0-.77.66-3.04,1.29-.61.17-1.32.34-2.15.49-3.96.72-7.83.52-11.53-.5-.74-.2-1.63-.36-2.61-.47-2-.23-4.34-.27-6.47-.17-1.99.09-3.79.32-4.92.64-.65.19-1.35.3-2.06.37-2.48.24-5.07-.08-5.71.13-.82.28-7.36.34-10,0-.91-.12-1.62-.46-2.17-.93-1.04-.9-1.5-2.27-1.61-3.48-.18-1.85-2.02-3.52-2.11-5.81-.09-2.29.35-3.69.67-6.6.32-2.9.21-3.34.03-5.81-.15-2.08.26-5.77.4-6.89.25.26.48.47.64.6.55.46,4.18,4.32,4.96,3.26,0,0,.55-.18.23-1.19h0c.23-.14.41-.41.37-.92,0,0-1.08-1.65-1.82-3.04l.14-6.07c.09.47.16,1.01.21,1.62.28,3.4,3.03,3.58,3.68,3.17.64-.41-.92-4.41-.92-5.38s-.05-3.12-.09-3.72c-.05-.6-.78-4.23-2.39-5.13,0,0,.43-2.03.43-4.68,0-.29,0-.58-.03-.87h0s0,0,0,0Zm51.93-52.86c-.7,8.5-7.03,17.66-7.63,18.51.03.56.07,1.19.13,1.87,5.94-5.91,7.37-14.32,7.51-20.38h0Z"/>
      <path class="cls-9" d="m210.3,127.28c-.57-.04-.93-.04-.93-.04,0,0-.18-1.2-.18-3.67,0-.24-.01-.53-.04-.88h0s.09-1.02.2-2.45c.58-.55,4.74-4.35,7.75-2.12,1.76,1.3,2.32,2.17,2.45,2.69-.02.2-.04.41-.06.63-.14,1.42-.27,3.05-.57,4.74-.54,2.97-1.56,4.8-1.56,4.8-.08-.93-.62-1.62-1.38-2.14-1.63-1.12-4.28-1.44-5.68-1.54h0Z"/>
      <path class="cls-9" d="m217.36,130.96s-.38.6-1.22.31l-.16-2.46c.76.52,1.3,1.22,1.38,2.15Z"/>
      <path class="cls-9" d="m208.84,138.15c-.06.55-.12,1.07-.19,1.49-.27,1.68-2.01,4.47-2.65,4.87-.64.4-1.98.13-1.98-.67s1.28-3.66,1.68-4.84c.4-1.17.1-2.08.44-4.47.34-2.38,2.52-4.67,3.25-5.78.16-.25.3-.47.42-.65.31-.48.46-.74.51-.83,1.4.09,4.05.42,5.68,1.54l.16,2.46.2,4.04v4.07c0,.84-1.21,3.31-1.49,4.01-.28.7-1.18,2.22-2.05,2.86-.65.48-1.5,1.48-2.37,2.23-.3.26-.59.49-.89.66l-1.94,1.71c-1.61.43-1.26-1.02-1.26-1.02-.3-.08-.53-.32-.53-.32-.44-1.04.17-1.64,1.04-2.38.87-.74,1.78-3.36,2.7-5.67.46-1.15.51-2.16.45-2.89h-.03s-1.23.25-1.16-.41h0Z"/>
      <path class="cls-9" d="m214.85,70.49c-.14,6.06-1.56,14.47-7.51,20.38-.05-.68-.1-1.31-.13-1.87.6-.85,6.94-10,7.63-18.51h0Z"/>
      <path class="cls-9" d="m210.31,127.28c-.05.09-.2.34-.51.83l-.03-.02-.39-.84s.36,0,.93.04Z"/>
      <path class="cls-9" d="m191.46,219.43c.58-.45,1.24-.97,1.24-1.89,0-1.62-1-1.98-1-1.98-.5-1.53-3.08-6.56-4.38-9.44-1.3-2.88.1-6.02,0-8.9-.1-2.88,1.64-7.26,1.49-9.2-.03-.41-.03-.88,0-1.39.1-1.91.56-4.34.89-6.03.42-2.14,1.74-6.36,1.74-6.36h0c.97.11,1.86.26,2.6.47,3.7,1.01,7.57,1.21,11.53.5.83-.15,1.55-.32,2.15-.49-.1.81.76,11.72.66,14.51-.1,2.79.6,10.78.6,10.78,0,0,.3,8.9.4,14.11.1,5.21-.7,2.43-.99,5.48-.3,3.05-.5,3.86-1.29,5.97-.37.99-.77,2.07-1.08,2.94-.34.93-1.45,1.43-2.47,1.11l-1.3-.4-8.61-2.67c-.16-.05-.32-.12-.46-.2-.39-.22-.68-.55-.85-.95-.59-1.45-1.73-4.32-1.73-4.96,0-.38.4-.67.85-1.02h0Z"/>
      <path class="cls-9" d="m207.04,240.23c.39,1.48.14,2.46-.16,3.04-.2.39-.61.61-1.04.57-2.2-.17-8.73.32-10.86.08-2.34-.26-2.35-3.17-2.35-3.21,0,0,.09-1.11.18-1.98.07.05,2.55,1.82,6.57,1.29,4.07-.54,5.53.16,7.51-.32.06.18.11.35.16.54h0Z"/>
      <path class="cls-9" d="m204.31,234.65c.6.95,1.85,2.68,2.58,5.03-1.98.48-3.43-.21-7.51.32-4.02.53-6.5-1.24-6.57-1.29.03-.29.06-.56.09-.75.11-.75-.27-.96-.27-2.14s.48-2.36.96-3.48c.48-1.13.16-3.11,0-4.18-.16-1.07-.4-1.82-.4-1.82.14.08.29.15.46.2l8.61,2.67c-.18.84,1.41,4.41,2.05,5.43h0Z"/>
      <path class="cls-9" d="m200.16,23.05c.59,1.4.16,2.59-.11,3.94-.27,1.35-.59,2.86-.59,2.86-1.2-.74-2.1,1.95-2.1,1.95v-5.08c0-1.19-.5-2.13-.44-3.2.06-1.07,0-1.82,0-2.89s-1.44-1.19-1.82-1.75c-.38-.56-2.64-.63-2.82-.7-.19-.06-2.38.06-2.89.5-.5.44-2.06,0-2.06,0,0,0-2.33.19-3.15-.19-.82-.38-3.14-.69-4.46.69-1.32,1.38-1.13,2.13-1.19,3.89-.06,1.76-.38,1.69-.5,3.14-.12,1.44-.06,1.69-.31,3.07-.07.39-.09.78-.09,1.17-.09-2.72-1.79-1.67-1.79-1.67,0,0-.14-1.96,0-4.7.14-2.74-.07-5.82,1.4-7.37,1.47-1.54,3.93-4.21,3.93-4.21,3.93-2.6,10.45-1.78,10.45-1.78,2.72.48,4.13,1.54,5.42,2.57,1.29,1.02,1.67,2.53,1.67,3.45s.7,2.05.97,3.07c.27,1.02-.11,1.83.49,3.24Z"/>
      <path class="cls-9" d="m199.45,29.85c.54.32.43.59.43,1.56s-.22,2.43-1.02,4.1c-.81,1.67-2.8,1.35-2.8,1.35.19-.98.82-1.79,1.08-2.96.3-1.35.21-2.1.21-2.1,0,0,.91-2.68,2.1-1.95Z"/>
      <path class="cls-9" d="m198.35,51.07c.12.42-1.31,2.63-1.31,3.86s-.5,2.71-.5,2.71c0,0-1.36-2.12-2.76-3.74-.02-.02-.03-.04-.05-.06-.01-.02-.03-.03-.04-.05-.59-.67-1.18-1.24-1.68-1.52-.34-.19-.77-.15-1.08.11-.62.52-1.87,1.74-2.25,3.43h0c0-.21-.03-.42-.06-.6-.09-.5.04-1.02.36-1.41.74-.9,2.14-2.51,3.74-3.81,2.36-1.93,2.37-4.19,2.37-4.19.32,1.83,2.26,3.94,2.26,3.94,0,0,.88.89,1,1.32h0Z"/>
      <path class="cls-9" d="m197.35,31.79s.09.76-.21,2.1c-.26,1.17-.89,1.98-1.08,2.96-.1.77-.37,1.67-.61,2.42-.85,1.3-4.14,3.56-5.76,4.27-1.62.71-3.4.45-5.51.45s-4.71-2.59-4.71-2.59c-1.05-.91-1.54-4.98-1.54-4.98,0,0-.35-2.25-.23-3.26.09-.72-.08-1.71-.09-2.72,0-.39.02-.79.09-1.17.25-1.38.19-1.63.31-3.07.13-1.44.44-1.38.5-3.14.06-1.76-.13-2.51,1.19-3.89,1.32-1.38,3.64-1.07,4.46-.69.82.38,3.15.19,3.15.19,0,0,1.56.44,2.06,0,.5-.44,2.7-.56,2.89-.5.19.06,2.45.14,2.82.7.38.56,1.82.68,1.82,1.75s.06,1.82,0,2.89c-.06,1.07.44,2.01.44,3.2v5.08h0Z"/>
      <path class="cls-9" d="m195.45,39.28c-.15.45-.28.85-.36,1.14-.22.75-.32,3.56,0,5.39,0,0,0,2.25-2.37,4.19-1.6,1.31-3,2.91-3.74,3.81-.32.39-.45.91-.36,1.41.03.18.06.38.06.6,0,.39-.05.82-.25,1.2-.15.28-.31.56-.46.83-.03.06-.07.12-.1.17-.34.46-.56.77-.59.81.12-.22.17-.48.17-.75,0-.38-.08-.79-.19-1.2-.48-1.71-1.65-3.13-3.18-4.02-.04-.02-.07-.04-.11-.07,0,0,0,0,0,0-2.85-1.69-3.85-3.27-4.1-3.62-.3-.41-.24-2.56-.24-2.56l-.14-5.19s2.6,2.59,4.71,2.59,3.89.26,5.51-.45c1.62-.71,4.9-2.96,5.76-4.27h0Z"/>
      <path class="cls-9" d="m193.77,53.9l-.05-.06s.04.04.05.06Z"/>
      <path class="cls-9" d="m193.71,53.84s-.03-.03-.04-.04c.01.01.03.03.04.04Z"/>
      <path class="cls-9" d="m193.67,53.79c-1.3-1.32-4.28,2.2-5.67,4.02-.05.07-.11.14-.15.2.03-.06.07-.11.1-.17.15-.26.31-.55.46-.83.2-.38.26-.81.25-1.2h0c.39-1.69,1.63-2.91,2.25-3.43.3-.25.73-.3,1.08-.11.5.28,1.09.85,1.68,1.52h0Z"/>
      <path class="cls-9" d="m191.46,174.24h0s-1.32,4.22-1.74,6.36c-.33,1.7-.79,4.12-.89,6.03,0,0-.7-1.9-1.59-3.7-.89-1.8-2.55-7.2-2.55-7.2l-.5-.82.82-.86c2.12-.1,4.47-.06,6.47.17Z"/>
      <path class="cls-9" d="m188.05,57.85v25.85h-3.21v-12.78c0-2.79.43-8.81.64-9.96.11-.57.52-1,.9-1.29.32-.25.62-.53.88-.84,0,0,0,0,0,0,.22-.25.41-.52.59-.81.05-.07.1-.13.15-.2l.04.03h0Z"/>
      <path class="cls-9" d="m187.24,56.88c.11.41.2.82.19,1.19-.04-.08-.19-.59-.22-.66-1.37-2.76-4.79-3.78-7.48-2.27-2.08,1.16-3.07,1.63-3.25,1.71.25-.13,1.93-.99,3.12-2.27,1.29-1.38,1.76-3,4.34-1.8,0,0,0,0,0,0,.04.02.07.04.11.07,1.53.89,2.7,2.32,3.18,4.02h0Z"/>
      <path class="cls-9" d="m184.99,174.07l-.82.86-1.44,2.3c-.19.31-.33.63-.41.97,0,0,0,0,0,0-.05.09-.78,1.58-1.13,5.54-2.17-3.47-3.18-8.66-3.18-8.66.71-.07,1.41-.18,2.06-.37,1.13-.32,2.92-.55,4.92-.64Z"/>
      <path class="cls-9" d="m163.94,229.49c-.19-.19-.34-.41-.45-.66l-.96-2.31s-.72-6.14-.72-8.03-.45-3.93-.45-3.93l-.54-8.11s-.36-8.35-.72-10.32c-.36-1.97.18-12.45,0-14.41-.18-1.97,0-6.8,0-6.8l.05-.65c.55.47,1.26.82,2.17.93,2.64.34,9.18.28,10,0,.64-.21,3.23.11,5.71-.13,0,0,1.02,5.19,3.18,8.66.87,1.39,1.92,2.5,3.16,2.9.07.4.13.81.18,1.23.73,5.65-1.54,7.37-1.99,10.32-.45,2.95-.54,3.85.73,8.03,1.27,4.18.18,7.37,0,11.55-.18,4.18-1.27,6.55-1.27,6.55,0,0-1.01,1.18-1.93,2.29-.54.65-3.82,1.4-6.47,1.92-1.9.37-3.47.62-3.47.62-.92.68-2.9.93-4.35,1.02-.71.04-1.39-.21-1.85-.67h0Z"/>
      <path class="cls-9" d="m182.49,180.11c.57,1.35,1.37,3.6,1.86,6.52-1.24-.4-2.29-1.51-3.16-2.9.35-3.96,1.09-5.45,1.13-5.54-.15.63-.1,1.3.16,1.91Z"/>
      <path class="cls-9" d="m183.95,52.79c-2.59-1.2-3.05.42-4.34,1.8-1.19,1.28-2.87,2.14-3.12,2.27-.02.01-.03.02-.03.02v-2.96c0-1.25.92-3.44.94-3.5h0s.51-1.47.51-1.47c.87-2.85,1.71-2.34,1.71-2.34,0,0-.06,2.15.24,2.56.25.35,1.25,1.93,4.1,3.62h0Z"/>
      <path class="cls-9" d="m177.61,30.46c0,1.01.18,2,.09,2.72-.13,1,.23,3.26.23,3.26-1.47-.14-1.83-.84-2.53-3.86-.7-3.02.42-3.79.42-3.79,0,0,1.7-1.05,1.79,1.67h0Z"/>
      <path class="cls-9" d="m173.94,234.66c.09,1.06.06,1.92-.07,2.43-.15.59-.17,1.98-.17,2.75,0,.34-.11.67-.31.94-.98,1.3-1.84,2.1-2.55,2.58,0,0,.36-2.12-.56-3.42,0,0,.27-1.42,1.68-2.01,1.4-.58,1.96-3.19,1.97-3.26Z"/>
      <path class="cls-9" d="m173.94,234.89h0c-.02.07-.58,2.56-1.97,3.12-1.41.57-1.68,1.92-1.68,1.92-1.45-.86-12.16-.73-12.16-.73.05-1.76,1.07-2.38,2.04-3.76.96-1.38,1.82-2.2,2.47-3.22.63-1.01,1.29-2.75,1.31-2.81.46.49,1.14.76,1.85.71,1.45-.09,3.43-.36,4.35-1.08,0,0,1.57-.26,3.47-.66,0,.05-.43,2.37,0,4.34.17.77.28,1.51.34,2.16h0Z"/>
      <path class="cls-9" d="m170.28,239.86c.91,1.33.56,3.51.56,3.51-1.28.89-2.06.75-2.06.75,0,0-7.53-.89-10.31-.92-.6,0-1.09-.54-1.14-1.22-.06-.91.05-2.11.79-2.91,0,0,10.72-.13,12.16.79Z"/>
      <path class="cls-9" d="m163.33,148.36h0c.32,1.02-.23,1.2-.23,1.2-.78,1.06-4.41-2.8-4.96-3.26-.16-.13-.39-.34-.64-.6-.62-.66-1.38-1.68-1.47-2.89-.14-1.7-1.43-3.59-1.56-4-.14-.41-.05-1.1,0-2.21.05-1.1.64-1.61.69-2.57.05-.96.09-1.79.09-1.79v-2.46c4.66-2.1,7.26-.88,7.26-.88,1.61.91,2.34,4.54,2.39,5.13.05.6.09,2.76.09,3.72s1.56,4.96.92,5.37c-.64.41-3.4.23-3.68-3.17-.05-.61-.12-1.15-.21-1.62-.41-2.16-1.12-2.93-1.12-2.93l-.28-.09-.64,2.06c-.37,1.7.83,4.73,1.47,6.17.12.26.26.55.43.86.74,1.39,1.82,3.04,1.82,3.04.03.51-.14.78-.37.91h0Z"/>
      <path class="cls-9" d="m162.92,123.34c.02.29.03.58.03.87,0,2.65-.43,4.68-.43,4.68,0,0-2.59-1.21-7.26.88-.46.2-.93.44-1.43.71,0,0,.09-3.72.09-5.79,0-.42-.03-.75-.09-1.02.09-.08,3.96-3.39,6.44-2.66,2.43.71,2.64,2.23,2.65,2.33h0Z"/>
      <path class="cls-9" d="m162.02,138.33l-.14,6.07c-.16-.31-.31-.6-.43-.86-.64-1.44-1.84-4.47-1.47-6.17l.64-2.06.28.09s.71.77,1.12,2.93h0Z"/>
      <path class="cls-9" d="m155.25,129.78v2.46c-1.24.05-1.43-1.75-1.43-1.75.5-.27.97-.51,1.43-.71h0Z"/>
      <path class="cls-7" d="m182.33,178.2c.08-.34.22-.66.41-.97l1.44-2.3.82-.86"/>
      <path class="cls-7" d="m160.13,174.27l-.05.65s-.18,4.83,0,6.8c.18,1.97-.36,12.45,0,14.41.36,1.97.72,10.32.72,10.32l.54,8.11s.45,2.05.45,3.93.72,8.03.72,8.03l.96,2.31c.1.25.26.47.45.66.46.46,1.14.72,1.85.67,1.45-.09,3.43-.34,4.35-1.02,0,0,1.57-.25,3.47-.62,2.65-.52,5.93-1.27,6.47-1.92.92-1.11,1.93-2.29,1.93-2.29,0,0,1.09-2.37,1.27-6.55.18-4.18,1.27-7.37,0-11.55-1.27-4.18-1.18-5.08-.72-8.03.45-2.95,2.72-4.67,1.99-10.32-.05-.42-.12-.83-.18-1.23-.49-2.93-1.29-5.18-1.86-6.53-.26-.62-.31-1.28-.16-1.91"/>
      <path class="cls-7" d="m178.02,175.08s1.01,5.19,3.18,8.66c.87,1.39,1.92,2.5,3.16,2.9"/>
      <path class="cls-7" d="m182.33,178.19h0s0,0,0,0c-.05.09-.78,1.58-1.13,5.54,0,.04,0,.08-.01.11"/>
      <path class="cls-7" d="m175.64,176.42v6.32c0,2.98-.15,8.23,2.37,10.02"/>
      <path class="cls-7" d="m174.99,188.03s-.41,8.79,1.84,12.73c2.25,3.94,2.78,10.62,2.78,13.84s-.79,5.85-.79,5.85"/>
      <path class="cls-7" d="m171.72,220.97s-.04.07-.04.07"/>
      <path class="cls-7" d="m167.46,186.64s1.32,24.14,3.3,28.56c1.74,3.87,1.14,5.45.96,5.78"/>
      <path class="cls-7" d="m168.65,220.45s1.29.22,3.08.53h0c2.02.35,4.67.82,6.76,1.22.28.05.26.42-.03.44-1.27.11-2.79.4-3.5,1.15-1.35,1.43-10.79,1.79-10.79,1.79"/>
      <path class="cls-7" d="m173.05,223.01s-2.8-.86-5.58-.77c-2.78.09-4.03,2.43-4.03,2.43"/>
      <path class="cls-7" d="m188.82,186.64s-.7-1.9-1.59-3.7c-.89-1.8-2.55-7.2-2.55-7.2l-.5-.82"/>
      <path class="cls-7" d="m191.46,174.24s-1.32,4.22-1.74,6.36c-.33,1.7-.79,4.12-.89,6.03-.03.51-.03.98,0,1.39.15,1.94-1.59,6.33-1.49,9.2.1,2.88-1.3,6.02,0,8.9,1.3,2.88,3.88,7.91,4.38,9.44,0,0,1,.36,1,1.98,0,.91-.66,1.44-1.24,1.89-.45.34-.85.64-.85,1.02,0,.64,1.14,3.51,1.73,4.96.16.4.46.73.85.95.14.08.29.15.46.2l8.61,2.67,1.3.4c1.02.32,2.14-.18,2.47-1.11.31-.87.71-1.95,1.08-2.94.8-2.1.99-2.91,1.29-5.97.3-3.06,1.09-.27.99-5.48-.1-5.21-.4-14.11-.4-14.11,0,0-.7-8-.6-10.78.1-2.79-.76-13.7-.66-14.51"/>
      <path class="cls-7" d="m190.01,183.21s1.39,16.89.6,19.54c-.79,2.65,2.29,12,2.29,12"/>
      <path class="cls-7" d="m198.1,202.76s.92,6.45,0,9.07c-.92,2.62-2.41,6.22-6.63,7.6"/>
      <path class="cls-7" d="m198.5,182.12s-.46,9.99-.41,12.61c.05,2.62.41,5.74.41,5.74"/>
      <path class="cls-7" d="m198.5,219.43s-4.37-1.15-6.3,1.61"/>
      <path class="cls-7" d="m207.76,220.12s-2.75,1.99-1.73,5.11"/>
      <path class="cls-7" d="m198.09,176.42l.41,3.71"/>
      <path class="cls-7" d="m192.9,222.23s9.39,1.58,11.95,3.35"/>
      <path class="cls-7" d="m156.82,138.63s1.1,3.81,1.24,4.69c.14.87,4.23,5.1,4.23,5.1,0,0,.63.19,1.05-.05.23-.13.41-.4.37-.91,0,0-1.08-1.65-1.82-3.04-.16-.31-.31-.6-.43-.86-.64-1.44-1.84-4.47-1.47-6.17l.63-2.06.47-1.52"/>
      <path class="cls-7" d="m160.9,135.41s.71.77,1.12,2.93c.09.47.16,1.01.21,1.62.28,3.4,3.03,3.58,3.68,3.17.64-.41-.92-4.41-.92-5.37s-.05-3.12-.09-3.72c-.05-.6-.78-4.23-2.39-5.13,0,0-2.59-1.21-7.26.88-.46.2-.93.44-1.43.71"/>
      <path class="cls-7" d="m155.25,132.24v-2.46"/>
      <path class="cls-7" d="m162.02,138.34l-.14,6.07"/>
      <path class="cls-7" d="m162.91,123.35c-.03-.53-.08-1.06-.14-1.59-.13-1.14-.31-2.25-.44-3.21-.08-.62-.13-1.18-.13-1.65,0-1.74,1.56-8.61,1.56-9.98s1.92-9.52,2.3-11.9c.11-.67.13-1.47.09-3.31-.11-4.74-.56-12.35-.56-12.35,0,0-3.2.07-3.39,4"/>
      <path class="cls-7" d="m162.51,128.9s.43-2.03.43-4.68c0-.29,0-.58-.03-.87"/>
      <path class="cls-6" d="m155.25,110.69s5.47,2.75,7.09,7.85c.31.98.48,2.06.44,3.21,0,0,.53-3.4.53-5.23s1.92-7.69,2.2-10.44c.28-2.75,1.1-7.32,1.19-9.61.09-2.29-.54-4.77-.54-4.77"/>
      <path class="cls-7" d="m177.4,50.42c-.06.02-4.11,1.48-6.43,2.98,0,0-6.39,2.71-8.41,3.9-2.02,1.2-2.76,2.2-3.95,4.32-1.2,2.11-1.98,7.12-2.2,8.91-.23,1.79-1.29,8.27-1.29,8.27,0,0-.92,6.94-1.47,8.18-.55,1.24-1.1,5.01-1.15,6.75-.05,1.75-.18,6.66-.18,6.66,0,0-.32,5.74,0,7.07.32,1.33.32,2.94.23,4.41-.09,1.47.41,3.54.41,4.41s-.14,4.14,0,5.33c.11.95.65,1.03.87,2.06.06.27.09.6.09,1.02,0,2.07-.09,5.79-.09,5.79,0,0,.18,1.79,1.43,1.75,0,0-.05.83-.09,1.79-.05.97-.64,1.47-.69,2.57-.05,1.1-.14,1.79,0,2.21.14.41,1.42,2.3,1.56,4,.1,1.21.85,2.24,1.47,2.89.25.26.48.47.64.6.55.46,4.18,4.32,4.96,3.26,0,0,.55-.18.23-1.19"/>
      <path class="cls-7" d="m207.81,96.39c.22,2.59.42,4.99.42,6.2,0,2.83-.53,9.03-.53,9.03,0,0,1.23,7.76,1.47,11.07.03.35.04.65.04.88,0,2.48.18,3.67.18,3.67,0,0,.36,0,.93.04,1.4.09,4.05.42,5.68,1.54.76.52,1.3,1.22,1.38,2.14,0,0,1.02-1.83,1.56-4.8.31-1.68.44-3.32.57-4.74.02-.21.04-.42.06-.63.09-.83.19-1.57.33-2.19.43-1.78.59-6.26.76-7.93.16-1.67.38-4.8.97-5.99.59-1.19,1.29-10.14.49-15.15-.81-5.02-3.56-16.39-3.56-16.39,0,0-1.56-9.55-2.97-11.59-1.4-2.05-3.56-4.37-6.2-5.72-2.64-1.35-6.79-3.72-6.79-3.72,0,0-3.51-2.32-5.23-2.37,0,0-1.94-2.1-2.26-3.94-.32-1.83-.22-4.64,0-5.39.08-.28.22-.68.36-1.14.24-.75.51-1.65.61-2.42,0,0,2,.32,2.8-1.35.81-1.67,1.02-3.13,1.02-4.1s.11-1.24-.43-1.56c0,0,.32-1.51.59-2.86.27-1.35.7-2.53.11-3.94-.59-1.4-.22-2.21-.49-3.24-.27-1.02-.97-2.16-.97-3.07s-.38-2.43-1.67-3.45c-1.29-1.02-2.71-2.09-5.42-2.57,0,0-6.52-.82-10.45,1.78,0,0-2.45,2.67-3.93,4.21-1.47,1.54-1.26,4.63-1.4,7.37-.14,2.74,0,4.7,0,4.7,0,0-1.12.77-.42,3.79.7,3.02,1.05,3.72,2.53,3.86,0,0,.49,4.07,1.54,4.98l.14,5.19s-.84-.51-1.71,2.34l-.51,1.47"/>
      <path class="cls-7" d="m208.22,73.99s-1.06,10.54-1.06,13.46c0,.4.02.93.06,1.54.03.56.07,1.19.13,1.87.13,1.68.3,3.64.46,5.52"/>
      <path class="cls-7" d="m207.8,96.38s0,0,0,0c.06.18,1.92,6.1,1.92,9.4s.09,4.5,0,7.96c-.05,1.97-.23,4.59-.37,6.49-.11,1.44-.2,2.45-.2,2.45"/>
      <path class="cls-7" d="m209.38,127.25l.39.84"/>
      <path class="cls-7" d="m210.33,127.25s0,.01-.02.04c-.05.09-.2.34-.51.83-.12.18-.26.4-.42.65-.73,1.11-2.91,3.39-3.25,5.78-.34,2.38-.03,3.29-.44,4.47-.4,1.18-1.68,4.03-1.68,4.84s1.34,1.07,1.98.67c.64-.4,2.38-3.19,2.65-4.87.07-.42.13-.94.19-1.49.18-1.66.37-3.58.74-3.58"/>
      <path class="cls-7" d="m209.99,138.57s-1.23.24-1.16-.42"/>
      <path class="cls-7" d="m209.76,137.36s.19.46.25,1.21c.06.73.01,1.75-.45,2.89-.93,2.32-1.83,4.94-2.7,5.67-.87.74-1.48,1.34-1.04,2.38,0,0,.23.23.53.32.18.05.38.05.58-.09,0,0,2.49-1.94,3.06-2.78.57-.84,2.65-4.37,2.9-5.66"/>
      <path class="cls-7" d="m206.36,149.83s-.35,1.44,1.26,1.02l1.94-1.71c.29-.17.59-.4.89-.66.87-.75,1.72-1.75,2.37-2.23.87-.64,1.77-2.16,2.05-2.86.28-.7,1.49-3.17,1.49-4.01v-4.07l-.2-4.04-.16-2.46"/>
      <path class="cls-7" d="m217.36,130.97s-.38.6-1.22.31"/>
      <path class="cls-7" d="m157.55,145.37s-.02.12-.04.33c-.13,1.12-.55,4.81-.4,6.89.18,2.46.29,2.9-.03,5.81-.32,2.9-.76,4.31-.67,6.6.09,2.29,1.94,3.96,2.11,5.81.11,1.21.57,2.58,1.61,3.48.55.47,1.26.82,2.17.93,2.64.34,9.18.28,10,0,.64-.21,3.23.11,5.71-.13.71-.07,1.41-.18,2.06-.37,1.13-.32,2.92-.55,4.92-.64,2.12-.1,4.47-.06,6.47.17.97.11,1.86.27,2.61.47,3.69,1.01,7.57,1.21,11.53.5.83-.15,1.55-.32,2.15-.49,2.27-.63,3.04-1.29,3.04-1.29,0,0,.18-11.53,0-16.8-.16-4.73-.31-7.6-.35-8.15,0-.06,0-.1,0-.1"/>
      <path class="cls-7" d="m195.09,45.81s0,2.25-2.37,4.19c-1.6,1.31-3,2.91-3.74,3.81-.32.39-.45.91-.36,1.41.03.18.06.38.06.6,0,.39-.05.82-.25,1.2-.15.28-.31.56-.46.83-.03.06-.07.12-.1.17-.18.28-.37.55-.59.81"/>
      <path class="cls-7" d="m188.05,57.85v25.85h-3.21v-12.78c0-2.79.43-8.81.64-9.96.11-.57.52-1,.9-1.29.32-.25.62-.53.88-.84,0,0,0,0,0,0,.03-.04.24-.35.59-.81.05-.07.1-.13.15-.2,1.39-1.82,4.37-5.34,5.67-4.02.01.01.03.03.04.05.02.02.04.04.05.06"/>
      <path class="cls-7" d="m183.96,52.79s.07.04.11.07c1.53.89,2.7,2.32,3.18,4.02.11.41.2.82.19,1.2,0,.27-.05.52-.17.75"/>
      <path class="cls-7" d="m179.61,46.61s-.06,2.15.24,2.56c.25.35,1.25,1.93,4.1,3.62"/>
      <path class="cls-7" d="m176.48,56.86c.25-.13,1.93-.99,3.12-2.27,1.29-1.38,1.76-3,4.34-1.8,0,0,0,0,0,0"/>
      <path class="cls-7" d="m177.4,50.42h0c-.03.07-.94,2.25-.94,3.51v2.96"/>
      <path class="cls-7" d="m176.45,56.88s.01,0,.03-.02c.18-.08,1.17-.55,3.25-1.71,2.68-1.5,6.11-.48,7.47,2.27.04.07.19.58.22.66"/>
      <path class="cls-7" d="m197.35,49.75s.88.89,1,1.32c.12.42-1.31,2.63-1.31,3.86s-.5,2.71-.5,2.71c0,0-1.36-2.12-2.76-3.74l-.05-.06s-.03-.03-.04-.05c-.59-.67-1.18-1.24-1.68-1.52-.34-.19-.77-.15-1.08.11-.62.52-1.87,1.74-2.25,3.43"/>
      <path class="cls-7" d="m164.19,61.33s-.1,6.17.55,9.26c.65,3.09.65,7.16.65,7.16"/>
      <path class="cls-7" d="m160.05,60.37s1.94,10.71,3.45,11.23"/>
      <path class="cls-7" d="m161.77,65.35s1.72,5.74,2.41,5.84"/>
      <path class="cls-7" d="m161.39,72.1s2.09,3.31,3.4,3.31"/>
      <path class="cls-7" d="m174.58,75.4s-1.7,16.77-4.86,19.7"/>
      <path class="cls-7" d="m169.72,96.38s-2.88,4.91-3.02,9.65"/>
      <path class="cls-7" d="m212.94,61.33s-4.11,7.53-4.48,10.76c-.37,3.23,0,1.1,0,1.1"/>
      <path class="cls-7" d="m214.36,62.86s.59,3.18.49,7.63c-.14,6.06-1.56,14.47-7.51,20.38"/>
      <path class="cls-7" d="m207.17,89.06s.02-.02.04-.06c.6-.85,6.94-10,7.63-18.5"/>
      <path class="cls-7" d="m212.94,70.49s-2.59,2.76-3.56,7.27c-.97,4.51.05,6.81-1.08,8.25"/>
      <path class="cls-7" d="m208.79,97.93s3.31-3.6,7.35-.83"/>
      <path class="cls-7" d="m214.86,98.62s-4.38,1.01-4.24,2.58c.14,1.58,3.2.42,1.84,2.92-.34.63-.68,1.17-1,1.65-.95,1.42-1.7,2.14-1.7,2.14"/>
      <path class="cls-7" d="m210.18,101.87s-.52,3.09,1.29,3.9"/>
      <path class="cls-7" d="m156.09,92.35s7.08-2,9.98,2.66"/>
      <path class="cls-7" d="m204.01,100.26s.83,19.21,1.67,23.85c.84,4.64-1.67,11.86-1.67,11.86"/>
      <path class="cls-7" d="m156.4,113.79s4.01,2.05,3.87,4.33"/>
      <path class="cls-7" d="m153.82,123.69h0c.09-.08,3.96-3.39,6.44-2.67,2.43.71,2.64,2.23,2.65,2.33h0s0,0,0,0"/>
      <path class="cls-7" d="m209.29,120.3s.02-.02.07-.07c.58-.55,4.74-4.35,7.75-2.12,1.76,1.3,2.32,2.17,2.45,2.69.12.44-.06.63-.06.63"/>
      <path class="cls-7" d="m193.19,226.35s.24.74.4,1.82c.16,1.07.48,3.05,0,4.18-.48,1.13-.96,2.31-.96,3.48s.38,1.39.27,2.14c-.03.19-.06.46-.09.75-.09.87-.18,1.98-.18,1.98,0,.05,0,2.95,2.35,3.21,2.13.24,8.66-.26,10.86-.08.43.03.85-.19,1.04-.57.3-.58.55-1.56.16-3.04-.05-.18-.1-.36-.16-.54-.73-2.35-1.98-4.09-2.58-5.03-.64-1.02-2.23-4.59-2.05-5.43"/>
      <path class="cls-7" d="m192.81,238.72h0c.07.05,2.55,1.82,6.57,1.29,4.07-.54,5.53.16,7.51-.32"/>
      <path class="cls-3" d="m163.93,229.49h0c-.02.06-.68,1.85-1.31,2.89-.64,1.05-1.5,1.89-2.47,3.3-.96,1.42-1.98,2.05-2.04,3.86"/>
      <path class="cls-7" d="m173.94,234.65c-.06-.61-.17-1.31-.34-2.04-.43-1.86,0-4.05,0-4.1h0"/>
      <path class="cls-3" d="m173.94,234.78c-.02.07-.58,2.63-1.97,3.21-1.41.58-1.68,1.98-1.68,1.98-1.45-.88-12.16-.75-12.16-.75-.74.77-.84,1.92-.79,2.79.04.65.53,1.16,1.14,1.17,2.78.02,10.31.88,10.31.88,0,0,.77.13,2.06-.72.71-.47,1.58-1.26,2.55-2.54.2-.26.3-.58.3-.92,0-.75.02-2.12.17-2.7.13-.5.16-1.34.07-2.39Z"/>
      <path class="cls-7" d="m170.84,242.51s.36-1.92-.56-3.09"/>
      <path class="cls-7" d="m196.06,36.86c.19-.98.82-1.79,1.08-2.96.3-1.35.21-2.1.21-2.1v-5.08c0-1.19-.5-2.13-.44-3.2.06-1.07,0-1.82,0-2.89s-1.44-1.19-1.82-1.75c-.38-.56-2.64-.63-2.82-.7-.19-.06-2.38.06-2.89.5-.5.44-2.06,0-2.06,0,0,0-2.34.19-3.15-.19-.82-.38-3.14-.69-4.46.69-1.32,1.38-1.13,2.13-1.19,3.89-.06,1.76-.38,1.69-.5,3.14-.12,1.44-.06,1.69-.31,3.07-.07.39-.09.78-.09,1.17,0,1.01.18,2,.09,2.72-.13,1,.23,3.26.23,3.26"/>
      <path class="cls-7" d="m175.82,28.79s1.7-1.05,1.79,1.67"/>
      <path class="cls-7" d="m197.35,31.79s.91-2.69,2.1-1.95"/>
      <path class="cls-7" d="m179.47,41.42s2.61,2.59,4.71,2.59,3.89.26,5.51-.45c1.62-.71,4.9-2.96,5.76-4.27"/>
    </g>
  </g>
  <line class="cls-5" y1="40.8" x2="245" y2="40.8"/>
  <line class="cls-5" y1="81.6" x2="245" y2="81.6"/>
  <line class="cls-5" y1="122.4" x2="245" y2="122.4"/>
  <line class="cls-5" y1="163.2" x2="245" y2="163.2"/>
  <line class="cls-5" y1="204" x2="245" y2="204"/>
  <line class="cls-8" y1="244.23" x2="245" y2="244.23"/>
</svg>