<svg width="34" height="59" viewBox="0 0 34 59" fill="none" xmlns="http://www.w3.org/2000/svg">
<g filter="url(#filter0_ddd_76_4500)">
<path d="M20.2197 51.8413C20.2197 53.5838 18.8069 55 17.0644 55C15.3219 55 13.9092 53.5873 13.9092 51.8413C13.9092 50.0953 15.3219 48.686 17.0644 48.686C18.8069 48.686 20.2197 50.0953 20.2197 51.8413Z" fill="#2B2D2D"/>
</g>
<path d="M17.0603 0C7.96251 0 0.589844 7.37614 0.589844 16.474C0.589844 20.1846 1.81515 23.6071 3.88394 26.3597L17.0013 43.8403L30.2402 26.3597C32.309 23.6071 33.5343 20.1846 33.5343 16.474C33.5343 7.37614 26.1616 0 17.0603 0ZM17.0603 30.3689C9.13922 30.3689 2.72111 23.9473 2.72111 16.0262C2.72111 8.10508 9.14269 1.6835 17.0603 1.6835C24.978 1.6835 31.4065 8.10508 31.4065 16.0262C31.4065 23.9473 24.9849 30.3689 17.0603 30.3689Z" fill="#80000B"/>
<circle cx="17.2563" cy="15.8335" r="15" fill="#80000B"/>
<defs>
<filter id="filter0_ddd_76_4500" x="12.2425" y="48.686" width="8.81055" height="9.6473" filterUnits="userSpaceOnUse" color-interpolation-filters="sRGB">
<feFlood flood-opacity="0" result="BackgroundImageFix"/>
<feColorMatrix in="SourceAlpha" type="matrix" values="0 0 0 0 0 0 0 0 0 0 0 0 0 0 0 0 0 0 127 0" result="hardAlpha"/>
<feOffset dy="0.833333"/>
<feGaussianBlur stdDeviation="0.416667"/>
<feColorMatrix type="matrix" values="0 0 0 0 0 0 0 0 0 0 0 0 0 0 0 0 0 0 0.17 0"/>
<feBlend mode="normal" in2="BackgroundImageFix" result="effect1_dropShadow_76_4500"/>
<feColorMatrix in="SourceAlpha" type="matrix" values="0 0 0 0 0 0 0 0 0 0 0 0 0 0 0 0 0 0 127 0" result="hardAlpha"/>
<feOffset dy="0.833333"/>
<feGaussianBlur stdDeviation="0.416667"/>
<feColorMatrix type="matrix" values="0 0 0 0 0 0 0 0 0 0 0 0 0 0 0 0 0 0 0.1 0"/>
<feBlend mode="normal" in2="effect1_dropShadow_76_4500" result="effect2_dropShadow_76_4500"/>
<feColorMatrix in="SourceAlpha" type="matrix" values="0 0 0 0 0 0 0 0 0 0 0 0 0 0 0 0 0 0 127 0" result="hardAlpha"/>
<feOffset dx="-0.833333" dy="2.5"/>
<feGaussianBlur stdDeviation="0.416667"/>
<feColorMatrix type="matrix" values="0 0 0 0 0 0 0 0 0 0 0 0 0 0 0 0 0 0 0.03 0"/>
<feBlend mode="normal" in2="effect2_dropShadow_76_4500" result="effect3_dropShadow_76_4500"/>
<feBlend mode="normal" in="SourceGraphic" in2="effect3_dropShadow_76_4500" result="shape"/>
</filter>
</defs>
</svg>
