<svg width="160" height="125" viewBox="0 0 160 125" fill="none" xmlns="http://www.w3.org/2000/svg">
<path d="M10.5586 116.425V21.3176C10.5586 16.8993 14.1403 13.3176 18.5586 13.3176H44.1685C46.5039 13.3176 48.7227 12.2971 50.2425 10.524L56.8685 2.79367C58.3883 1.0205 60.6071 0 62.9425 0H99.0886C101.568 0 103.908 1.15005 105.423 3.11357L110.893 10.2041C112.407 12.1676 114.747 13.3176 117.227 13.3176H141.442C145.861 13.3176 149.442 16.8994 149.442 21.3176V116.425C149.442 120.843 145.861 124.425 141.442 124.425H18.5586C14.1403 124.425 10.5586 120.843 10.5586 116.425Z" fill="#004F24"/>
<circle cx="80.1892" cy="68.8713" r="28.5378" stroke="#F7F7F7" stroke-width="14.4591"/>
</svg>
